SplineFontDB: 3.2
FontName: Minecraft-Regular
FullName: Minecraft Regular
FamilyName: Minecraft
Weight: Regular
Copyright: Made by Jejebecarte\nhttps://github.com/Jejebecarte/minecraft-text-canvas
UComments: "2024-7-11: Created with FontForge (http://fontforge.org)"
Version: 001.000
ItalicAngle: 0
UnderlinePosition: -0.8
UnderlineWidth: 0
Ascent: 7
Descent: 1
InvalidEm: 0
LayerCount: 2
Layer: 0 0 "Back" 1
Layer: 1 0 "Fore" 0
XUID: [1021 851 -1777821521 13848]
StyleMap: 0x0000
FSType: 0
OS2Version: 0
OS2_WeightWidthSlopeOnly: 0
OS2_UseTypoMetrics: 1
CreationTime: 1720667007
ModificationTime: 1720693818
OS2TypoAscent: 0
OS2TypoAOffset: 1
OS2TypoDescent: 0
OS2TypoDOffset: 1
OS2TypoLinegap: 1
OS2WinAscent: 0
OS2WinAOffset: 1
OS2WinDescent: 0
OS2WinDOffset: 1
HheadAscent: 0
HheadAOffset: 1
HheadDescent: 0
HheadDOffset: 1
MarkAttachClasses: 1
DEI: 91125
Encoding: UnicodeFull
Compacted: 1
UnicodeInterp: none
NameList: AGL For New Fonts
DisplaySize: -24
AntiAlias: 0
FitToEm: 0
WinInfo: 0 75 22
BeginPrivate: 0
EndPrivate
BeginChars: 1114112 3672

StartChar: glyph2448
Encoding: 66352 66352 2448
Width: 6
VWidth: 0
Flags: HMW
LayerCount: 2
Back
Fore
SplineSet
0 5.5 m 1
 0 6 l 1
 0.5 6 l 1
 1 6 l 1
 1 5.5 l 1
 1 5 l 1
 0.5 5 l 1
 0 5 l 1
 0 5.5 l 1
1 4 m 1
 1 4.5 l 1
 1 5 l 1
 1.5 5 l 1
 2 5 l 1
 2 4.5 l 1
 2 4 l 1
 1.5 4 l 1
 1 4 l 1
1 4 m 1
 1 1.5 l 1
 1 -1 l 1
 0.5 -1 l 1
 0 -1 l 1
 0 1.5 l 1
 0 4 l 1
 0.5 4 l 1
 1 4 l 1
4 1 m 1
 3.5 1 l 1
 3 1 l 1
 3 2 l 1
 3 3 l 1
 2.5 3 l 1
 2 3 l 1
 2 3.5 l 1
 2 4 l 1
 2.5 4 l 1
 3 4 l 1
 3 3.5 l 1
 3 3 l 1
 3.5 3 l 1
 4 3 l 1
 4 2 l 1
 4 1 l 1
4 1 m 1
 4.5 1 l 1
 5 1 l 1
 5 0.5 l 1
 5 -0 l 1
 4.5 -0 l 1
 4 -0 l 1
 4 0.5 l 1
 4 1 l 1
EndSplineSet
EndChar

StartChar: glyph2449
Encoding: 66353 66353 2449
Width: 6
VWidth: 0
Flags: HMW
LayerCount: 2
Back
Fore
SplineSet
0 3 m 1
 0 6 l 1
 2.5 6 l 1
 5 6 l 1
 5 5.5 l 1
 5 5 l 1
 3 5 l 1
 1 5 l 1
 1 2.5 l 1
 1 -0 l 1
 0.5 -0 l 1
 0 -0 l 1
 0 3 l 1
EndSplineSet
EndChar

StartChar: glyph2450
Encoding: 66354 66354 2450
Width: 6
VWidth: 0
Flags: HMW
LayerCount: 2
Back
Fore
SplineSet
1 5.5 m 1
 1 6 l 1
 2.5 6 l 1
 4 6 l 1
 4 5.5 l 1
 4 5 l 1
 2.5 5 l 1
 1 5 l 1
 1 5.5 l 1
4 1 m 1
 4 0.5 l 1
 4 -0 l 1
 2.5 -0 l 1
 1 -0 l 1
 1 0.5 l 1
 1 1 l 1
 0.5 1 l 1
 0 1 l 1
 0 3 l 1
 0 5 l 1
 0.5 5 l 1
 1 5 l 1
 1 4.5 l 1
 1 4 l 1
 2 4 l 1
 3 4 l 1
 3 3.5 l 1
 3 3 l 1
 2 3 l 1
 1 3 l 1
 1 2 l 1
 1 1 l 1
 2.5 1 l 1
 4 1 l 1
4 1 m 1
 4 1.5 l 1
 4 2 l 1
 4.5 2 l 1
 5 2 l 1
 5 1.5 l 1
 5 1 l 1
 4.5 1 l 1
 4 1 l 1
4 5 m 1
 4.5 5 l 1
 5 5 l 1
 5 4.5 l 1
 5 4 l 1
 4.5 4 l 1
 4 4 l 1
 4 4.5 l 1
 4 5 l 1
EndSplineSet
EndChar

StartChar: glyph2451
Encoding: 66355 66355 2451
Width: 6
VWidth: 0
Flags: HMW
LayerCount: 2
Back
Fore
SplineSet
0 5.5 m 1
 0 6 l 1
 2.5 6 l 1
 5 6 l 1
 5 5 l 1
 5 4 l 1
 4.5 4 l 1
 4 4 l 1
 4 4.5 l 1
 4 5 l 1
 2 5 l 1
 0 5 l 1
 0 5.5 l 1
1 2 m 1
 1 2.5 l 1
 1 3 l 1
 1.5 3 l 1
 2 3 l 1
 2 3.5 l 1
 2 4 l 1
 3 4 l 1
 4 4 l 1
 4 3.5 l 1
 4 3 l 1
 3 3 l 1
 2 3 l 1
 2 2.5 l 1
 2 2 l 1
 1.5 2 l 1
 1 2 l 1
1 2 m 1
 1 1.5 l 1
 1 1 l 1
 3 1 l 1
 5 1 l 1
 5 0.5 l 1
 5 -0 l 1
 2.5 -0 l 1
 0 -0 l 1
 0 1 l 1
 0 2 l 1
 0.5 2 l 1
 1 2 l 1
EndSplineSet
EndChar

StartChar: glyph2452
Encoding: 66356 66356 2452
Width: 6
VWidth: 0
Flags: HMW
LayerCount: 2
Back
Fore
SplineSet
2 4.5 m 1
 2 7 l 1
 2.5 7 l 1
 3 7 l 1
 3 4.5 l 1
 3 2 l 1
 3.5 2 l 1
 4 2 l 1
 4 1.5 l 1
 4 1 l 1
 3.5 1 l 1
 3 1 l 1
 3 -0 l 1
 3 -1 l 1
 2.5 -1 l 1
 2 -1 l 1
 2 -0 l 1
 2 1 l 1
 1.5 1 l 1
 1 1 l 1
 1 1.5 l 1
 1 2 l 1
 1.5 2 l 1
 2 2 l 1
 2 4.5 l 1
1 2 m 1
 0.5 2 l 1
 0 2 l 1
 0 4 l 1
 0 6 l 1
 0.5 6 l 1
 1 6 l 1
 1 4 l 1
 1 2 l 1
4 2 m 1
 4 4 l 1
 4 6 l 1
 4.5 6 l 1
 5 6 l 1
 5 4 l 1
 5 2 l 1
 4.5 2 l 1
 4 2 l 1
EndSplineSet
EndChar

StartChar: glyph2453
Encoding: 66357 66357 2453
Width: 6
VWidth: 0
Flags: HMW
LayerCount: 2
Back
Fore
SplineSet
0 3 m 1
 0 6 l 1
 0.5 6 l 1
 1 6 l 1
 1 5 l 1
 1 4 l 1
 2 4 l 1
 3 4 l 1
 3 3 l 1
 3 2 l 1
 2.5 2 l 1
 2 2 l 1
 2 2.5 l 1
 2 3 l 1
 1.5 3 l 1
 1 3 l 1
 1 1.5 l 1
 1 -0 l 1
 0.5 -0 l 1
 0 -0 l 1
 0 3 l 1
4 1 m 1
 3.5 1 l 1
 3 1 l 1
 3 1.5 l 1
 3 2 l 1
 3.5 2 l 1
 4 2 l 1
 4 1.5 l 1
 4 1 l 1
4 1 m 1
 4.5 1 l 1
 5 1 l 1
 5 0.5 l 1
 5 -0 l 1
 4.5 -0 l 1
 4 -0 l 1
 4 0.5 l 1
 4 1 l 1
3 4 m 1
 3 5 l 1
 3 6 l 1
 3.5 6 l 1
 4 6 l 1
 4 5 l 1
 4 4 l 1
 3.5 4 l 1
 3 4 l 1
EndSplineSet
EndChar

StartChar: glyph2454
Encoding: 66358 66358 2454
Width: 6
VWidth: 0
Flags: HMW
LayerCount: 2
Back
Fore
SplineSet
0 3 m 1
 0 6 l 1
 0.5 6 l 1
 1 6 l 1
 1 5.5 l 1
 1 5 l 1
 1.5 5 l 1
 2 5 l 1
 2 4.5 l 1
 2 4 l 1
 1.5 4 l 1
 1 4 l 1
 1 2 l 1
 1 -0 l 1
 0.5 -0 l 1
 0 -0 l 1
 0 3 l 1
3 4 m 1
 3 3.5 l 1
 3 3 l 1
 2.5 3 l 1
 2 3 l 1
 2 3.5 l 1
 2 4 l 1
 2.5 4 l 1
 3 4 l 1
3 4 m 1
 3 4.5 l 1
 3 5 l 1
 3.5 5 l 1
 4 5 l 1
 4 5.5 l 1
 4 6 l 1
 4.5 6 l 1
 5 6 l 1
 5 3 l 1
 5 -0 l 1
 4.5 -0 l 1
 4 -0 l 1
 4 2 l 1
 4 4 l 1
 3.5 4 l 1
 3 4 l 1
EndSplineSet
EndChar

StartChar: glyph2455
Encoding: 66366 66366 2455
Width: 6
VWidth: 0
Flags: HMW
LayerCount: 2
Back
Fore
SplineSet
1 5.5 m 1
 1 6 l 1
 2.5 6 l 1
 4 6 l 1
 4 5.5 l 1
 4 5 l 1
 2.5 5 l 1
 1 5 l 1
 1 5.5 l 1
1 1 m 1
 0.5 1 l 1
 0 1 l 1
 0 3 l 1
 0 5 l 1
 0.5 5 l 1
 1 5 l 1
 1 3 l 1
 1 1 l 1
1 1 m 1
 2.5 1 l 1
 4 1 l 1
 4 1.5 l 1
 4 2 l 1
 4.5 2 l 1
 5 2 l 1
 5 0.5 l 1
 5 -1 l 1
 4.5 -1 l 1
 4 -1 l 1
 4 -0.5 l 1
 4 -0 l 1
 2.5 -0 l 1
 1 -0 l 1
 1 0.5 l 1
 1 1 l 1
4 5 m 1
 4.5 5 l 1
 5 5 l 1
 5 4.5 l 1
 5 4 l 1
 4.5 4 l 1
 4 4 l 1
 4 4.5 l 1
 4 5 l 1
EndSplineSet
EndChar

StartChar: glyph2456
Encoding: 66367 66367 2456
Width: 6
VWidth: 0
Flags: HMW
LayerCount: 2
Back
Fore
SplineSet
0 3 m 1
 0 6 l 1
 2.5 6 l 1
 5 6 l 1
 5 3 l 1
 5 -0 l 1
 4.5 -0 l 1
 4 -0 l 1
 4 2.5 l 1
 4 5 l 1
 2.5 5 l 1
 1 5 l 1
 1 2.5 l 1
 1 -0 l 1
 0.5 -0 l 1
 0 -0 l 1
 0 3 l 1
EndSplineSet
EndChar

StartChar: glyph2457
Encoding: 66368 66368 2457
Width: 6
VWidth: 0
Flags: HMW
LayerCount: 2
Back
Fore
SplineSet
0 2.5 m 1
 0 6 l 1
 0.5 6 l 1
 1 6 l 1
 1 5 l 1
 1 4 l 1
 2 4 l 1
 3 4 l 1
 3 3 l 1
 3 2 l 1
 2.5 2 l 1
 2 2 l 1
 2 2.5 l 1
 2 3 l 1
 1.5 3 l 1
 1 3 l 1
 1 1 l 1
 1 -1 l 1
 0.5 -1 l 1
 0 -1 l 1
 0 2.5 l 1
4 1 m 1
 3.5 1 l 1
 3 1 l 1
 3 1.5 l 1
 3 2 l 1
 3.5 2 l 1
 4 2 l 1
 4 1.5 l 1
 4 1 l 1
4 1 m 1
 4.5 1 l 1
 5 1 l 1
 5 0.5 l 1
 5 -0 l 1
 4.5 -0 l 1
 4 -0 l 1
 4 0.5 l 1
 4 1 l 1
3 4 m 1
 3 5 l 1
 3 6 l 1
 3.5 6 l 1
 4 6 l 1
 4 5 l 1
 4 4 l 1
 3.5 4 l 1
 3 4 l 1
EndSplineSet
EndChar

StartChar: glyph2458
Encoding: 66369 66369 2458
Width: 6
VWidth: 0
Flags: HMW
LayerCount: 2
Back
Fore
SplineSet
0 5.5 m 1
 0 6 l 1
 2.5 6 l 1
 5 6 l 1
 5 5.5 l 1
 5 5 l 1
 4 5 l 1
 3 5 l 1
 3 2.5 l 1
 3 -0 l 1
 2.5 -0 l 1
 2 -0 l 1
 2 2.5 l 1
 2 5 l 1
 1 5 l 1
 0 5 l 1
 0 5.5 l 1
EndSplineSet
EndChar

StartChar: glyph2459
Encoding: 66370 66370 2459
Width: 6
VWidth: 0
Flags: HMW
LayerCount: 2
Back
Fore
SplineSet
0 3 m 1
 0 7 l 1
 0.5 7 l 1
 1 7 l 1
 1 6.5 l 1
 1 6 l 1
 3 6 l 1
 5 6 l 1
 5 5.5 l 1
 5 5 l 1
 3 5 l 1
 1 5 l 1
 1 3.5 l 1
 1 2 l 1
 3 2 l 1
 5 2 l 1
 5 1.5 l 1
 5 1 l 1
 3 1 l 1
 1 1 l 1
 1 -0 l 1
 1 -1 l 1
 0.5 -1 l 1
 0 -1 l 1
 0 3 l 1
EndSplineSet
EndChar

StartChar: glyph2460
Encoding: 66371 66371 2460
Width: 6
VWidth: 0
Flags: HMW
LayerCount: 2
Back
Fore
SplineSet
1 5.5 m 1
 1 6 l 1
 2.5 6 l 1
 4 6 l 1
 4 5.5 l 1
 4 5 l 1
 2.5 5 l 1
 1 5 l 1
 1 3 l 1
 1 1 l 1
 2.5 1 l 1
 4 1 l 1
 4 3 l 1
 4 5 l 1
 4.5 5 l 1
 5 5 l 1
 5 3 l 1
 5 1 l 1
 4.5 1 l 1
 4 1 l 1
 4 0.5 l 1
 4 -0 l 1
 2.5 -0 l 1
 1 -0 l 1
 1 0.5 l 1
 1 1 l 1
 0.5 1 l 1
 0 1 l 1
 0 3 l 1
 0 5 l 1
 0.5 5 l 1
 1 5 l 1
 1 5.5 l 1
2 3 m 1
 2 4 l 1
 2.5 4 l 1
 3 4 l 1
 3 3 l 1
 3 2 l 1
 2.5 2 l 1
 2 2 l 1
 2 3 l 1
EndSplineSet
EndChar

StartChar: glyph2461
Encoding: 66372 66372 2461
Width: 6
VWidth: 0
Flags: HMW
LayerCount: 2
Back
Fore
SplineSet
2 5.5 m 1
 2 6 l 1
 2.5 6 l 1
 3 6 l 1
 3 5.5 l 1
 3 5 l 1
 3.5 5 l 1
 4 5 l 1
 4 4.5 l 1
 4 4 l 1
 3.5 4 l 1
 3 4 l 1
 3 1.5 l 1
 3 -1 l 1
 2.5 -1 l 1
 2 -1 l 1
 2 1.5 l 1
 2 4 l 1
 1.5 4 l 1
 1 4 l 1
 1 4.5 l 1
 1 5 l 1
 1.5 5 l 1
 2 5 l 1
 2 5.5 l 1
1 4 m 1
 1 3.5 l 1
 1 3 l 1
 0.5 3 l 1
 0 3 l 1
 0 3.5 l 1
 0 4 l 1
 0.5 4 l 1
 1 4 l 1
4 4 m 1
 4.5 4 l 1
 5 4 l 1
 5 3.5 l 1
 5 3 l 1
 4.5 3 l 1
 4 3 l 1
 4 3.5 l 1
 4 4 l 1
EndSplineSet
EndChar

StartChar: glyph2462
Encoding: 66373 66373 2462
Width: 7
VWidth: 0
Flags: HMW
LayerCount: 2
Back
Fore
SplineSet
4 3.5 m 1
 4 4 l 1
 3.5 4 l 1
 3 4 l 1
 3 3 l 1
 3 2 l 1
 2.5 2 l 1
 2 2 l 1
 2 1.5 l 1
 2 1 l 1
 3 1 l 1
 4 1 l 1
 4 1.5 l 1
 4 2 l 1
 4.5 2 l 1
 5 2 l 1
 5 2.5 l 1
 5 3 l 1
 4.5 3 l 1
 4 3 l 1
 4 3.5 l 1
3 6.5 m 1
 3 7 l 1
 3.5 7 l 1
 4 7 l 1
 4 6 l 1
 4 5 l 1
 5 5 l 1
 6 5 l 1
 6 3 l 1
 6 1 l 1
 5.5 1 l 1
 5 1 l 1
 5 0.5 l 1
 5 -0 l 1
 3 -0 l 1
 1 -0 l 1
 1 0.5 l 1
 1 1 l 1
 0.5 1 l 1
 0 1 l 1
 0 2.5 l 1
 0 4 l 1
 1 4 l 1
 2 4 l 1
 2 5 l 1
 2 6 l 1
 2.5 6 l 1
 3 6 l 1
 3 6.5 l 1
5 6.5 m 1
 5 7 l 1
 5.5 7 l 1
 6 7 l 1
 6 6.5 l 1
 6 6 l 1
 5.5 6 l 1
 5 6 l 1
 5 6.5 l 1
0 5.5 m 1
 0 6 l 1
 0.5 6 l 1
 1 6 l 1
 1 5.5 l 1
 1 5 l 1
 0.5 5 l 1
 0 5 l 1
 0 5.5 l 1
2 2 m 1
 2 2.5 l 1
 2 3 l 1
 1.5 3 l 1
 1 3 l 1
 1 2.5 l 1
 1 2 l 1
 1.5 2 l 1
 2 2 l 1
EndSplineSet
EndChar

StartChar: glyph2463
Encoding: 4256 4256 2463
Width: 6
VWidth: 0
Flags: HMW
LayerCount: 2
Back
Fore
SplineSet
0 6.5 m 1
 0 7 l 1
 2.5 7 l 1
 5 7 l 1
 5 6.5 l 1
 5 6 l 1
 3.5 6 l 1
 2 6 l 1
 2 5.5 l 1
 2 5 l 1
 1.5 5 l 1
 1 5 l 1
 1 5.5 l 1
 1 6 l 1
 0.5 6 l 1
 0 6 l 1
 0 6.5 l 1
4 1 m 1
 4 0.5 l 1
 4 -0 l 1
 2.5 -0 l 1
 1 -0 l 1
 1 0.5 l 1
 1 1 l 1
 0.5 1 l 1
 0 1 l 1
 0 3 l 1
 0 5 l 1
 0.5 5 l 1
 1 5 l 1
 1 3 l 1
 1 1 l 1
 2.5 1 l 1
 4 1 l 1
4 1 m 1
 4 1.5 l 1
 4 2 l 1
 4.5 2 l 1
 5 2 l 1
 5 1.5 l 1
 5 1 l 1
 4.5 1 l 1
 4 1 l 1
EndSplineSet
EndChar

StartChar: glyph2464
Encoding: 4257 4257 2464
Width: 8
VWidth: 0
Flags: HMW
LayerCount: 2
Back
Fore
SplineSet
1 6.5 m 1
 1 7 l 1
 1.5 7 l 1
 2 7 l 1
 2 6.5 l 1
 2 6 l 1
 1.5 6 l 1
 1 6 l 1
 1 6.5 l 1
1 4 m 1
 0.5 4 l 1
 0 4 l 1
 0 5 l 1
 0 6 l 1
 0.5 6 l 1
 1 6 l 1
 1 5 l 1
 1 4 l 1
1 4 m 1
 2.5 4 l 1
 4 4 l 1
 4 5.5 l 1
 4 7 l 1
 4.5 7 l 1
 5 7 l 1
 5 4 l 1
 5 1 l 1
 6 1 l 1
 7 1 l 1
 7 0.5 l 1
 7 -0 l 1
 5.5 -0 l 1
 4 -0 l 1
 4 1.5 l 1
 4 3 l 1
 2.5 3 l 1
 1 3 l 1
 1 3.5 l 1
 1 4 l 1
EndSplineSet
EndChar

StartChar: glyph2465
Encoding: 4258 4258 2465
Width: 8
VWidth: 0
Flags: HMW
LayerCount: 2
Back
Fore
SplineSet
0 6 m 1
 0 7 l 1
 2.5 7 l 1
 5 7 l 1
 5 4 l 1
 5 1 l 1
 6 1 l 1
 7 1 l 1
 7 0.5 l 1
 7 -0 l 1
 5.5 -0 l 1
 4 -0 l 1
 4 3 l 1
 4 6 l 1
 2.5 6 l 1
 1 6 l 1
 1 5.5 l 1
 1 5 l 1
 0.5 5 l 1
 0 5 l 1
 0 6 l 1
EndSplineSet
EndChar

StartChar: glyph2466
Encoding: 4259 4259 2466
Width: 6
VWidth: 0
Flags: HMW
LayerCount: 2
Back
Fore
SplineSet
0 6.5 m 1
 0 7 l 1
 2.5 7 l 1
 5 7 l 1
 5 6.5 l 1
 5 6 l 1
 4 6 l 1
 3 6 l 1
 3 5.5 l 1
 3 5 l 1
 3.5 5 l 1
 4 5 l 1
 4 4.5 l 1
 4 4 l 1
 2.5 4 l 1
 1 4 l 1
 1 2.5 l 1
 1 1 l 1
 2.5 1 l 1
 4 1 l 1
 4 2.5 l 1
 4 4 l 1
 4.5 4 l 1
 5 4 l 1
 5 2.5 l 1
 5 1 l 1
 4.5 1 l 1
 4 1 l 1
 4 0.5 l 1
 4 -0 l 1
 2.5 -0 l 1
 1 -0 l 1
 1 0.5 l 1
 1 1 l 1
 0.5 1 l 1
 0 1 l 1
 0 2.5 l 1
 0 4 l 1
 0.5 4 l 1
 1 4 l 1
 1 4.5 l 1
 1 5 l 1
 1.5 5 l 1
 2 5 l 1
 2 5.5 l 1
 2 6 l 1
 1 6 l 1
 0 6 l 1
 0 6.5 l 1
EndSplineSet
EndChar

StartChar: glyph2467
Encoding: 4260 4260 2467
Width: 6
VWidth: 0
Flags: HMW
LayerCount: 2
Back
Fore
SplineSet
0 6 m 1
 0 7 l 1
 2.5 7 l 1
 5 7 l 1
 5 3.5 l 1
 5 -0 l 1
 4.5 -0 l 1
 4 -0 l 1
 4 3 l 1
 4 6 l 1
 2.5 6 l 1
 1 6 l 1
 1 5.5 l 1
 1 5 l 1
 0.5 5 l 1
 0 5 l 1
 0 6 l 1
EndSplineSet
EndChar

StartChar: glyph2468
Encoding: 4261 4261 2468
Width: 8
VWidth: 0
Flags: HMW
LayerCount: 2
Back
Fore
SplineSet
0 6 m 1
 0 7 l 1
 2.5 7 l 1
 5 7 l 1
 5 6 l 1
 5 5 l 1
 6 5 l 1
 7 5 l 1
 7 4 l 1
 7 3 l 1
 6.5 3 l 1
 6 3 l 1
 6 3.5 l 1
 6 4 l 1
 5.5 4 l 1
 5 4 l 1
 5 2 l 1
 5 -0 l 1
 4.5 -0 l 1
 4 -0 l 1
 4 3 l 1
 4 6 l 1
 2.5 6 l 1
 1 6 l 1
 1 5.5 l 1
 1 5 l 1
 0.5 5 l 1
 0 5 l 1
 0 6 l 1
EndSplineSet
EndChar

StartChar: glyph2469
Encoding: 4262 4262 2469
Width: 8
VWidth: 0
Flags: HMW
LayerCount: 2
Back
Fore
SplineSet
0 6.5 m 1
 0 7 l 1
 1.5 7 l 1
 3 7 l 1
 3 5.5 l 1
 3 4 l 1
 3.5 4 l 1
 4 4 l 1
 4 3.5 l 1
 4 3 l 1
 3.5 3 l 1
 3 3 l 1
 3 2 l 1
 3 1 l 1
 4.5 1 l 1
 6 1 l 1
 6 2.5 l 1
 6 4 l 1
 5 4 l 1
 4 4 l 1
 4 4.5 l 1
 4 5 l 1
 5 5 l 1
 6 5 l 1
 6 4.5 l 1
 6 4 l 1
 6.5 4 l 1
 7 4 l 1
 7 2.5 l 1
 7 1 l 1
 6.5 1 l 1
 6 1 l 1
 6 0.5 l 1
 6 -0 l 1
 4.5 -0 l 1
 3 -0 l 1
 3 0.5 l 1
 3 1 l 1
 2.5 1 l 1
 2 1 l 1
 2 3.5 l 1
 2 6 l 1
 1 6 l 1
 0 6 l 1
 0 6.5 l 1
EndSplineSet
EndChar

StartChar: glyph2470
Encoding: 4263 4263 2470
Width: 8
VWidth: 0
Flags: HMW
LayerCount: 2
Back
Fore
SplineSet
4 3.5 m 1
 4 6 l 1
 2.5 6 l 1
 1 6 l 1
 1 3.5 l 1
 1 1 l 1
 2.5 1 l 1
 4 1 l 1
 4 3.5 l 1
1 6.5 m 1
 1 7 l 1
 3 7 l 1
 5 7 l 1
 5 6 l 1
 5 5 l 1
 6 5 l 1
 7 5 l 1
 7 4 l 1
 7 3 l 1
 6.5 3 l 1
 6 3 l 1
 6 3.5 l 1
 6 4 l 1
 5.5 4 l 1
 5 4 l 1
 5 2 l 1
 5 -0 l 1
 3 -0 l 1
 1 -0 l 1
 1 0.5 l 1
 1 1 l 1
 0.5 1 l 1
 0 1 l 1
 0 3.5 l 1
 0 6 l 1
 0.5 6 l 1
 1 6 l 1
 1 6.5 l 1
EndSplineSet
EndChar

StartChar: glyph2471
Encoding: 4264 4264 2471
Width: 6
VWidth: 0
Flags: HMW
LayerCount: 2
Back
Fore
SplineSet
0 6.5 m 1
 0 7 l 1
 2.5 7 l 1
 5 7 l 1
 5 3.5 l 1
 5 -0 l 1
 4.5 -0 l 1
 4 -0 l 1
 4 3 l 1
 4 6 l 1
 2 6 l 1
 0 6 l 1
 0 6.5 l 1
EndSplineSet
EndChar

StartChar: glyph2472
Encoding: 4265 4265 2472
Width: 6
VWidth: 0
Flags: HMW
LayerCount: 2
Back
Fore
SplineSet
0 4.5 m 1
 0 7 l 1
 0.5 7 l 1
 1 7 l 1
 1 6.5 l 1
 1 6 l 1
 2.5 6 l 1
 4 6 l 1
 4 5.5 l 1
 4 5 l 1
 2.5 5 l 1
 1 5 l 1
 1 3.5 l 1
 1 2 l 1
 2.5 2 l 1
 4 2 l 1
 4 3.5 l 1
 4 5 l 1
 4.5 5 l 1
 5 5 l 1
 5 2.5 l 1
 5 -0 l 1
 4.5 -0 l 1
 4 -0 l 1
 4 0.5 l 1
 4 1 l 1
 2.5 1 l 1
 1 1 l 1
 1 1.5 l 1
 1 2 l 1
 0.5 2 l 1
 0 2 l 1
 0 4.5 l 1
EndSplineSet
EndChar

StartChar: glyph2473
Encoding: 4266 4266 2473
Width: 8
VWidth: 0
Flags: HMW
LayerCount: 2
Back
Fore
SplineSet
0 6 m 1
 0 7 l 1
 1.5 7 l 1
 3 7 l 1
 3 5.5 l 1
 3 4 l 1
 3.5 4 l 1
 4 4 l 1
 4 3.5 l 1
 4 3 l 1
 3.5 3 l 1
 3 3 l 1
 3 2 l 1
 3 1 l 1
 4.5 1 l 1
 6 1 l 1
 6 2.5 l 1
 6 4 l 1
 5 4 l 1
 4 4 l 1
 4 4.5 l 1
 4 5 l 1
 5 5 l 1
 6 5 l 1
 6 4.5 l 1
 6 4 l 1
 6.5 4 l 1
 7 4 l 1
 7 2.5 l 1
 7 1 l 1
 6.5 1 l 1
 6 1 l 1
 6 0.5 l 1
 6 -0 l 1
 4.5 -0 l 1
 3 -0 l 1
 3 0.5 l 1
 3 1 l 1
 2.5 1 l 1
 2 1 l 1
 2 3.5 l 1
 2 6 l 1
 1.5 6 l 1
 1 6 l 1
 1 5.5 l 1
 1 5 l 1
 0.5 5 l 1
 0 5 l 1
 0 6 l 1
EndSplineSet
EndChar

StartChar: glyph2474
Encoding: 4267 4267 2474
Width: 7
VWidth: 0
Flags: HMW
LayerCount: 2
Back
Fore
SplineSet
4 2.5 m 1
 4 4 l 1
 2.5 4 l 1
 1 4 l 1
 1 2.5 l 1
 1 1 l 1
 2.5 1 l 1
 4 1 l 1
 4 2.5 l 1
0 6.5 m 1
 0 7 l 1
 2.5 7 l 1
 5 7 l 1
 5 6 l 1
 5 5 l 1
 5.5 5 l 1
 6 5 l 1
 6 4.5 l 1
 6 4 l 1
 5.5 4 l 1
 5 4 l 1
 5 2.5 l 1
 5 1 l 1
 4.5 1 l 1
 4 1 l 1
 4 0.5 l 1
 4 -0 l 1
 2.5 -0 l 1
 1 -0 l 1
 1 0.5 l 1
 1 1 l 1
 0.5 1 l 1
 0 1 l 1
 0 2.5 l 1
 0 4 l 1
 0.5 4 l 1
 1 4 l 1
 1 4.5 l 1
 1 5 l 1
 2.5 5 l 1
 4 5 l 1
 4 5.5 l 1
 4 6 l 1
 2 6 l 1
 0 6 l 1
 0 6.5 l 1
EndSplineSet
EndChar

StartChar: glyph2475
Encoding: 4268 4268 2475
Width: 6
VWidth: 0
Flags: HMW
LayerCount: 2
Back
Fore
SplineSet
0 3.5 m 1
 0 7 l 1
 2.5 7 l 1
 5 7 l 1
 5 6.5 l 1
 5 6 l 1
 3 6 l 1
 1 6 l 1
 1 5.5 l 1
 1 5 l 1
 2.5 5 l 1
 4 5 l 1
 4 4.5 l 1
 4 4 l 1
 2.5 4 l 1
 1 4 l 1
 1 2 l 1
 1 -0 l 1
 0.5 -0 l 1
 0 -0 l 1
 0 3.5 l 1
4 4 m 1
 4.5 4 l 1
 5 4 l 1
 5 2 l 1
 5 -0 l 1
 4.5 -0 l 1
 4 -0 l 1
 4 2 l 1
 4 4 l 1
EndSplineSet
EndChar

StartChar: glyph2476
Encoding: 4269 4269 2476
Width: 8
VWidth: 0
Flags: HMW
LayerCount: 2
Back
Fore
SplineSet
1 6.5 m 1
 1 7 l 1
 2.5 7 l 1
 4 7 l 1
 4 6.5 l 1
 4 6 l 1
 2.5 6 l 1
 1 6 l 1
 1 3.5 l 1
 1 1 l 1
 2 1 l 1
 3 1 l 1
 3 1.5 l 1
 3 2 l 1
 3.5 2 l 1
 4 2 l 1
 4 4 l 1
 4 6 l 1
 4.5 6 l 1
 5 6 l 1
 5 4 l 1
 5 2 l 1
 4.5 2 l 1
 4 2 l 1
 4 1.5 l 1
 4 1 l 1
 3.5 1 l 1
 3 1 l 1
 3 0.5 l 1
 3 -0 l 1
 2 -0 l 1
 1 -0 l 1
 1 0.5 l 1
 1 1 l 1
 0.5 1 l 1
 0 1 l 1
 0 3.5 l 1
 0 6 l 1
 0.5 6 l 1
 1 6 l 1
 1 6.5 l 1
6 1 m 1
 6 0.5 l 1
 6 -0 l 1
 5 -0 l 1
 4 -0 l 1
 4 0.5 l 1
 4 1 l 1
 5 1 l 1
 6 1 l 1
6 1 m 1
 6 1.5 l 1
 6 2 l 1
 6.5 2 l 1
 7 2 l 1
 7 1.5 l 1
 7 1 l 1
 6.5 1 l 1
 6 1 l 1
EndSplineSet
EndChar

StartChar: glyph2477
Encoding: 4270 4270 2477
Width: 8
VWidth: 0
Flags: HMW
LayerCount: 2
Back
Fore
SplineSet
0 6.5 m 1
 0 7 l 1
 1.5 7 l 1
 3 7 l 1
 3 4 l 1
 3 1 l 1
 2.5 1 l 1
 2 1 l 1
 2 3.5 l 1
 2 6 l 1
 1 6 l 1
 0 6 l 1
 0 6.5 l 1
6 1 m 1
 6 0.5 l 1
 6 -0 l 1
 4.5 -0 l 1
 3 -0 l 1
 3 0.5 l 1
 3 1 l 1
 4.5 1 l 1
 6 1 l 1
6 1 m 1
 6 4 l 1
 6 7 l 1
 6.5 7 l 1
 7 7 l 1
 7 4 l 1
 7 1 l 1
 6.5 1 l 1
 6 1 l 1
EndSplineSet
EndChar

StartChar: glyph2478
Encoding: 4271 4271 2478
Width: 7
VWidth: 0
Flags: HMW
LayerCount: 2
Back
Fore
SplineSet
0 6.5 m 1
 0 7 l 1
 1 7 l 1
 2 7 l 1
 2 5.5 l 1
 2 4 l 1
 1.5 4 l 1
 1 4 l 1
 1 5 l 1
 1 6 l 1
 0.5 6 l 1
 0 6 l 1
 0 6.5 l 1
2 4 m 1
 3.5 4 l 1
 5 4 l 1
 5 5.5 l 1
 5 7 l 1
 5.5 7 l 1
 6 7 l 1
 6 3.5 l 1
 6 -0 l 1
 5.5 -0 l 1
 5 -0 l 1
 5 1.5 l 1
 5 3 l 1
 3.5 3 l 1
 2 3 l 1
 2 3.5 l 1
 2 4 l 1
EndSplineSet
EndChar

StartChar: glyph2479
Encoding: 4272 4272 2479
Width: 8
VWidth: 0
Flags: HMW
LayerCount: 2
Back
Fore
SplineSet
4 4 m 1
 4 7 l 1
 4.5 7 l 1
 5 7 l 1
 5 6 l 1
 5 5 l 1
 6 5 l 1
 7 5 l 1
 7 4 l 1
 7 3 l 1
 6.5 3 l 1
 6 3 l 1
 6 3.5 l 1
 6 4 l 1
 5.5 4 l 1
 5 4 l 1
 5 2.5 l 1
 5 1 l 1
 4.5 1 l 1
 4 1 l 1
 4 4 l 1
1 1 m 1
 2.5 1 l 1
 4 1 l 1
 4 0.5 l 1
 4 -0 l 1
 2.5 -0 l 1
 1 -0 l 1
 1 0.5 l 1
 1 1 l 1
1 1 m 1
 0.5 1 l 1
 0 1 l 1
 0 2 l 1
 0 3 l 1
 0.5 3 l 1
 1 3 l 1
 1 2 l 1
 1 1 l 1
EndSplineSet
EndChar

StartChar: glyph2480
Encoding: 4273 4273 2480
Width: 6
VWidth: 0
Flags: HMW
LayerCount: 2
Back
Fore
SplineSet
0 4 m 1
 0 7 l 1
 0.5 7 l 1
 1 7 l 1
 1 4 l 1
 1 1 l 1
 0.5 1 l 1
 0 1 l 1
 0 4 l 1
4 1 m 1
 4 0.5 l 1
 4 -0 l 1
 2.5 -0 l 1
 1 -0 l 1
 1 0.5 l 1
 1 1 l 1
 2.5 1 l 1
 4 1 l 1
4 1 m 1
 4 2 l 1
 4 3 l 1
 4.5 3 l 1
 5 3 l 1
 5 2 l 1
 5 1 l 1
 4.5 1 l 1
 4 1 l 1
EndSplineSet
EndChar

StartChar: glyph2481
Encoding: 4274 4274 2481
Width: 6
VWidth: 0
Flags: HMW
LayerCount: 2
Back
Fore
SplineSet
0 3.5 m 1
 0 7 l 1
 2 7 l 1
 4 7 l 1
 4 6.5 l 1
 4 6 l 1
 2.5 6 l 1
 1 6 l 1
 1 5.5 l 1
 1 5 l 1
 2.5 5 l 1
 4 5 l 1
 4 5.5 l 1
 4 6 l 1
 4.5 6 l 1
 5 6 l 1
 5 5.5 l 1
 5 5 l 1
 4.5 5 l 1
 4 5 l 1
 4 4.5 l 1
 4 4 l 1
 2.5 4 l 1
 1 4 l 1
 1 2.5 l 1
 1 1 l 1
 3 1 l 1
 5 1 l 1
 5 0.5 l 1
 5 -0 l 1
 2.5 -0 l 1
 0 -0 l 1
 0 3.5 l 1
EndSplineSet
EndChar

StartChar: glyph2482
Encoding: 4275 4275 2482
Width: 8
VWidth: 0
Flags: HMW
LayerCount: 2
Back
Fore
SplineSet
1 6.5 m 1
 1 7 l 1
 2.5 7 l 1
 4 7 l 1
 4 6.5 l 1
 4 6 l 1
 2.5 6 l 1
 1 6 l 1
 1 3.5 l 1
 1 1 l 1
 2.5 1 l 1
 4 1 l 1
 4 3.5 l 1
 4 6 l 1
 4.5 6 l 1
 5 6 l 1
 5 4 l 1
 5 2 l 1
 5.5 2 l 1
 6 2 l 1
 6 1.5 l 1
 6 1 l 1
 5 1 l 1
 4 1 l 1
 4 0.5 l 1
 4 -0 l 1
 2.5 -0 l 1
 1 -0 l 1
 1 0.5 l 1
 1 1 l 1
 0.5 1 l 1
 0 1 l 1
 0 3.5 l 1
 0 6 l 1
 0.5 6 l 1
 1 6 l 1
 1 6.5 l 1
6 1 m 1
 6.5 1 l 1
 7 1 l 1
 7 0.5 l 1
 7 -0 l 1
 6.5 -0 l 1
 6 -0 l 1
 6 0.5 l 1
 6 1 l 1
EndSplineSet
EndChar

StartChar: glyph2483
Encoding: 4276 4276 2483
Width: 6
VWidth: 0
Flags: HMW
LayerCount: 2
Back
Fore
SplineSet
2 4.5 m 1
 2 6 l 1
 1.5 6 l 1
 1 6 l 1
 1 4.5 l 1
 1 3 l 1
 1.5 3 l 1
 2 3 l 1
 2 4.5 l 1
1 6.5 m 1
 1 7 l 1
 2.5 7 l 1
 4 7 l 1
 4 6.5 l 1
 4 6 l 1
 3.5 6 l 1
 3 6 l 1
 3 4.5 l 1
 3 3 l 1
 3.5 3 l 1
 4 3 l 1
 4 4.5 l 1
 4 6 l 1
 4.5 6 l 1
 5 6 l 1
 5 4.5 l 1
 5 3 l 1
 4.5 3 l 1
 4 3 l 1
 4 2.5 l 1
 4 2 l 1
 3.5 2 l 1
 3 2 l 1
 3 1 l 1
 3 -0 l 1
 2.5 -0 l 1
 2 -0 l 1
 2 1 l 1
 2 2 l 1
 1.5 2 l 1
 1 2 l 1
 1 2.5 l 1
 1 3 l 1
 0.5 3 l 1
 0 3 l 1
 0 4.5 l 1
 0 6 l 1
 0.5 6 l 1
 1 6 l 1
 1 6.5 l 1
EndSplineSet
EndChar

StartChar: glyph2484
Encoding: 4277 4277 2484
Width: 6
VWidth: 0
Flags: HMW
LayerCount: 2
Back
Fore
SplineSet
2 6 m 1
 2 7 l 1
 2.5 7 l 1
 3 7 l 1
 3 6 l 1
 3 5 l 1
 4 5 l 1
 5 5 l 1
 5 4 l 1
 5 3 l 1
 4.5 3 l 1
 4 3 l 1
 4 3.5 l 1
 4 4 l 1
 3.5 4 l 1
 3 4 l 1
 3 2 l 1
 3 -0 l 1
 2.5 -0 l 1
 2 -0 l 1
 2 2 l 1
 2 4 l 1
 1 4 l 1
 0 4 l 1
 0 5 l 1
 0 6 l 1
 0.5 6 l 1
 1 6 l 1
 1 5.5 l 1
 1 5 l 1
 1.5 5 l 1
 2 5 l 1
 2 6 l 1
EndSplineSet
EndChar

StartChar: glyph2485
Encoding: 4278 4278 2485
Width: 6
VWidth: 0
Flags: HMW
LayerCount: 2
Back
Fore
SplineSet
1 6.5 m 1
 1 7 l 1
 2.5 7 l 1
 4 7 l 1
 4 6.5 l 1
 4 6 l 1
 2.5 6 l 1
 1 6 l 1
 1 6.5 l 1
1 6 m 1
 1 3 l 1
 1 -0 l 1
 0.5 -0 l 1
 0 -0 l 1
 0 3 l 1
 0 6 l 1
 0.5 6 l 1
 1 6 l 1
4 6 m 1
 4.5 6 l 1
 5 6 l 1
 5 3 l 1
 5 -0 l 1
 4.5 -0 l 1
 4 -0 l 1
 4 3 l 1
 4 6 l 1
EndSplineSet
EndChar

StartChar: glyph2486
Encoding: 4279 4279 2486
Width: 6
VWidth: 0
Flags: HMW
LayerCount: 2
Back
Fore
SplineSet
0 5.5 m 1
 0 7 l 1
 0.5 7 l 1
 1 7 l 1
 1 5.5 l 1
 1 4 l 1
 0.5 4 l 1
 0 4 l 1
 0 5.5 l 1
1 4 m 1
 2.5 4 l 1
 4 4 l 1
 4 5.5 l 1
 4 7 l 1
 4.5 7 l 1
 5 7 l 1
 5 3.5 l 1
 5 -0 l 1
 4.5 -0 l 1
 4 -0 l 1
 4 1.5 l 1
 4 3 l 1
 2.5 3 l 1
 1 3 l 1
 1 3.5 l 1
 1 4 l 1
EndSplineSet
EndChar

StartChar: glyph2487
Encoding: 4280 4280 2487
Width: 6
VWidth: 0
Flags: HMW
LayerCount: 2
Back
Fore
SplineSet
0 5.5 m 1
 0 7 l 1
 0.5 7 l 1
 1 7 l 1
 1 5.5 l 1
 1 4 l 1
 0.5 4 l 1
 0 4 l 1
 0 5.5 l 1
1 1 m 1
 2.5 1 l 1
 4 1 l 1
 4 2 l 1
 4 3 l 1
 2.5 3 l 1
 1 3 l 1
 1 3.5 l 1
 1 4 l 1
 2.5 4 l 1
 4 4 l 1
 4 5.5 l 1
 4 7 l 1
 4.5 7 l 1
 5 7 l 1
 5 4 l 1
 5 1 l 1
 4.5 1 l 1
 4 1 l 1
 4 0.5 l 1
 4 -0 l 1
 2.5 -0 l 1
 1 -0 l 1
 1 0.5 l 1
 1 1 l 1
1 1 m 1
 0.5 1 l 1
 0 1 l 1
 0 1.5 l 1
 0 2 l 1
 0.5 2 l 1
 1 2 l 1
 1 1.5 l 1
 1 1 l 1
EndSplineSet
EndChar

StartChar: glyph2488
Encoding: 4281 4281 2488
Width: 6
VWidth: 0
Flags: HMW
LayerCount: 2
Back
Fore
SplineSet
0 3.5 m 1
 0 7 l 1
 0.5 7 l 1
 1 7 l 1
 1 6 l 1
 1 5 l 1
 2.5 5 l 1
 4 5 l 1
 4 4.5 l 1
 4 4 l 1
 2.5 4 l 1
 1 4 l 1
 1 2 l 1
 1 -0 l 1
 0.5 -0 l 1
 0 -0 l 1
 0 3.5 l 1
4 4 m 1
 4.5 4 l 1
 5 4 l 1
 5 2 l 1
 5 -0 l 1
 4.5 -0 l 1
 4 -0 l 1
 4 2 l 1
 4 4 l 1
EndSplineSet
EndChar

StartChar: glyph2489
Encoding: 4282 4282 2489
Width: 6
VWidth: 0
Flags: HMW
LayerCount: 2
Back
Fore
SplineSet
1 6.5 m 1
 1 7 l 1
 2.5 7 l 1
 4 7 l 1
 4 6.5 l 1
 4 6 l 1
 2.5 6 l 1
 1 6 l 1
 1 6.5 l 1
1 1 m 1
 0.5 1 l 1
 0 1 l 1
 0 3.5 l 1
 0 6 l 1
 0.5 6 l 1
 1 6 l 1
 1 3.5 l 1
 1 1 l 1
1 1 m 1
 2.5 1 l 1
 4 1 l 1
 4 1.5 l 1
 4 2 l 1
 4.5 2 l 1
 5 2 l 1
 5 0.5 l 1
 5 -1 l 1
 4.5 -1 l 1
 4 -1 l 1
 4 -0.5 l 1
 4 -0 l 1
 2.5 -0 l 1
 1 -0 l 1
 1 0.5 l 1
 1 1 l 1
4 6 m 1
 4.5 6 l 1
 5 6 l 1
 5 5.5 l 1
 5 5 l 1
 4.5 5 l 1
 4 5 l 1
 4 5.5 l 1
 4 6 l 1
EndSplineSet
EndChar

StartChar: glyph2490
Encoding: 4283 4283 2490
Width: 8
VWidth: 0
Flags: HMW
LayerCount: 2
Back
Fore
SplineSet
4 2.5 m 1
 4 4 l 1
 2.5 4 l 1
 1 4 l 1
 1 2.5 l 1
 1 1 l 1
 2.5 1 l 1
 4 1 l 1
 4 2.5 l 1
4 6 m 1
 4 7 l 1
 4.5 7 l 1
 5 7 l 1
 5 6 l 1
 5 5 l 1
 6 5 l 1
 7 5 l 1
 7 4 l 1
 7 3 l 1
 6.5 3 l 1
 6 3 l 1
 6 3.5 l 1
 6 4 l 1
 5.5 4 l 1
 5 4 l 1
 5 2 l 1
 5 -0 l 1
 3 -0 l 1
 1 -0 l 1
 1 0.5 l 1
 1 1 l 1
 0.5 1 l 1
 0 1 l 1
 0 2.5 l 1
 0 4 l 1
 0.5 4 l 1
 1 4 l 1
 1 4.5 l 1
 1 5 l 1
 2.5 5 l 1
 4 5 l 1
 4 6 l 1
EndSplineSet
EndChar

StartChar: glyph2491
Encoding: 4284 4284 2491
Width: 6
VWidth: 0
Flags: HMW
LayerCount: 2
Back
Fore
SplineSet
0 3.5 m 1
 0 7 l 1
 2 7 l 1
 4 7 l 1
 4 6.5 l 1
 4 6 l 1
 2.5 6 l 1
 1 6 l 1
 1 5.5 l 1
 1 5 l 1
 2.5 5 l 1
 4 5 l 1
 4 5.5 l 1
 4 6 l 1
 4.5 6 l 1
 5 6 l 1
 5 5.5 l 1
 5 5 l 1
 4.5 5 l 1
 4 5 l 1
 4 4.5 l 1
 4 4 l 1
 2.5 4 l 1
 1 4 l 1
 1 3.5 l 1
 1 3 l 1
 2 3 l 1
 3 3 l 1
 3 2 l 1
 3 1 l 1
 2.5 1 l 1
 2 1 l 1
 2 1.5 l 1
 2 2 l 1
 1.5 2 l 1
 1 2 l 1
 1 1 l 1
 1 -0 l 1
 0.5 -0 l 1
 0 -0 l 1
 0 3.5 l 1
EndSplineSet
EndChar

StartChar: glyph2492
Encoding: 4285 4285 2492
Width: 6
VWidth: 0
Flags: HMW
LayerCount: 2
Back
Fore
SplineSet
1 6.5 m 1
 1 7 l 1
 3 7 l 1
 5 7 l 1
 5 6.5 l 1
 5 6 l 1
 3 6 l 1
 1 6 l 1
 1 6.5 l 1
1 1 m 1
 2.5 1 l 1
 4 1 l 1
 4 2.5 l 1
 4 4 l 1
 2.5 4 l 1
 1 4 l 1
 1 4.5 l 1
 1 5 l 1
 0.5 5 l 1
 0 5 l 1
 0 5.5 l 1
 0 6 l 1
 0.5 6 l 1
 1 6 l 1
 1 5.5 l 1
 1 5 l 1
 2.5 5 l 1
 4 5 l 1
 4 4.5 l 1
 4 4 l 1
 4.5 4 l 1
 5 4 l 1
 5 2.5 l 1
 5 1 l 1
 4.5 1 l 1
 4 1 l 1
 4 0.5 l 1
 4 -0 l 1
 2.5 -0 l 1
 1 -0 l 1
 1 0.5 l 1
 1 1 l 1
1 1 m 1
 0.5 1 l 1
 0 1 l 1
 0 1.5 l 1
 0 2 l 1
 0.5 2 l 1
 1 2 l 1
 1 1.5 l 1
 1 1 l 1
EndSplineSet
EndChar

StartChar: glyph2493
Encoding: 4286 4286 2493
Width: 6
VWidth: 0
Flags: HMW
LayerCount: 2
Back
Fore
SplineSet
0 3.5 m 1
 0 7 l 1
 0.5 7 l 1
 1 7 l 1
 1 5.5 l 1
 1 4 l 1
 2.5 4 l 1
 4 4 l 1
 4 3.5 l 1
 4 3 l 1
 2.5 3 l 1
 1 3 l 1
 1 2 l 1
 1 1 l 1
 3 1 l 1
 5 1 l 1
 5 0.5 l 1
 5 -0 l 1
 2.5 -0 l 1
 0 -0 l 1
 0 3.5 l 1
4 4 m 1
 4 5.5 l 1
 4 7 l 1
 4.5 7 l 1
 5 7 l 1
 5 5.5 l 1
 5 4 l 1
 4.5 4 l 1
 4 4 l 1
EndSplineSet
EndChar

StartChar: glyph2494
Encoding: 4287 4287 2494
Width: 6
VWidth: 0
Flags: HMW
LayerCount: 2
Back
Fore
SplineSet
4 5.5 m 1
 4 6 l 1
 2.5 6 l 1
 1 6 l 1
 1 5.5 l 1
 1 5 l 1
 1.5 5 l 1
 2 5 l 1
 2 4 l 1
 2 3 l 1
 2.5 3 l 1
 3 3 l 1
 3 4 l 1
 3 5 l 1
 3.5 5 l 1
 4 5 l 1
 4 5.5 l 1
0 6 m 1
 0 7 l 1
 2.5 7 l 1
 5 7 l 1
 5 6 l 1
 5 5 l 1
 4.5 5 l 1
 4 5 l 1
 4 4 l 1
 4 3 l 1
 3.5 3 l 1
 3 3 l 1
 3 2.5 l 1
 3 2 l 1
 2.5 2 l 1
 2 2 l 1
 2 2.5 l 1
 2 3 l 1
 1.5 3 l 1
 1 3 l 1
 1 4 l 1
 1 5 l 1
 0.5 5 l 1
 0 5 l 1
 0 6 l 1
1 -0 m 1
 1 1 l 1
 1 2 l 1
 1.5 2 l 1
 2 2 l 1
 2 1 l 1
 2 -0 l 1
 1.5 -0 l 1
 1 -0 l 1
1 -0 m 1
 1 -0.5 l 1
 1 -1 l 1
 0.5 -1 l 1
 0 -1 l 1
 0 -0.5 l 1
 0 -0 l 1
 0.5 -0 l 1
 1 -0 l 1
4 1 m 1
 3.5 1 l 1
 3 1 l 1
 3 1.5 l 1
 3 2 l 1
 3.5 2 l 1
 4 2 l 1
 4 1.5 l 1
 4 1 l 1
4 1 m 1
 4.5 1 l 1
 5 1 l 1
 5 0.5 l 1
 5 -0 l 1
 4.5 -0 l 1
 4 -0 l 1
 4 0.5 l 1
 4 1 l 1
EndSplineSet
EndChar

StartChar: glyph2495
Encoding: 4288 4288 2495
Width: 8
VWidth: 0
Flags: HMW
LayerCount: 2
Back
Fore
SplineSet
0 6 m 1
 0 7 l 1
 1.5 7 l 1
 3 7 l 1
 3 4 l 1
 3 1 l 1
 2.5 1 l 1
 2 1 l 1
 2 3.5 l 1
 2 6 l 1
 1.5 6 l 1
 1 6 l 1
 1 5.5 l 1
 1 5 l 1
 0.5 5 l 1
 0 5 l 1
 0 6 l 1
6 1 m 1
 6 0.5 l 1
 6 -0 l 1
 4.5 -0 l 1
 3 -0 l 1
 3 0.5 l 1
 3 1 l 1
 4.5 1 l 1
 6 1 l 1
6 1 m 1
 6 2 l 1
 6 3 l 1
 6.5 3 l 1
 7 3 l 1
 7 2 l 1
 7 1 l 1
 6.5 1 l 1
 6 1 l 1
EndSplineSet
EndChar

StartChar: glyph2496
Encoding: 4289 4289 2496
Width: 6
VWidth: 0
Flags: HMW
LayerCount: 2
Back
Fore
SplineSet
0 3.5 m 1
 0 7 l 1
 0.5 7 l 1
 1 7 l 1
 1 6 l 1
 1 5 l 1
 2.5 5 l 1
 4 5 l 1
 4 4.5 l 1
 4 4 l 1
 2.5 4 l 1
 1 4 l 1
 1 2 l 1
 1 -0 l 1
 0.5 -0 l 1
 0 -0 l 1
 0 3.5 l 1
4 4 m 1
 4.5 4 l 1
 5 4 l 1
 5 3.5 l 1
 5 3 l 1
 4.5 3 l 1
 4 3 l 1
 4 3.5 l 1
 4 4 l 1
EndSplineSet
EndChar

StartChar: glyph2497
Encoding: 4290 4290 2497
Width: 6
VWidth: 0
Flags: HMW
LayerCount: 2
Back
Fore
SplineSet
0 6 m 1
 0 7 l 1
 0.5 7 l 1
 1 7 l 1
 1 6.5 l 1
 1 6 l 1
 2.5 6 l 1
 4 6 l 1
 4 5.5 l 1
 4 5 l 1
 2 5 l 1
 0 5 l 1
 0 6 l 1
1 1 m 1
 2.5 1 l 1
 4 1 l 1
 4 3 l 1
 4 5 l 1
 4.5 5 l 1
 5 5 l 1
 5 3 l 1
 5 1 l 1
 4.5 1 l 1
 4 1 l 1
 4 0.5 l 1
 4 -0 l 1
 2.5 -0 l 1
 1 -0 l 1
 1 0.5 l 1
 1 1 l 1
1 1 m 1
 0.5 1 l 1
 0 1 l 1
 0 1.5 l 1
 0 2 l 1
 0.5 2 l 1
 1 2 l 1
 1 1.5 l 1
 1 1 l 1
EndSplineSet
EndChar

StartChar: glyph2498
Encoding: 4291 4291 2498
Width: 6
VWidth: 0
Flags: HMW
LayerCount: 2
Back
Fore
SplineSet
1 6.5 m 1
 1 7 l 1
 1.5 7 l 1
 2 7 l 1
 2 6.5 l 1
 2 6 l 1
 1.5 6 l 1
 1 6 l 1
 1 6.5 l 1
1 4 m 1
 0.5 4 l 1
 0 4 l 1
 0 5 l 1
 0 6 l 1
 0.5 6 l 1
 1 6 l 1
 1 5 l 1
 1 4 l 1
1 4 m 1
 2.5 4 l 1
 4 4 l 1
 4 5.5 l 1
 4 7 l 1
 4.5 7 l 1
 5 7 l 1
 5 3.5 l 1
 5 -0 l 1
 4.5 -0 l 1
 4 -0 l 1
 4 1.5 l 1
 4 3 l 1
 2.5 3 l 1
 1 3 l 1
 1 3.5 l 1
 1 4 l 1
EndSplineSet
EndChar

StartChar: glyph2499
Encoding: 4292 4292 2499
Width: 6
VWidth: 0
Flags: HMW
LayerCount: 2
Back
Fore
SplineSet
0 5.5 m 1
 0 7 l 1
 0.5 7 l 1
 1 7 l 1
 1 5.5 l 1
 1 4 l 1
 0.5 4 l 1
 0 4 l 1
 0 5.5 l 1
4 4 m 1
 4 3.5 l 1
 4 3 l 1
 3.5 3 l 1
 3 3 l 1
 3 1.5 l 1
 3 -0 l 1
 2.5 -0 l 1
 2 -0 l 1
 2 1.5 l 1
 2 3 l 1
 1.5 3 l 1
 1 3 l 1
 1 3.5 l 1
 1 4 l 1
 2.5 4 l 1
 4 4 l 1
4 4 m 1
 4 5.5 l 1
 4 7 l 1
 4.5 7 l 1
 5 7 l 1
 5 5.5 l 1
 5 4 l 1
 4.5 4 l 1
 4 4 l 1
EndSplineSet
EndChar

StartChar: glyph2500
Encoding: 4293 4293 2500
Width: 8
VWidth: 0
Flags: HMW
LayerCount: 2
Back
Fore
SplineSet
3 1.5 m 1
 3 2 l 1
 2 2 l 1
 1 2 l 1
 1 1.5 l 1
 1 1 l 1
 2 1 l 1
 3 1 l 1
 3 1.5 l 1
3 5 m 1
 3 7 l 1
 4.5 7 l 1
 6 7 l 1
 6 6.5 l 1
 6 6 l 1
 5 6 l 1
 4 6 l 1
 4 5.5 l 1
 4 5 l 1
 5 5 l 1
 6 5 l 1
 6 5.5 l 1
 6 6 l 1
 6.5 6 l 1
 7 6 l 1
 7 5.5 l 1
 7 5 l 1
 6.5 5 l 1
 6 5 l 1
 6 4.5 l 1
 6 4 l 1
 5 4 l 1
 4 4 l 1
 4 3.5 l 1
 4 3 l 1
 5 3 l 1
 6 3 l 1
 6 2.5 l 1
 6 2 l 1
 5 2 l 1
 4 2 l 1
 4 1 l 1
 4 -0 l 1
 2.5 -0 l 1
 1 -0 l 1
 1 0.5 l 1
 1 1 l 1
 0.5 1 l 1
 0 1 l 1
 0 1.5 l 1
 0 2 l 1
 0.5 2 l 1
 1 2 l 1
 1 2.5 l 1
 1 3 l 1
 2 3 l 1
 3 3 l 1
 3 5 l 1
EndSplineSet
EndChar

StartChar: glyph2501
Encoding: 4295 4295 2501
Width: 6
VWidth: 0
Flags: HMW
LayerCount: 2
Back
Fore
SplineSet
0 6.5 m 1
 0 7 l 1
 2 7 l 1
 4 7 l 1
 4 6.5 l 1
 4 6 l 1
 2 6 l 1
 0 6 l 1
 0 6.5 l 1
4 1 m 1
 4 0.5 l 1
 4 -0 l 1
 2.5 -0 l 1
 1 -0 l 1
 1 0.5 l 1
 1 1 l 1
 0.5 1 l 1
 0 1 l 1
 0 2.5 l 1
 0 4 l 1
 0.5 4 l 1
 1 4 l 1
 1 4.5 l 1
 1 5 l 1
 2.5 5 l 1
 4 5 l 1
 4 5.5 l 1
 4 6 l 1
 4.5 6 l 1
 5 6 l 1
 5 5.5 l 1
 5 5 l 1
 4.5 5 l 1
 4 5 l 1
 4 4.5 l 1
 4 4 l 1
 2.5 4 l 1
 1 4 l 1
 1 2.5 l 1
 1 1 l 1
 2.5 1 l 1
 4 1 l 1
4 1 m 1
 4 1.5 l 1
 4 2 l 1
 4.5 2 l 1
 5 2 l 1
 5 1.5 l 1
 5 1 l 1
 4.5 1 l 1
 4 1 l 1
EndSplineSet
EndChar

StartChar: glyph2502
Encoding: 4301 4301 2502
Width: 6
VWidth: 0
Flags: HMW
LayerCount: 2
Back
Fore
SplineSet
0 6.5 m 1
 0 7 l 1
 2.5 7 l 1
 5 7 l 1
 5 6 l 1
 5 5 l 1
 4.5 5 l 1
 4 5 l 1
 4 5.5 l 1
 4 6 l 1
 2 6 l 1
 0 6 l 1
 0 6.5 l 1
1 2 m 1
 1 2.5 l 1
 1 3 l 1
 1.5 3 l 1
 2 3 l 1
 2 3.5 l 1
 2 4 l 1
 2.5 4 l 1
 3 4 l 1
 3 4.5 l 1
 3 5 l 1
 3.5 5 l 1
 4 5 l 1
 4 4.5 l 1
 4 4 l 1
 3.5 4 l 1
 3 4 l 1
 3 3.5 l 1
 3 3 l 1
 2.5 3 l 1
 2 3 l 1
 2 2.5 l 1
 2 2 l 1
 1.5 2 l 1
 1 2 l 1
1 2 m 1
 1 1.5 l 1
 1 1 l 1
 3 1 l 1
 5 1 l 1
 5 0.5 l 1
 5 -0 l 1
 2.5 -0 l 1
 0 -0 l 1
 0 1 l 1
 0 2 l 1
 0.5 2 l 1
 1 2 l 1
EndSplineSet
EndChar

StartChar: glyph2503
Encoding: 4304 4304 2503
Width: 6
VWidth: 0
Flags: HMW
LayerCount: 2
Back
Fore
SplineSet
2 4 m 1
 2 5 l 1
 2.5 5 l 1
 3 5 l 1
 3 4.5 l 1
 3 4 l 1
 3.5 4 l 1
 4 4 l 1
 4 3.5 l 1
 4 3 l 1
 3 3 l 1
 2 3 l 1
 2 4 l 1
1 1 m 1
 2.5 1 l 1
 4 1 l 1
 4 2 l 1
 4 3 l 1
 4.5 3 l 1
 5 3 l 1
 5 2 l 1
 5 1 l 1
 4.5 1 l 1
 4 1 l 1
 4 0.5 l 1
 4 -0 l 1
 2.5 -0 l 1
 1 -0 l 1
 1 0.5 l 1
 1 1 l 1
1 1 m 1
 0.5 1 l 1
 0 1 l 1
 0 1.5 l 1
 0 2 l 1
 0.5 2 l 1
 1 2 l 1
 1 1.5 l 1
 1 1 l 1
EndSplineSet
EndChar

StartChar: glyph2504
Encoding: 4305 4305 2504
Width: 6
VWidth: 0
Flags: HMW
LayerCount: 2
Back
Fore
SplineSet
0 6.5 m 1
 0 7 l 1
 1.5 7 l 1
 3 7 l 1
 3 5.5 l 1
 3 4 l 1
 3.5 4 l 1
 4 4 l 1
 4 3.5 l 1
 4 3 l 1
 2.5 3 l 1
 1 3 l 1
 1 2 l 1
 1 1 l 1
 2.5 1 l 1
 4 1 l 1
 4 2 l 1
 4 3 l 1
 4.5 3 l 1
 5 3 l 1
 5 2 l 1
 5 1 l 1
 4.5 1 l 1
 4 1 l 1
 4 0.5 l 1
 4 -0 l 1
 2.5 -0 l 1
 1 -0 l 1
 1 0.5 l 1
 1 1 l 1
 0.5 1 l 1
 0 1 l 1
 0 2 l 1
 0 3 l 1
 0.5 3 l 1
 1 3 l 1
 1 3.5 l 1
 1 4 l 1
 1.5 4 l 1
 2 4 l 1
 2 5 l 1
 2 6 l 1
 1 6 l 1
 0 6 l 1
 0 6.5 l 1
EndSplineSet
EndChar

StartChar: glyph2505
Encoding: 4306 4306 2505
Width: 6
VWidth: 0
Flags: HMW
LayerCount: 2
Back
Fore
SplineSet
0 4.5 m 1
 0 5 l 1
 1.5 5 l 1
 3 5 l 1
 3 4.5 l 1
 3 4 l 1
 1.5 4 l 1
 0 4 l 1
 0 4.5 l 1
1 2 m 1
 1 1 l 1
 1 -0 l 1
 2.5 -0 l 1
 4 -0 l 1
 4 1 l 1
 4 2 l 1
 2.5 2 l 1
 1 2 l 1
1 2 m 1
 1 2.5 l 1
 1 3 l 1
 2 3 l 1
 3 3 l 1
 3 3.5 l 1
 3 4 l 1
 3.5 4 l 1
 4 4 l 1
 4 3 l 1
 4 2 l 1
 4.5 2 l 1
 5 2 l 1
 5 1 l 1
 5 -0 l 1
 4.5 -0 l 1
 4 -0 l 1
 4 -0.5 l 1
 4 -1 l 1
 2.5 -1 l 1
 1 -1 l 1
 1 -0.5 l 1
 1 -0 l 1
 0.5 -0 l 1
 0 -0 l 1
 0 1 l 1
 0 2 l 1
 0.5 2 l 1
 1 2 l 1
EndSplineSet
EndChar

StartChar: glyph2506
Encoding: 4307 4307 2506
Width: 6
VWidth: 0
Flags: HMW
LayerCount: 2
Back
Fore
SplineSet
1 4.5 m 1
 1 5 l 1
 1.5 5 l 1
 2 5 l 1
 2 4.5 l 1
 2 4 l 1
 1.5 4 l 1
 1 4 l 1
 1 4.5 l 1
3 -0 m 1
 1.5 -0 l 1
 0 -0 l 1
 0 0.5 l 1
 0 1 l 1
 0.5 1 l 1
 1 1 l 1
 1 1.5 l 1
 1 2 l 1
 0.5 2 l 1
 0 2 l 1
 0 3 l 1
 0 4 l 1
 0.5 4 l 1
 1 4 l 1
 1 3 l 1
 1 2 l 1
 1.5 2 l 1
 2 2 l 1
 2 1.5 l 1
 2 1 l 1
 2.5 1 l 1
 3 1 l 1
 3 0.5 l 1
 3 -0 l 1
3 -0 m 1
 3.5 -0 l 1
 4 -0 l 1
 4 -0.5 l 1
 4 -1 l 1
 3.5 -1 l 1
 3 -1 l 1
 3 -0.5 l 1
 3 -0 l 1
3 3 m 1
 3.5 3 l 1
 4 3 l 1
 4 3.5 l 1
 4 4 l 1
 3.5 4 l 1
 3 4 l 1
 3 3.5 l 1
 3 3 l 1
3 3 m 1
 2.5 3 l 1
 2 3 l 1
 2 3.5 l 1
 2 4 l 1
 2.5 4 l 1
 3 4 l 1
 3 4.5 l 1
 3 5 l 1
 3.5 5 l 1
 4 5 l 1
 4 4.5 l 1
 4 4 l 1
 4.5 4 l 1
 5 4 l 1
 5 3.5 l 1
 5 3 l 1
 4.5 3 l 1
 4 3 l 1
 4 2.5 l 1
 4 2 l 1
 3.5 2 l 1
 3 2 l 1
 3 2.5 l 1
 3 3 l 1
EndSplineSet
EndChar

StartChar: glyph2507
Encoding: 4308 4308 2507
Width: 6
VWidth: 0
Flags: HMW
LayerCount: 2
Back
Fore
SplineSet
1 4.5 m 1
 1 5 l 1
 2.5 5 l 1
 4 5 l 1
 4 4.5 l 1
 4 4 l 1
 2.5 4 l 1
 1 4 l 1
 1 4.5 l 1
1 4 m 1
 1 3.5 l 1
 1 3 l 1
 0.5 3 l 1
 0 3 l 1
 0 3.5 l 1
 0 4 l 1
 0.5 4 l 1
 1 4 l 1
1 -0 m 1
 2.5 -0 l 1
 4 -0 l 1
 4 2 l 1
 4 4 l 1
 4.5 4 l 1
 5 4 l 1
 5 2 l 1
 5 -0 l 1
 4.5 -0 l 1
 4 -0 l 1
 4 -0.5 l 1
 4 -1 l 1
 2.5 -1 l 1
 1 -1 l 1
 1 -0.5 l 1
 1 -0 l 1
1 -0 m 1
 0.5 -0 l 1
 0 -0 l 1
 0 0.5 l 1
 0 1 l 1
 0.5 1 l 1
 1 1 l 1
 1 0.5 l 1
 1 -0 l 1
EndSplineSet
EndChar

StartChar: glyph2508
Encoding: 4309 4309 2508
Width: 6
VWidth: 0
Flags: HMW
LayerCount: 2
Back
Fore
SplineSet
1 4.5 m 1
 1 5 l 1
 2.5 5 l 1
 4 5 l 1
 4 4.5 l 1
 4 4 l 1
 2.5 4 l 1
 1 4 l 1
 1 4.5 l 1
1 4 m 1
 1 3.5 l 1
 1 3 l 1
 0.5 3 l 1
 0 3 l 1
 0 3.5 l 1
 0 4 l 1
 0.5 4 l 1
 1 4 l 1
1 -0 m 1
 2.5 -0 l 1
 4 -0 l 1
 4 1 l 1
 4 2 l 1
 3 2 l 1
 2 2 l 1
 2 2.5 l 1
 2 3 l 1
 3 3 l 1
 4 3 l 1
 4 3.5 l 1
 4 4 l 1
 4.5 4 l 1
 5 4 l 1
 5 3.5 l 1
 5 3 l 1
 4.5 3 l 1
 4 3 l 1
 4 2.5 l 1
 4 2 l 1
 4.5 2 l 1
 5 2 l 1
 5 1 l 1
 5 -0 l 1
 4.5 -0 l 1
 4 -0 l 1
 4 -0.5 l 1
 4 -1 l 1
 2.5 -1 l 1
 1 -1 l 1
 1 -0.5 l 1
 1 -0 l 1
1 -0 m 1
 0.5 -0 l 1
 0 -0 l 1
 0 0.5 l 1
 0 1 l 1
 0.5 1 l 1
 1 1 l 1
 1 0.5 l 1
 1 -0 l 1
EndSplineSet
EndChar

StartChar: glyph2509
Encoding: 4310 4310 2509
Width: 6
VWidth: 0
Flags: HMW
LayerCount: 2
Back
Fore
SplineSet
1 6.5 m 1
 1 7 l 1
 1.5 7 l 1
 2 7 l 1
 2 6.5 l 1
 2 6 l 1
 1.5 6 l 1
 1 6 l 1
 1 5 l 1
 1 4 l 1
 1.5 4 l 1
 2 4 l 1
 2 5 l 1
 2 6 l 1
 2.5 6 l 1
 3 6 l 1
 3 5 l 1
 3 4 l 1
 3.5 4 l 1
 4 4 l 1
 4 3.5 l 1
 4 3 l 1
 3.5 3 l 1
 3 3 l 1
 3 2 l 1
 3 1 l 1
 3.5 1 l 1
 4 1 l 1
 4 2 l 1
 4 3 l 1
 4.5 3 l 1
 5 3 l 1
 5 2 l 1
 5 1 l 1
 4.5 1 l 1
 4 1 l 1
 4 0.5 l 1
 4 -0 l 1
 3.5 -0 l 1
 3 -0 l 1
 3 0.5 l 1
 3 1 l 1
 2.5 1 l 1
 2 1 l 1
 2 2 l 1
 2 3 l 1
 1.5 3 l 1
 1 3 l 1
 1 3.5 l 1
 1 4 l 1
 0.5 4 l 1
 0 4 l 1
 0 5 l 1
 0 6 l 1
 0.5 6 l 1
 1 6 l 1
 1 6.5 l 1
EndSplineSet
EndChar

StartChar: glyph2510
Encoding: 4311 4311 2510
Width: 6
VWidth: 0
Flags: HMW
LayerCount: 2
Back
Fore
SplineSet
1 4.5 m 1
 1 5 l 1
 1.5 5 l 1
 2 5 l 1
 2 4.5 l 1
 2 4 l 1
 1.5 4 l 1
 1 4 l 1
 1 2.5 l 1
 1 1 l 1
 1.5 1 l 1
 2 1 l 1
 2 2.5 l 1
 2 4 l 1
 2.5 4 l 1
 3 4 l 1
 3 2.5 l 1
 3 1 l 1
 2.5 1 l 1
 2 1 l 1
 2 0.5 l 1
 2 -0 l 1
 1.5 -0 l 1
 1 -0 l 1
 1 0.5 l 1
 1 1 l 1
 0.5 1 l 1
 0 1 l 1
 0 2.5 l 1
 0 4 l 1
 0.5 4 l 1
 1 4 l 1
 1 4.5 l 1
4 4 m 1
 3.5 4 l 1
 3 4 l 1
 3 4.5 l 1
 3 5 l 1
 3.5 5 l 1
 4 5 l 1
 4 4.5 l 1
 4 4 l 1
4 4 m 1
 4.5 4 l 1
 5 4 l 1
 5 2 l 1
 5 -0 l 1
 4.5 -0 l 1
 4 -0 l 1
 4 2 l 1
 4 4 l 1
EndSplineSet
EndChar

StartChar: glyph2511
Encoding: 4312 4312 2511
Width: 6
VWidth: 0
Flags: HMW
LayerCount: 2
Back
Fore
SplineSet
1 4.5 m 1
 1 5 l 1
 2.5 5 l 1
 4 5 l 1
 4 4.5 l 1
 4 4 l 1
 2.5 4 l 1
 1 4 l 1
 1 4.5 l 1
1 1 m 1
 0.5 1 l 1
 0 1 l 1
 0 2.5 l 1
 0 4 l 1
 0.5 4 l 1
 1 4 l 1
 1 2.5 l 1
 1 1 l 1
1 1 m 1
 1.5 1 l 1
 2 1 l 1
 2 0.5 l 1
 2 -0 l 1
 1.5 -0 l 1
 1 -0 l 1
 1 0.5 l 1
 1 1 l 1
4 1 m 1
 4 2.5 l 1
 4 4 l 1
 4.5 4 l 1
 5 4 l 1
 5 2.5 l 1
 5 1 l 1
 4.5 1 l 1
 4 1 l 1
4 1 m 1
 4 0.5 l 1
 4 -0 l 1
 3.5 -0 l 1
 3 -0 l 1
 3 0.5 l 1
 3 1 l 1
 3.5 1 l 1
 4 1 l 1
EndSplineSet
EndChar

StartChar: glyph2512
Encoding: 4313 4313 2512
Width: 6
VWidth: 0
Flags: HMW
LayerCount: 2
Back
Fore
SplineSet
3 4.5 m 1
 3 5 l 1
 3.5 5 l 1
 4 5 l 1
 4 4.5 l 1
 4 4 l 1
 3.5 4 l 1
 3 4 l 1
 3 4.5 l 1
1 -0 m 1
 2.5 -0 l 1
 4 -0 l 1
 4 1 l 1
 4 2 l 1
 3.5 2 l 1
 3 2 l 1
 3 2.5 l 1
 3 3 l 1
 3.5 3 l 1
 4 3 l 1
 4 3.5 l 1
 4 4 l 1
 4.5 4 l 1
 5 4 l 1
 5 3.5 l 1
 5 3 l 1
 4.5 3 l 1
 4 3 l 1
 4 2.5 l 1
 4 2 l 1
 4.5 2 l 1
 5 2 l 1
 5 1 l 1
 5 -0 l 1
 4.5 -0 l 1
 4 -0 l 1
 4 -0.5 l 1
 4 -1 l 1
 2.5 -1 l 1
 1 -1 l 1
 1 -0.5 l 1
 1 -0 l 1
1 -0 m 1
 0.5 -0 l 1
 0 -0 l 1
 0 0.5 l 1
 0 1 l 1
 0.5 1 l 1
 1 1 l 1
 1 0.5 l 1
 1 -0 l 1
EndSplineSet
EndChar

StartChar: glyph2513
Encoding: 4314 4314 2513
Width: 8
VWidth: 0
Flags: HMW
LayerCount: 2
Back
Fore
SplineSet
1 4.5 m 1
 1 5 l 1
 1.5 5 l 1
 2 5 l 1
 2 4.5 l 1
 2 4 l 1
 1.5 4 l 1
 1 4 l 1
 1 4.5 l 1
1 1 m 1
 1 1.5 l 1
 1 2 l 1
 0.5 2 l 1
 0 2 l 1
 0 3 l 1
 0 4 l 1
 0.5 4 l 1
 1 4 l 1
 1 3 l 1
 1 2 l 1
 2 2 l 1
 3 2 l 1
 3 1.5 l 1
 3 1 l 1
 2 1 l 1
 1 1 l 1
1 1 m 1
 1 0.5 l 1
 1 -0 l 1
 0.5 -0 l 1
 0 -0 l 1
 0 0.5 l 1
 0 1 l 1
 0.5 1 l 1
 1 1 l 1
5 -0 m 1
 4 -0 l 1
 3 -0 l 1
 3 0.5 l 1
 3 1 l 1
 4 1 l 1
 5 1 l 1
 5 0.5 l 1
 5 -0 l 1
5 -0 m 1
 5.5 -0 l 1
 6 -0 l 1
 6 -0.5 l 1
 6 -1 l 1
 5.5 -1 l 1
 5 -1 l 1
 5 -0.5 l 1
 5 -0 l 1
6 4 m 1
 5.5 4 l 1
 5 4 l 1
 5 3.5 l 1
 5 3 l 1
 4.5 3 l 1
 4 3 l 1
 4 3.5 l 1
 4 4 l 1
 3.5 4 l 1
 3 4 l 1
 3 3.5 l 1
 3 3 l 1
 2.5 3 l 1
 2 3 l 1
 2 3.5 l 1
 2 4 l 1
 2.5 4 l 1
 3 4 l 1
 3 4.5 l 1
 3 5 l 1
 3.5 5 l 1
 4 5 l 1
 4 4.5 l 1
 4 4 l 1
 4.5 4 l 1
 5 4 l 1
 5 4.5 l 1
 5 5 l 1
 5.5 5 l 1
 6 5 l 1
 6 4.5 l 1
 6 4 l 1
6 4 m 1
 6.5 4 l 1
 7 4 l 1
 7 3 l 1
 7 2 l 1
 6.5 2 l 1
 6 2 l 1
 6 3 l 1
 6 4 l 1
EndSplineSet
EndChar

StartChar: glyph2514
Encoding: 4315 4315 2514
Width: 6
VWidth: 0
Flags: HMW
LayerCount: 2
Back
Fore
SplineSet
1 6.5 m 1
 1 7 l 1
 2.5 7 l 1
 4 7 l 1
 4 6.5 l 1
 4 6 l 1
 2.5 6 l 1
 1 6 l 1
 1 6.5 l 1
3 4 m 1
 2 4 l 1
 1 4 l 1
 1 2.5 l 1
 1 1 l 1
 2.5 1 l 1
 4 1 l 1
 4 2 l 1
 4 3 l 1
 3.5 3 l 1
 3 3 l 1
 3 3.5 l 1
 3 4 l 1
3 4 m 1
 3.5 4 l 1
 4 4 l 1
 4 5 l 1
 4 6 l 1
 4.5 6 l 1
 5 6 l 1
 5 3.5 l 1
 5 1 l 1
 4.5 1 l 1
 4 1 l 1
 4 0.5 l 1
 4 -0 l 1
 2.5 -0 l 1
 1 -0 l 1
 1 0.5 l 1
 1 1 l 1
 0.5 1 l 1
 0 1 l 1
 0 2.5 l 1
 0 4 l 1
 0.5 4 l 1
 1 4 l 1
 1 4.5 l 1
 1 5 l 1
 2 5 l 1
 3 5 l 1
 3 4.5 l 1
 3 4 l 1
EndSplineSet
EndChar

StartChar: glyph2515
Encoding: 4316 4316 2515
Width: 6
VWidth: 0
Flags: HMW
LayerCount: 2
Back
Fore
SplineSet
0 4 m 1
 0 7 l 1
 2.5 7 l 1
 5 7 l 1
 5 6.5 l 1
 5 6 l 1
 3 6 l 1
 1 6 l 1
 1 5 l 1
 1 4 l 1
 1.5 4 l 1
 2 4 l 1
 2 3.5 l 1
 2 3 l 1
 1.5 3 l 1
 1 3 l 1
 1 2 l 1
 1 1 l 1
 2.5 1 l 1
 4 1 l 1
 4 2.5 l 1
 4 4 l 1
 3 4 l 1
 2 4 l 1
 2 4.5 l 1
 2 5 l 1
 3 5 l 1
 4 5 l 1
 4 4.5 l 1
 4 4 l 1
 4.5 4 l 1
 5 4 l 1
 5 2.5 l 1
 5 1 l 1
 4.5 1 l 1
 4 1 l 1
 4 0.5 l 1
 4 -0 l 1
 2.5 -0 l 1
 1 -0 l 1
 1 0.5 l 1
 1 1 l 1
 0.5 1 l 1
 0 1 l 1
 0 4 l 1
EndSplineSet
EndChar

StartChar: glyph2516
Encoding: 4317 4317 2516
Width: 6
VWidth: 0
Flags: HMW
LayerCount: 2
Back
Fore
SplineSet
1 4.5 m 1
 1 5 l 1
 1.5 5 l 1
 2 5 l 1
 2 4.5 l 1
 2 4 l 1
 1.5 4 l 1
 1 4 l 1
 1 4.5 l 1
1 1 m 1
 0.5 1 l 1
 0 1 l 1
 0 2.5 l 1
 0 4 l 1
 0.5 4 l 1
 1 4 l 1
 1 2.5 l 1
 1 1 l 1
1 1 m 1
 1.5 1 l 1
 2 1 l 1
 2 0.5 l 1
 2 -0 l 1
 1.5 -0 l 1
 1 -0 l 1
 1 0.5 l 1
 1 1 l 1
4 1 m 1
 4 2.5 l 1
 4 4 l 1
 3.5 4 l 1
 3 4 l 1
 3 3 l 1
 3 2 l 1
 2.5 2 l 1
 2 2 l 1
 2 3 l 1
 2 4 l 1
 2.5 4 l 1
 3 4 l 1
 3 4.5 l 1
 3 5 l 1
 3.5 5 l 1
 4 5 l 1
 4 4.5 l 1
 4 4 l 1
 4.5 4 l 1
 5 4 l 1
 5 2.5 l 1
 5 1 l 1
 4.5 1 l 1
 4 1 l 1
4 1 m 1
 4 0.5 l 1
 4 -0 l 1
 3.5 -0 l 1
 3 -0 l 1
 3 0.5 l 1
 3 1 l 1
 3.5 1 l 1
 4 1 l 1
EndSplineSet
EndChar

StartChar: glyph2517
Encoding: 4318 4318 2517
Width: 6
VWidth: 0
Flags: HMW
LayerCount: 2
Back
Fore
SplineSet
0 6.5 m 1
 0 7 l 1
 0.5 7 l 1
 1 7 l 1
 1 6.5 l 1
 1 6 l 1
 0.5 6 l 1
 0 6 l 1
 0 6.5 l 1
1 -0 m 1
 2.5 -0 l 1
 4 -0 l 1
 4 1 l 1
 4 2 l 1
 3 2 l 1
 2 2 l 1
 2 2.5 l 1
 2 3 l 1
 3 3 l 1
 4 3 l 1
 4 4 l 1
 4 5 l 1
 2.5 5 l 1
 1 5 l 1
 1 5.5 l 1
 1 6 l 1
 2.5 6 l 1
 4 6 l 1
 4 5.5 l 1
 4 5 l 1
 4.5 5 l 1
 5 5 l 1
 5 4 l 1
 5 3 l 1
 4.5 3 l 1
 4 3 l 1
 4 2.5 l 1
 4 2 l 1
 4.5 2 l 1
 5 2 l 1
 5 1 l 1
 5 -0 l 1
 4.5 -0 l 1
 4 -0 l 1
 4 -0.5 l 1
 4 -1 l 1
 2.5 -1 l 1
 1 -1 l 1
 1 -0.5 l 1
 1 -0 l 1
1 -0 m 1
 0.5 -0 l 1
 0 -0 l 1
 0 0.5 l 1
 0 1 l 1
 0.5 1 l 1
 1 1 l 1
 1 0.5 l 1
 1 -0 l 1
EndSplineSet
EndChar

StartChar: glyph2518
Encoding: 4319 4319 2518
Width: 6
VWidth: 0
Flags: HMW
LayerCount: 2
Back
Fore
SplineSet
2 4 m 1
 2 5 l 1
 3.5 5 l 1
 5 5 l 1
 5 2.5 l 1
 5 -0 l 1
 4.5 -0 l 1
 4 -0 l 1
 4 2 l 1
 4 4 l 1
 3.5 4 l 1
 3 4 l 1
 3 3.5 l 1
 3 3 l 1
 2.5 3 l 1
 2 3 l 1
 2 4 l 1
1 3 m 1
 1.5 3 l 1
 2 3 l 1
 2 2.5 l 1
 2 2 l 1
 1.5 2 l 1
 1 2 l 1
 1 2.5 l 1
 1 3 l 1
1 3 m 1
 0.5 3 l 1
 0 3 l 1
 0 3.5 l 1
 0 4 l 1
 0.5 4 l 1
 1 4 l 1
 1 3.5 l 1
 1 3 l 1
1 -0 m 1
 2.5 -0 l 1
 4 -0 l 1
 4 -0.5 l 1
 4 -1 l 1
 2.5 -1 l 1
 1 -1 l 1
 1 -0.5 l 1
 1 -0 l 1
1 -0 m 1
 0.5 -0 l 1
 0 -0 l 1
 0 0.5 l 1
 0 1 l 1
 0.5 1 l 1
 1 1 l 1
 1 0.5 l 1
 1 -0 l 1
EndSplineSet
EndChar

StartChar: glyph2519
Encoding: 4320 4320 2519
Width: 6
VWidth: 0
Flags: HMW
LayerCount: 2
Back
Fore
SplineSet
4 6.5 m 1
 4 7 l 1
 4.5 7 l 1
 5 7 l 1
 5 6.5 l 1
 5 6 l 1
 4.5 6 l 1
 4 6 l 1
 4 6.5 l 1
1 1 m 1
 0.5 1 l 1
 0 1 l 1
 0 3 l 1
 0 5 l 1
 0.5 5 l 1
 1 5 l 1
 1 5.5 l 1
 1 6 l 1
 2.5 6 l 1
 4 6 l 1
 4 5.5 l 1
 4 5 l 1
 2.5 5 l 1
 1 5 l 1
 1 4.5 l 1
 1 4 l 1
 1.5 4 l 1
 2 4 l 1
 2 3.5 l 1
 2 3 l 1
 1.5 3 l 1
 1 3 l 1
 1 2 l 1
 1 1 l 1
1 1 m 1
 1.5 1 l 1
 2 1 l 1
 2 0.5 l 1
 2 -0 l 1
 1.5 -0 l 1
 1 -0 l 1
 1 0.5 l 1
 1 1 l 1
4 1 m 1
 4 2 l 1
 4 3 l 1
 3.5 3 l 1
 3 3 l 1
 3 2.5 l 1
 3 2 l 1
 2.5 2 l 1
 2 2 l 1
 2 2.5 l 1
 2 3 l 1
 2.5 3 l 1
 3 3 l 1
 3 3.5 l 1
 3 4 l 1
 3.5 4 l 1
 4 4 l 1
 4 3.5 l 1
 4 3 l 1
 4.5 3 l 1
 5 3 l 1
 5 2 l 1
 5 1 l 1
 4.5 1 l 1
 4 1 l 1
4 1 m 1
 4 0.5 l 1
 4 -0 l 1
 3.5 -0 l 1
 3 -0 l 1
 3 0.5 l 1
 3 1 l 1
 3.5 1 l 1
 4 1 l 1
EndSplineSet
EndChar

StartChar: glyph2520
Encoding: 4321 4321 2520
Width: 6
VWidth: 0
Flags: HMW
LayerCount: 2
Back
Fore
SplineSet
0 4 m 1
 0 7 l 1
 0.5 7 l 1
 1 7 l 1
 1 4 l 1
 1 1 l 1
 0.5 1 l 1
 0 1 l 1
 0 4 l 1
4 4 m 1
 4.5 4 l 1
 5 4 l 1
 5 2.5 l 1
 5 1 l 1
 4.5 1 l 1
 4 1 l 1
 4 0.5 l 1
 4 -0 l 1
 2.5 -0 l 1
 1 -0 l 1
 1 0.5 l 1
 1 1 l 1
 2.5 1 l 1
 4 1 l 1
 4 2.5 l 1
 4 4 l 1
4 4 m 1
 3.5 4 l 1
 3 4 l 1
 3 4.5 l 1
 3 5 l 1
 3.5 5 l 1
 4 5 l 1
 4 4.5 l 1
 4 4 l 1
EndSplineSet
EndChar

StartChar: glyph2521
Encoding: 4322 4322 2521
Width: 6
VWidth: 0
Flags: HMW
LayerCount: 2
Back
Fore
SplineSet
2 5.5 m 1
 2 6 l 1
 2.5 6 l 1
 3 6 l 1
 3 5.5 l 1
 3 5 l 1
 2.5 5 l 1
 2 5 l 1
 2 4.5 l 1
 2 4 l 1
 2.5 4 l 1
 3 4 l 1
 3 4.5 l 1
 3 5 l 1
 3.5 5 l 1
 4 5 l 1
 4 4 l 1
 4 3 l 1
 3.5 3 l 1
 3 3 l 1
 3 2.5 l 1
 3 2 l 1
 2.5 2 l 1
 2 2 l 1
 2 3 l 1
 2 4 l 1
 1.5 4 l 1
 1 4 l 1
 1 4.5 l 1
 1 5 l 1
 1.5 5 l 1
 2 5 l 1
 2 5.5 l 1
1 -0 m 1
 2.5 -0 l 1
 4 -0 l 1
 4 1.5 l 1
 4 3 l 1
 4.5 3 l 1
 5 3 l 1
 5 1.5 l 1
 5 -0 l 1
 4.5 -0 l 1
 4 -0 l 1
 4 -0.5 l 1
 4 -1 l 1
 2.5 -1 l 1
 1 -1 l 1
 1 -0.5 l 1
 1 -0 l 1
1 -0 m 1
 0.5 -0 l 1
 0 -0 l 1
 0 1.5 l 1
 0 3 l 1
 0.5 3 l 1
 1 3 l 1
 1 1.5 l 1
 1 -0 l 1
EndSplineSet
EndChar

StartChar: glyph2522
Encoding: 4323 4323 2522
Width: 6
VWidth: 0
Flags: HMW
LayerCount: 2
Back
Fore
SplineSet
1 4.5 m 1
 1 5 l 1
 1.5 5 l 1
 2 5 l 1
 2 4.5 l 1
 2 4 l 1
 1.5 4 l 1
 1 4 l 1
 1 4.5 l 1
1 4 m 1
 1 3.5 l 1
 1 3 l 1
 0.5 3 l 1
 0 3 l 1
 0 3.5 l 1
 0 4 l 1
 0.5 4 l 1
 1 4 l 1
1 -0 m 1
 2.5 -0 l 1
 4 -0 l 1
 4 2 l 1
 4 4 l 1
 3.5 4 l 1
 3 4 l 1
 3 3.5 l 1
 3 3 l 1
 2.5 3 l 1
 2 3 l 1
 2 3.5 l 1
 2 4 l 1
 2.5 4 l 1
 3 4 l 1
 3 4.5 l 1
 3 5 l 1
 3.5 5 l 1
 4 5 l 1
 4 4.5 l 1
 4 4 l 1
 4.5 4 l 1
 5 4 l 1
 5 2 l 1
 5 -0 l 1
 4.5 -0 l 1
 4 -0 l 1
 4 -0.5 l 1
 4 -1 l 1
 2.5 -1 l 1
 1 -1 l 1
 1 -0.5 l 1
 1 -0 l 1
1 -0 m 1
 0.5 -0 l 1
 0 -0 l 1
 0 0.5 l 1
 0 1 l 1
 0.5 1 l 1
 1 1 l 1
 1 0.5 l 1
 1 -0 l 1
EndSplineSet
EndChar

StartChar: glyph2523
Encoding: 4324 4324 2523
Width: 6
VWidth: 0
Flags: HMW
LayerCount: 2
Back
Fore
SplineSet
1 4.5 m 1
 1 5 l 1
 1.5 5 l 1
 2 5 l 1
 2 4.5 l 1
 2 4 l 1
 1.5 4 l 1
 1 4 l 1
 1 3.5 l 1
 1 3 l 1
 1.5 3 l 1
 2 3 l 1
 2 3.5 l 1
 2 4 l 1
 2.5 4 l 1
 3 4 l 1
 3 3.5 l 1
 3 3 l 1
 2.5 3 l 1
 2 3 l 1
 2 2.5 l 1
 2 2 l 1
 1.5 2 l 1
 1 2 l 1
 1 2.5 l 1
 1 3 l 1
 0.5 3 l 1
 0 3 l 1
 0 3.5 l 1
 0 4 l 1
 0.5 4 l 1
 1 4 l 1
 1 4.5 l 1
2 -0 m 1
 3 -0 l 1
 4 -0 l 1
 4 0.5 l 1
 4 1 l 1
 3.5 1 l 1
 3 1 l 1
 3 1.5 l 1
 3 2 l 1
 3.5 2 l 1
 4 2 l 1
 4 3 l 1
 4 4 l 1
 3.5 4 l 1
 3 4 l 1
 3 4.5 l 1
 3 5 l 1
 3.5 5 l 1
 4 5 l 1
 4 4.5 l 1
 4 4 l 1
 4.5 4 l 1
 5 4 l 1
 5 3 l 1
 5 2 l 1
 4.5 2 l 1
 4 2 l 1
 4 1.5 l 1
 4 1 l 1
 4.5 1 l 1
 5 1 l 1
 5 0.5 l 1
 5 -0 l 1
 4.5 -0 l 1
 4 -0 l 1
 4 -0.5 l 1
 4 -1 l 1
 3 -1 l 1
 2 -1 l 1
 2 -0.5 l 1
 2 -0 l 1
2 -0 m 1
 1.5 -0 l 1
 1 -0 l 1
 1 0.5 l 1
 1 1 l 1
 1.5 1 l 1
 2 1 l 1
 2 0.5 l 1
 2 -0 l 1
EndSplineSet
EndChar

StartChar: glyph2524
Encoding: 4325 4325 2524
Width: 6
VWidth: 0
Flags: HMW
LayerCount: 2
Back
Fore
SplineSet
4 5.5 m 1
 4 7 l 1
 4.5 7 l 1
 5 7 l 1
 5 3.5 l 1
 5 -0 l 1
 4.5 -0 l 1
 4 -0 l 1
 4 1.5 l 1
 4 3 l 1
 3 3 l 1
 2 3 l 1
 2 3.5 l 1
 2 4 l 1
 3 4 l 1
 4 4 l 1
 4 5.5 l 1
2 3 m 1
 2 2.5 l 1
 2 2 l 1
 1.5 2 l 1
 1 2 l 1
 1 2.5 l 1
 1 3 l 1
 1.5 3 l 1
 2 3 l 1
1 -0 m 1
 2.5 -0 l 1
 4 -0 l 1
 4 -0.5 l 1
 4 -1 l 1
 2.5 -1 l 1
 1 -1 l 1
 1 -0.5 l 1
 1 -0 l 1
1 -0 m 1
 0.5 -0 l 1
 0 -0 l 1
 0 0.5 l 1
 0 1 l 1
 0.5 1 l 1
 1 1 l 1
 1 0.5 l 1
 1 -0 l 1
EndSplineSet
EndChar

StartChar: glyph2525
Encoding: 4326 4326 2525
Width: 6
VWidth: 0
Flags: HMW
LayerCount: 2
Back
Fore
SplineSet
1 4.5 m 1
 1 5 l 1
 1.5 5 l 1
 2 5 l 1
 2 4.5 l 1
 2 4 l 1
 1.5 4 l 1
 1 4 l 1
 1 4.5 l 1
3 -0 m 1
 1.5 -0 l 1
 0 -0 l 1
 0 0.5 l 1
 0 1 l 1
 0.5 1 l 1
 1 1 l 1
 1 1.5 l 1
 1 2 l 1
 0.5 2 l 1
 0 2 l 1
 0 3 l 1
 0 4 l 1
 0.5 4 l 1
 1 4 l 1
 1 3 l 1
 1 2 l 1
 1.5 2 l 1
 2 2 l 1
 2 1.5 l 1
 2 1 l 1
 2.5 1 l 1
 3 1 l 1
 3 0.5 l 1
 3 -0 l 1
3 -0 m 1
 3.5 -0 l 1
 4 -0 l 1
 4 -0.5 l 1
 4 -1 l 1
 3.5 -1 l 1
 3 -1 l 1
 3 -0.5 l 1
 3 -0 l 1
4 4 m 1
 3.5 4 l 1
 3 4 l 1
 3 3.5 l 1
 3 3 l 1
 2.5 3 l 1
 2 3 l 1
 2 3.5 l 1
 2 4 l 1
 2.5 4 l 1
 3 4 l 1
 3 4.5 l 1
 3 5 l 1
 3.5 5 l 1
 4 5 l 1
 4 4.5 l 1
 4 4 l 1
4 4 m 1
 4.5 4 l 1
 5 4 l 1
 5 3 l 1
 5 2 l 1
 4.5 2 l 1
 4 2 l 1
 4 3 l 1
 4 4 l 1
EndSplineSet
EndChar

StartChar: glyph2526
Encoding: 4327 4327 2526
Width: 6
VWidth: 0
Flags: HMW
LayerCount: 2
Back
Fore
SplineSet
1 4.5 m 1
 1 5 l 1
 1.5 5 l 1
 2 5 l 1
 2 4.5 l 1
 2 4 l 1
 1.5 4 l 1
 1 4 l 1
 1 4.5 l 1
4 -0 m 1
 4 0.5 l 1
 4 1 l 1
 2.5 1 l 1
 1 1 l 1
 1 1.5 l 1
 1 2 l 1
 0.5 2 l 1
 0 2 l 1
 0 3 l 1
 0 4 l 1
 0.5 4 l 1
 1 4 l 1
 1 3 l 1
 1 2 l 1
 2.5 2 l 1
 4 2 l 1
 4 3.5 l 1
 4 5 l 1
 4.5 5 l 1
 5 5 l 1
 5 2.5 l 1
 5 -0 l 1
 4.5 -0 l 1
 4 -0 l 1
4 -0 m 1
 4 -0.5 l 1
 4 -1 l 1
 2 -1 l 1
 0 -1 l 1
 0 -0.5 l 1
 0 -0 l 1
 2 -0 l 1
 4 -0 l 1
EndSplineSet
EndChar

StartChar: glyph2527
Encoding: 4328 4328 2527
Width: 6
VWidth: 0
Flags: HMW
LayerCount: 2
Back
Fore
SplineSet
4 2 m 1
 4 3 l 1
 3 3 l 1
 2 3 l 1
 2 2 l 1
 2 1 l 1
 3 1 l 1
 4 1 l 1
 4 2 l 1
1 6.5 m 1
 1 7 l 1
 1.5 7 l 1
 2 7 l 1
 2 6.5 l 1
 2 6 l 1
 1.5 6 l 1
 1 6 l 1
 1 6.5 l 1
1 6 m 1
 1 5.5 l 1
 1 5 l 1
 0.5 5 l 1
 0 5 l 1
 0 5.5 l 1
 0 6 l 1
 0.5 6 l 1
 1 6 l 1
2 3 m 1
 2 3.5 l 1
 2 4 l 1
 3 4 l 1
 4 4 l 1
 4 5 l 1
 4 6 l 1
 3.5 6 l 1
 3 6 l 1
 3 5.5 l 1
 3 5 l 1
 2.5 5 l 1
 2 5 l 1
 2 5.5 l 1
 2 6 l 1
 2.5 6 l 1
 3 6 l 1
 3 6.5 l 1
 3 7 l 1
 3.5 7 l 1
 4 7 l 1
 4 6.5 l 1
 4 6 l 1
 4.5 6 l 1
 5 6 l 1
 5 3.5 l 1
 5 1 l 1
 4.5 1 l 1
 4 1 l 1
 4 0.5 l 1
 4 -0 l 1
 3 -0 l 1
 2 -0 l 1
 2 0.5 l 1
 2 1 l 1
 1.5 1 l 1
 1 1 l 1
 1 2 l 1
 1 3 l 1
 1.5 3 l 1
 2 3 l 1
EndSplineSet
EndChar

StartChar: glyph2528
Encoding: 4329 4329 2528
Width: 6
VWidth: 0
Flags: HMW
LayerCount: 2
Back
Fore
SplineSet
1 6.5 m 1
 1 7 l 1
 2 7 l 1
 3 7 l 1
 3 6.5 l 1
 3 6 l 1
 2 6 l 1
 1 6 l 1
 1 5.5 l 1
 1 5 l 1
 2 5 l 1
 3 5 l 1
 3 5.5 l 1
 3 6 l 1
 3.5 6 l 1
 4 6 l 1
 4 5.5 l 1
 4 5 l 1
 3.5 5 l 1
 3 5 l 1
 3 4.5 l 1
 3 4 l 1
 2 4 l 1
 1 4 l 1
 1 3.5 l 1
 1 3 l 1
 2.5 3 l 1
 4 3 l 1
 4 2.5 l 1
 4 2 l 1
 2.5 2 l 1
 1 2 l 1
 1 1 l 1
 1 -0 l 1
 0.5 -0 l 1
 0 -0 l 1
 0 3 l 1
 0 6 l 1
 0.5 6 l 1
 1 6 l 1
 1 6.5 l 1
4 2 m 1
 4.5 2 l 1
 5 2 l 1
 5 1 l 1
 5 -0 l 1
 4.5 -0 l 1
 4 -0 l 1
 4 1 l 1
 4 2 l 1
EndSplineSet
EndChar

StartChar: glyph2529
Encoding: 4330 4330 2529
Width: 6
VWidth: 0
Flags: HMW
LayerCount: 2
Back
Fore
SplineSet
1 4.5 m 1
 1 5 l 1
 1.5 5 l 1
 2 5 l 1
 2 4.5 l 1
 2 4 l 1
 1.5 4 l 1
 1 4 l 1
 1 4.5 l 1
4 4 m 1
 4.5 4 l 1
 5 4 l 1
 5 3.5 l 1
 5 3 l 1
 4.5 3 l 1
 4 3 l 1
 4 2.5 l 1
 4 2 l 1
 4.5 2 l 1
 5 2 l 1
 5 1 l 1
 5 -0 l 1
 4.5 -0 l 1
 4 -0 l 1
 4 -0.5 l 1
 4 -1 l 1
 2.5 -1 l 1
 1 -1 l 1
 1 -0.5 l 1
 1 -0 l 1
 0.5 -0 l 1
 0 -0 l 1
 0 2 l 1
 0 4 l 1
 0.5 4 l 1
 1 4 l 1
 1 2 l 1
 1 -0 l 1
 2.5 -0 l 1
 4 -0 l 1
 4 1 l 1
 4 2 l 1
 3.5 2 l 1
 3 2 l 1
 3 2.5 l 1
 3 3 l 1
 3.5 3 l 1
 4 3 l 1
 4 3.5 l 1
 4 4 l 1
4 4 m 1
 3.5 4 l 1
 3 4 l 1
 3 4.5 l 1
 3 5 l 1
 3.5 5 l 1
 4 5 l 1
 4 4.5 l 1
 4 4 l 1
EndSplineSet
EndChar

StartChar: glyph2530
Encoding: 4331 4331 2530
Width: 6
VWidth: 0
Flags: HMW
LayerCount: 2
Back
Fore
SplineSet
4 5.5 m 1
 4 7 l 1
 4.5 7 l 1
 5 7 l 1
 5 4 l 1
 5 1 l 1
 4.5 1 l 1
 4 1 l 1
 4 2 l 1
 4 3 l 1
 3.5 3 l 1
 3 3 l 1
 3 3.5 l 1
 3 4 l 1
 2 4 l 1
 1 4 l 1
 1 2.5 l 1
 1 1 l 1
 2.5 1 l 1
 4 1 l 1
 4 0.5 l 1
 4 -0 l 1
 2.5 -0 l 1
 1 -0 l 1
 1 0.5 l 1
 1 1 l 1
 0.5 1 l 1
 0 1 l 1
 0 2.5 l 1
 0 4 l 1
 0.5 4 l 1
 1 4 l 1
 1 4.5 l 1
 1 5 l 1
 2 5 l 1
 3 5 l 1
 3 4.5 l 1
 3 4 l 1
 3.5 4 l 1
 4 4 l 1
 4 5.5 l 1
EndSplineSet
EndChar

StartChar: glyph2531
Encoding: 4332 4332 2531
Width: 6
VWidth: 0
Flags: HMW
LayerCount: 2
Back
Fore
SplineSet
1 6.5 m 1
 1 7 l 1
 1.5 7 l 1
 2 7 l 1
 2 6.5 l 1
 2 6 l 1
 1.5 6 l 1
 1 6 l 1
 1 6.5 l 1
1 2 m 1
 1.5 2 l 1
 2 2 l 1
 2 1 l 1
 2 -0 l 1
 2.5 -0 l 1
 3 -0 l 1
 3 1 l 1
 3 2 l 1
 3.5 2 l 1
 4 2 l 1
 4 2.5 l 1
 4 3 l 1
 2.5 3 l 1
 1 3 l 1
 1 2.5 l 1
 1 2 l 1
1 2 m 1
 0.5 2 l 1
 0 2 l 1
 0 4 l 1
 0 6 l 1
 0.5 6 l 1
 1 6 l 1
 1 5 l 1
 1 4 l 1
 2.5 4 l 1
 4 4 l 1
 4 3.5 l 1
 4 3 l 1
 4.5 3 l 1
 5 3 l 1
 5 2.5 l 1
 5 2 l 1
 4.5 2 l 1
 4 2 l 1
 4 1 l 1
 4 -0 l 1
 3.5 -0 l 1
 3 -0 l 1
 3 -0.5 l 1
 3 -1 l 1
 2.5 -1 l 1
 2 -1 l 1
 2 -0.5 l 1
 2 -0 l 1
 1.5 -0 l 1
 1 -0 l 1
 1 1 l 1
 1 2 l 1
4 6 m 1
 3.5 6 l 1
 3 6 l 1
 3 5.5 l 1
 3 5 l 1
 2.5 5 l 1
 2 5 l 1
 2 5.5 l 1
 2 6 l 1
 2.5 6 l 1
 3 6 l 1
 3 6.5 l 1
 3 7 l 1
 3.5 7 l 1
 4 7 l 1
 4 6.5 l 1
 4 6 l 1
4 6 m 1
 4.5 6 l 1
 5 6 l 1
 5 5.5 l 1
 5 5 l 1
 4.5 5 l 1
 4 5 l 1
 4 5.5 l 1
 4 6 l 1
EndSplineSet
EndChar

StartChar: glyph2532
Encoding: 4333 4333 2532
Width: 6
VWidth: 0
Flags: HMW
LayerCount: 2
Back
Fore
SplineSet
3 3.5 m 1
 3 4 l 1
 2.5 4 l 1
 2 4 l 1
 2 3.5 l 1
 2 3 l 1
 2.5 3 l 1
 3 3 l 1
 3 3.5 l 1
0 6.5 m 1
 0 7 l 1
 1.5 7 l 1
 3 7 l 1
 3 6.5 l 1
 3 6 l 1
 1.5 6 l 1
 0 6 l 1
 0 6.5 l 1
2 4 m 1
 2 4.5 l 1
 2 5 l 1
 2.5 5 l 1
 3 5 l 1
 3 5.5 l 1
 3 6 l 1
 3.5 6 l 1
 4 6 l 1
 4 5.5 l 1
 4 5 l 1
 4.5 5 l 1
 5 5 l 1
 5 4.5 l 1
 5 4 l 1
 4.5 4 l 1
 4 4 l 1
 4 3.5 l 1
 4 3 l 1
 4.5 3 l 1
 5 3 l 1
 5 2.5 l 1
 5 2 l 1
 4.5 2 l 1
 4 2 l 1
 4 1.5 l 1
 4 1 l 1
 3.5 1 l 1
 3 1 l 1
 3 1.5 l 1
 3 2 l 1
 2.5 2 l 1
 2 2 l 1
 2 2.5 l 1
 2 3 l 1
 1.5 3 l 1
 1 3 l 1
 1 3.5 l 1
 1 4 l 1
 1.5 4 l 1
 2 4 l 1
1 -0 m 1
 2.5 -0 l 1
 4 -0 l 1
 4 0.5 l 1
 4 1 l 1
 4.5 1 l 1
 5 1 l 1
 5 0.5 l 1
 5 -0 l 1
 4.5 -0 l 1
 4 -0 l 1
 4 -0.5 l 1
 4 -1 l 1
 2.5 -1 l 1
 1 -1 l 1
 1 -0.5 l 1
 1 -0 l 1
1 -0 m 1
 0.5 -0 l 1
 0 -0 l 1
 0 0.5 l 1
 0 1 l 1
 0.5 1 l 1
 1 1 l 1
 1 0.5 l 1
 1 -0 l 1
EndSplineSet
EndChar

StartChar: glyph2533
Encoding: 4334 4334 2533
Width: 6
VWidth: 0
Flags: HMW
LayerCount: 2
Back
Fore
SplineSet
0 4 m 1
 0 7 l 1
 0.5 7 l 1
 1 7 l 1
 1 5.5 l 1
 1 4 l 1
 2.5 4 l 1
 4 4 l 1
 4 3.5 l 1
 4 3 l 1
 2.5 3 l 1
 1 3 l 1
 1 2 l 1
 1 1 l 1
 2.5 1 l 1
 4 1 l 1
 4 2 l 1
 4 3 l 1
 4.5 3 l 1
 5 3 l 1
 5 2 l 1
 5 1 l 1
 4.5 1 l 1
 4 1 l 1
 4 0.5 l 1
 4 -0 l 1
 2.5 -0 l 1
 1 -0 l 1
 1 0.5 l 1
 1 1 l 1
 0.5 1 l 1
 0 1 l 1
 0 4 l 1
EndSplineSet
EndChar

StartChar: glyph2534
Encoding: 4335 4335 2534
Width: 5
VWidth: 0
Flags: HMW
LayerCount: 2
Back
Fore
SplineSet
2 6 m 1
 2 7 l 1
 2.5 7 l 1
 3 7 l 1
 3 6 l 1
 3 5 l 1
 3.5 5 l 1
 4 5 l 1
 4 4.5 l 1
 4 4 l 1
 3.5 4 l 1
 3 4 l 1
 3 3 l 1
 3 2 l 1
 2.5 2 l 1
 2 2 l 1
 2 3 l 1
 2 4 l 1
 1.5 4 l 1
 1 4 l 1
 1 4.5 l 1
 1 5 l 1
 1.5 5 l 1
 2 5 l 1
 2 6 l 1
1 -0 m 1
 2 -0 l 1
 3 -0 l 1
 3 1 l 1
 3 2 l 1
 3.5 2 l 1
 4 2 l 1
 4 1 l 1
 4 -0 l 1
 3.5 -0 l 1
 3 -0 l 1
 3 -0.5 l 1
 3 -1 l 1
 2 -1 l 1
 1 -1 l 1
 1 -0.5 l 1
 1 -0 l 1
1 -0 m 1
 0.5 -0 l 1
 0 -0 l 1
 0 0.5 l 1
 0 1 l 1
 0.5 1 l 1
 1 1 l 1
 1 0.5 l 1
 1 -0 l 1
EndSplineSet
EndChar

StartChar: glyph2535
Encoding: 4336 4336 2535
Width: 6
VWidth: 0
Flags: HMW
LayerCount: 2
Back
Fore
SplineSet
2 6.5 m 1
 2 7 l 1
 3 7 l 1
 4 7 l 1
 4 6.5 l 1
 4 6 l 1
 3 6 l 1
 2 6 l 1
 2 6.5 l 1
1 1 m 1
 2.5 1 l 1
 4 1 l 1
 4 1.5 l 1
 4 2 l 1
 3 2 l 1
 2 2 l 1
 2 2.5 l 1
 2 3 l 1
 3 3 l 1
 4 3 l 1
 4 3.5 l 1
 4 4 l 1
 3 4 l 1
 2 4 l 1
 2 4.5 l 1
 2 5 l 1
 3 5 l 1
 4 5 l 1
 4 5.5 l 1
 4 6 l 1
 4.5 6 l 1
 5 6 l 1
 5 5.5 l 1
 5 5 l 1
 4.5 5 l 1
 4 5 l 1
 4 4.5 l 1
 4 4 l 1
 4.5 4 l 1
 5 4 l 1
 5 3.5 l 1
 5 3 l 1
 4.5 3 l 1
 4 3 l 1
 4 2.5 l 1
 4 2 l 1
 4.5 2 l 1
 5 2 l 1
 5 1.5 l 1
 5 1 l 1
 4.5 1 l 1
 4 1 l 1
 4 0.5 l 1
 4 -0 l 1
 2.5 -0 l 1
 1 -0 l 1
 1 0.5 l 1
 1 1 l 1
1 1 m 1
 0.5 1 l 1
 0 1 l 1
 0 1.5 l 1
 0 2 l 1
 0.5 2 l 1
 1 2 l 1
 1 1.5 l 1
 1 1 l 1
EndSplineSet
EndChar

StartChar: glyph2536
Encoding: 4337 4337 2536
Width: 7
VWidth: 0
Flags: HMW
LayerCount: 2
Back
Fore
SplineSet
1 6.5 m 1
 1 7 l 1
 1.5 7 l 1
 2 7 l 1
 2 6.5 l 1
 2 6 l 1
 1.5 6 l 1
 1 6 l 1
 1 5 l 1
 1 4 l 1
 1.5 4 l 1
 2 4 l 1
 2 5 l 1
 2 6 l 1
 2.5 6 l 1
 3 6 l 1
 3 5 l 1
 3 4 l 1
 2.5 4 l 1
 2 4 l 1
 2 3.5 l 1
 2 3 l 1
 1.5 3 l 1
 1 3 l 1
 1 2 l 1
 1 1 l 1
 0.5 1 l 1
 0 1 l 1
 0 3.5 l 1
 0 6 l 1
 0.5 6 l 1
 1 6 l 1
 1 6.5 l 1
5 6 m 1
 5.5 6 l 1
 6 6 l 1
 6 5.5 l 1
 6 5 l 1
 5.5 5 l 1
 5 5 l 1
 5 4.5 l 1
 5 4 l 1
 5.5 4 l 1
 6 4 l 1
 6 3.5 l 1
 6 3 l 1
 5.5 3 l 1
 5 3 l 1
 5 2.5 l 1
 5 2 l 1
 5.5 2 l 1
 6 2 l 1
 6 1.5 l 1
 6 1 l 1
 5.5 1 l 1
 5 1 l 1
 5 0.5 l 1
 5 -0 l 1
 3 -0 l 1
 1 -0 l 1
 1 0.5 l 1
 1 1 l 1
 3 1 l 1
 5 1 l 1
 5 1.5 l 1
 5 2 l 1
 4.5 2 l 1
 4 2 l 1
 4 2.5 l 1
 4 3 l 1
 4.5 3 l 1
 5 3 l 1
 5 3.5 l 1
 5 4 l 1
 4.5 4 l 1
 4 4 l 1
 4 4.5 l 1
 4 5 l 1
 4.5 5 l 1
 5 5 l 1
 5 5.5 l 1
 5 6 l 1
5 6 m 1
 4.5 6 l 1
 4 6 l 1
 4 6.5 l 1
 4 7 l 1
 4.5 7 l 1
 5 7 l 1
 5 6.5 l 1
 5 6 l 1
EndSplineSet
EndChar

StartChar: glyph2537
Encoding: 4338 4338 2537
Width: 6
VWidth: 0
Flags: HMW
LayerCount: 2
Back
Fore
SplineSet
1 4.5 m 1
 1 5 l 1
 2.5 5 l 1
 4 5 l 1
 4 4.5 l 1
 4 4 l 1
 2.5 4 l 1
 1 4 l 1
 1 3 l 1
 1 2 l 1
 1.5 2 l 1
 2 2 l 1
 2 1.5 l 1
 2 1 l 1
 2.5 1 l 1
 3 1 l 1
 3 1.5 l 1
 3 2 l 1
 3.5 2 l 1
 4 2 l 1
 4 3 l 1
 4 4 l 1
 4.5 4 l 1
 5 4 l 1
 5 3 l 1
 5 2 l 1
 4.5 2 l 1
 4 2 l 1
 4 1.5 l 1
 4 1 l 1
 3.5 1 l 1
 3 1 l 1
 3 0.5 l 1
 3 -0 l 1
 2.5 -0 l 1
 2 -0 l 1
 2 0.5 l 1
 2 1 l 1
 1.5 1 l 1
 1 1 l 1
 1 1.5 l 1
 1 2 l 1
 0.5 2 l 1
 0 2 l 1
 0 3 l 1
 0 4 l 1
 0.5 4 l 1
 1 4 l 1
 1 4.5 l 1
2 -0 m 1
 2 -0.5 l 1
 2 -1 l 1
 1.5 -1 l 1
 1 -1 l 1
 1 -0.5 l 1
 1 -0 l 1
 1.5 -0 l 1
 2 -0 l 1
3 -0 m 1
 3.5 -0 l 1
 4 -0 l 1
 4 -0.5 l 1
 4 -1 l 1
 3.5 -1 l 1
 3 -1 l 1
 3 -0.5 l 1
 3 -0 l 1
EndSplineSet
EndChar

StartChar: glyph2538
Encoding: 4339 4339 2538
Width: 6
VWidth: 0
Flags: HMW
LayerCount: 2
Back
Fore
SplineSet
0 4.5 m 1
 0 5 l 1
 2.5 5 l 1
 5 5 l 1
 5 4.5 l 1
 5 4 l 1
 4.5 4 l 1
 4 4 l 1
 4 3 l 1
 4 2 l 1
 3 2 l 1
 2 2 l 1
 2 2.5 l 1
 2 3 l 1
 2.5 3 l 1
 3 3 l 1
 3 3.5 l 1
 3 4 l 1
 1.5 4 l 1
 0 4 l 1
 0 4.5 l 1
1 -0 m 1
 2.5 -0 l 1
 4 -0 l 1
 4 1 l 1
 4 2 l 1
 4.5 2 l 1
 5 2 l 1
 5 1 l 1
 5 -0 l 1
 4.5 -0 l 1
 4 -0 l 1
 4 -0.5 l 1
 4 -1 l 1
 2.5 -1 l 1
 1 -1 l 1
 1 -0.5 l 1
 1 -0 l 1
1 -0 m 1
 0.5 -0 l 1
 0 -0 l 1
 0 0.5 l 1
 0 1 l 1
 0.5 1 l 1
 1 1 l 1
 1 0.5 l 1
 1 -0 l 1
EndSplineSet
EndChar

StartChar: glyph2539
Encoding: 4340 4340 2539
Width: 6
VWidth: 0
Flags: HMW
LayerCount: 2
Back
Fore
SplineSet
1 6.5 m 1
 1 7 l 1
 2 7 l 1
 3 7 l 1
 3 6.5 l 1
 3 6 l 1
 2 6 l 1
 1 6 l 1
 1 6.5 l 1
1 -0 m 1
 2.5 -0 l 1
 4 -0 l 1
 4 1 l 1
 4 2 l 1
 3 2 l 1
 2 2 l 1
 2 2.5 l 1
 2 3 l 1
 3 3 l 1
 4 3 l 1
 4 3.5 l 1
 4 4 l 1
 2.5 4 l 1
 1 4 l 1
 1 4.5 l 1
 1 5 l 1
 0.5 5 l 1
 0 5 l 1
 0 5.5 l 1
 0 6 l 1
 0.5 6 l 1
 1 6 l 1
 1 5.5 l 1
 1 5 l 1
 2.5 5 l 1
 4 5 l 1
 4 4.5 l 1
 4 4 l 1
 4.5 4 l 1
 5 4 l 1
 5 3.5 l 1
 5 3 l 1
 4.5 3 l 1
 4 3 l 1
 4 2.5 l 1
 4 2 l 1
 4.5 2 l 1
 5 2 l 1
 5 1 l 1
 5 -0 l 1
 4.5 -0 l 1
 4 -0 l 1
 4 -0.5 l 1
 4 -1 l 1
 2.5 -1 l 1
 1 -1 l 1
 1 -0.5 l 1
 1 -0 l 1
1 -0 m 1
 0.5 -0 l 1
 0 -0 l 1
 0 0.5 l 1
 0 1 l 1
 0.5 1 l 1
 1 1 l 1
 1 0.5 l 1
 1 -0 l 1
EndSplineSet
EndChar

StartChar: glyph2540
Encoding: 4341 4341 2540
Width: 6
VWidth: 0
Flags: HMW
LayerCount: 2
Back
Fore
SplineSet
3 1 m 1
 3 2 l 1
 2 2 l 1
 1 2 l 1
 1 1 l 1
 1 -0 l 1
 2 -0 l 1
 3 -0 l 1
 3 1 l 1
1 6.5 m 1
 1 7 l 1
 2 7 l 1
 3 7 l 1
 3 6.5 l 1
 3 6 l 1
 2 6 l 1
 1 6 l 1
 1 5.5 l 1
 1 5 l 1
 2 5 l 1
 3 5 l 1
 3 5.5 l 1
 3 6 l 1
 3.5 6 l 1
 4 6 l 1
 4 5.5 l 1
 4 5 l 1
 4.5 5 l 1
 5 5 l 1
 5 4.5 l 1
 5 4 l 1
 4.5 4 l 1
 4 4 l 1
 4 3.5 l 1
 4 3 l 1
 4.5 3 l 1
 5 3 l 1
 5 2.5 l 1
 5 2 l 1
 4.5 2 l 1
 4 2 l 1
 4 1 l 1
 4 -0 l 1
 3.5 -0 l 1
 3 -0 l 1
 3 -0.5 l 1
 3 -1 l 1
 2 -1 l 1
 1 -1 l 1
 1 -0.5 l 1
 1 -0 l 1
 0.5 -0 l 1
 0 -0 l 1
 0 1 l 1
 0 2 l 1
 0.5 2 l 1
 1 2 l 1
 1 2.5 l 1
 1 3 l 1
 2 3 l 1
 3 3 l 1
 3 3.5 l 1
 3 4 l 1
 2 4 l 1
 1 4 l 1
 1 4.5 l 1
 1 5 l 1
 0.5 5 l 1
 0 5 l 1
 0 5.5 l 1
 0 6 l 1
 0.5 6 l 1
 1 6 l 1
 1 6.5 l 1
EndSplineSet
EndChar

StartChar: glyph2541
Encoding: 4342 4342 2541
Width: 6
VWidth: 0
Flags: HMW
LayerCount: 2
Back
Fore
SplineSet
2 3 m 1
 2 4 l 1
 1.5 4 l 1
 1 4 l 1
 1 3 l 1
 1 2 l 1
 1.5 2 l 1
 2 2 l 1
 2 3 l 1
0 6.5 m 1
 0 7 l 1
 1 7 l 1
 2 7 l 1
 2 6.5 l 1
 2 6 l 1
 1 6 l 1
 0 6 l 1
 0 6.5 l 1
1 4 m 1
 1 4.5 l 1
 1 5 l 1
 1.5 5 l 1
 2 5 l 1
 2 5.5 l 1
 2 6 l 1
 2.5 6 l 1
 3 6 l 1
 3 5.5 l 1
 3 5 l 1
 3.5 5 l 1
 4 5 l 1
 4 4.5 l 1
 4 4 l 1
 3.5 4 l 1
 3 4 l 1
 3 3 l 1
 3 2 l 1
 3.5 2 l 1
 4 2 l 1
 4 3 l 1
 4 4 l 1
 4.5 4 l 1
 5 4 l 1
 5 3 l 1
 5 2 l 1
 4.5 2 l 1
 4 2 l 1
 4 1.5 l 1
 4 1 l 1
 3.5 1 l 1
 3 1 l 1
 3 0.5 l 1
 3 -0 l 1
 2.5 -0 l 1
 2 -0 l 1
 2 0.5 l 1
 2 1 l 1
 1.5 1 l 1
 1 1 l 1
 1 1.5 l 1
 1 2 l 1
 0.5 2 l 1
 0 2 l 1
 0 3 l 1
 0 4 l 1
 0.5 4 l 1
 1 4 l 1
3 -0 m 1
 4 -0 l 1
 5 -0 l 1
 5 -0.5 l 1
 5 -1 l 1
 4 -1 l 1
 3 -1 l 1
 3 -0.5 l 1
 3 -0 l 1
EndSplineSet
EndChar

StartChar: glyph2542
Encoding: 4343 4343 2542
Width: 6
VWidth: 0
Flags: HMW
LayerCount: 2
Back
Fore
SplineSet
0 4.5 m 1
 0 5 l 1
 2 5 l 1
 4 5 l 1
 4 4.5 l 1
 4 4 l 1
 2 4 l 1
 0 4 l 1
 0 4.5 l 1
4 -0 m 1
 4 -0.5 l 1
 4 -1 l 1
 2.5 -1 l 1
 1 -1 l 1
 1 -0.5 l 1
 1 -0 l 1
 0.5 -0 l 1
 0 -0 l 1
 0 1 l 1
 0 2 l 1
 0.5 2 l 1
 1 2 l 1
 1 2.5 l 1
 1 3 l 1
 2.5 3 l 1
 4 3 l 1
 4 3.5 l 1
 4 4 l 1
 4.5 4 l 1
 5 4 l 1
 5 3.5 l 1
 5 3 l 1
 4.5 3 l 1
 4 3 l 1
 4 2.5 l 1
 4 2 l 1
 2.5 2 l 1
 1 2 l 1
 1 1 l 1
 1 -0 l 1
 2.5 -0 l 1
 4 -0 l 1
4 -0 m 1
 4 0.5 l 1
 4 1 l 1
 4.5 1 l 1
 5 1 l 1
 5 0.5 l 1
 5 -0 l 1
 4.5 -0 l 1
 4 -0 l 1
EndSplineSet
EndChar

StartChar: glyph2543
Encoding: 4344 4344 2543
Width: 6
VWidth: 0
Flags: HMW
LayerCount: 2
Back
Fore
SplineSet
0 2.5 m 1
 0 5 l 1
 0.5 5 l 1
 1 5 l 1
 1 3.5 l 1
 1 2 l 1
 2.5 2 l 1
 4 2 l 1
 4 1.5 l 1
 4 1 l 1
 2.5 1 l 1
 1 1 l 1
 1 0.5 l 1
 1 -0 l 1
 0.5 -0 l 1
 0 -0 l 1
 0 2.5 l 1
1 -0 m 1
 3 -0 l 1
 5 -0 l 1
 5 -0.5 l 1
 5 -1 l 1
 3 -1 l 1
 1 -1 l 1
 1 -0.5 l 1
 1 -0 l 1
4 4 m 1
 4.5 4 l 1
 5 4 l 1
 5 3 l 1
 5 2 l 1
 4.5 2 l 1
 4 2 l 1
 4 3 l 1
 4 4 l 1
4 4 m 1
 3.5 4 l 1
 3 4 l 1
 3 4.5 l 1
 3 5 l 1
 3.5 5 l 1
 4 5 l 1
 4 4.5 l 1
 4 4 l 1
EndSplineSet
EndChar

StartChar: glyph2544
Encoding: 4345 4345 2544
Width: 6
VWidth: 0
Flags: HMW
LayerCount: 2
Back
Fore
SplineSet
1 4.5 m 1
 1 5 l 1
 2.5 5 l 1
 4 5 l 1
 4 4.5 l 1
 4 4 l 1
 2.5 4 l 1
 1 4 l 1
 1 3 l 1
 1 2 l 1
 2.5 2 l 1
 4 2 l 1
 4 3 l 1
 4 4 l 1
 4.5 4 l 1
 5 4 l 1
 5 3 l 1
 5 2 l 1
 4.5 2 l 1
 4 2 l 1
 4 1.5 l 1
 4 1 l 1
 3.5 1 l 1
 3 1 l 1
 3 0.5 l 1
 3 -0 l 1
 2.5 -0 l 1
 2 -0 l 1
 2 0.5 l 1
 2 1 l 1
 1.5 1 l 1
 1 1 l 1
 1 1.5 l 1
 1 2 l 1
 0.5 2 l 1
 0 2 l 1
 0 3 l 1
 0 4 l 1
 0.5 4 l 1
 1 4 l 1
 1 4.5 l 1
3 -0 m 1
 4 -0 l 1
 5 -0 l 1
 5 -0.5 l 1
 5 -1 l 1
 4 -1 l 1
 3 -1 l 1
 3 -0.5 l 1
 3 -0 l 1
EndSplineSet
EndChar

StartChar: glyph2545
Encoding: 4346 4346 2545
Width: 6
VWidth: 0
Flags: HMW
LayerCount: 2
Back
Fore
SplineSet
1 4.5 m 1
 1 5 l 1
 2.5 5 l 1
 4 5 l 1
 4 4.5 l 1
 4 4 l 1
 2.5 4 l 1
 1 4 l 1
 1 4.5 l 1
4 -0 m 1
 2 -0 l 1
 0 -0 l 1
 0 0.5 l 1
 0 1 l 1
 0.5 1 l 1
 1 1 l 1
 1 1.5 l 1
 1 2 l 1
 0.5 2 l 1
 0 2 l 1
 0 3 l 1
 0 4 l 1
 0.5 4 l 1
 1 4 l 1
 1 3 l 1
 1 2 l 1
 1.5 2 l 1
 2 2 l 1
 2 1.5 l 1
 2 1 l 1
 3 1 l 1
 4 1 l 1
 4 0.5 l 1
 4 -0 l 1
4 -0 m 1
 4.5 -0 l 1
 5 -0 l 1
 5 -0.5 l 1
 5 -1 l 1
 4.5 -1 l 1
 4 -1 l 1
 4 -0.5 l 1
 4 -0 l 1
4 4 m 1
 4.5 4 l 1
 5 4 l 1
 5 3.5 l 1
 5 3 l 1
 4.5 3 l 1
 4 3 l 1
 4 3.5 l 1
 4 4 l 1
EndSplineSet
EndChar

StartChar: glyph2546
Encoding: 4347 4347 2546
Width: 4
VWidth: 0
Flags: HMW
LayerCount: 2
Back
Fore
SplineSet
0 3.5 m 1
 0 4 l 1
 0.5 4 l 1
 1 4 l 1
 1 3.5 l 1
 1 3 l 1
 0.5 3 l 1
 0 3 l 1
 0 3.5 l 1
2 2.5 m 1
 2 3 l 1
 2.5 3 l 1
 3 3 l 1
 3 2.5 l 1
 3 2 l 1
 2.5 2 l 1
 2 2 l 1
 2 2.5 l 1
0 1.5 m 1
 0 2 l 1
 0.5 2 l 1
 1 2 l 1
 1 1.5 l 1
 1 1 l 1
 0.5 1 l 1
 0 1 l 1
 0 1.5 l 1
EndSplineSet
EndChar

StartChar: glyph2547
Encoding: 4348 4348 2547
Width: 4
VWidth: 0
Flags: HMW
LayerCount: 2
Back
Fore
SplineSet
0 4.5 m 1
 0 7 l 1
 1.5 7 l 1
 3 7 l 1
 3 6.5 l 1
 3 6 l 1
 2 6 l 1
 1 6 l 1
 1 5.5 l 1
 1 5 l 1
 1.5 5 l 1
 2 5 l 1
 2 4.5 l 1
 2 4 l 1
 1.5 4 l 1
 1 4 l 1
 1 3.5 l 1
 1 3 l 1
 1.5 3 l 1
 2 3 l 1
 2 3.5 l 1
 2 4 l 1
 2.5 4 l 1
 3 4 l 1
 3 3.5 l 1
 3 3 l 1
 2.5 3 l 1
 2 3 l 1
 2 2.5 l 1
 2 2 l 1
 1 2 l 1
 0 2 l 1
 0 4.5 l 1
EndSplineSet
EndChar

StartChar: glyph2548
Encoding: 4349 4349 2548
Width: 6
VWidth: 0
Flags: HMW
LayerCount: 2
Back
Fore
SplineSet
1 4.5 m 1
 1 5 l 1
 3 5 l 1
 5 5 l 1
 5 4.5 l 1
 5 4 l 1
 3 4 l 1
 1 4 l 1
 1 4.5 l 1
1 -0 m 1
 2.5 -0 l 1
 4 -0 l 1
 4 1 l 1
 4 2 l 1
 2.5 2 l 1
 1 2 l 1
 1 2.5 l 1
 1 3 l 1
 0.5 3 l 1
 0 3 l 1
 0 3.5 l 1
 0 4 l 1
 0.5 4 l 1
 1 4 l 1
 1 3.5 l 1
 1 3 l 1
 2.5 3 l 1
 4 3 l 1
 4 2.5 l 1
 4 2 l 1
 4.5 2 l 1
 5 2 l 1
 5 1 l 1
 5 -0 l 1
 4.5 -0 l 1
 4 -0 l 1
 4 -0.5 l 1
 4 -1 l 1
 2.5 -1 l 1
 1 -1 l 1
 1 -0.5 l 1
 1 -0 l 1
1 -0 m 1
 0.5 -0 l 1
 0 -0 l 1
 0 0.5 l 1
 0 1 l 1
 0.5 1 l 1
 1 1 l 1
 1 0.5 l 1
 1 -0 l 1
EndSplineSet
EndChar

StartChar: glyph2549
Encoding: 4350 4350 2549
Width: 6
VWidth: 0
Flags: HMW
LayerCount: 2
Back
Fore
SplineSet
0 4.5 m 1
 0 5 l 1
 1 5 l 1
 2 5 l 1
 2 4.5 l 1
 2 4 l 1
 1 4 l 1
 0 4 l 1
 0 4.5 l 1
2 3 m 1
 2 2.5 l 1
 2 2 l 1
 1.5 2 l 1
 1 2 l 1
 1 1 l 1
 1 -0 l 1
 2.5 -0 l 1
 4 -0 l 1
 4 1 l 1
 4 2 l 1
 3.5 2 l 1
 3 2 l 1
 3 2.5 l 1
 3 3 l 1
 2.5 3 l 1
 2 3 l 1
2 3 m 1
 2 3.5 l 1
 2 4 l 1
 2.5 4 l 1
 3 4 l 1
 3 3.5 l 1
 3 3 l 1
 3.5 3 l 1
 4 3 l 1
 4 2.5 l 1
 4 2 l 1
 4.5 2 l 1
 5 2 l 1
 5 1 l 1
 5 -0 l 1
 4.5 -0 l 1
 4 -0 l 1
 4 -0.5 l 1
 4 -1 l 1
 2.5 -1 l 1
 1 -1 l 1
 1 -0.5 l 1
 1 -0 l 1
 0.5 -0 l 1
 0 -0 l 1
 0 1 l 1
 0 2 l 1
 0.5 2 l 1
 1 2 l 1
 1 2.5 l 1
 1 3 l 1
 1.5 3 l 1
 2 3 l 1
3 4 m 1
 3 4.5 l 1
 3 5 l 1
 4 5 l 1
 5 5 l 1
 5 4.5 l 1
 5 4 l 1
 4 4 l 1
 3 4 l 1
EndSplineSet
EndChar

StartChar: glyph2550
Encoding: 4351 4351 2550
Width: 6
VWidth: 0
Flags: HMW
LayerCount: 2
Back
Fore
SplineSet
1 4.5 m 1
 1 5 l 1
 2.5 5 l 1
 4 5 l 1
 4 4.5 l 1
 4 4 l 1
 2.5 4 l 1
 1 4 l 1
 1 2.5 l 1
 1 1 l 1
 2.5 1 l 1
 4 1 l 1
 4 2.5 l 1
 4 4 l 1
 4.5 4 l 1
 5 4 l 1
 5 2.5 l 1
 5 1 l 1
 4.5 1 l 1
 4 1 l 1
 4 0.5 l 1
 4 -0 l 1
 2.5 -0 l 1
 1 -0 l 1
 1 0.5 l 1
 1 1 l 1
 0.5 1 l 1
 0 1 l 1
 0 2.5 l 1
 0 4 l 1
 0.5 4 l 1
 1 4 l 1
 1 4.5 l 1
EndSplineSet
EndChar

StartChar: glyph2551
Encoding: 306 306 2551
Width: 6
VWidth: 0
Flags: HMW
LayerCount: 2
Back
Fore
SplineSet
0 5 m 1
 0 7 l 1
 0.5 7 l 1
 1 7 l 1
 1 5 l 1
 1 3 l 1
 0.5 3 l 1
 0 3 l 1
 0 5 l 1
4 4 m 1
 4 7 l 1
 4.5 7 l 1
 5 7 l 1
 5 4 l 1
 5 1 l 1
 4.5 1 l 1
 4 1 l 1
 4 4 l 1
1 1 m 1
 2.5 1 l 1
 4 1 l 1
 4 0.5 l 1
 4 -0 l 1
 2.5 -0 l 1
 1 -0 l 1
 1 0.5 l 1
 1 1 l 1
1 1 m 1
 0.5 1 l 1
 0 1 l 1
 0 1.5 l 1
 0 2 l 1
 0.5 2 l 1
 1 2 l 1
 1 1.5 l 1
 1 1 l 1
EndSplineSet
EndChar

StartChar: glyph2552
Encoding: 307 307 2552
Width: 5
VWidth: 0
Flags: HMW
LayerCount: 2
Back
Fore
SplineSet
0 6.5 m 1
 0 7 l 1
 0.5 7 l 1
 1 7 l 1
 1 6.5 l 1
 1 6 l 1
 0.5 6 l 1
 0 6 l 1
 0 6.5 l 1
3 6.5 m 1
 3 7 l 1
 3.5 7 l 1
 4 7 l 1
 4 6.5 l 1
 4 6 l 1
 3.5 6 l 1
 3 6 l 1
 3 6.5 l 1
0 3 m 1
 0 5 l 1
 0.5 5 l 1
 1 5 l 1
 1 3 l 1
 1 1 l 1
 0.5 1 l 1
 0 1 l 1
 0 3 l 1
3 2.5 m 1
 3 5 l 1
 3.5 5 l 1
 4 5 l 1
 4 2.5 l 1
 4 -0 l 1
 3.5 -0 l 1
 3 -0 l 1
 3 2.5 l 1
3 -0 m 1
 3 -0.5 l 1
 3 -1 l 1
 1.5 -1 l 1
 0 -1 l 1
 0 -0.5 l 1
 0 -0 l 1
 1.5 -0 l 1
 3 -0 l 1
EndSplineSet
EndChar

StartChar: glyph2553
Encoding: 312 312 2553
Width: 5
VWidth: 0
Flags: HMW
LayerCount: 2
Back
Fore
SplineSet
0 2.5 m 1
 0 5 l 1
 0.5 5 l 1
 1 5 l 1
 1 4 l 1
 1 3 l 1
 1.5 3 l 1
 2 3 l 1
 2 2.5 l 1
 2 2 l 1
 1.5 2 l 1
 1 2 l 1
 1 1 l 1
 1 -0 l 1
 0.5 -0 l 1
 0 -0 l 1
 0 2.5 l 1
3 1 m 1
 2.5 1 l 1
 2 1 l 1
 2 1.5 l 1
 2 2 l 1
 2.5 2 l 1
 3 2 l 1
 3 1.5 l 1
 3 1 l 1
3 1 m 1
 3.5 1 l 1
 4 1 l 1
 4 0.5 l 1
 4 -0 l 1
 3.5 -0 l 1
 3 -0 l 1
 3 0.5 l 1
 3 1 l 1
3 4 m 1
 3 3.5 l 1
 3 3 l 1
 2.5 3 l 1
 2 3 l 1
 2 3.5 l 1
 2 4 l 1
 2.5 4 l 1
 3 4 l 1
3 4 m 1
 3 4.5 l 1
 3 5 l 1
 3.5 5 l 1
 4 5 l 1
 4 4.5 l 1
 4 4 l 1
 3.5 4 l 1
 3 4 l 1
EndSplineSet
EndChar

StartChar: glyph2554
Encoding: 5601 5601 2554
Width: 6
VWidth: 0
Flags: HMW
LayerCount: 2
Back
Fore
SplineSet
4 3.5 m 1
 4 6 l 1
 2.5 6 l 1
 1 6 l 1
 1 3.5 l 1
 1 1 l 1
 2.5 1 l 1
 4 1 l 1
 4 3.5 l 1
1 6.5 m 1
 1 7 l 1
 3 7 l 1
 5 7 l 1
 5 3.5 l 1
 5 -0 l 1
 3 -0 l 1
 1 -0 l 1
 1 0.5 l 1
 1 1 l 1
 0.5 1 l 1
 0 1 l 1
 0 3.5 l 1
 0 6 l 1
 0.5 6 l 1
 1 6 l 1
 1 6.5 l 1
EndSplineSet
EndChar

StartChar: glyph2555
Encoding: 5626 5626 2555
Width: 6
VWidth: 0
Flags: HMW
LayerCount: 2
Back
Fore
SplineSet
4 1.5 m 1
 4 2 l 1
 2.5 2 l 1
 1 2 l 1
 1 1.5 l 1
 1 1 l 1
 2.5 1 l 1
 4 1 l 1
 4 1.5 l 1
4 4.5 m 1
 4 6 l 1
 2.5 6 l 1
 1 6 l 1
 1 4.5 l 1
 1 3 l 1
 2.5 3 l 1
 4 3 l 1
 4 4.5 l 1
1 6.5 m 1
 1 7 l 1
 3 7 l 1
 5 7 l 1
 5 3.5 l 1
 5 -0 l 1
 3 -0 l 1
 1 -0 l 1
 1 0.5 l 1
 1 1 l 1
 0.5 1 l 1
 0 1 l 1
 0 1.5 l 1
 0 2 l 1
 0.5 2 l 1
 1 2 l 1
 1 2.5 l 1
 1 3 l 1
 0.5 3 l 1
 0 3 l 1
 0 4.5 l 1
 0 6 l 1
 0.5 6 l 1
 1 6 l 1
 1 6.5 l 1
EndSplineSet
EndChar

StartChar: glyph2556
Encoding: 5652 5652 2556
Width: 6
VWidth: 0
Flags: HMW
LayerCount: 2
Back
Fore
SplineSet
0 6 m 1
 0 7 l 1
 2.5 7 l 1
 5 7 l 1
 5 6 l 1
 5 5 l 1
 4.5 5 l 1
 4 5 l 1
 4 5.5 l 1
 4 6 l 1
 2.5 6 l 1
 1 6 l 1
 1 5.5 l 1
 1 5 l 1
 0.5 5 l 1
 0 5 l 1
 0 6 l 1
4 1 m 1
 4 0.5 l 1
 4 -0 l 1
 2.5 -0 l 1
 1 -0 l 1
 1 0.5 l 1
 1 1 l 1
 0.5 1 l 1
 0 1 l 1
 0 2 l 1
 0 3 l 1
 0.5 3 l 1
 1 3 l 1
 1 3.5 l 1
 1 4 l 1
 2 4 l 1
 3 4 l 1
 3 4.5 l 1
 3 5 l 1
 3.5 5 l 1
 4 5 l 1
 4 4.5 l 1
 4 4 l 1
 3.5 4 l 1
 3 4 l 1
 3 3.5 l 1
 3 3 l 1
 2 3 l 1
 1 3 l 1
 1 2 l 1
 1 1 l 1
 2.5 1 l 1
 4 1 l 1
4 1 m 1
 4 1.5 l 1
 4 2 l 1
 4.5 2 l 1
 5 2 l 1
 5 1.5 l 1
 5 1 l 1
 4.5 1 l 1
 4 1 l 1
EndSplineSet
EndChar

StartChar: glyph2557
Encoding: 5792 5792 2557
Width: 5
VWidth: 0
Flags: HMW
LayerCount: 2
Back
Fore
SplineSet
0 3.5 m 1
 0 7 l 1
 0.5 7 l 1
 1 7 l 1
 1 6 l 1
 1 5 l 1
 1.5 5 l 1
 2 5 l 1
 2 4.5 l 1
 2 4 l 1
 2.5 4 l 1
 3 4 l 1
 3 4.5 l 1
 3 5 l 1
 2.5 5 l 1
 2 5 l 1
 2 5.5 l 1
 2 6 l 1
 2.5 6 l 1
 3 6 l 1
 3 5.5 l 1
 3 5 l 1
 3.5 5 l 1
 4 5 l 1
 4 4.5 l 1
 4 4 l 1
 3.5 4 l 1
 3 4 l 1
 3 3.5 l 1
 3 3 l 1
 2.5 3 l 1
 2 3 l 1
 2 3.5 l 1
 2 4 l 1
 1.5 4 l 1
 1 4 l 1
 1 3.5 l 1
 1 3 l 1
 1.5 3 l 1
 2 3 l 1
 2 2.5 l 1
 2 2 l 1
 1.5 2 l 1
 1 2 l 1
 1 1 l 1
 1 -0 l 1
 0.5 -0 l 1
 0 -0 l 1
 0 3.5 l 1
3 6 m 1
 3 6.5 l 1
 3 7 l 1
 3.5 7 l 1
 4 7 l 1
 4 6.5 l 1
 4 6 l 1
 3.5 6 l 1
 3 6 l 1
EndSplineSet
EndChar

StartChar: glyph2558
Encoding: 5794 5794 2558
Width: 6
VWidth: 0
Flags: HMW
LayerCount: 2
Back
Fore
SplineSet
0 3.5 m 1
 0 7 l 1
 1 7 l 1
 2 7 l 1
 2 6.5 l 1
 2 6 l 1
 1.5 6 l 1
 1 6 l 1
 1 3 l 1
 1 -0 l 1
 0.5 -0 l 1
 0 -0 l 1
 0 3.5 l 1
4 2 m 1
 3.5 2 l 1
 3 2 l 1
 3 3 l 1
 3 4 l 1
 2.5 4 l 1
 2 4 l 1
 2 5 l 1
 2 6 l 1
 2.5 6 l 1
 3 6 l 1
 3 5 l 1
 3 4 l 1
 3.5 4 l 1
 4 4 l 1
 4 3 l 1
 4 2 l 1
4 2 m 1
 4.5 2 l 1
 5 2 l 1
 5 1 l 1
 5 -0 l 1
 4.5 -0 l 1
 4 -0 l 1
 4 1 l 1
 4 2 l 1
EndSplineSet
EndChar

StartChar: glyph2559
Encoding: 5795 5795 2559
Width: 6
VWidth: 0
Flags: HMW
LayerCount: 2
Back
Fore
SplineSet
0 3.5 m 1
 0 7 l 1
 1 7 l 1
 2 7 l 1
 2 6.5 l 1
 2 6 l 1
 1.5 6 l 1
 1 6 l 1
 1 3 l 1
 1 -0 l 1
 0.5 -0 l 1
 0 -0 l 1
 0 3.5 l 1
3 2 m 1
 3 3 l 1
 3 4 l 1
 2.5 4 l 1
 2 4 l 1
 2 5 l 1
 2 6 l 1
 2.5 6 l 1
 3 6 l 1
 3 5 l 1
 3 4 l 1
 3.5 4 l 1
 4 4 l 1
 4 3 l 1
 4 2 l 1
 3.5 2 l 1
 3 2 l 1
3 2 m 1
 3 1 l 1
 3 -0 l 1
 2.5 -0 l 1
 2 -0 l 1
 2 1 l 1
 2 2 l 1
 2.5 2 l 1
 3 2 l 1
4 2 m 1
 4.5 2 l 1
 5 2 l 1
 5 1 l 1
 5 -0 l 1
 4.5 -0 l 1
 4 -0 l 1
 4 1 l 1
 4 2 l 1
EndSplineSet
EndChar

StartChar: glyph2560
Encoding: 5796 5796 2560
Width: 6
VWidth: 0
Flags: HMW
LayerCount: 2
Back
Fore
SplineSet
0 3.5 m 1
 0 7 l 1
 1 7 l 1
 2 7 l 1
 2 6.5 l 1
 2 6 l 1
 1.5 6 l 1
 1 6 l 1
 1 3 l 1
 1 -0 l 1
 0.5 -0 l 1
 0 -0 l 1
 0 3.5 l 1
3 2 m 1
 3 3 l 1
 3 4 l 1
 2.5 4 l 1
 2 4 l 1
 2 5 l 1
 2 6 l 1
 2.5 6 l 1
 3 6 l 1
 3 5 l 1
 3 4 l 1
 3.5 4 l 1
 4 4 l 1
 4 3 l 1
 4 2 l 1
 3.5 2 l 1
 3 2 l 1
3 2 m 1
 3 1.5 l 1
 3 1 l 1
 2.5 1 l 1
 2 1 l 1
 2 1.5 l 1
 2 2 l 1
 2.5 2 l 1
 3 2 l 1
4 2 m 1
 4.5 2 l 1
 5 2 l 1
 5 1 l 1
 5 -0 l 1
 4.5 -0 l 1
 4 -0 l 1
 4 1 l 1
 4 2 l 1
EndSplineSet
EndChar

StartChar: glyph2561
Encoding: 5797 5797 2561
Width: 6
VWidth: 0
Flags: HMW
LayerCount: 2
Back
Fore
SplineSet
0 3.5 m 1
 0 7 l 1
 1 7 l 1
 2 7 l 1
 2 6.5 l 1
 2 6 l 1
 1.5 6 l 1
 1 6 l 1
 1 5 l 1
 1 4 l 1
 1.5 4 l 1
 2 4 l 1
 2 5 l 1
 2 6 l 1
 2.5 6 l 1
 3 6 l 1
 3 5 l 1
 3 4 l 1
 2.5 4 l 1
 2 4 l 1
 2 3 l 1
 2 2 l 1
 2.5 2 l 1
 3 2 l 1
 3 3 l 1
 3 4 l 1
 3.5 4 l 1
 4 4 l 1
 4 3 l 1
 4 2 l 1
 3.5 2 l 1
 3 2 l 1
 3 1 l 1
 3 -0 l 1
 2.5 -0 l 1
 2 -0 l 1
 2 1 l 1
 2 2 l 1
 1.5 2 l 1
 1 2 l 1
 1 1 l 1
 1 -0 l 1
 0.5 -0 l 1
 0 -0 l 1
 0 3.5 l 1
4 2 m 1
 4.5 2 l 1
 5 2 l 1
 5 1 l 1
 5 -0 l 1
 4.5 -0 l 1
 4 -0 l 1
 4 1 l 1
 4 2 l 1
EndSplineSet
EndChar

StartChar: glyph2562
Encoding: 5798 5798 2562
Width: 5
VWidth: 0
Flags: HMW
LayerCount: 2
Back
Fore
SplineSet
0 3.5 m 1
 0 7 l 1
 0.5 7 l 1
 1 7 l 1
 1 6 l 1
 1 5 l 1
 2 5 l 1
 3 5 l 1
 3 4.5 l 1
 3 4 l 1
 2 4 l 1
 1 4 l 1
 1 3.5 l 1
 1 3 l 1
 2 3 l 1
 3 3 l 1
 3 3.5 l 1
 3 4 l 1
 3.5 4 l 1
 4 4 l 1
 4 3.5 l 1
 4 3 l 1
 3.5 3 l 1
 3 3 l 1
 3 2.5 l 1
 3 2 l 1
 2 2 l 1
 1 2 l 1
 1 1 l 1
 1 -0 l 1
 0.5 -0 l 1
 0 -0 l 1
 0 3.5 l 1
EndSplineSet
EndChar

StartChar: glyph2563
Encoding: 5799 5799 2563
Width: 5
VWidth: 0
Flags: HMW
LayerCount: 2
Back
Fore
SplineSet
0 3.5 m 1
 0 7 l 1
 0.5 7 l 1
 1 7 l 1
 1 6.5 l 1
 1 6 l 1
 2 6 l 1
 3 6 l 1
 3 5.5 l 1
 3 5 l 1
 2 5 l 1
 1 5 l 1
 1 4.5 l 1
 1 4 l 1
 1.5 4 l 1
 2 4 l 1
 2 3.5 l 1
 2 3 l 1
 1.5 3 l 1
 1 3 l 1
 1 2.5 l 1
 1 2 l 1
 2 2 l 1
 3 2 l 1
 3 3.5 l 1
 3 5 l 1
 3.5 5 l 1
 4 5 l 1
 4 3.5 l 1
 4 2 l 1
 3.5 2 l 1
 3 2 l 1
 3 1.5 l 1
 3 1 l 1
 2 1 l 1
 1 1 l 1
 1 0.5 l 1
 1 -0 l 1
 0.5 -0 l 1
 0 -0 l 1
 0 3.5 l 1
EndSplineSet
EndChar

StartChar: glyph2564
Encoding: 5800 5800 2564
Width: 4
VWidth: 0
Flags: HMW
LayerCount: 2
Back
Fore
SplineSet
0 3.5 m 1
 0 7 l 1
 1 7 l 1
 2 7 l 1
 2 6.5 l 1
 2 6 l 1
 1.5 6 l 1
 1 6 l 1
 1 5.5 l 1
 1 5 l 1
 1.5 5 l 1
 2 5 l 1
 2 5.5 l 1
 2 6 l 1
 2.5 6 l 1
 3 6 l 1
 3 5.5 l 1
 3 5 l 1
 2.5 5 l 1
 2 5 l 1
 2 4.5 l 1
 2 4 l 1
 1.5 4 l 1
 1 4 l 1
 1 2 l 1
 1 -0 l 1
 0.5 -0 l 1
 0 -0 l 1
 0 3.5 l 1
2 4 m 1
 2.5 4 l 1
 3 4 l 1
 3 3.5 l 1
 3 3 l 1
 2.5 3 l 1
 2 3 l 1
 2 3.5 l 1
 2 4 l 1
EndSplineSet
EndChar

StartChar: glyph2565
Encoding: 5801 5801 2565
Width: 5
VWidth: 0
Flags: HMW
LayerCount: 2
Back
Fore
SplineSet
0 3.5 m 1
 0 7 l 1
 1 7 l 1
 2 7 l 1
 2 6.5 l 1
 2 6 l 1
 1.5 6 l 1
 1 6 l 1
 1 5.5 l 1
 1 5 l 1
 1.5 5 l 1
 2 5 l 1
 2 5.5 l 1
 2 6 l 1
 2.5 6 l 1
 3 6 l 1
 3 5.5 l 1
 3 5 l 1
 2.5 5 l 1
 2 5 l 1
 2 4.5 l 1
 2 4 l 1
 2.5 4 l 1
 3 4 l 1
 3 4.5 l 1
 3 5 l 1
 3.5 5 l 1
 4 5 l 1
 4 4.5 l 1
 4 4 l 1
 3.5 4 l 1
 3 4 l 1
 3 3.5 l 1
 3 3 l 1
 2.5 3 l 1
 2 3 l 1
 2 3.5 l 1
 2 4 l 1
 1.5 4 l 1
 1 4 l 1
 1 2 l 1
 1 -0 l 1
 0.5 -0 l 1
 0 -0 l 1
 0 3.5 l 1
3 6 m 1
 3 6.5 l 1
 3 7 l 1
 3.5 7 l 1
 4 7 l 1
 4 6.5 l 1
 4 6 l 1
 3.5 6 l 1
 3 6 l 1
EndSplineSet
EndChar

StartChar: glyph2566
Encoding: 5802 5802 2566
Width: 5
VWidth: 0
Flags: HMW
LayerCount: 2
Back
Fore
SplineSet
0 3.5 m 1
 0 7 l 1
 1 7 l 1
 2 7 l 1
 2 6.5 l 1
 2 6 l 1
 1.5 6 l 1
 1 6 l 1
 1 5.5 l 1
 1 5 l 1
 1.5 5 l 1
 2 5 l 1
 2 5.5 l 1
 2 6 l 1
 2.5 6 l 1
 3 6 l 1
 3 5.5 l 1
 3 5 l 1
 2.5 5 l 1
 2 5 l 1
 2 4.5 l 1
 2 4 l 1
 1.5 4 l 1
 1 4 l 1
 1 2 l 1
 1 -0 l 1
 0.5 -0 l 1
 0 -0 l 1
 0 3.5 l 1
2 4 m 1
 2.5 4 l 1
 3 4 l 1
 3 3.5 l 1
 3 3 l 1
 2.5 3 l 1
 2 3 l 1
 2 3.5 l 1
 2 4 l 1
3 6 m 1
 3 6.5 l 1
 3 7 l 1
 3.5 7 l 1
 4 7 l 1
 4 6.5 l 1
 4 6 l 1
 3.5 6 l 1
 3 6 l 1
EndSplineSet
EndChar

StartChar: glyph2567
Encoding: 5803 5803 2567
Width: 5
VWidth: 0
Flags: HMW
LayerCount: 2
Back
Fore
SplineSet
0 3.5 m 1
 0 7 l 1
 1 7 l 1
 2 7 l 1
 2 6.5 l 1
 2 6 l 1
 1.5 6 l 1
 1 6 l 1
 1 5.5 l 1
 1 5 l 1
 1.5 5 l 1
 2 5 l 1
 2 5.5 l 1
 2 6 l 1
 2.5 6 l 1
 3 6 l 1
 3 5.5 l 1
 3 5 l 1
 2.5 5 l 1
 2 5 l 1
 2 4.5 l 1
 2 4 l 1
 2.5 4 l 1
 3 4 l 1
 3 4.5 l 1
 3 5 l 1
 3.5 5 l 1
 4 5 l 1
 4 4.5 l 1
 4 4 l 1
 3.5 4 l 1
 3 4 l 1
 3 3.5 l 1
 3 3 l 1
 2.5 3 l 1
 2 3 l 1
 2 3.5 l 1
 2 4 l 1
 1.5 4 l 1
 1 4 l 1
 1 2 l 1
 1 -0 l 1
 0.5 -0 l 1
 0 -0 l 1
 0 3.5 l 1
3 3 m 1
 3.5 3 l 1
 4 3 l 1
 4 2.5 l 1
 4 2 l 1
 3.5 2 l 1
 3 2 l 1
 3 2.5 l 1
 3 3 l 1
EndSplineSet
EndChar

StartChar: glyph2568
Encoding: 5804 5804 2568
Width: 6
VWidth: 0
Flags: HMW
LayerCount: 2
Back
Fore
SplineSet
2 3.5 m 1
 2 4 l 1
 1.5 4 l 1
 1 4 l 1
 1 3.5 l 1
 1 3 l 1
 1.5 3 l 1
 2 3 l 1
 2 3.5 l 1
2 6 m 1
 2 7 l 1
 2.5 7 l 1
 3 7 l 1
 3 5.5 l 1
 3 4 l 1
 3.5 4 l 1
 4 4 l 1
 4 3.5 l 1
 4 3 l 1
 3.5 3 l 1
 3 3 l 1
 3 2.5 l 1
 3 2 l 1
 3.5 2 l 1
 4 2 l 1
 4 2.5 l 1
 4 3 l 1
 4.5 3 l 1
 5 3 l 1
 5 2.5 l 1
 5 2 l 1
 4.5 2 l 1
 4 2 l 1
 4 1.5 l 1
 4 1 l 1
 3.5 1 l 1
 3 1 l 1
 3 0.5 l 1
 3 -0 l 1
 2.5 -0 l 1
 2 -0 l 1
 2 1 l 1
 2 2 l 1
 1.5 2 l 1
 1 2 l 1
 1 2.5 l 1
 1 3 l 1
 0.5 3 l 1
 0 3 l 1
 0 3.5 l 1
 0 4 l 1
 0.5 4 l 1
 1 4 l 1
 1 4.5 l 1
 1 5 l 1
 1.5 5 l 1
 2 5 l 1
 2 6 l 1
1 5 m 1
 0.5 5 l 1
 0 5 l 1
 0 5.5 l 1
 0 6 l 1
 0.5 6 l 1
 1 6 l 1
 1 5.5 l 1
 1 5 l 1
4 1 m 1
 4.5 1 l 1
 5 1 l 1
 5 0.5 l 1
 5 -0 l 1
 4.5 -0 l 1
 4 -0 l 1
 4 0.5 l 1
 4 1 l 1
EndSplineSet
EndChar

StartChar: glyph2569
Encoding: 5805 5805 2569
Width: 4
VWidth: 0
Flags: HMW
LayerCount: 2
Back
Fore
SplineSet
0 3.5 m 1
 0 7 l 1
 0.5 7 l 1
 1 7 l 1
 1 5.5 l 1
 1 4 l 1
 1.5 4 l 1
 2 4 l 1
 2 3.5 l 1
 2 3 l 1
 1.5 3 l 1
 1 3 l 1
 1 2.5 l 1
 1 2 l 1
 1.5 2 l 1
 2 2 l 1
 2 2.5 l 1
 2 3 l 1
 2.5 3 l 1
 3 3 l 1
 3 2.5 l 1
 3 2 l 1
 2.5 2 l 1
 2 2 l 1
 2 1.5 l 1
 2 1 l 1
 1.5 1 l 1
 1 1 l 1
 1 0.5 l 1
 1 -0 l 1
 0.5 -0 l 1
 0 -0 l 1
 0 3.5 l 1
2 1 m 1
 2.5 1 l 1
 3 1 l 1
 3 0.5 l 1
 3 -0 l 1
 2.5 -0 l 1
 2 -0 l 1
 2 0.5 l 1
 2 1 l 1
EndSplineSet
EndChar

StartChar: glyph2570
Encoding: 5806 5806 2570
Width: 4
VWidth: 0
Flags: HMW
LayerCount: 2
Back
Fore
SplineSet
2 2.5 m 1
 2 3 l 1
 1.5 3 l 1
 1 3 l 1
 1 2.5 l 1
 1 2 l 1
 1.5 2 l 1
 2 2 l 1
 2 2.5 l 1
2 5.5 m 1
 2 7 l 1
 2.5 7 l 1
 3 7 l 1
 3 3.5 l 1
 3 -0 l 1
 2.5 -0 l 1
 2 -0 l 1
 2 0.5 l 1
 2 1 l 1
 1.5 1 l 1
 1 1 l 1
 1 1.5 l 1
 1 2 l 1
 0.5 2 l 1
 0 2 l 1
 0 2.5 l 1
 0 3 l 1
 0.5 3 l 1
 1 3 l 1
 1 3.5 l 1
 1 4 l 1
 1.5 4 l 1
 2 4 l 1
 2 5.5 l 1
1 1 m 1
 1 0.5 l 1
 1 -0 l 1
 0.5 -0 l 1
 0 -0 l 1
 0 0.5 l 1
 0 1 l 1
 0.5 1 l 1
 1 1 l 1
EndSplineSet
EndChar

StartChar: glyph2571
Encoding: 5807 5807 2571
Width: 6
VWidth: 0
Flags: HMW
LayerCount: 2
Back
Fore
SplineSet
2 2.5 m 1
 2 3 l 1
 1.5 3 l 1
 1 3 l 1
 1 2.5 l 1
 1 2 l 1
 1.5 2 l 1
 2 2 l 1
 2 2.5 l 1
2 5.5 m 1
 2 7 l 1
 2.5 7 l 1
 3 7 l 1
 3 6 l 1
 3 5 l 1
 3.5 5 l 1
 4 5 l 1
 4 4.5 l 1
 4 4 l 1
 3.5 4 l 1
 3 4 l 1
 3 3.5 l 1
 3 3 l 1
 3.5 3 l 1
 4 3 l 1
 4 3.5 l 1
 4 4 l 1
 4.5 4 l 1
 5 4 l 1
 5 3.5 l 1
 5 3 l 1
 4.5 3 l 1
 4 3 l 1
 4 2.5 l 1
 4 2 l 1
 3.5 2 l 1
 3 2 l 1
 3 1 l 1
 3 -0 l 1
 2.5 -0 l 1
 2 -0 l 1
 2 0.5 l 1
 2 1 l 1
 1.5 1 l 1
 1 1 l 1
 1 1.5 l 1
 1 2 l 1
 0.5 2 l 1
 0 2 l 1
 0 2.5 l 1
 0 3 l 1
 0.5 3 l 1
 1 3 l 1
 1 3.5 l 1
 1 4 l 1
 1.5 4 l 1
 2 4 l 1
 2 5.5 l 1
1 1 m 1
 1 0.5 l 1
 1 -0 l 1
 0.5 -0 l 1
 0 -0 l 1
 0 0.5 l 1
 0 1 l 1
 0.5 1 l 1
 1 1 l 1
4 5 m 1
 4 5.5 l 1
 4 6 l 1
 4.5 6 l 1
 5 6 l 1
 5 5.5 l 1
 5 5 l 1
 4.5 5 l 1
 4 5 l 1
EndSplineSet
EndChar

StartChar: glyph2572
Encoding: 5808 5808 2572
Width: 6
VWidth: 0
Flags: HMW
LayerCount: 2
Back
Fore
SplineSet
2 2.5 m 1
 2 3 l 1
 1.5 3 l 1
 1 3 l 1
 1 2.5 l 1
 1 2 l 1
 1.5 2 l 1
 2 2 l 1
 2 2.5 l 1
2 5.5 m 1
 2 7 l 1
 2.5 7 l 1
 3 7 l 1
 3 6 l 1
 3 5 l 1
 3.5 5 l 1
 4 5 l 1
 4 4.5 l 1
 4 4 l 1
 3.5 4 l 1
 3 4 l 1
 3 2 l 1
 3 -0 l 1
 2.5 -0 l 1
 2 -0 l 1
 2 0.5 l 1
 2 1 l 1
 1.5 1 l 1
 1 1 l 1
 1 1.5 l 1
 1 2 l 1
 0.5 2 l 1
 0 2 l 1
 0 2.5 l 1
 0 3 l 1
 0.5 3 l 1
 1 3 l 1
 1 3.5 l 1
 1 4 l 1
 1.5 4 l 1
 2 4 l 1
 2 5.5 l 1
1 1 m 1
 1 0.5 l 1
 1 -0 l 1
 0.5 -0 l 1
 0 -0 l 1
 0 0.5 l 1
 0 1 l 1
 0.5 1 l 1
 1 1 l 1
4 5 m 1
 4 5.5 l 1
 4 6 l 1
 4.5 6 l 1
 5 6 l 1
 5 5.5 l 1
 5 5 l 1
 4.5 5 l 1
 4 5 l 1
EndSplineSet
EndChar

StartChar: glyph2573
Encoding: 5809 5809 2573
Width: 5
VWidth: 0
Flags: HMW
LayerCount: 2
Back
Fore
SplineSet
0 3.5 m 1
 0 7 l 1
 1 7 l 1
 2 7 l 1
 2 6.5 l 1
 2 6 l 1
 1.5 6 l 1
 1 6 l 1
 1 4.5 l 1
 1 3 l 1
 1.5 3 l 1
 2 3 l 1
 2 3.5 l 1
 2 4 l 1
 2.5 4 l 1
 3 4 l 1
 3 4.5 l 1
 3 5 l 1
 2.5 5 l 1
 2 5 l 1
 2 5.5 l 1
 2 6 l 1
 2.5 6 l 1
 3 6 l 1
 3 5.5 l 1
 3 5 l 1
 3.5 5 l 1
 4 5 l 1
 4 4.5 l 1
 4 4 l 1
 3.5 4 l 1
 3 4 l 1
 3 3.5 l 1
 3 3 l 1
 2.5 3 l 1
 2 3 l 1
 2 2.5 l 1
 2 2 l 1
 1.5 2 l 1
 1 2 l 1
 1 1 l 1
 1 -0 l 1
 0.5 -0 l 1
 0 -0 l 1
 0 3.5 l 1
3 1 m 1
 2.5 1 l 1
 2 1 l 1
 2 1.5 l 1
 2 2 l 1
 2.5 2 l 1
 3 2 l 1
 3 1.5 l 1
 3 1 l 1
3 1 m 1
 3.5 1 l 1
 4 1 l 1
 4 0.5 l 1
 4 -0 l 1
 3.5 -0 l 1
 3 -0 l 1
 3 0.5 l 1
 3 1 l 1
EndSplineSet
EndChar

StartChar: glyph2574
Encoding: 5810 5810 2574
Width: 4
VWidth: 0
Flags: HMW
LayerCount: 2
Back
Fore
SplineSet
2 5.5 m 1
 2 6 l 1
 2.5 6 l 1
 3 6 l 1
 3 5.5 l 1
 3 5 l 1
 2.5 5 l 1
 2 5 l 1
 2 5.5 l 1
2 2 m 1
 1.5 2 l 1
 1 2 l 1
 1 2.5 l 1
 1 3 l 1
 0.5 3 l 1
 0 3 l 1
 0 3.5 l 1
 0 4 l 1
 0.5 4 l 1
 1 4 l 1
 1 4.5 l 1
 1 5 l 1
 1.5 5 l 1
 2 5 l 1
 2 4.5 l 1
 2 4 l 1
 1.5 4 l 1
 1 4 l 1
 1 3.5 l 1
 1 3 l 1
 1.5 3 l 1
 2 3 l 1
 2 2.5 l 1
 2 2 l 1
2 2 m 1
 2.5 2 l 1
 3 2 l 1
 3 1.5 l 1
 3 1 l 1
 2.5 1 l 1
 2 1 l 1
 2 1.5 l 1
 2 2 l 1
EndSplineSet
EndChar

StartChar: glyph2575
Encoding: 5811 5811 2575
Width: 5
VWidth: 0
Flags: HMW
LayerCount: 2
Back
Fore
SplineSet
0 3.5 m 1
 0 7 l 1
 0.5 7 l 1
 1 7 l 1
 1 5 l 1
 1 3 l 1
 1.5 3 l 1
 2 3 l 1
 2 2.5 l 1
 2 2 l 1
 1.5 2 l 1
 1 2 l 1
 1 1 l 1
 1 -0 l 1
 0.5 -0 l 1
 0 -0 l 1
 0 3.5 l 1
3 1 m 1
 2.5 1 l 1
 2 1 l 1
 2 1.5 l 1
 2 2 l 1
 2.5 2 l 1
 3 2 l 1
 3 1.5 l 1
 3 1 l 1
3 1 m 1
 3.5 1 l 1
 4 1 l 1
 4 0.5 l 1
 4 -0 l 1
 3.5 -0 l 1
 3 -0 l 1
 3 0.5 l 1
 3 1 l 1
EndSplineSet
EndChar

StartChar: glyph2576
Encoding: 5812 5812 2576
Width: 5
VWidth: 0
Flags: HMW
LayerCount: 2
Back
Fore
SplineSet
0 3.5 m 1
 0 7 l 1
 0.5 7 l 1
 1 7 l 1
 1 6 l 1
 1 5 l 1
 1.5 5 l 1
 2 5 l 1
 2 4.5 l 1
 2 4 l 1
 1.5 4 l 1
 1 4 l 1
 1 2 l 1
 1 -0 l 1
 0.5 -0 l 1
 0 -0 l 1
 0 3.5 l 1
3 6 m 1
 3 5.5 l 1
 3 5 l 1
 2.5 5 l 1
 2 5 l 1
 2 5.5 l 1
 2 6 l 1
 2.5 6 l 1
 3 6 l 1
3 6 m 1
 3 6.5 l 1
 3 7 l 1
 3.5 7 l 1
 4 7 l 1
 4 6.5 l 1
 4 6 l 1
 3.5 6 l 1
 3 6 l 1
EndSplineSet
EndChar

StartChar: glyph2577
Encoding: 5814 5814 2577
Width: 6
VWidth: 0
Flags: HMW
LayerCount: 2
Back
Fore
SplineSet
1 6 m 1
 1 7 l 1
 1.5 7 l 1
 2 7 l 1
 2 6 l 1
 2 5 l 1
 2.5 5 l 1
 3 5 l 1
 3 4 l 1
 3 3 l 1
 2.5 3 l 1
 2 3 l 1
 2 1.5 l 1
 2 -0 l 1
 1.5 -0 l 1
 1 -0 l 1
 1 1.5 l 1
 1 3 l 1
 0.5 3 l 1
 0 3 l 1
 0 4 l 1
 0 5 l 1
 0.5 5 l 1
 1 5 l 1
 1 6 l 1
4 6 m 1
 4 5.5 l 1
 4 5 l 1
 3.5 5 l 1
 3 5 l 1
 3 5.5 l 1
 3 6 l 1
 3.5 6 l 1
 4 6 l 1
4 6 m 1
 4 6.5 l 1
 4 7 l 1
 4.5 7 l 1
 5 7 l 1
 5 6.5 l 1
 5 6 l 1
 4.5 6 l 1
 4 6 l 1
EndSplineSet
EndChar

StartChar: glyph2578
Encoding: 5815 5815 2578
Width: 6
VWidth: 0
Flags: HMW
LayerCount: 2
Back
Fore
SplineSet
0 6.5 m 1
 0 7 l 1
 0.5 7 l 1
 1 7 l 1
 1 6.5 l 1
 1 6 l 1
 0.5 6 l 1
 0 6 l 1
 0 6.5 l 1
1 1 m 1
 1 2 l 1
 1 3 l 1
 1.5 3 l 1
 2 3 l 1
 2 3.5 l 1
 2 4 l 1
 1.5 4 l 1
 1 4 l 1
 1 5 l 1
 1 6 l 1
 1.5 6 l 1
 2 6 l 1
 2 5 l 1
 2 4 l 1
 2.5 4 l 1
 3 4 l 1
 3 3.5 l 1
 3 3 l 1
 2.5 3 l 1
 2 3 l 1
 2 2 l 1
 2 1 l 1
 1.5 1 l 1
 1 1 l 1
1 1 m 1
 1 0.5 l 1
 1 -0 l 1
 0.5 -0 l 1
 0 -0 l 1
 0 0.5 l 1
 0 1 l 1
 0.5 1 l 1
 1 1 l 1
4 1 m 1
 3.5 1 l 1
 3 1 l 1
 3 2 l 1
 3 3 l 1
 3.5 3 l 1
 4 3 l 1
 4 2 l 1
 4 1 l 1
4 1 m 1
 4.5 1 l 1
 5 1 l 1
 5 0.5 l 1
 5 -0 l 1
 4.5 -0 l 1
 4 -0 l 1
 4 0.5 l 1
 4 1 l 1
4 6 m 1
 4 5 l 1
 4 4 l 1
 3.5 4 l 1
 3 4 l 1
 3 5 l 1
 3 6 l 1
 3.5 6 l 1
 4 6 l 1
4 6 m 1
 4 6.5 l 1
 4 7 l 1
 4.5 7 l 1
 5 7 l 1
 5 6.5 l 1
 5 6 l 1
 4.5 6 l 1
 4 6 l 1
EndSplineSet
EndChar

StartChar: glyph2579
Encoding: 5816 5816 2579
Width: 6
VWidth: 0
Flags: HMW
LayerCount: 2
Back
Fore
SplineSet
0 6.5 m 1
 0 7 l 1
 0.5 7 l 1
 1 7 l 1
 1 6.5 l 1
 1 6 l 1
 0.5 6 l 1
 0 6 l 1
 0 6.5 l 1
1 4 m 1
 1 3.5 l 1
 1 3 l 1
 1.5 3 l 1
 2 3 l 1
 2 3.5 l 1
 2 4 l 1
 1.5 4 l 1
 1 4 l 1
1 4 m 1
 1 5 l 1
 1 6 l 1
 1.5 6 l 1
 2 6 l 1
 2 5 l 1
 2 4 l 1
 2.5 4 l 1
 3 4 l 1
 3 3.5 l 1
 3 3 l 1
 3.5 3 l 1
 4 3 l 1
 4 3.5 l 1
 4 4 l 1
 3.5 4 l 1
 3 4 l 1
 3 5 l 1
 3 6 l 1
 3.5 6 l 1
 4 6 l 1
 4 5 l 1
 4 4 l 1
 4.5 4 l 1
 5 4 l 1
 5 3.5 l 1
 5 3 l 1
 4.5 3 l 1
 4 3 l 1
 4 2 l 1
 4 1 l 1
 3.5 1 l 1
 3 1 l 1
 3 2 l 1
 3 3 l 1
 2.5 3 l 1
 2 3 l 1
 2 2 l 1
 2 1 l 1
 1.5 1 l 1
 1 1 l 1
 1 2 l 1
 1 3 l 1
 0.5 3 l 1
 0 3 l 1
 0 3.5 l 1
 0 4 l 1
 0.5 4 l 1
 1 4 l 1
1 1 m 1
 1 0.5 l 1
 1 -0 l 1
 0.5 -0 l 1
 0 -0 l 1
 0 0.5 l 1
 0 1 l 1
 0.5 1 l 1
 1 1 l 1
4 1 m 1
 4.5 1 l 1
 5 1 l 1
 5 0.5 l 1
 5 -0 l 1
 4.5 -0 l 1
 4 -0 l 1
 4 0.5 l 1
 4 1 l 1
4 6 m 1
 4 6.5 l 1
 4 7 l 1
 4.5 7 l 1
 5 7 l 1
 5 6.5 l 1
 5 6 l 1
 4.5 6 l 1
 4 6 l 1
EndSplineSet
EndChar

StartChar: glyph2580
Encoding: 5817 5817 2580
Width: 5
VWidth: 0
Flags: HMW
LayerCount: 2
Back
Fore
SplineSet
0 3.5 m 1
 0 7 l 1
 1 7 l 1
 2 7 l 1
 2 6.5 l 1
 2 6 l 1
 1.5 6 l 1
 1 6 l 1
 1 4.5 l 1
 1 3 l 1
 1.5 3 l 1
 2 3 l 1
 2 3.5 l 1
 2 4 l 1
 2.5 4 l 1
 3 4 l 1
 3 4.5 l 1
 3 5 l 1
 2.5 5 l 1
 2 5 l 1
 2 5.5 l 1
 2 6 l 1
 2.5 6 l 1
 3 6 l 1
 3 5.5 l 1
 3 5 l 1
 3.5 5 l 1
 4 5 l 1
 4 4.5 l 1
 4 4 l 1
 3.5 4 l 1
 3 4 l 1
 3 3.5 l 1
 3 3 l 1
 2.5 3 l 1
 2 3 l 1
 2 2.5 l 1
 2 2 l 1
 1.5 2 l 1
 1 2 l 1
 1 1 l 1
 1 -0 l 1
 0.5 -0 l 1
 0 -0 l 1
 0 3.5 l 1
EndSplineSet
EndChar

StartChar: glyph2581
Encoding: 5818 5818 2581
Width: 6
VWidth: 0
Flags: HMW
LayerCount: 2
Back
Fore
SplineSet
0 3.5 m 1
 0 7 l 1
 0.5 7 l 1
 1 7 l 1
 1 5.5 l 1
 1 4 l 1
 2 4 l 1
 3 4 l 1
 3 3.5 l 1
 3 3 l 1
 2 3 l 1
 1 3 l 1
 1 1.5 l 1
 1 -0 l 1
 0.5 -0 l 1
 0 -0 l 1
 0 3.5 l 1
3 3 m 1
 3.5 3 l 1
 4 3 l 1
 4 5 l 1
 4 7 l 1
 4.5 7 l 1
 5 7 l 1
 5 3.5 l 1
 5 -0 l 1
 4.5 -0 l 1
 4 -0 l 1
 4 1 l 1
 4 2 l 1
 3.5 2 l 1
 3 2 l 1
 3 2.5 l 1
 3 3 l 1
EndSplineSet
EndChar

StartChar: glyph2582
Encoding: 5819 5819 2582
Width: 6
VWidth: 0
Flags: HMW
LayerCount: 2
Back
Fore
SplineSet
0 3.5 m 1
 0 7 l 1
 0.5 7 l 1
 1 7 l 1
 1 6 l 1
 1 5 l 1
 2 5 l 1
 3 5 l 1
 3 4.5 l 1
 3 4 l 1
 2 4 l 1
 1 4 l 1
 1 3.5 l 1
 1 3 l 1
 2 3 l 1
 3 3 l 1
 3 3.5 l 1
 3 4 l 1
 3.5 4 l 1
 4 4 l 1
 4 5.5 l 1
 4 7 l 1
 4.5 7 l 1
 5 7 l 1
 5 3.5 l 1
 5 -0 l 1
 4.5 -0 l 1
 4 -0 l 1
 4 0.5 l 1
 4 1 l 1
 3.5 1 l 1
 3 1 l 1
 3 1.5 l 1
 3 2 l 1
 3.5 2 l 1
 4 2 l 1
 4 2.5 l 1
 4 3 l 1
 3.5 3 l 1
 3 3 l 1
 3 2.5 l 1
 3 2 l 1
 2 2 l 1
 1 2 l 1
 1 1 l 1
 1 -0 l 1
 0.5 -0 l 1
 0 -0 l 1
 0 3.5 l 1
EndSplineSet
EndChar

StartChar: glyph2583
Encoding: 5820 5820 2583
Width: 6
VWidth: 0
Flags: HMW
LayerCount: 2
Back
Fore
SplineSet
2 6 m 1
 2 7 l 1
 2.5 7 l 1
 3 7 l 1
 3 6 l 1
 3 5 l 1
 3.5 5 l 1
 4 5 l 1
 4 4.5 l 1
 4 4 l 1
 3.5 4 l 1
 3 4 l 1
 3 3.5 l 1
 3 3 l 1
 3.5 3 l 1
 4 3 l 1
 4 2.5 l 1
 4 2 l 1
 3.5 2 l 1
 3 2 l 1
 3 1 l 1
 3 -0 l 1
 2.5 -0 l 1
 2 -0 l 1
 2 1 l 1
 2 2 l 1
 1.5 2 l 1
 1 2 l 1
 1 2.5 l 1
 1 3 l 1
 1.5 3 l 1
 2 3 l 1
 2 3.5 l 1
 2 4 l 1
 1.5 4 l 1
 1 4 l 1
 1 4.5 l 1
 1 5 l 1
 1.5 5 l 1
 2 5 l 1
 2 6 l 1
1 5 m 1
 0.5 5 l 1
 0 5 l 1
 0 5.5 l 1
 0 6 l 1
 0.5 6 l 1
 1 6 l 1
 1 5.5 l 1
 1 5 l 1
1 2 m 1
 1 1.5 l 1
 1 1 l 1
 0.5 1 l 1
 0 1 l 1
 0 1.5 l 1
 0 2 l 1
 0.5 2 l 1
 1 2 l 1
4 2 m 1
 4.5 2 l 1
 5 2 l 1
 5 1.5 l 1
 5 1 l 1
 4.5 1 l 1
 4 1 l 1
 4 1.5 l 1
 4 2 l 1
4 5 m 1
 4 5.5 l 1
 4 6 l 1
 4.5 6 l 1
 5 6 l 1
 5 5.5 l 1
 5 5 l 1
 4.5 5 l 1
 4 5 l 1
EndSplineSet
EndChar

StartChar: glyph2584
Encoding: 5821 5821 2584
Width: 4
VWidth: 0
Flags: HMW
LayerCount: 2
Back
Fore
SplineSet
1 6 m 1
 1 7 l 1
 1.5 7 l 1
 2 7 l 1
 2 6 l 1
 2 5 l 1
 2.5 5 l 1
 3 5 l 1
 3 4 l 1
 3 3 l 1
 2.5 3 l 1
 2 3 l 1
 2 1.5 l 1
 2 -0 l 1
 1.5 -0 l 1
 1 -0 l 1
 1 1.5 l 1
 1 3 l 1
 0.5 3 l 1
 0 3 l 1
 0 4 l 1
 0 5 l 1
 0.5 5 l 1
 1 5 l 1
 1 6 l 1
EndSplineSet
EndChar

StartChar: glyph2585
Encoding: 5822 5822 2585
Width: 6
VWidth: 0
Flags: HMW
LayerCount: 2
Back
Fore
SplineSet
2 6 m 1
 2 7 l 1
 2.5 7 l 1
 3 7 l 1
 3 5.5 l 1
 3 4 l 1
 3.5 4 l 1
 4 4 l 1
 4 3.5 l 1
 4 3 l 1
 3.5 3 l 1
 3 3 l 1
 3 1.5 l 1
 3 -0 l 1
 2.5 -0 l 1
 2 -0 l 1
 2 2 l 1
 2 4 l 1
 1.5 4 l 1
 1 4 l 1
 1 4.5 l 1
 1 5 l 1
 1.5 5 l 1
 2 5 l 1
 2 6 l 1
1 5 m 1
 0.5 5 l 1
 0 5 l 1
 0 5.5 l 1
 0 6 l 1
 0.5 6 l 1
 1 6 l 1
 1 5.5 l 1
 1 5 l 1
4 3 m 1
 4.5 3 l 1
 5 3 l 1
 5 2.5 l 1
 5 2 l 1
 4.5 2 l 1
 4 2 l 1
 4 2.5 l 1
 4 3 l 1
EndSplineSet
EndChar

StartChar: glyph2586
Encoding: 5823 5823 2586
Width: 4
VWidth: 0
Flags: HMW
LayerCount: 2
Back
Fore
SplineSet
0 3.5 m 1
 0 7 l 1
 0.5 7 l 1
 1 7 l 1
 1 5.5 l 1
 1 4 l 1
 1.5 4 l 1
 2 4 l 1
 2 3.5 l 1
 2 3 l 1
 1.5 3 l 1
 1 3 l 1
 1 1.5 l 1
 1 -0 l 1
 0.5 -0 l 1
 0 -0 l 1
 0 3.5 l 1
2 3 m 1
 2.5 3 l 1
 3 3 l 1
 3 2.5 l 1
 3 2 l 1
 2.5 2 l 1
 2 2 l 1
 2 2.5 l 1
 2 3 l 1
EndSplineSet
EndChar

StartChar: glyph2587
Encoding: 5824 5824 2587
Width: 6
VWidth: 0
Flags: HMW
LayerCount: 2
Back
Fore
SplineSet
2 6 m 1
 2 7 l 1
 2.5 7 l 1
 3 7 l 1
 3 6 l 1
 3 5 l 1
 3.5 5 l 1
 4 5 l 1
 4 4 l 1
 4 3 l 1
 3.5 3 l 1
 3 3 l 1
 3 1.5 l 1
 3 -0 l 1
 2.5 -0 l 1
 2 -0 l 1
 2 1.5 l 1
 2 3 l 1
 1.5 3 l 1
 1 3 l 1
 1 4 l 1
 1 5 l 1
 1.5 5 l 1
 2 5 l 1
 2 6 l 1
1 5 m 1
 0.5 5 l 1
 0 5 l 1
 0 5.5 l 1
 0 6 l 1
 0.5 6 l 1
 1 6 l 1
 1 5.5 l 1
 1 5 l 1
4 3 m 1
 4.5 3 l 1
 5 3 l 1
 5 2.5 l 1
 5 2 l 1
 4.5 2 l 1
 4 2 l 1
 4 2.5 l 1
 4 3 l 1
EndSplineSet
EndChar

StartChar: glyph2588
Encoding: 5825 5825 2588
Width: 2
VWidth: 0
Flags: HMW
LayerCount: 2
Back
Fore
SplineSet
0 3.5 m 1
 0 7 l 1
 0.5 7 l 1
 1 7 l 1
 1 3.5 l 1
 1 -0 l 1
 0.5 -0 l 1
 0 -0 l 1
 0 3.5 l 1
EndSplineSet
EndChar

StartChar: glyph2589
Encoding: 5826 5826 2589
Width: 4
VWidth: 0
Flags: HMW
LayerCount: 2
Back
Fore
SplineSet
1 6 m 1
 1 7 l 1
 1.5 7 l 1
 2 7 l 1
 2 6 l 1
 2 5 l 1
 2.5 5 l 1
 3 5 l 1
 3 4 l 1
 3 3 l 1
 2.5 3 l 1
 2 3 l 1
 2 1.5 l 1
 2 -0 l 1
 1.5 -0 l 1
 1 -0 l 1
 1 1.5 l 1
 1 3 l 1
 0.5 3 l 1
 0 3 l 1
 0 4 l 1
 0 5 l 1
 0.5 5 l 1
 1 5 l 1
 1 6 l 1
EndSplineSet
EndChar

StartChar: glyph2590
Encoding: 5827 5827 2590
Width: 7
VWidth: 0
Flags: HMW
LayerCount: 2
Back
Fore
SplineSet
2 6.5 m 1
 2 7 l 1
 2.5 7 l 1
 3 7 l 1
 3 6.5 l 1
 3 6 l 1
 2.5 6 l 1
 2 6 l 1
 2 6.5 l 1
3 4.5 m 1
 3 5 l 1
 3.5 5 l 1
 4 5 l 1
 4 4.5 l 1
 4 4 l 1
 3.5 4 l 1
 3 4 l 1
 3 4.5 l 1
2 3 m 1
 1.5 3 l 1
 1 3 l 1
 1 3.5 l 1
 1 4 l 1
 0.5 4 l 1
 0 4 l 1
 0 4.5 l 1
 0 5 l 1
 0.5 5 l 1
 1 5 l 1
 1 5.5 l 1
 1 6 l 1
 1.5 6 l 1
 2 6 l 1
 2 5.5 l 1
 2 5 l 1
 1.5 5 l 1
 1 5 l 1
 1 4.5 l 1
 1 4 l 1
 1.5 4 l 1
 2 4 l 1
 2 3.5 l 1
 2 3 l 1
2 3 m 1
 2.5 3 l 1
 3 3 l 1
 3 2.5 l 1
 3 2 l 1
 2.5 2 l 1
 2 2 l 1
 2 2.5 l 1
 2 3 l 1
4 1 m 1
 4 1.5 l 1
 4 2 l 1
 4.5 2 l 1
 5 2 l 1
 5 2.5 l 1
 5 3 l 1
 4.5 3 l 1
 4 3 l 1
 4 3.5 l 1
 4 4 l 1
 4.5 4 l 1
 5 4 l 1
 5 3.5 l 1
 5 3 l 1
 5.5 3 l 1
 6 3 l 1
 6 2.5 l 1
 6 2 l 1
 5.5 2 l 1
 5 2 l 1
 5 1.5 l 1
 5 1 l 1
 4.5 1 l 1
 4 1 l 1
4 1 m 1
 4 0.5 l 1
 4 -0 l 1
 3.5 -0 l 1
 3 -0 l 1
 3 0.5 l 1
 3 1 l 1
 3.5 1 l 1
 4 1 l 1
EndSplineSet
EndChar

StartChar: glyph2591
Encoding: 5828 5828 2591
Width: 6
VWidth: 0
Flags: HMW
LayerCount: 2
Back
Fore
SplineSet
2 3.5 m 1
 2 4 l 1
 1.5 4 l 1
 1 4 l 1
 1 3.5 l 1
 1 3 l 1
 1.5 3 l 1
 2 3 l 1
 2 3.5 l 1
2 6 m 1
 2 7 l 1
 2.5 7 l 1
 3 7 l 1
 3 6 l 1
 3 5 l 1
 3.5 5 l 1
 4 5 l 1
 4 4.5 l 1
 4 4 l 1
 3.5 4 l 1
 3 4 l 1
 3 3.5 l 1
 3 3 l 1
 3.5 3 l 1
 4 3 l 1
 4 3.5 l 1
 4 4 l 1
 4.5 4 l 1
 5 4 l 1
 5 3.5 l 1
 5 3 l 1
 4.5 3 l 1
 4 3 l 1
 4 2.5 l 1
 4 2 l 1
 3.5 2 l 1
 3 2 l 1
 3 1 l 1
 3 -0 l 1
 2.5 -0 l 1
 2 -0 l 1
 2 1 l 1
 2 2 l 1
 1.5 2 l 1
 1 2 l 1
 1 2.5 l 1
 1 3 l 1
 0.5 3 l 1
 0 3 l 1
 0 3.5 l 1
 0 4 l 1
 0.5 4 l 1
 1 4 l 1
 1 4.5 l 1
 1 5 l 1
 1.5 5 l 1
 2 5 l 1
 2 6 l 1
EndSplineSet
EndChar

StartChar: glyph2592
Encoding: 5829 5829 2592
Width: 6
VWidth: 0
Flags: HMW
LayerCount: 2
Back
Fore
SplineSet
2 5.5 m 1
 2 7 l 1
 2.5 7 l 1
 3 7 l 1
 3 6 l 1
 3 5 l 1
 3.5 5 l 1
 4 5 l 1
 4 4.5 l 1
 4 4 l 1
 3.5 4 l 1
 3 4 l 1
 3 2 l 1
 3 -0 l 1
 2.5 -0 l 1
 2 -0 l 1
 2 1.5 l 1
 2 3 l 1
 1.5 3 l 1
 1 3 l 1
 1 3.5 l 1
 1 4 l 1
 1.5 4 l 1
 2 4 l 1
 2 5.5 l 1
1 3 m 1
 1 2.5 l 1
 1 2 l 1
 0.5 2 l 1
 0 2 l 1
 0 2.5 l 1
 0 3 l 1
 0.5 3 l 1
 1 3 l 1
4 5 m 1
 4 5.5 l 1
 4 6 l 1
 4.5 6 l 1
 5 6 l 1
 5 5.5 l 1
 5 5 l 1
 4.5 5 l 1
 4 5 l 1
EndSplineSet
EndChar

StartChar: glyph2593
Encoding: 5830 5830 2593
Width: 4
VWidth: 0
Flags: HMW
LayerCount: 2
Back
Fore
SplineSet
2 5.5 m 1
 2 7 l 1
 2.5 7 l 1
 3 7 l 1
 3 3.5 l 1
 3 -0 l 1
 2.5 -0 l 1
 2 -0 l 1
 2 1.5 l 1
 2 3 l 1
 1.5 3 l 1
 1 3 l 1
 1 3.5 l 1
 1 4 l 1
 1.5 4 l 1
 2 4 l 1
 2 5.5 l 1
1 3 m 1
 1 2.5 l 1
 1 2 l 1
 0.5 2 l 1
 0 2 l 1
 0 2.5 l 1
 0 3 l 1
 0.5 3 l 1
 1 3 l 1
EndSplineSet
EndChar

StartChar: glyph2594
Encoding: 5831 5831 2594
Width: 6
VWidth: 0
Flags: HMW
LayerCount: 2
Back
Fore
SplineSet
2 4 m 1
 2 7 l 1
 3 7 l 1
 4 7 l 1
 4 6.5 l 1
 4 6 l 1
 3.5 6 l 1
 3 6 l 1
 3 3 l 1
 3 -0 l 1
 2 -0 l 1
 1 -0 l 1
 1 0.5 l 1
 1 1 l 1
 1.5 1 l 1
 2 1 l 1
 2 4 l 1
1 1 m 1
 0.5 1 l 1
 0 1 l 1
 0 1.5 l 1
 0 2 l 1
 0.5 2 l 1
 1 2 l 1
 1 1.5 l 1
 1 1 l 1
4 6 m 1
 4.5 6 l 1
 5 6 l 1
 5 5.5 l 1
 5 5 l 1
 4.5 5 l 1
 4 5 l 1
 4 5.5 l 1
 4 6 l 1
EndSplineSet
EndChar

StartChar: glyph2595
Encoding: 5832 5832 2595
Width: 5
VWidth: 0
Flags: HMW
LayerCount: 2
Back
Fore
SplineSet
0 3.5 m 1
 0 7 l 1
 1 7 l 1
 2 7 l 1
 2 6.5 l 1
 2 6 l 1
 1.5 6 l 1
 1 6 l 1
 1 3.5 l 1
 1 1 l 1
 1.5 1 l 1
 2 1 l 1
 2 0.5 l 1
 2 -0 l 1
 1 -0 l 1
 0 -0 l 1
 0 3.5 l 1
3 1 m 1
 2.5 1 l 1
 2 1 l 1
 2 1.5 l 1
 2 2 l 1
 2.5 2 l 1
 3 2 l 1
 3 1.5 l 1
 3 1 l 1
3 1 m 1
 3.5 1 l 1
 4 1 l 1
 4 0.5 l 1
 4 -0 l 1
 3.5 -0 l 1
 3 -0 l 1
 3 0.5 l 1
 3 1 l 1
3 6 m 1
 3 5.5 l 1
 3 5 l 1
 2.5 5 l 1
 2 5 l 1
 2 5.5 l 1
 2 6 l 1
 2.5 6 l 1
 3 6 l 1
3 6 m 1
 3 6.5 l 1
 3 7 l 1
 3.5 7 l 1
 4 7 l 1
 4 6.5 l 1
 4 6 l 1
 3.5 6 l 1
 3 6 l 1
EndSplineSet
EndChar

StartChar: glyph2596
Encoding: 5833 5833 2596
Width: 6
VWidth: 0
Flags: HMW
LayerCount: 2
Back
Fore
SplineSet
0 6.5 m 1
 0 7 l 1
 0.5 7 l 1
 1 7 l 1
 1 6.5 l 1
 1 6 l 1
 0.5 6 l 1
 0 6 l 1
 0 6.5 l 1
4 6 m 1
 4 5 l 1
 4 4 l 1
 3.5 4 l 1
 3 4 l 1
 3 2 l 1
 3 -0 l 1
 2.5 -0 l 1
 2 -0 l 1
 2 2 l 1
 2 4 l 1
 1.5 4 l 1
 1 4 l 1
 1 5 l 1
 1 6 l 1
 1.5 6 l 1
 2 6 l 1
 2 6.5 l 1
 2 7 l 1
 2.5 7 l 1
 3 7 l 1
 3 6.5 l 1
 3 6 l 1
 3.5 6 l 1
 4 6 l 1
4 6 m 1
 4 6.5 l 1
 4 7 l 1
 4.5 7 l 1
 5 7 l 1
 5 6.5 l 1
 5 6 l 1
 4.5 6 l 1
 4 6 l 1
EndSplineSet
EndChar

StartChar: glyph2597
Encoding: 5834 5834 2597
Width: 4
VWidth: 0
Flags: HMW
LayerCount: 2
Back
Fore
SplineSet
2 6.5 m 1
 2 7 l 1
 2.5 7 l 1
 3 7 l 1
 3 6.5 l 1
 3 6 l 1
 2.5 6 l 1
 2 6 l 1
 2 6.5 l 1
2 1 m 1
 1.5 1 l 1
 1 1 l 1
 1 1.5 l 1
 1 2 l 1
 0.5 2 l 1
 0 2 l 1
 0 2.5 l 1
 0 3 l 1
 0.5 3 l 1
 1 3 l 1
 1 3.5 l 1
 1 4 l 1
 0.5 4 l 1
 0 4 l 1
 0 4.5 l 1
 0 5 l 1
 0.5 5 l 1
 1 5 l 1
 1 5.5 l 1
 1 6 l 1
 1.5 6 l 1
 2 6 l 1
 2 5.5 l 1
 2 5 l 1
 1.5 5 l 1
 1 5 l 1
 1 4.5 l 1
 1 4 l 1
 2 4 l 1
 3 4 l 1
 3 3.5 l 1
 3 3 l 1
 2 3 l 1
 1 3 l 1
 1 2.5 l 1
 1 2 l 1
 1.5 2 l 1
 2 2 l 1
 2 1.5 l 1
 2 1 l 1
2 1 m 1
 2.5 1 l 1
 3 1 l 1
 3 0.5 l 1
 3 -0 l 1
 2.5 -0 l 1
 2 -0 l 1
 2 0.5 l 1
 2 1 l 1
EndSplineSet
EndChar

StartChar: glyph2598
Encoding: 5835 5835 2598
Width: 6
VWidth: 0
Flags: HMW
LayerCount: 2
Back
Fore
SplineSet
0 4.5 m 1
 0 7 l 1
 0.5 7 l 1
 1 7 l 1
 1 5 l 1
 1 3 l 1
 1.5 3 l 1
 2 3 l 1
 2 2.5 l 1
 2 2 l 1
 1 2 l 1
 0 2 l 1
 0 4.5 l 1
3 4 m 1
 3 3.5 l 1
 3 3 l 1
 2.5 3 l 1
 2 3 l 1
 2 3.5 l 1
 2 4 l 1
 2.5 4 l 1
 3 4 l 1
3 4 m 1
 3 4.5 l 1
 3 5 l 1
 4 5 l 1
 5 5 l 1
 5 2.5 l 1
 5 -0 l 1
 4.5 -0 l 1
 4 -0 l 1
 4 2 l 1
 4 4 l 1
 3.5 4 l 1
 3 4 l 1
EndSplineSet
EndChar

StartChar: glyph2599
Encoding: 5836 5836 2599
Width: 2
VWidth: 0
Flags: HMW
LayerCount: 2
Back
Fore
SplineSet
0 5.5 m 1
 0 7 l 1
 0.5 7 l 1
 1 7 l 1
 1 5.5 l 1
 1 4 l 1
 0.5 4 l 1
 0 4 l 1
 0 5.5 l 1
EndSplineSet
EndChar

StartChar: glyph2600
Encoding: 5837 5837 2600
Width: 4
VWidth: 0
Flags: HMW
LayerCount: 2
Back
Fore
SplineSet
1 6 m 1
 1 7 l 1
 1.5 7 l 1
 2 7 l 1
 2 6 l 1
 2 5 l 1
 2.5 5 l 1
 3 5 l 1
 3 4 l 1
 3 3 l 1
 1.5 3 l 1
 0 3 l 1
 0 4 l 1
 0 5 l 1
 0.5 5 l 1
 1 5 l 1
 1 6 l 1
EndSplineSet
EndChar

StartChar: glyph2601
Encoding: 5838 5838 2601
Width: 6
VWidth: 0
Flags: HMW
LayerCount: 2
Back
Fore
SplineSet
2 5.5 m 1
 2 7 l 1
 2.5 7 l 1
 3 7 l 1
 3 5.5 l 1
 3 4 l 1
 3.5 4 l 1
 4 4 l 1
 4 3.5 l 1
 4 3 l 1
 3.5 3 l 1
 3 3 l 1
 3 2.5 l 1
 3 2 l 1
 2.5 2 l 1
 2 2 l 1
 2 2.5 l 1
 2 3 l 1
 1.5 3 l 1
 1 3 l 1
 1 3.5 l 1
 1 4 l 1
 1.5 4 l 1
 2 4 l 1
 2 5.5 l 1
1 4 m 1
 0.5 4 l 1
 0 4 l 1
 0 4.5 l 1
 0 5 l 1
 0.5 5 l 1
 1 5 l 1
 1 4.5 l 1
 1 4 l 1
4 4 m 1
 4 4.5 l 1
 4 5 l 1
 4.5 5 l 1
 5 5 l 1
 5 4.5 l 1
 5 4 l 1
 4.5 4 l 1
 4 4 l 1
EndSplineSet
EndChar

StartChar: glyph2602
Encoding: 5839 5839 2602
Width: 6
VWidth: 0
Flags: HMW
LayerCount: 2
Back
Fore
SplineSet
2 6.5 m 1
 2 7 l 1
 2.5 7 l 1
 3 7 l 1
 3 6.5 l 1
 3 6 l 1
 3.5 6 l 1
 4 6 l 1
 4 5.5 l 1
 4 5 l 1
 3.5 5 l 1
 3 5 l 1
 3 2.5 l 1
 3 -0 l 1
 2.5 -0 l 1
 2 -0 l 1
 2 2.5 l 1
 2 5 l 1
 1.5 5 l 1
 1 5 l 1
 1 5.5 l 1
 1 6 l 1
 1.5 6 l 1
 2 6 l 1
 2 6.5 l 1
1 5 m 1
 1 4.5 l 1
 1 4 l 1
 0.5 4 l 1
 0 4 l 1
 0 4.5 l 1
 0 5 l 1
 0.5 5 l 1
 1 5 l 1
4 5 m 1
 4.5 5 l 1
 5 5 l 1
 5 4.5 l 1
 5 4 l 1
 4.5 4 l 1
 4 4 l 1
 4 4.5 l 1
 4 5 l 1
EndSplineSet
EndChar

StartChar: glyph2603
Encoding: 5840 5840 2603
Width: 4
VWidth: 0
Flags: HMW
LayerCount: 2
Back
Fore
SplineSet
2 6.5 m 1
 2 7 l 1
 2.5 7 l 1
 3 7 l 1
 3 3.5 l 1
 3 -0 l 1
 2.5 -0 l 1
 2 -0 l 1
 2 2.5 l 1
 2 5 l 1
 1.5 5 l 1
 1 5 l 1
 1 5.5 l 1
 1 6 l 1
 1.5 6 l 1
 2 6 l 1
 2 6.5 l 1
1 5 m 1
 1 4.5 l 1
 1 4 l 1
 0.5 4 l 1
 0 4 l 1
 0 4.5 l 1
 0 5 l 1
 0.5 5 l 1
 1 5 l 1
EndSplineSet
EndChar

StartChar: glyph2604
Encoding: 5841 5841 2604
Width: 5
VWidth: 0
Flags: HMW
LayerCount: 2
Back
Fore
SplineSet
2 4.5 m 1
 2 5 l 1
 1.5 5 l 1
 1 5 l 1
 1 4.5 l 1
 1 4 l 1
 1.5 4 l 1
 2 4 l 1
 2 4.5 l 1
2 6.5 m 1
 2 7 l 1
 2.5 7 l 1
 3 7 l 1
 3 5.5 l 1
 3 4 l 1
 3.5 4 l 1
 4 4 l 1
 4 3 l 1
 4 2 l 1
 3.5 2 l 1
 3 2 l 1
 3 1 l 1
 3 -0 l 1
 2.5 -0 l 1
 2 -0 l 1
 2 1 l 1
 2 2 l 1
 1.5 2 l 1
 1 2 l 1
 1 3 l 1
 1 4 l 1
 0.5 4 l 1
 0 4 l 1
 0 4.5 l 1
 0 5 l 1
 0.5 5 l 1
 1 5 l 1
 1 5.5 l 1
 1 6 l 1
 1.5 6 l 1
 2 6 l 1
 2 6.5 l 1
EndSplineSet
EndChar

StartChar: glyph2605
Encoding: 5842 5842 2605
Width: 5
VWidth: 0
Flags: HMW
LayerCount: 2
Back
Fore
SplineSet
0 3.5 m 1
 0 7 l 1
 1.5 7 l 1
 3 7 l 1
 3 6.5 l 1
 3 6 l 1
 2 6 l 1
 1 6 l 1
 1 5 l 1
 1 4 l 1
 1.5 4 l 1
 2 4 l 1
 2 4.5 l 1
 2 5 l 1
 2.5 5 l 1
 3 5 l 1
 3 5.5 l 1
 3 6 l 1
 3.5 6 l 1
 4 6 l 1
 4 5.5 l 1
 4 5 l 1
 3.5 5 l 1
 3 5 l 1
 3 4.5 l 1
 3 4 l 1
 2.5 4 l 1
 2 4 l 1
 2 3.5 l 1
 2 3 l 1
 1.5 3 l 1
 1 3 l 1
 1 2 l 1
 1 1 l 1
 2 1 l 1
 3 1 l 1
 3 1.5 l 1
 3 2 l 1
 2.5 2 l 1
 2 2 l 1
 2 2.5 l 1
 2 3 l 1
 2.5 3 l 1
 3 3 l 1
 3 2.5 l 1
 3 2 l 1
 3.5 2 l 1
 4 2 l 1
 4 1.5 l 1
 4 1 l 1
 3.5 1 l 1
 3 1 l 1
 3 0.5 l 1
 3 -0 l 1
 1.5 -0 l 1
 0 -0 l 1
 0 3.5 l 1
EndSplineSet
EndChar

StartChar: glyph2606
Encoding: 5843 5843 2606
Width: 4
VWidth: 0
Flags: HMW
LayerCount: 2
Back
Fore
SplineSet
0 3.5 m 1
 0 7 l 1
 0.5 7 l 1
 1 7 l 1
 1 6 l 1
 1 5 l 1
 1.5 5 l 1
 2 5 l 1
 2 4.5 l 1
 2 4 l 1
 1.5 4 l 1
 1 4 l 1
 1 3.5 l 1
 1 3 l 1
 1.5 3 l 1
 2 3 l 1
 2 3.5 l 1
 2 4 l 1
 2.5 4 l 1
 3 4 l 1
 3 3.5 l 1
 3 3 l 1
 2.5 3 l 1
 2 3 l 1
 2 2.5 l 1
 2 2 l 1
 1.5 2 l 1
 1 2 l 1
 1 1 l 1
 1 -0 l 1
 0.5 -0 l 1
 0 -0 l 1
 0 3.5 l 1
2 5 m 1
 2 5.5 l 1
 2 6 l 1
 2.5 6 l 1
 3 6 l 1
 3 5.5 l 1
 3 5 l 1
 2.5 5 l 1
 2 5 l 1
EndSplineSet
EndChar

StartChar: glyph2607
Encoding: 5844 5844 2607
Width: 5
VWidth: 0
Flags: HMW
LayerCount: 2
Back
Fore
SplineSet
0 3.5 m 1
 0 7 l 1
 1.5 7 l 1
 3 7 l 1
 3 6.5 l 1
 3 6 l 1
 2 6 l 1
 1 6 l 1
 1 5.5 l 1
 1 5 l 1
 1.5 5 l 1
 2 5 l 1
 2 4.5 l 1
 2 4 l 1
 2.5 4 l 1
 3 4 l 1
 3 5 l 1
 3 6 l 1
 3.5 6 l 1
 4 6 l 1
 4 5 l 1
 4 4 l 1
 3.5 4 l 1
 3 4 l 1
 3 3.5 l 1
 3 3 l 1
 2 3 l 1
 1 3 l 1
 1 2.5 l 1
 1 2 l 1
 1.5 2 l 1
 2 2 l 1
 2 1.5 l 1
 2 1 l 1
 2.5 1 l 1
 3 1 l 1
 3 2 l 1
 3 3 l 1
 3.5 3 l 1
 4 3 l 1
 4 2 l 1
 4 1 l 1
 3.5 1 l 1
 3 1 l 1
 3 0.5 l 1
 3 -0 l 1
 1.5 -0 l 1
 0 -0 l 1
 0 3.5 l 1
EndSplineSet
EndChar

StartChar: glyph2608
Encoding: 5845 5845 2608
Width: 5
VWidth: 0
Flags: HMW
LayerCount: 2
Back
Fore
SplineSet
0 3.5 m 1
 0 7 l 1
 0.5 7 l 1
 1 7 l 1
 1 6 l 1
 1 5 l 1
 1.5 5 l 1
 2 5 l 1
 2 4.5 l 1
 2 4 l 1
 1.5 4 l 1
 1 4 l 1
 1 3.5 l 1
 1 3 l 1
 1.5 3 l 1
 2 3 l 1
 2 2.5 l 1
 2 2 l 1
 1.5 2 l 1
 1 2 l 1
 1 1 l 1
 1 -0 l 1
 0.5 -0 l 1
 0 -0 l 1
 0 3.5 l 1
3 1 m 1
 2.5 1 l 1
 2 1 l 1
 2 1.5 l 1
 2 2 l 1
 2.5 2 l 1
 3 2 l 1
 3 1.5 l 1
 3 1 l 1
3 1 m 1
 3.5 1 l 1
 4 1 l 1
 4 0.5 l 1
 4 -0 l 1
 3.5 -0 l 1
 3 -0 l 1
 3 0.5 l 1
 3 1 l 1
3 6 m 1
 3 5.5 l 1
 3 5 l 1
 2.5 5 l 1
 2 5 l 1
 2 5.5 l 1
 2 6 l 1
 2.5 6 l 1
 3 6 l 1
3 6 m 1
 3 6.5 l 1
 3 7 l 1
 3.5 7 l 1
 4 7 l 1
 4 6.5 l 1
 4 6 l 1
 3.5 6 l 1
 3 6 l 1
EndSplineSet
EndChar

StartChar: glyph2609
Encoding: 5846 5846 2609
Width: 6
VWidth: 0
Flags: HMW
LayerCount: 2
Back
Fore
SplineSet
0 3.5 m 1
 0 7 l 1
 0.5 7 l 1
 1 7 l 1
 1 6.5 l 1
 1 6 l 1
 1.5 6 l 1
 2 6 l 1
 2 5.5 l 1
 2 5 l 1
 1.5 5 l 1
 1 5 l 1
 1 2.5 l 1
 1 -0 l 1
 0.5 -0 l 1
 0 -0 l 1
 0 3.5 l 1
3 5 m 1
 3 4.5 l 1
 3 4 l 1
 2.5 4 l 1
 2 4 l 1
 2 4.5 l 1
 2 5 l 1
 2.5 5 l 1
 3 5 l 1
3 5 m 1
 3 5.5 l 1
 3 6 l 1
 3.5 6 l 1
 4 6 l 1
 4 6.5 l 1
 4 7 l 1
 4.5 7 l 1
 5 7 l 1
 5 3.5 l 1
 5 -0 l 1
 4.5 -0 l 1
 4 -0 l 1
 4 2.5 l 1
 4 5 l 1
 3.5 5 l 1
 3 5 l 1
EndSplineSet
EndChar

StartChar: glyph2610
Encoding: 5847 5847 2610
Width: 6
VWidth: 0
Flags: HMW
LayerCount: 2
Back
Fore
SplineSet
4 4.5 m 1
 4 5 l 1
 3.5 5 l 1
 3 5 l 1
 3 4.5 l 1
 3 4 l 1
 3.5 4 l 1
 4 4 l 1
 4 4.5 l 1
0 3.5 m 1
 0 7 l 1
 0.5 7 l 1
 1 7 l 1
 1 6.5 l 1
 1 6 l 1
 1.5 6 l 1
 2 6 l 1
 2 5.5 l 1
 2 5 l 1
 1.5 5 l 1
 1 5 l 1
 1 4.5 l 1
 1 4 l 1
 1.5 4 l 1
 2 4 l 1
 2 4.5 l 1
 2 5 l 1
 2.5 5 l 1
 3 5 l 1
 3 5.5 l 1
 3 6 l 1
 3.5 6 l 1
 4 6 l 1
 4 6.5 l 1
 4 7 l 1
 4.5 7 l 1
 5 7 l 1
 5 3.5 l 1
 5 -0 l 1
 4.5 -0 l 1
 4 -0 l 1
 4 1.5 l 1
 4 3 l 1
 3.5 3 l 1
 3 3 l 1
 3 3.5 l 1
 3 4 l 1
 2.5 4 l 1
 2 4 l 1
 2 3.5 l 1
 2 3 l 1
 1.5 3 l 1
 1 3 l 1
 1 1.5 l 1
 1 -0 l 1
 0.5 -0 l 1
 0 -0 l 1
 0 3.5 l 1
EndSplineSet
EndChar

StartChar: glyph2611
Encoding: 5848 5848 2611
Width: 6
VWidth: 0
Flags: HMW
LayerCount: 2
Back
Fore
SplineSet
0 6 m 1
 0 7 l 1
 0.5 7 l 1
 1 7 l 1
 1 6 l 1
 1 5 l 1
 0.5 5 l 1
 0 5 l 1
 0 6 l 1
4 5 m 1
 4 4.5 l 1
 4 4 l 1
 3.5 4 l 1
 3 4 l 1
 3 2 l 1
 3 -0 l 1
 2.5 -0 l 1
 2 -0 l 1
 2 2 l 1
 2 4 l 1
 1.5 4 l 1
 1 4 l 1
 1 4.5 l 1
 1 5 l 1
 1.5 5 l 1
 2 5 l 1
 2 6 l 1
 2 7 l 1
 2.5 7 l 1
 3 7 l 1
 3 6 l 1
 3 5 l 1
 3.5 5 l 1
 4 5 l 1
4 5 m 1
 4 6 l 1
 4 7 l 1
 4.5 7 l 1
 5 7 l 1
 5 6 l 1
 5 5 l 1
 4.5 5 l 1
 4 5 l 1
EndSplineSet
EndChar

StartChar: glyph2612
Encoding: 5849 5849 2612
Width: 4
VWidth: 0
Flags: HMW
LayerCount: 2
Back
Fore
SplineSet
0 6 m 1
 0 7 l 1
 1.5 7 l 1
 3 7 l 1
 3 6 l 1
 3 5 l 1
 2.5 5 l 1
 2 5 l 1
 2 2.5 l 1
 2 -0 l 1
 1.5 -0 l 1
 1 -0 l 1
 1 2.5 l 1
 1 5 l 1
 0.5 5 l 1
 0 5 l 1
 0 6 l 1
EndSplineSet
EndChar

StartChar: glyph2613
Encoding: 5850 5850 2613
Width: 4
VWidth: 0
Flags: HMW
LayerCount: 2
Back
Fore
SplineSet
0 3.5 m 1
 0 7 l 1
 0.5 7 l 1
 1 7 l 1
 1 6.5 l 1
 1 6 l 1
 1.5 6 l 1
 2 6 l 1
 2 5.5 l 1
 2 5 l 1
 1.5 5 l 1
 1 5 l 1
 1 2.5 l 1
 1 -0 l 1
 0.5 -0 l 1
 0 -0 l 1
 0 3.5 l 1
2 5 m 1
 2.5 5 l 1
 3 5 l 1
 3 4.5 l 1
 3 4 l 1
 2.5 4 l 1
 2 4 l 1
 2 4.5 l 1
 2 5 l 1
EndSplineSet
EndChar

StartChar: glyph2614
Encoding: 5851 5851 2614
Width: 5
VWidth: 0
Flags: HMW
LayerCount: 2
Back
Fore
SplineSet
1 5.5 m 1
 1 7 l 1
 1.5 7 l 1
 2 7 l 1
 2 6.5 l 1
 2 6 l 1
 2.5 6 l 1
 3 6 l 1
 3 5.5 l 1
 3 5 l 1
 2.5 5 l 1
 2 5 l 1
 2 4.5 l 1
 2 4 l 1
 2.5 4 l 1
 3 4 l 1
 3 4.5 l 1
 3 5 l 1
 3.5 5 l 1
 4 5 l 1
 4 4.5 l 1
 4 4 l 1
 3.5 4 l 1
 3 4 l 1
 3 3 l 1
 3 2 l 1
 2.5 2 l 1
 2 2 l 1
 2 1 l 1
 2 -0 l 1
 1.5 -0 l 1
 1 -0 l 1
 1 1 l 1
 1 2 l 1
 0.5 2 l 1
 0 2 l 1
 0 3 l 1
 0 4 l 1
 0.5 4 l 1
 1 4 l 1
 1 5.5 l 1
EndSplineSet
EndChar

StartChar: glyph2615
Encoding: 5852 5852 2615
Width: 6
VWidth: 0
Flags: HMW
LayerCount: 2
Back
Fore
SplineSet
2 5.5 m 1
 2 6 l 1
 2.5 6 l 1
 3 6 l 1
 3 5.5 l 1
 3 5 l 1
 2.5 5 l 1
 2 5 l 1
 2 4.5 l 1
 2 4 l 1
 1.5 4 l 1
 1 4 l 1
 1 3.5 l 1
 1 3 l 1
 1.5 3 l 1
 2 3 l 1
 2 2.5 l 1
 2 2 l 1
 2.5 2 l 1
 3 2 l 1
 3 2.5 l 1
 3 3 l 1
 3.5 3 l 1
 4 3 l 1
 4 3.5 l 1
 4 4 l 1
 3.5 4 l 1
 3 4 l 1
 3 4.5 l 1
 3 5 l 1
 3.5 5 l 1
 4 5 l 1
 4 4.5 l 1
 4 4 l 1
 4.5 4 l 1
 5 4 l 1
 5 3.5 l 1
 5 3 l 1
 4.5 3 l 1
 4 3 l 1
 4 2.5 l 1
 4 2 l 1
 3.5 2 l 1
 3 2 l 1
 3 1.5 l 1
 3 1 l 1
 2.5 1 l 1
 2 1 l 1
 2 1.5 l 1
 2 2 l 1
 1.5 2 l 1
 1 2 l 1
 1 2.5 l 1
 1 3 l 1
 0.5 3 l 1
 0 3 l 1
 0 3.5 l 1
 0 4 l 1
 0.5 4 l 1
 1 4 l 1
 1 4.5 l 1
 1 5 l 1
 1.5 5 l 1
 2 5 l 1
 2 5.5 l 1
EndSplineSet
EndChar

StartChar: glyph2616
Encoding: 5853 5853 2616
Width: 6
VWidth: 0
Flags: HMW
LayerCount: 2
Back
Fore
SplineSet
1 6.5 m 1
 1 7 l 1
 1.5 7 l 1
 2 7 l 1
 2 6.5 l 1
 2 6 l 1
 1.5 6 l 1
 1 6 l 1
 1 6.5 l 1
2 5 m 1
 2 4.5 l 1
 2 4 l 1
 1.5 4 l 1
 1 4 l 1
 1 3.5 l 1
 1 3 l 1
 1.5 3 l 1
 2 3 l 1
 2 2.5 l 1
 2 2 l 1
 2.5 2 l 1
 3 2 l 1
 3 2.5 l 1
 3 3 l 1
 3.5 3 l 1
 4 3 l 1
 4 3.5 l 1
 4 4 l 1
 3.5 4 l 1
 3 4 l 1
 3 4.5 l 1
 3 5 l 1
 2.5 5 l 1
 2 5 l 1
2 5 m 1
 2 5.5 l 1
 2 6 l 1
 2.5 6 l 1
 3 6 l 1
 3 5.5 l 1
 3 5 l 1
 3.5 5 l 1
 4 5 l 1
 4 4.5 l 1
 4 4 l 1
 4.5 4 l 1
 5 4 l 1
 5 3.5 l 1
 5 3 l 1
 4.5 3 l 1
 4 3 l 1
 4 2.5 l 1
 4 2 l 1
 3.5 2 l 1
 3 2 l 1
 3 1.5 l 1
 3 1 l 1
 2.5 1 l 1
 2 1 l 1
 2 1.5 l 1
 2 2 l 1
 1.5 2 l 1
 1 2 l 1
 1 2.5 l 1
 1 3 l 1
 0.5 3 l 1
 0 3 l 1
 0 3.5 l 1
 0 4 l 1
 0.5 4 l 1
 1 4 l 1
 1 4.5 l 1
 1 5 l 1
 1.5 5 l 1
 2 5 l 1
2 1 m 1
 2 0.5 l 1
 2 -0 l 1
 1.5 -0 l 1
 1 -0 l 1
 1 0.5 l 1
 1 1 l 1
 1.5 1 l 1
 2 1 l 1
3 1 m 1
 3.5 1 l 1
 4 1 l 1
 4 0.5 l 1
 4 -0 l 1
 3.5 -0 l 1
 3 -0 l 1
 3 0.5 l 1
 3 1 l 1
3 6 m 1
 3 6.5 l 1
 3 7 l 1
 3.5 7 l 1
 4 7 l 1
 4 6.5 l 1
 4 6 l 1
 3.5 6 l 1
 3 6 l 1
EndSplineSet
EndChar

StartChar: glyph2617
Encoding: 5854 5854 2617
Width: 6
VWidth: 0
Flags: HMW
LayerCount: 2
Back
Fore
SplineSet
4 3.5 m 1
 4 4 l 1
 3.5 4 l 1
 3 4 l 1
 3 3.5 l 1
 3 3 l 1
 3.5 3 l 1
 4 3 l 1
 4 3.5 l 1
0 3.5 m 1
 0 7 l 1
 0.5 7 l 1
 1 7 l 1
 1 6.5 l 1
 1 6 l 1
 1.5 6 l 1
 2 6 l 1
 2 5 l 1
 2 4 l 1
 1.5 4 l 1
 1 4 l 1
 1 3.5 l 1
 1 3 l 1
 1.5 3 l 1
 2 3 l 1
 2 3.5 l 1
 2 4 l 1
 2.5 4 l 1
 3 4 l 1
 3 5 l 1
 3 6 l 1
 3.5 6 l 1
 4 6 l 1
 4 6.5 l 1
 4 7 l 1
 4.5 7 l 1
 5 7 l 1
 5 3.5 l 1
 5 -0 l 1
 4.5 -0 l 1
 4 -0 l 1
 4 0.5 l 1
 4 1 l 1
 3.5 1 l 1
 3 1 l 1
 3 2 l 1
 3 3 l 1
 2.5 3 l 1
 2 3 l 1
 2 2 l 1
 2 1 l 1
 1.5 1 l 1
 1 1 l 1
 1 0.5 l 1
 1 -0 l 1
 0.5 -0 l 1
 0 -0 l 1
 0 3.5 l 1
EndSplineSet
EndChar

StartChar: glyph2618
Encoding: 5855 5855 2618
Width: 6
VWidth: 0
Flags: HMW
LayerCount: 2
Back
Fore
SplineSet
2 6.5 m 1
 2 7 l 1
 2.5 7 l 1
 3 7 l 1
 3 6.5 l 1
 3 6 l 1
 2.5 6 l 1
 2 6 l 1
 2 5.5 l 1
 2 5 l 1
 1.5 5 l 1
 1 5 l 1
 1 4.5 l 1
 1 4 l 1
 1.5 4 l 1
 2 4 l 1
 2 3.5 l 1
 2 3 l 1
 2.5 3 l 1
 3 3 l 1
 3 3.5 l 1
 3 4 l 1
 3.5 4 l 1
 4 4 l 1
 4 4.5 l 1
 4 5 l 1
 3.5 5 l 1
 3 5 l 1
 3 5.5 l 1
 3 6 l 1
 3.5 6 l 1
 4 6 l 1
 4 5.5 l 1
 4 5 l 1
 4.5 5 l 1
 5 5 l 1
 5 4.5 l 1
 5 4 l 1
 4.5 4 l 1
 4 4 l 1
 4 3.5 l 1
 4 3 l 1
 3.5 3 l 1
 3 3 l 1
 3 2.5 l 1
 3 2 l 1
 2.5 2 l 1
 2 2 l 1
 2 2.5 l 1
 2 3 l 1
 1.5 3 l 1
 1 3 l 1
 1 3.5 l 1
 1 4 l 1
 0.5 4 l 1
 0 4 l 1
 0 4.5 l 1
 0 5 l 1
 0.5 5 l 1
 1 5 l 1
 1 5.5 l 1
 1 6 l 1
 1.5 6 l 1
 2 6 l 1
 2 6.5 l 1
1 1 m 1
 1 1.5 l 1
 1 2 l 1
 1.5 2 l 1
 2 2 l 1
 2 1.5 l 1
 2 1 l 1
 1.5 1 l 1
 1 1 l 1
1 1 m 1
 1 0.5 l 1
 1 0 l 1
 0.5 0 l 1
 0 0 l 1
 0 0.5 l 1
 0 1 l 1
 0.5 1 l 1
 1 1 l 1
4 1 m 1
 3.5 1 l 1
 3 1 l 1
 3 1.5 l 1
 3 2 l 1
 3.5 2 l 1
 4 2 l 1
 4 1.5 l 1
 4 1 l 1
4 1 m 1
 4.5 1 l 1
 5 1 l 1
 5 0.5 l 1
 5 0 l 1
 4.5 0 l 1
 4 0 l 1
 4 0.5 l 1
 4 1 l 1
EndSplineSet
EndChar

StartChar: glyph2619
Encoding: 5856 5856 2619
Width: 8
VWidth: 0
Flags: HMW
LayerCount: 2
Back
Fore
SplineSet
0 6.5 m 1
 0 7 l 1
 0.5 7 l 1
 1 7 l 1
 1 6.5 l 1
 1 6 l 1
 0.5 6 l 1
 0 6 l 1
 0 6.5 l 1
6 6 m 1
 6 5.5 l 1
 6 5 l 1
 5.5 5 l 1
 5 5 l 1
 5 5.5 l 1
 5 6 l 1
 4.5 6 l 1
 4 6 l 1
 4 3 l 1
 4 -0 l 1
 3.5 -0 l 1
 3 -0 l 1
 3 3 l 1
 3 6 l 1
 2.5 6 l 1
 2 6 l 1
 2 5.5 l 1
 2 5 l 1
 1.5 5 l 1
 1 5 l 1
 1 5.5 l 1
 1 6 l 1
 1.5 6 l 1
 2 6 l 1
 2 6.5 l 1
 2 7 l 1
 3.5 7 l 1
 5 7 l 1
 5 6.5 l 1
 5 6 l 1
 5.5 6 l 1
 6 6 l 1
6 6 m 1
 6 6.5 l 1
 6 7 l 1
 6.5 7 l 1
 7 7 l 1
 7 6.5 l 1
 7 6 l 1
 6.5 6 l 1
 6 6 l 1
EndSplineSet
EndChar

StartChar: glyph2620
Encoding: 5857 5857 2620
Width: 6
VWidth: 0
Flags: HMW
LayerCount: 2
Back
Fore
SplineSet
2 6 m 1
 2 7 l 1
 2.5 7 l 1
 3 7 l 1
 3 6 l 1
 3 5 l 1
 3.5 5 l 1
 4 5 l 1
 4 4.5 l 1
 4 4 l 1
 3.5 4 l 1
 3 4 l 1
 3 3.5 l 1
 3 3 l 1
 3.5 3 l 1
 4 3 l 1
 4 2.5 l 1
 4 2 l 1
 3.5 2 l 1
 3 2 l 1
 3 1 l 1
 3 -0 l 1
 2.5 -0 l 1
 2 -0 l 1
 2 1 l 1
 2 2 l 1
 1.5 2 l 1
 1 2 l 1
 1 2.5 l 1
 1 3 l 1
 1.5 3 l 1
 2 3 l 1
 2 3.5 l 1
 2 4 l 1
 1.5 4 l 1
 1 4 l 1
 1 4.5 l 1
 1 5 l 1
 1.5 5 l 1
 2 5 l 1
 2 6 l 1
1 5 m 1
 0.5 5 l 1
 0 5 l 1
 0 5.5 l 1
 0 6 l 1
 0.5 6 l 1
 1 6 l 1
 1 5.5 l 1
 1 5 l 1
1 2 m 1
 1 1.5 l 1
 1 1 l 1
 0.5 1 l 1
 0 1 l 1
 0 1.5 l 1
 0 2 l 1
 0.5 2 l 1
 1 2 l 1
4 2 m 1
 4.5 2 l 1
 5 2 l 1
 5 1.5 l 1
 5 1 l 1
 4.5 1 l 1
 4 1 l 1
 4 1.5 l 1
 4 2 l 1
4 5 m 1
 4 5.5 l 1
 4 6 l 1
 4.5 6 l 1
 5 6 l 1
 5 5.5 l 1
 5 5 l 1
 4.5 5 l 1
 4 5 l 1
EndSplineSet
EndChar

StartChar: glyph2621
Encoding: 5858 5858 2621
Width: 8
VWidth: 0
Flags: HMW
LayerCount: 2
Back
Fore
SplineSet
3 4 m 1
 3 7 l 1
 4 7 l 1
 5 7 l 1
 5 6.5 l 1
 5 6 l 1
 4.5 6 l 1
 4 6 l 1
 4 3 l 1
 4 -0 l 1
 3 -0 l 1
 2 -0 l 1
 2 0.5 l 1
 2 1 l 1
 2.5 1 l 1
 3 1 l 1
 3 4 l 1
1 1 m 1
 1 1.5 l 1
 1 2 l 1
 1.5 2 l 1
 2 2 l 1
 2 1.5 l 1
 2 1 l 1
 1.5 1 l 1
 1 1 l 1
1 1 m 1
 1 0.5 l 1
 1 -0 l 1
 0.5 -0 l 1
 0 -0 l 1
 0 0.5 l 1
 0 1 l 1
 0.5 1 l 1
 1 1 l 1
6 6 m 1
 6 5.5 l 1
 6 5 l 1
 5.5 5 l 1
 5 5 l 1
 5 5.5 l 1
 5 6 l 1
 5.5 6 l 1
 6 6 l 1
6 6 m 1
 6 6.5 l 1
 6 7 l 1
 6.5 7 l 1
 7 7 l 1
 7 6.5 l 1
 7 6 l 1
 6.5 6 l 1
 6 6 l 1
EndSplineSet
EndChar

StartChar: glyph2622
Encoding: 5859 5859 2622
Width: 6
VWidth: 0
Flags: HMW
LayerCount: 2
Back
Fore
SplineSet
2 5 m 1
 2 7 l 1
 2.5 7 l 1
 3 7 l 1
 3 5 l 1
 3 3 l 1
 3.5 3 l 1
 4 3 l 1
 4 2 l 1
 4 1 l 1
 3.5 1 l 1
 3 1 l 1
 3 0.5 l 1
 3 -0 l 1
 2.5 -0 l 1
 2 -0 l 1
 2 0.5 l 1
 2 1 l 1
 1.5 1 l 1
 1 1 l 1
 1 2 l 1
 1 3 l 1
 1.5 3 l 1
 2 3 l 1
 2 5 l 1
1 1 m 1
 1 0.5 l 1
 1 -0 l 1
 0.5 -0 l 1
 0 -0 l 1
 0 0.5 l 1
 0 1 l 1
 0.5 1 l 1
 1 1 l 1
4 1 m 1
 4.5 1 l 1
 5 1 l 1
 5 0.5 l 1
 5 -0 l 1
 4.5 -0 l 1
 4 -0 l 1
 4 0.5 l 1
 4 1 l 1
EndSplineSet
EndChar

StartChar: glyph2623
Encoding: 5860 5860 2623
Width: 6
VWidth: 0
Flags: HMW
LayerCount: 2
Back
Fore
SplineSet
2 3.5 m 1
 2 4 l 1
 1.5 4 l 1
 1 4 l 1
 1 3.5 l 1
 1 3 l 1
 1.5 3 l 1
 2 3 l 1
 2 3.5 l 1
0 6.5 m 1
 0 7 l 1
 0.5 7 l 1
 1 7 l 1
 1 6.5 l 1
 1 6 l 1
 0.5 6 l 1
 0 6 l 1
 0 6.5 l 1
1 4 m 1
 1 5 l 1
 1 6 l 1
 1.5 6 l 1
 2 6 l 1
 2 6.5 l 1
 2 7 l 1
 2.5 7 l 1
 3 7 l 1
 3 6.5 l 1
 3 6 l 1
 3.5 6 l 1
 4 6 l 1
 4 5 l 1
 4 4 l 1
 3.5 4 l 1
 3 4 l 1
 3 3.5 l 1
 3 3 l 1
 3.5 3 l 1
 4 3 l 1
 4 3.5 l 1
 4 4 l 1
 4.5 4 l 1
 5 4 l 1
 5 3.5 l 1
 5 3 l 1
 4.5 3 l 1
 4 3 l 1
 4 2 l 1
 4 1 l 1
 3.5 1 l 1
 3 1 l 1
 3 0.5 l 1
 3 -0 l 1
 2.5 -0 l 1
 2 -0 l 1
 2 0.5 l 1
 2 1 l 1
 1.5 1 l 1
 1 1 l 1
 1 2 l 1
 1 3 l 1
 0.5 3 l 1
 0 3 l 1
 0 3.5 l 1
 0 4 l 1
 0.5 4 l 1
 1 4 l 1
1 1 m 1
 1 0.5 l 1
 1 -0 l 1
 0.5 -0 l 1
 0 -0 l 1
 0 0.5 l 1
 0 1 l 1
 0.5 1 l 1
 1 1 l 1
4 1 m 1
 4.5 1 l 1
 5 1 l 1
 5 0.5 l 1
 5 -0 l 1
 4.5 -0 l 1
 4 -0 l 1
 4 0.5 l 1
 4 1 l 1
4 6 m 1
 4 6.5 l 1
 4 7 l 1
 4.5 7 l 1
 5 7 l 1
 5 6.5 l 1
 5 6 l 1
 4.5 6 l 1
 4 6 l 1
EndSplineSet
EndChar

StartChar: glyph2624
Encoding: 5861 5861 2624
Width: 6
VWidth: 0
Flags: HMW
LayerCount: 2
Back
Fore
SplineSet
0 3.5 m 1
 0 7 l 1
 0.5 7 l 1
 1 7 l 1
 1 6.5 l 1
 1 6 l 1
 1.5 6 l 1
 2 6 l 1
 2 5.5 l 1
 2 5 l 1
 1.5 5 l 1
 1 5 l 1
 1 4.5 l 1
 1 4 l 1
 1.5 4 l 1
 2 4 l 1
 2 4.5 l 1
 2 5 l 1
 2.5 5 l 1
 3 5 l 1
 3 4.5 l 1
 3 4 l 1
 2.5 4 l 1
 2 4 l 1
 2 3.5 l 1
 2 3 l 1
 2.5 3 l 1
 3 3 l 1
 3 3.5 l 1
 3 4 l 1
 3.5 4 l 1
 4 4 l 1
 4 4.5 l 1
 4 5 l 1
 3.5 5 l 1
 3 5 l 1
 3 5.5 l 1
 3 6 l 1
 3.5 6 l 1
 4 6 l 1
 4 6.5 l 1
 4 7 l 1
 4.5 7 l 1
 5 7 l 1
 5 3.5 l 1
 5 -0 l 1
 4.5 -0 l 1
 4 -0 l 1
 4 0.5 l 1
 4 1 l 1
 3.5 1 l 1
 3 1 l 1
 3 1.5 l 1
 3 2 l 1
 3.5 2 l 1
 4 2 l 1
 4 2.5 l 1
 4 3 l 1
 3.5 3 l 1
 3 3 l 1
 3 2.5 l 1
 3 2 l 1
 2.5 2 l 1
 2 2 l 1
 2 2.5 l 1
 2 3 l 1
 1.5 3 l 1
 1 3 l 1
 1 2.5 l 1
 1 2 l 1
 1.5 2 l 1
 2 2 l 1
 2 1.5 l 1
 2 1 l 1
 1.5 1 l 1
 1 1 l 1
 1 0.5 l 1
 1 -0 l 1
 0.5 -0 l 1
 0 -0 l 1
 0 3.5 l 1
EndSplineSet
EndChar

StartChar: glyph2625
Encoding: 5862 5862 2625
Width: 6
VWidth: 0
Flags: HMW
LayerCount: 2
Back
Fore
SplineSet
2 5 m 1
 2 7 l 1
 2.5 7 l 1
 3 7 l 1
 3 5 l 1
 3 3 l 1
 3.5 3 l 1
 4 3 l 1
 4 2.5 l 1
 4 2 l 1
 3.5 2 l 1
 3 2 l 1
 3 1 l 1
 3 -0 l 1
 2.5 -0 l 1
 2 -0 l 1
 2 1 l 1
 2 2 l 1
 1.5 2 l 1
 1 2 l 1
 1 2.5 l 1
 1 3 l 1
 1.5 3 l 1
 2 3 l 1
 2 5 l 1
1 2 m 1
 1 1 l 1
 1 -0 l 1
 0.5 -0 l 1
 0 -0 l 1
 0 1 l 1
 0 2 l 1
 0.5 2 l 1
 1 2 l 1
4 2 m 1
 4.5 2 l 1
 5 2 l 1
 5 1 l 1
 5 -0 l 1
 4.5 -0 l 1
 4 -0 l 1
 4 1 l 1
 4 2 l 1
EndSplineSet
EndChar

StartChar: glyph2626
Encoding: 5863 5863 2626
Width: 2
VWidth: 0
Flags: HMW
LayerCount: 2
Back
Fore
SplineSet
0 1.5 m 1
 0 3 l 1
 0.5 3 l 1
 1 3 l 1
 1 1.5 l 1
 1 -0 l 1
 0.5 -0 l 1
 0 -0 l 1
 0 1.5 l 1
EndSplineSet
EndChar

StartChar: glyph2627
Encoding: 5864 5864 2627
Width: 6
VWidth: 0
Flags: HMW
LayerCount: 2
Back
Fore
SplineSet
2 6.5 m 1
 2 7 l 1
 2.5 7 l 1
 3 7 l 1
 3 6.5 l 1
 3 6 l 1
 3.5 6 l 1
 4 6 l 1
 4 5.5 l 1
 4 5 l 1
 3.5 5 l 1
 3 5 l 1
 3 3.5 l 1
 3 2 l 1
 3.5 2 l 1
 4 2 l 1
 4 1.5 l 1
 4 1 l 1
 3.5 1 l 1
 3 1 l 1
 3 0.5 l 1
 3 -0 l 1
 2.5 -0 l 1
 2 -0 l 1
 2 0.5 l 1
 2 1 l 1
 1.5 1 l 1
 1 1 l 1
 1 1.5 l 1
 1 2 l 1
 1.5 2 l 1
 2 2 l 1
 2 3.5 l 1
 2 5 l 1
 1.5 5 l 1
 1 5 l 1
 1 5.5 l 1
 1 6 l 1
 1.5 6 l 1
 2 6 l 1
 2 6.5 l 1
1 5 m 1
 1 4.5 l 1
 1 4 l 1
 0.5 4 l 1
 0 4 l 1
 0 4.5 l 1
 0 5 l 1
 0.5 5 l 1
 1 5 l 1
1 2 m 1
 0.5 2 l 1
 0 2 l 1
 0 2.5 l 1
 0 3 l 1
 0.5 3 l 1
 1 3 l 1
 1 2.5 l 1
 1 2 l 1
4 2 m 1
 4 2.5 l 1
 4 3 l 1
 4.5 3 l 1
 5 3 l 1
 5 2.5 l 1
 5 2 l 1
 4.5 2 l 1
 4 2 l 1
4 5 m 1
 4.5 5 l 1
 5 5 l 1
 5 4.5 l 1
 5 4 l 1
 4.5 4 l 1
 4 4 l 1
 4 4.5 l 1
 4 5 l 1
EndSplineSet
EndChar

StartChar: glyph2628
Encoding: 5865 5865 2628
Width: 5
VWidth: 0
Flags: HMW
LayerCount: 2
Back
Fore
SplineSet
3 4.5 m 1
 3 6 l 1
 2.5 6 l 1
 2 6 l 1
 2 5.5 l 1
 2 5 l 1
 1.5 5 l 1
 1 5 l 1
 1 4.5 l 1
 1 4 l 1
 1.5 4 l 1
 2 4 l 1
 2 3.5 l 1
 2 3 l 1
 2.5 3 l 1
 3 3 l 1
 3 4.5 l 1
2 6.5 m 1
 2 7 l 1
 3 7 l 1
 4 7 l 1
 4 3.5 l 1
 4 -0 l 1
 3.5 -0 l 1
 3 -0 l 1
 3 1 l 1
 3 2 l 1
 2.5 2 l 1
 2 2 l 1
 2 2.5 l 1
 2 3 l 1
 1.5 3 l 1
 1 3 l 1
 1 3.5 l 1
 1 4 l 1
 0.5 4 l 1
 0 4 l 1
 0 4.5 l 1
 0 5 l 1
 0.5 5 l 1
 1 5 l 1
 1 5.5 l 1
 1 6 l 1
 1.5 6 l 1
 2 6 l 1
 2 6.5 l 1
EndSplineSet
EndChar

StartChar: glyph2629
Encoding: 5866 5866 2629
Width: 8
VWidth: 0
Flags: HMW
LayerCount: 2
Back
Fore
SplineSet
1 6 m 1
 1 7 l 1
 1.5 7 l 1
 2 7 l 1
 2 6.5 l 1
 2 6 l 1
 2.5 6 l 1
 3 6 l 1
 3 5.5 l 1
 3 5 l 1
 2.5 5 l 1
 2 5 l 1
 2 4 l 1
 2 3 l 1
 2.5 3 l 1
 3 3 l 1
 3 2.5 l 1
 3 2 l 1
 2 2 l 1
 1 2 l 1
 1 3 l 1
 1 4 l 1
 0.5 4 l 1
 0 4 l 1
 0 4.5 l 1
 0 5 l 1
 0.5 5 l 1
 1 5 l 1
 1 6 l 1
4 4 m 1
 4 3.5 l 1
 4 3 l 1
 3.5 3 l 1
 3 3 l 1
 3 3.5 l 1
 3 4 l 1
 3.5 4 l 1
 4 4 l 1
4 4 m 1
 4 4.5 l 1
 4 5 l 1
 5 5 l 1
 6 5 l 1
 6 4 l 1
 6 3 l 1
 6.5 3 l 1
 7 3 l 1
 7 2.5 l 1
 7 2 l 1
 6.5 2 l 1
 6 2 l 1
 6 1 l 1
 6 -0 l 1
 5.5 -0 l 1
 5 -0 l 1
 5 0.5 l 1
 5 1 l 1
 4.5 1 l 1
 4 1 l 1
 4 1.5 l 1
 4 2 l 1
 4.5 2 l 1
 5 2 l 1
 5 3 l 1
 5 4 l 1
 4.5 4 l 1
 4 4 l 1
EndSplineSet
EndChar

StartChar: glyph2630
Encoding: 5867 5867 2630
Width: 3
VWidth: 0
Flags: HMW
LayerCount: 2
Back
Fore
SplineSet
0 3 m 1
 0 4 l 1
 1 4 l 1
 2 4 l 1
 2 3 l 1
 2 2 l 1
 1 2 l 1
 0 2 l 1
 0 3 l 1
EndSplineSet
EndChar

StartChar: glyph2631
Encoding: 5868 5868 2631
Width: 2
VWidth: 0
Flags: HMW
LayerCount: 2
Back
Fore
SplineSet
0 4.5 m 1
 0 5 l 1
 0.5 5 l 1
 1 5 l 1
 1 4.5 l 1
 1 4 l 1
 0.5 4 l 1
 0 4 l 1
 0 4.5 l 1
0 1.5 m 1
 0 2 l 1
 0.5 2 l 1
 1 2 l 1
 1 1.5 l 1
 1 1 l 1
 0.5 1 l 1
 0 1 l 1
 0 1.5 l 1
EndSplineSet
EndChar

StartChar: glyph2632
Encoding: 5869 5869 2632
Width: 6
VWidth: 0
Flags: HMW
LayerCount: 2
Back
Fore
SplineSet
2 5 m 1
 2 6 l 1
 2.5 6 l 1
 3 6 l 1
 3 5 l 1
 3 4 l 1
 4 4 l 1
 5 4 l 1
 5 3.5 l 1
 5 3 l 1
 4 3 l 1
 3 3 l 1
 3 2 l 1
 3 1 l 1
 2.5 1 l 1
 2 1 l 1
 2 2 l 1
 2 3 l 1
 1 3 l 1
 0 3 l 1
 0 3.5 l 1
 0 4 l 1
 1 4 l 1
 2 4 l 1
 2 5 l 1
EndSplineSet
EndChar

StartChar: glyph2633
Encoding: 5870 5870 2633
Width: 6
VWidth: 0
Flags: HMW
LayerCount: 2
Back
Fore
SplineSet
2 5.5 m 1
 2 7 l 1
 3 7 l 1
 4 7 l 1
 4 6.5 l 1
 4 6 l 1
 3.5 6 l 1
 3 6 l 1
 3 3 l 1
 3 -0 l 1
 2.5 -0 l 1
 2 -0 l 1
 2 1.5 l 1
 2 3 l 1
 1.5 3 l 1
 1 3 l 1
 1 3.5 l 1
 1 4 l 1
 1.5 4 l 1
 2 4 l 1
 2 5.5 l 1
1 3 m 1
 1 2.5 l 1
 1 2 l 1
 0.5 2 l 1
 0 2 l 1
 0 2.5 l 1
 0 3 l 1
 0.5 3 l 1
 1 3 l 1
4 6 m 1
 4.5 6 l 1
 5 6 l 1
 5 5.5 l 1
 5 5 l 1
 4.5 5 l 1
 4 5 l 1
 4 5.5 l 1
 4 6 l 1
EndSplineSet
EndChar

StartChar: glyph2634
Encoding: 5871 5871 2634
Width: 6
VWidth: 0
Flags: HMW
LayerCount: 2
Back
Fore
SplineSet
0 6 m 1
 0 7 l 1
 0.5 7 l 1
 1 7 l 1
 1 6 l 1
 1 5 l 1
 0.5 5 l 1
 0 5 l 1
 0 6 l 1
1 2 m 1
 1 2.5 l 1
 1 3 l 1
 1.5 3 l 1
 2 3 l 1
 2 3.5 l 1
 2 4 l 1
 1.5 4 l 1
 1 4 l 1
 1 4.5 l 1
 1 5 l 1
 1.5 5 l 1
 2 5 l 1
 2 6 l 1
 2 7 l 1
 2.5 7 l 1
 3 7 l 1
 3 6 l 1
 3 5 l 1
 3.5 5 l 1
 4 5 l 1
 4 4.5 l 1
 4 4 l 1
 3.5 4 l 1
 3 4 l 1
 3 3.5 l 1
 3 3 l 1
 3.5 3 l 1
 4 3 l 1
 4 2.5 l 1
 4 2 l 1
 3.5 2 l 1
 3 2 l 1
 3 1 l 1
 3 -0 l 1
 2.5 -0 l 1
 2 -0 l 1
 2 1 l 1
 2 2 l 1
 1.5 2 l 1
 1 2 l 1
1 2 m 1
 1 1 l 1
 1 -0 l 1
 0.5 -0 l 1
 0 -0 l 1
 0 1 l 1
 0 2 l 1
 0.5 2 l 1
 1 2 l 1
4 2 m 1
 4.5 2 l 1
 5 2 l 1
 5 1 l 1
 5 -0 l 1
 4.5 -0 l 1
 4 -0 l 1
 4 1 l 1
 4 2 l 1
4 5 m 1
 4 6 l 1
 4 7 l 1
 4.5 7 l 1
 5 7 l 1
 5 6 l 1
 5 5 l 1
 4.5 5 l 1
 4 5 l 1
EndSplineSet
EndChar

StartChar: glyph2635
Encoding: 5872 5872 2635
Width: 6
VWidth: 0
Flags: HMW
LayerCount: 2
Back
Fore
SplineSet
2 3.5 m 1
 2 5 l 1
 1.5 5 l 1
 1 5 l 1
 1 3.5 l 1
 1 2 l 1
 1.5 2 l 1
 2 2 l 1
 2 3.5 l 1
2 6.5 m 1
 2 7 l 1
 2.5 7 l 1
 3 7 l 1
 3 6.5 l 1
 3 6 l 1
 3.5 6 l 1
 4 6 l 1
 4 5.5 l 1
 4 5 l 1
 3.5 5 l 1
 3 5 l 1
 3 3.5 l 1
 3 2 l 1
 3.5 2 l 1
 4 2 l 1
 4 3.5 l 1
 4 5 l 1
 4.5 5 l 1
 5 5 l 1
 5 3.5 l 1
 5 2 l 1
 4.5 2 l 1
 4 2 l 1
 4 1.5 l 1
 4 1 l 1
 3.5 1 l 1
 3 1 l 1
 3 0.5 l 1
 3 -0 l 1
 2.5 -0 l 1
 2 -0 l 1
 2 0.5 l 1
 2 1 l 1
 1.5 1 l 1
 1 1 l 1
 1 1.5 l 1
 1 2 l 1
 0.5 2 l 1
 0 2 l 1
 0 3.5 l 1
 0 5 l 1
 0.5 5 l 1
 1 5 l 1
 1 5.5 l 1
 1 6 l 1
 1.5 6 l 1
 2 6 l 1
 2 6.5 l 1
EndSplineSet
EndChar

StartChar: glyph2636
Encoding: 5873 5873 2636
Width: 6
VWidth: 0
Flags: HMW
LayerCount: 2
Back
Fore
SplineSet
0 3.5 m 1
 0 7 l 1
 0.5 7 l 1
 1 7 l 1
 1 5.5 l 1
 1 4 l 1
 1.5 4 l 1
 2 4 l 1
 2 3.5 l 1
 2 3 l 1
 1.5 3 l 1
 1 3 l 1
 1 1.5 l 1
 1 -0 l 1
 0.5 -0 l 1
 0 -0 l 1
 0 3.5 l 1
4 2 m 1
 3.5 2 l 1
 3 2 l 1
 3 3 l 1
 3 4 l 1
 2.5 4 l 1
 2 4 l 1
 2 4.5 l 1
 2 5 l 1
 2.5 5 l 1
 3 5 l 1
 3 4.5 l 1
 3 4 l 1
 3.5 4 l 1
 4 4 l 1
 4 3 l 1
 4 2 l 1
4 2 m 1
 4.5 2 l 1
 5 2 l 1
 5 1 l 1
 5 -0 l 1
 4.5 -0 l 1
 4 -0 l 1
 4 1 l 1
 4 2 l 1
EndSplineSet
EndChar

StartChar: glyph2637
Encoding: 5874 5874 2637
Width: 6
VWidth: 0
Flags: HMW
LayerCount: 2
Back
Fore
SplineSet
4 5 m 1
 4 7 l 1
 4.5 7 l 1
 5 7 l 1
 5 4.5 l 1
 5 2 l 1
 4 2 l 1
 3 2 l 1
 3 2.5 l 1
 3 3 l 1
 3.5 3 l 1
 4 3 l 1
 4 5 l 1
2 4 m 1
 2.5 4 l 1
 3 4 l 1
 3 3.5 l 1
 3 3 l 1
 2.5 3 l 1
 2 3 l 1
 2 3.5 l 1
 2 4 l 1
2 4 m 1
 1.5 4 l 1
 1 4 l 1
 1 2 l 1
 1 -0 l 1
 0.5 -0 l 1
 0 -0 l 1
 0 2.5 l 1
 0 5 l 1
 1 5 l 1
 2 5 l 1
 2 4.5 l 1
 2 4 l 1
EndSplineSet
EndChar

StartChar: glyph2638
Encoding: 5875 5875 2638
Width: 8
VWidth: 0
Flags: HMW
LayerCount: 2
Back
Fore
SplineSet
3 4.5 m 1
 3 6 l 1
 2.5 6 l 1
 2 6 l 1
 2 5.5 l 1
 2 5 l 1
 1.5 5 l 1
 1 5 l 1
 1 4.5 l 1
 1 4 l 1
 1.5 4 l 1
 2 4 l 1
 2 3.5 l 1
 2 3 l 1
 2.5 3 l 1
 3 3 l 1
 3 4.5 l 1
2 6.5 m 1
 2 7 l 1
 3.5 7 l 1
 5 7 l 1
 5 6.5 l 1
 5 6 l 1
 4.5 6 l 1
 4 6 l 1
 4 4.5 l 1
 4 3 l 1
 4.5 3 l 1
 5 3 l 1
 5 3.5 l 1
 5 4 l 1
 5.5 4 l 1
 6 4 l 1
 6 4.5 l 1
 6 5 l 1
 5.5 5 l 1
 5 5 l 1
 5 5.5 l 1
 5 6 l 1
 5.5 6 l 1
 6 6 l 1
 6 5.5 l 1
 6 5 l 1
 6.5 5 l 1
 7 5 l 1
 7 4.5 l 1
 7 4 l 1
 6.5 4 l 1
 6 4 l 1
 6 3.5 l 1
 6 3 l 1
 5.5 3 l 1
 5 3 l 1
 5 2.5 l 1
 5 2 l 1
 4.5 2 l 1
 4 2 l 1
 4 1 l 1
 4 -0 l 1
 3.5 -0 l 1
 3 -0 l 1
 3 1 l 1
 3 2 l 1
 2.5 2 l 1
 2 2 l 1
 2 2.5 l 1
 2 3 l 1
 1.5 3 l 1
 1 3 l 1
 1 3.5 l 1
 1 4 l 1
 0.5 4 l 1
 0 4 l 1
 0 4.5 l 1
 0 5 l 1
 0.5 5 l 1
 1 5 l 1
 1 5.5 l 1
 1 6 l 1
 1.5 6 l 1
 2 6 l 1
 2 6.5 l 1
EndSplineSet
EndChar

StartChar: glyph2639
Encoding: 5876 5876 2639
Width: 5
VWidth: 0
Flags: HMW
LayerCount: 2
Back
Fore
SplineSet
0 4.5 m 1
 0 7 l 1
 0.5 7 l 1
 1 7 l 1
 1 5.5 l 1
 1 4 l 1
 2 4 l 1
 3 4 l 1
 3 4.5 l 1
 3 5 l 1
 3.5 5 l 1
 4 5 l 1
 4 2.5 l 1
 4 -0 l 1
 3.5 -0 l 1
 3 -0 l 1
 3 1.5 l 1
 3 3 l 1
 2 3 l 1
 1 3 l 1
 1 2.5 l 1
 1 2 l 1
 0.5 2 l 1
 0 2 l 1
 0 4.5 l 1
EndSplineSet
EndChar

StartChar: glyph2640
Encoding: 5877 5877 2640
Width: 3
VWidth: 0
Flags: HMW
LayerCount: 2
Back
Fore
SplineSet
1 6.5 m 1
 1 7 l 1
 1.5 7 l 1
 2 7 l 1
 2 6.5 l 1
 2 6 l 1
 1.5 6 l 1
 1 6 l 1
 1 6.5 l 1
1 1 m 1
 0.5 1 l 1
 0 1 l 1
 0 1.5 l 1
 0 2 l 1
 0.5 2 l 1
 1 2 l 1
 1 2.5 l 1
 1 3 l 1
 0.5 3 l 1
 0 3 l 1
 0 3.5 l 1
 0 4 l 1
 0.5 4 l 1
 1 4 l 1
 1 4.5 l 1
 1 5 l 1
 0.5 5 l 1
 0 5 l 1
 0 5.5 l 1
 0 6 l 1
 0.5 6 l 1
 1 6 l 1
 1 5.5 l 1
 1 5 l 1
 1.5 5 l 1
 2 5 l 1
 2 4.5 l 1
 2 4 l 1
 1.5 4 l 1
 1 4 l 1
 1 3.5 l 1
 1 3 l 1
 1.5 3 l 1
 2 3 l 1
 2 2.5 l 1
 2 2 l 1
 1.5 2 l 1
 1 2 l 1
 1 1.5 l 1
 1 1 l 1
1 1 m 1
 1.5 1 l 1
 2 1 l 1
 2 0.5 l 1
 2 -0 l 1
 1.5 -0 l 1
 1 -0 l 1
 1 0.5 l 1
 1 1 l 1
EndSplineSet
EndChar

StartChar: glyph2641
Encoding: 5878 5878 2641
Width: 6
VWidth: 0
Flags: HMW
LayerCount: 2
Back
Fore
SplineSet
1 6 m 1
 1 7 l 1
 1.5 7 l 1
 2 7 l 1
 2 6 l 1
 2 5 l 1
 1.5 5 l 1
 1 5 l 1
 1 6 l 1
1 3 m 1
 1 3.5 l 1
 1 4 l 1
 1.5 4 l 1
 2 4 l 1
 2 4.5 l 1
 2 5 l 1
 2.5 5 l 1
 3 5 l 1
 3 4.5 l 1
 3 4 l 1
 3.5 4 l 1
 4 4 l 1
 4 3.5 l 1
 4 3 l 1
 3.5 3 l 1
 3 3 l 1
 3 2.5 l 1
 3 2 l 1
 2.5 2 l 1
 2 2 l 1
 2 2.5 l 1
 2 3 l 1
 1.5 3 l 1
 1 3 l 1
1 3 m 1
 1 2.5 l 1
 1 2 l 1
 0.5 2 l 1
 0 2 l 1
 0 2.5 l 1
 0 3 l 1
 0.5 3 l 1
 1 3 l 1
3 2 m 1
 3.5 2 l 1
 4 2 l 1
 4 1 l 1
 4 -0 l 1
 3.5 -0 l 1
 3 -0 l 1
 3 1 l 1
 3 2 l 1
4 4 m 1
 4 4.5 l 1
 4 5 l 1
 4.5 5 l 1
 5 5 l 1
 5 4.5 l 1
 5 4 l 1
 4.5 4 l 1
 4 4 l 1
EndSplineSet
EndChar

StartChar: glyph2642
Encoding: 5879 5879 2642
Width: 6
VWidth: 0
Flags: HMW
LayerCount: 2
Back
Fore
SplineSet
0 3.5 m 1
 0 7 l 1
 0.5 7 l 1
 1 7 l 1
 1 6 l 1
 1 5 l 1
 2 5 l 1
 3 5 l 1
 3 4.5 l 1
 3 4 l 1
 2 4 l 1
 1 4 l 1
 1 2 l 1
 1 -0 l 1
 0.5 -0 l 1
 0 -0 l 1
 0 3.5 l 1
4 2 m 1
 3.5 2 l 1
 3 2 l 1
 3 3 l 1
 3 4 l 1
 3.5 4 l 1
 4 4 l 1
 4 3 l 1
 4 2 l 1
4 2 m 1
 4.5 2 l 1
 5 2 l 1
 5 1 l 1
 5 -0 l 1
 4.5 -0 l 1
 4 -0 l 1
 4 1 l 1
 4 2 l 1
EndSplineSet
EndChar

StartChar: glyph2643
Encoding: 5880 5880 2643
Width: 6
VWidth: 0
Flags: HMW
LayerCount: 2
Back
Fore
SplineSet
2 5 m 1
 2 7 l 1
 2.5 7 l 1
 3 7 l 1
 3 5 l 1
 3 3 l 1
 3.5 3 l 1
 4 3 l 1
 4 2 l 1
 4 1 l 1
 3.5 1 l 1
 3 1 l 1
 3 1.5 l 1
 3 2 l 1
 2.5 2 l 1
 2 2 l 1
 2 1.5 l 1
 2 1 l 1
 1.5 1 l 1
 1 1 l 1
 1 2 l 1
 1 3 l 1
 1.5 3 l 1
 2 3 l 1
 2 5 l 1
1 1 m 1
 1 0.5 l 1
 1 -0 l 1
 0.5 -0 l 1
 0 -0 l 1
 0 0.5 l 1
 0 1 l 1
 0.5 1 l 1
 1 1 l 1
4 1 m 1
 4.5 1 l 1
 5 1 l 1
 5 0.5 l 1
 5 -0 l 1
 4.5 -0 l 1
 4 -0 l 1
 4 0.5 l 1
 4 1 l 1
EndSplineSet
EndChar

StartChar: glyph2644
Encoding: 383 383 2644
Width: 4
VWidth: 0
Flags: HMW
LayerCount: 2
Back
Fore
SplineSet
1 6.5 m 1
 1 7 l 1
 2 7 l 1
 3 7 l 1
 3 6.5 l 1
 3 6 l 1
 2 6 l 1
 1 6 l 1
 1 6.5 l 1
1 6 m 1
 1 3 l 1
 1 -0 l 1
 0.5 -0 l 1
 0 -0 l 1
 0 3 l 1
 0 6 l 1
 0.5 6 l 1
 1 6 l 1
EndSplineSet
EndChar

StartChar: glyph2645
Encoding: 385 385 2645
Width: 8
VWidth: 0
Flags: HMW
LayerCount: 2
Back
Fore
SplineSet
1 6.5 m 1
 1 7 l 1
 3.5 7 l 1
 6 7 l 1
 6 6.5 l 1
 6 6 l 1
 4.5 6 l 1
 3 6 l 1
 3 5.5 l 1
 3 5 l 1
 4.5 5 l 1
 6 5 l 1
 6 5.5 l 1
 6 6 l 1
 6.5 6 l 1
 7 6 l 1
 7 5.5 l 1
 7 5 l 1
 6.5 5 l 1
 6 5 l 1
 6 4.5 l 1
 6 4 l 1
 4.5 4 l 1
 3 4 l 1
 3 2.5 l 1
 3 1 l 1
 4.5 1 l 1
 6 1 l 1
 6 2.5 l 1
 6 4 l 1
 6.5 4 l 1
 7 4 l 1
 7 2.5 l 1
 7 1 l 1
 6.5 1 l 1
 6 1 l 1
 6 0.5 l 1
 6 -0 l 1
 4 -0 l 1
 2 -0 l 1
 2 3 l 1
 2 6 l 1
 1.5 6 l 1
 1 6 l 1
 1 6.5 l 1
1 6 m 1
 1 5.5 l 1
 1 5 l 1
 0.5 5 l 1
 0 5 l 1
 0 5.5 l 1
 0 6 l 1
 0.5 6 l 1
 1 6 l 1
EndSplineSet
EndChar

StartChar: glyph2646
Encoding: 388 388 2646
Width: 7
VWidth: 0
Flags: HMW
LayerCount: 2
Back
Fore
SplineSet
1 6.5 m 1
 1 7 l 1
 1.5 7 l 1
 2 7 l 1
 2 5.5 l 1
 2 4 l 1
 3.5 4 l 1
 5 4 l 1
 5 3.5 l 1
 5 3 l 1
 3.5 3 l 1
 2 3 l 1
 2 2 l 1
 2 1 l 1
 3.5 1 l 1
 5 1 l 1
 5 2 l 1
 5 3 l 1
 5.5 3 l 1
 6 3 l 1
 6 2 l 1
 6 1 l 1
 5.5 1 l 1
 5 1 l 1
 5 0.5 l 1
 5 -0 l 1
 3 -0 l 1
 1 -0 l 1
 1 2.5 l 1
 1 5 l 1
 0.5 5 l 1
 0 5 l 1
 0 5.5 l 1
 0 6 l 1
 0.5 6 l 1
 1 6 l 1
 1 6.5 l 1
EndSplineSet
EndChar

StartChar: glyph2647
Encoding: 389 389 2647
Width: 7
VWidth: 0
Flags: HMW
LayerCount: 2
Back
Fore
SplineSet
1 6.5 m 1
 1 7 l 1
 1.5 7 l 1
 2 7 l 1
 2 5.5 l 1
 2 4 l 1
 2.5 4 l 1
 3 4 l 1
 3 3.5 l 1
 3 3 l 1
 2.5 3 l 1
 2 3 l 1
 2 2 l 1
 2 1 l 1
 3.5 1 l 1
 5 1 l 1
 5 2.5 l 1
 5 4 l 1
 4 4 l 1
 3 4 l 1
 3 4.5 l 1
 3 5 l 1
 4 5 l 1
 5 5 l 1
 5 4.5 l 1
 5 4 l 1
 5.5 4 l 1
 6 4 l 1
 6 2.5 l 1
 6 1 l 1
 5.5 1 l 1
 5 1 l 1
 5 0.5 l 1
 5 -0 l 1
 3 -0 l 1
 1 -0 l 1
 1 2.5 l 1
 1 5 l 1
 0.5 5 l 1
 0 5 l 1
 0 5.5 l 1
 0 6 l 1
 0.5 6 l 1
 1 6 l 1
 1 6.5 l 1
EndSplineSet
EndChar

StartChar: glyph2648
Encoding: 390 390 2648
Width: 6
VWidth: 0
Flags: HMW
LayerCount: 2
Back
Fore
SplineSet
1 6.5 m 1
 1 7 l 1
 2.5 7 l 1
 4 7 l 1
 4 6.5 l 1
 4 6 l 1
 2.5 6 l 1
 1 6 l 1
 1 6.5 l 1
1 6 m 1
 1 5.5 l 1
 1 5 l 1
 0.5 5 l 1
 0 5 l 1
 0 5.5 l 1
 0 6 l 1
 0.5 6 l 1
 1 6 l 1
1 1 m 1
 2.5 1 l 1
 4 1 l 1
 4 3.5 l 1
 4 6 l 1
 4.5 6 l 1
 5 6 l 1
 5 3.5 l 1
 5 1 l 1
 4.5 1 l 1
 4 1 l 1
 4 0.5 l 1
 4 -0 l 1
 2.5 -0 l 1
 1 -0 l 1
 1 0.5 l 1
 1 1 l 1
1 1 m 1
 0.5 1 l 1
 0 1 l 1
 0 1.5 l 1
 0 2 l 1
 0.5 2 l 1
 1 2 l 1
 1 1.5 l 1
 1 1 l 1
EndSplineSet
EndChar

StartChar: glyph2649
Encoding: 393 393 2649
Width: 7
VWidth: 0
Flags: HMW
LayerCount: 2
Back
Fore
SplineSet
1 6 m 1
 1 7 l 1
 3 7 l 1
 5 7 l 1
 5 6.5 l 1
 5 6 l 1
 3.5 6 l 1
 2 6 l 1
 2 5.5 l 1
 2 5 l 1
 2.5 5 l 1
 3 5 l 1
 3 4.5 l 1
 3 4 l 1
 2.5 4 l 1
 2 4 l 1
 2 2.5 l 1
 2 1 l 1
 3.5 1 l 1
 5 1 l 1
 5 3.5 l 1
 5 6 l 1
 5.5 6 l 1
 6 6 l 1
 6 3.5 l 1
 6 1 l 1
 5.5 1 l 1
 5 1 l 1
 5 0.5 l 1
 5 -0 l 1
 3 -0 l 1
 1 -0 l 1
 1 2 l 1
 1 4 l 1
 0.5 4 l 1
 0 4 l 1
 0 4.5 l 1
 0 5 l 1
 0.5 5 l 1
 1 5 l 1
 1 6 l 1
EndSplineSet
EndChar

StartChar: glyph2650
Encoding: 398 398 2650
Width: 6
VWidth: 0
Flags: HMW
LayerCount: 2
Back
Fore
SplineSet
0 6.5 m 1
 0 7 l 1
 2.5 7 l 1
 5 7 l 1
 5 3.5 l 1
 5 -0 l 1
 2.5 -0 l 1
 0 -0 l 1
 0 0.5 l 1
 0 1 l 1
 2 1 l 1
 4 1 l 1
 4 1.5 l 1
 4 2 l 1
 3 2 l 1
 2 2 l 1
 2 2.5 l 1
 2 3 l 1
 3 3 l 1
 4 3 l 1
 4 4.5 l 1
 4 6 l 1
 2 6 l 1
 0 6 l 1
 0 6.5 l 1
EndSplineSet
EndChar

StartChar: glyph2651
Encoding: 399 399 2651
Width: 6
VWidth: 0
Flags: HMW
LayerCount: 2
Back
Fore
SplineSet
4 2 m 1
 4 3 l 1
 2.5 3 l 1
 1 3 l 1
 1 2 l 1
 1 1 l 1
 2.5 1 l 1
 4 1 l 1
 4 2 l 1
1 6.5 m 1
 1 7 l 1
 2.5 7 l 1
 4 7 l 1
 4 6.5 l 1
 4 6 l 1
 2.5 6 l 1
 1 6 l 1
 1 6.5 l 1
1 6 m 1
 1 5.5 l 1
 1 5 l 1
 0.5 5 l 1
 0 5 l 1
 0 5.5 l 1
 0 6 l 1
 0.5 6 l 1
 1 6 l 1
1 1 m 1
 0.5 1 l 1
 0 1 l 1
 0 2.5 l 1
 0 4 l 1
 2 4 l 1
 4 4 l 1
 4 5 l 1
 4 6 l 1
 4.5 6 l 1
 5 6 l 1
 5 3.5 l 1
 5 1 l 1
 4.5 1 l 1
 4 1 l 1
 4 0.5 l 1
 4 -0 l 1
 2.5 -0 l 1
 1 -0 l 1
 1 0.5 l 1
 1 1 l 1
EndSplineSet
EndChar

StartChar: glyph2652
Encoding: 400 400 2652
Width: 6
VWidth: 0
Flags: HMW
LayerCount: 2
Back
Fore
SplineSet
1 6.5 m 1
 1 7 l 1
 2.5 7 l 1
 4 7 l 1
 4 6.5 l 1
 4 6 l 1
 2.5 6 l 1
 1 6 l 1
 1 6.5 l 1
4 1 m 1
 4 0.5 l 1
 4 -0 l 1
 2.5 -0 l 1
 1 -0 l 1
 1 0.5 l 1
 1 1 l 1
 0.5 1 l 1
 0 1 l 1
 0 2 l 1
 0 3 l 1
 0.5 3 l 1
 1 3 l 1
 1 3.5 l 1
 1 4 l 1
 0.5 4 l 1
 0 4 l 1
 0 5 l 1
 0 6 l 1
 0.5 6 l 1
 1 6 l 1
 1 5 l 1
 1 4 l 1
 2 4 l 1
 3 4 l 1
 3 3.5 l 1
 3 3 l 1
 2 3 l 1
 1 3 l 1
 1 2 l 1
 1 1 l 1
 2.5 1 l 1
 4 1 l 1
4 1 m 1
 4 1.5 l 1
 4 2 l 1
 4.5 2 l 1
 5 2 l 1
 5 1.5 l 1
 5 1 l 1
 4.5 1 l 1
 4 1 l 1
4 6 m 1
 4.5 6 l 1
 5 6 l 1
 5 5.5 l 1
 5 5 l 1
 4.5 5 l 1
 4 5 l 1
 4 5.5 l 1
 4 6 l 1
EndSplineSet
EndChar

StartChar: glyph2653
Encoding: 401 401 2653
Width: 7
VWidth: 0
Flags: HMW
LayerCount: 2
Back
Fore
SplineSet
1 3.5 m 1
 1 7 l 1
 3.5 7 l 1
 6 7 l 1
 6 6.5 l 1
 6 6 l 1
 4 6 l 1
 2 6 l 1
 2 5.5 l 1
 2 5 l 1
 3 5 l 1
 4 5 l 1
 4 4.5 l 1
 4 4 l 1
 3 4 l 1
 2 4 l 1
 2 2 l 1
 2 -0 l 1
 1.5 -0 l 1
 1 -0 l 1
 1 3.5 l 1
1 -0 m 1
 1 -0.5 l 1
 1 -1 l 1
 0.5 -1 l 1
 0 -1 l 1
 0 -0.5 l 1
 0 -0 l 1
 0.5 -0 l 1
 1 -0 l 1
EndSplineSet
EndChar

StartChar: glyph2654
Encoding: 402 402 2654
Width: 6
VWidth: 0
Flags: HMW
LayerCount: 2
Back
Fore
SplineSet
3 6.5 m 1
 3 7 l 1
 3.5 7 l 1
 4 7 l 1
 4 6.5 l 1
 4 6 l 1
 3.5 6 l 1
 3 6 l 1
 3 6.5 l 1
1 -0 m 1
 1.5 -0 l 1
 2 -0 l 1
 2 1.5 l 1
 2 3 l 1
 1.5 3 l 1
 1 3 l 1
 1 3.5 l 1
 1 4 l 1
 1.5 4 l 1
 2 4 l 1
 2 5 l 1
 2 6 l 1
 2.5 6 l 1
 3 6 l 1
 3 5 l 1
 3 4 l 1
 3.5 4 l 1
 4 4 l 1
 4 3.5 l 1
 4 3 l 1
 3.5 3 l 1
 3 3 l 1
 3 1.5 l 1
 3 -0 l 1
 2.5 -0 l 1
 2 -0 l 1
 2 -0.5 l 1
 2 -1 l 1
 1.5 -1 l 1
 1 -1 l 1
 1 -0.5 l 1
 1 -0 l 1
1 -0 m 1
 0.5 -0 l 1
 0 -0 l 1
 0 0.5 l 1
 0 1 l 1
 0.5 1 l 1
 1 1 l 1
 1 0.5 l 1
 1 -0 l 1
4 6 m 1
 4.5 6 l 1
 5 6 l 1
 5 5.5 l 1
 5 5 l 1
 4.5 5 l 1
 4 5 l 1
 4 5.5 l 1
 4 6 l 1
EndSplineSet
EndChar

StartChar: glyph2655
Encoding: 410 410 2655
Width: 4
VWidth: 0
Flags: HMW
LayerCount: 2
Back
Fore
SplineSet
1 5.5 m 1
 1 7 l 1
 1.5 7 l 1
 2 7 l 1
 2 5.5 l 1
 2 4 l 1
 2.5 4 l 1
 3 4 l 1
 3 3.5 l 1
 3 3 l 1
 2.5 3 l 1
 2 3 l 1
 2 2 l 1
 2 1 l 1
 1.5 1 l 1
 1 1 l 1
 1 2 l 1
 1 3 l 1
 0.5 3 l 1
 0 3 l 1
 0 3.5 l 1
 0 4 l 1
 0.5 4 l 1
 1 4 l 1
 1 5.5 l 1
2 1 m 1
 2.5 1 l 1
 3 1 l 1
 3 0.5 l 1
 3 -0 l 1
 2.5 -0 l 1
 2 -0 l 1
 2 0.5 l 1
 2 1 l 1
EndSplineSet
EndChar

StartChar: glyph2656
Encoding: 411 411 2656
Width: 6
VWidth: 0
Flags: HMW
LayerCount: 2
Back
Fore
SplineSet
0 6.5 m 1
 0 7 l 1
 1 7 l 1
 2 7 l 1
 2 6.5 l 1
 2 6 l 1
 1 6 l 1
 0 6 l 1
 0 6.5 l 1
1 2 m 1
 1 2.5 l 1
 1 3 l 1
 1.5 3 l 1
 2 3 l 1
 2 3.5 l 1
 2 4 l 1
 1.5 4 l 1
 1 4 l 1
 1 4.5 l 1
 1 5 l 1
 1.5 5 l 1
 2 5 l 1
 2 5.5 l 1
 2 6 l 1
 2.5 6 l 1
 3 6 l 1
 3 5.5 l 1
 3 5 l 1
 3.5 5 l 1
 4 5 l 1
 4 4.5 l 1
 4 4 l 1
 3.5 4 l 1
 3 4 l 1
 3 3.5 l 1
 3 3 l 1
 2.5 3 l 1
 2 3 l 1
 2 2.5 l 1
 2 2 l 1
 1.5 2 l 1
 1 2 l 1
1 2 m 1
 1 1 l 1
 1 -0 l 1
 0.5 -0 l 1
 0 -0 l 1
 0 1 l 1
 0 2 l 1
 0.5 2 l 1
 1 2 l 1
4 2 m 1
 3.5 2 l 1
 3 2 l 1
 3 2.5 l 1
 3 3 l 1
 3.5 3 l 1
 4 3 l 1
 4 2.5 l 1
 4 2 l 1
4 2 m 1
 4.5 2 l 1
 5 2 l 1
 5 1 l 1
 5 -0 l 1
 4.5 -0 l 1
 4 -0 l 1
 4 1 l 1
 4 2 l 1
EndSplineSet
EndChar

StartChar: glyph2657
Encoding: 414 414 2657
Width: 6
VWidth: 0
Flags: HMW
LayerCount: 2
Back
Fore
SplineSet
0 2.5 m 1
 0 5 l 1
 2 5 l 1
 4 5 l 1
 4 4.5 l 1
 4 4 l 1
 2.5 4 l 1
 1 4 l 1
 1 2 l 1
 1 -0 l 1
 0.5 -0 l 1
 0 -0 l 1
 0 2.5 l 1
4 4 m 1
 4.5 4 l 1
 5 4 l 1
 5 1.5 l 1
 5 -1 l 1
 4.5 -1 l 1
 4 -1 l 1
 4 1.5 l 1
 4 4 l 1
EndSplineSet
EndChar

StartChar: glyph2658
Encoding: 415 415 2658
Width: 6
VWidth: 0
Flags: HMW
LayerCount: 2
Back
Fore
SplineSet
4 2 m 1
 4 3 l 1
 2.5 3 l 1
 1 3 l 1
 1 2 l 1
 1 1 l 1
 2.5 1 l 1
 4 1 l 1
 4 2 l 1
1 6.5 m 1
 1 7 l 1
 2.5 7 l 1
 4 7 l 1
 4 6.5 l 1
 4 6 l 1
 2.5 6 l 1
 1 6 l 1
 1 5 l 1
 1 4 l 1
 2.5 4 l 1
 4 4 l 1
 4 5 l 1
 4 6 l 1
 4.5 6 l 1
 5 6 l 1
 5 3.5 l 1
 5 1 l 1
 4.5 1 l 1
 4 1 l 1
 4 0.5 l 1
 4 -0 l 1
 2.5 -0 l 1
 1 -0 l 1
 1 0.5 l 1
 1 1 l 1
 0.5 1 l 1
 0 1 l 1
 0 3.5 l 1
 0 6 l 1
 0.5 6 l 1
 1 6 l 1
 1 6.5 l 1
EndSplineSet
EndChar

StartChar: glyph2659
Encoding: 423 423 2659
Width: 6
VWidth: 0
Flags: HMW
LayerCount: 2
Back
Fore
SplineSet
0 6.5 m 1
 0 7 l 1
 2 7 l 1
 4 7 l 1
 4 6.5 l 1
 4 6 l 1
 2 6 l 1
 0 6 l 1
 0 6.5 l 1
4 1 m 1
 4 0.5 l 1
 4 -0 l 1
 2.5 -0 l 1
 1 -0 l 1
 1 0.5 l 1
 1 1 l 1
 0.5 1 l 1
 0 1 l 1
 0 2.5 l 1
 0 4 l 1
 0.5 4 l 1
 1 4 l 1
 1 4.5 l 1
 1 5 l 1
 2.5 5 l 1
 4 5 l 1
 4 5.5 l 1
 4 6 l 1
 4.5 6 l 1
 5 6 l 1
 5 5.5 l 1
 5 5 l 1
 4.5 5 l 1
 4 5 l 1
 4 4.5 l 1
 4 4 l 1
 2.5 4 l 1
 1 4 l 1
 1 2.5 l 1
 1 1 l 1
 2.5 1 l 1
 4 1 l 1
4 1 m 1
 4 1.5 l 1
 4 2 l 1
 4.5 2 l 1
 5 2 l 1
 5 1.5 l 1
 5 1 l 1
 4.5 1 l 1
 4 1 l 1
EndSplineSet
EndChar

StartChar: glyph2660
Encoding: 424 424 2660
Width: 6
VWidth: 0
Flags: HMW
LayerCount: 2
Back
Fore
SplineSet
0 4.5 m 1
 0 5 l 1
 2 5 l 1
 4 5 l 1
 4 4.5 l 1
 4 4 l 1
 2 4 l 1
 0 4 l 1
 0 4.5 l 1
1 1 m 1
 0.5 1 l 1
 0 1 l 1
 0 1.5 l 1
 0 2 l 1
 0.5 2 l 1
 1 2 l 1
 1 2.5 l 1
 1 3 l 1
 2.5 3 l 1
 4 3 l 1
 4 3.5 l 1
 4 4 l 1
 4.5 4 l 1
 5 4 l 1
 5 3.5 l 1
 5 3 l 1
 4.5 3 l 1
 4 3 l 1
 4 2.5 l 1
 4 2 l 1
 2.5 2 l 1
 1 2 l 1
 1 1.5 l 1
 1 1 l 1
1 1 m 1
 3 1 l 1
 5 1 l 1
 5 0.5 l 1
 5 -0 l 1
 3 -0 l 1
 1 -0 l 1
 1 0.5 l 1
 1 1 l 1
EndSplineSet
EndChar

StartChar: glyph2661
Encoding: 425 425 2661
Width: 6
VWidth: 0
Flags: HMW
LayerCount: 2
Back
Fore
SplineSet
0 6 m 1
 0 7 l 1
 2.5 7 l 1
 5 7 l 1
 5 6.5 l 1
 5 6 l 1
 3 6 l 1
 1 6 l 1
 1 5.5 l 1
 1 5 l 1
 0.5 5 l 1
 0 5 l 1
 0 6 l 1
1 2 m 1
 1 2.5 l 1
 1 3 l 1
 1.5 3 l 1
 2 3 l 1
 2 3.5 l 1
 2 4 l 1
 1.5 4 l 1
 1 4 l 1
 1 4.5 l 1
 1 5 l 1
 1.5 5 l 1
 2 5 l 1
 2 4.5 l 1
 2 4 l 1
 2.5 4 l 1
 3 4 l 1
 3 3.5 l 1
 3 3 l 1
 2.5 3 l 1
 2 3 l 1
 2 2.5 l 1
 2 2 l 1
 1.5 2 l 1
 1 2 l 1
1 2 m 1
 1 1.5 l 1
 1 1 l 1
 3 1 l 1
 5 1 l 1
 5 0.5 l 1
 5 -0 l 1
 2.5 -0 l 1
 0 -0 l 1
 0 1 l 1
 0 2 l 1
 0.5 2 l 1
 1 2 l 1
EndSplineSet
EndChar

StartChar: glyph2662
Encoding: 426 426 2662
Width: 6
VWidth: 0
Flags: HMW
LayerCount: 2
Back
Fore
SplineSet
1 6.5 m 1
 1 7 l 1
 1.5 7 l 1
 2 7 l 1
 2 6.5 l 1
 2 6 l 1
 1.5 6 l 1
 1 6 l 1
 1 5.5 l 1
 1 5 l 1
 1.5 5 l 1
 2 5 l 1
 2 5.5 l 1
 2 6 l 1
 2.5 6 l 1
 3 6 l 1
 3 3 l 1
 3 -0 l 1
 2.5 -0 l 1
 2 -0 l 1
 2 2 l 1
 2 4 l 1
 1.5 4 l 1
 1 4 l 1
 1 4.5 l 1
 1 5 l 1
 0.5 5 l 1
 0 5 l 1
 0 5.5 l 1
 0 6 l 1
 0.5 6 l 1
 1 6 l 1
 1 6.5 l 1
3 -0 m 1
 4 -0 l 1
 5 -0 l 1
 5 -0.5 l 1
 5 -1 l 1
 4 -1 l 1
 3 -1 l 1
 3 -0.5 l 1
 3 -0 l 1
EndSplineSet
EndChar

StartChar: glyph2663
Encoding: 434 434 2663
Width: 6
VWidth: 0
Flags: HMW
LayerCount: 2
Back
Fore
SplineSet
0 3.5 m 1
 0 7 l 1
 0.5 7 l 1
 1 7 l 1
 1 4 l 1
 1 1 l 1
 2 1 l 1
 3 1 l 1
 3 0.5 l 1
 3 -0 l 1
 1.5 -0 l 1
 0 -0 l 1
 0 3.5 l 1
4 6 m 1
 4.5 6 l 1
 5 6 l 1
 5 4 l 1
 5 2 l 1
 4.5 2 l 1
 4 2 l 1
 4 1.5 l 1
 4 1 l 1
 3.5 1 l 1
 3 1 l 1
 3 1.5 l 1
 3 2 l 1
 3.5 2 l 1
 4 2 l 1
 4 4 l 1
 4 6 l 1
4 6 m 1
 3.5 6 l 1
 3 6 l 1
 3 6.5 l 1
 3 7 l 1
 3.5 7 l 1
 4 7 l 1
 4 6.5 l 1
 4 6 l 1
EndSplineSet
EndChar

StartChar: glyph2664
Encoding: 439 439 2664
Width: 6
VWidth: 0
Flags: HMW
LayerCount: 2
Back
Fore
SplineSet
0 6.5 m 1
 0 7 l 1
 2.5 7 l 1
 5 7 l 1
 5 6 l 1
 5 5 l 1
 4.5 5 l 1
 4 5 l 1
 4 5.5 l 1
 4 6 l 1
 2 6 l 1
 0 6 l 1
 0 6.5 l 1
1 -0 m 1
 2.5 -0 l 1
 4 -0 l 1
 4 2 l 1
 4 4 l 1
 3 4 l 1
 2 4 l 1
 2 4.5 l 1
 2 5 l 1
 3 5 l 1
 4 5 l 1
 4 4.5 l 1
 4 4 l 1
 4.5 4 l 1
 5 4 l 1
 5 2 l 1
 5 -0 l 1
 4.5 -0 l 1
 4 -0 l 1
 4 -0.5 l 1
 4 -1 l 1
 2.5 -1 l 1
 1 -1 l 1
 1 -0.5 l 1
 1 -0 l 1
1 -0 m 1
 0.5 -0 l 1
 0 -0 l 1
 0 0.5 l 1
 0 1 l 1
 0.5 1 l 1
 1 1 l 1
 1 0.5 l 1
 1 -0 l 1
EndSplineSet
EndChar

StartChar: glyph2665
Encoding: 440 440 2665
Width: 6
VWidth: 0
Flags: HMW
LayerCount: 2
Back
Fore
SplineSet
0 6 m 1
 0 7 l 1
 2.5 7 l 1
 5 7 l 1
 5 6.5 l 1
 5 6 l 1
 3 6 l 1
 1 6 l 1
 1 5.5 l 1
 1 5 l 1
 0.5 5 l 1
 0 5 l 1
 0 6 l 1
4 -0 m 1
 4 -0.5 l 1
 4 -1 l 1
 2.5 -1 l 1
 1 -1 l 1
 1 -0.5 l 1
 1 -0 l 1
 0.5 -0 l 1
 0 -0 l 1
 0 2 l 1
 0 4 l 1
 0.5 4 l 1
 1 4 l 1
 1 4.5 l 1
 1 5 l 1
 2 5 l 1
 3 5 l 1
 3 4.5 l 1
 3 4 l 1
 2 4 l 1
 1 4 l 1
 1 2 l 1
 1 -0 l 1
 2.5 -0 l 1
 4 -0 l 1
4 -0 m 1
 4 0.5 l 1
 4 1 l 1
 4.5 1 l 1
 5 1 l 1
 5 0.5 l 1
 5 -0 l 1
 4.5 -0 l 1
 4 -0 l 1
EndSplineSet
EndChar

StartChar: glyph2666
Encoding: 441 441 2666
Width: 6
VWidth: 0
Flags: HMW
LayerCount: 2
Back
Fore
SplineSet
0 4 m 1
 0 5 l 1
 2.5 5 l 1
 5 5 l 1
 5 4.5 l 1
 5 4 l 1
 3 4 l 1
 1 4 l 1
 1 3.5 l 1
 1 3 l 1
 0.5 3 l 1
 0 3 l 1
 0 4 l 1
4 -0 m 1
 4 -0.5 l 1
 4 -1 l 1
 2.5 -1 l 1
 1 -1 l 1
 1 -0.5 l 1
 1 -0 l 1
 0.5 -0 l 1
 0 -0 l 1
 0 1 l 1
 0 2 l 1
 0.5 2 l 1
 1 2 l 1
 1 2.5 l 1
 1 3 l 1
 2 3 l 1
 3 3 l 1
 3 2.5 l 1
 3 2 l 1
 2 2 l 1
 1 2 l 1
 1 1 l 1
 1 -0 l 1
 2.5 -0 l 1
 4 -0 l 1
4 -0 m 1
 4 0.5 l 1
 4 1 l 1
 4.5 1 l 1
 5 1 l 1
 5 0.5 l 1
 5 -0 l 1
 4.5 -0 l 1
 4 -0 l 1
EndSplineSet
EndChar

StartChar: glyph2667
Encoding: 443 443 2667
Width: 6
VWidth: 0
Flags: HMW
LayerCount: 2
Back
Fore
SplineSet
1 6.5 m 1
 1 7 l 1
 2.5 7 l 1
 4 7 l 1
 4 6.5 l 1
 4 6 l 1
 2.5 6 l 1
 1 6 l 1
 1 6.5 l 1
1 6 m 1
 1 5.5 l 1
 1 5 l 1
 0.5 5 l 1
 0 5 l 1
 0 5.5 l 1
 0 6 l 1
 0.5 6 l 1
 1 6 l 1
1 2 m 1
 1 2.5 l 1
 1 3 l 1
 0.5 3 l 1
 0 3 l 1
 0 3.5 l 1
 0 4 l 1
 1.5 4 l 1
 3 4 l 1
 3 4.5 l 1
 3 5 l 1
 3.5 5 l 1
 4 5 l 1
 4 5.5 l 1
 4 6 l 1
 4.5 6 l 1
 5 6 l 1
 5 5.5 l 1
 5 5 l 1
 4.5 5 l 1
 4 5 l 1
 4 4.5 l 1
 4 4 l 1
 4.5 4 l 1
 5 4 l 1
 5 3.5 l 1
 5 3 l 1
 3.5 3 l 1
 2 3 l 1
 2 2.5 l 1
 2 2 l 1
 1.5 2 l 1
 1 2 l 1
1 2 m 1
 1 1.5 l 1
 1 1 l 1
 2.5 1 l 1
 4 1 l 1
 4 1.5 l 1
 4 2 l 1
 4.5 2 l 1
 5 2 l 1
 5 1 l 1
 5 -0 l 1
 2.5 -0 l 1
 0 -0 l 1
 0 1 l 1
 0 2 l 1
 0.5 2 l 1
 1 2 l 1
EndSplineSet
EndChar

StartChar: glyph2668
Encoding: 444 444 2668
Width: 6
VWidth: 0
Flags: HMW
LayerCount: 2
Back
Fore
SplineSet
0 6.5 m 1
 0 7 l 1
 2.5 7 l 1
 5 7 l 1
 5 6.5 l 1
 5 6 l 1
 3.5 6 l 1
 2 6 l 1
 2 5.5 l 1
 2 5 l 1
 3 5 l 1
 4 5 l 1
 4 4.5 l 1
 4 4 l 1
 2.5 4 l 1
 1 4 l 1
 1 5 l 1
 1 6 l 1
 0.5 6 l 1
 0 6 l 1
 0 6.5 l 1
1 1 m 1
 2.5 1 l 1
 4 1 l 1
 4 2.5 l 1
 4 4 l 1
 4.5 4 l 1
 5 4 l 1
 5 2.5 l 1
 5 1 l 1
 4.5 1 l 1
 4 1 l 1
 4 0.5 l 1
 4 -0 l 1
 2.5 -0 l 1
 1 -0 l 1
 1 0.5 l 1
 1 1 l 1
1 1 m 1
 0.5 1 l 1
 0 1 l 1
 0 1.5 l 1
 0 2 l 1
 0.5 2 l 1
 1 2 l 1
 1 1.5 l 1
 1 1 l 1
EndSplineSet
EndChar

StartChar: glyph2669
Encoding: 445 445 2669
Width: 6
VWidth: 0
Flags: HMW
LayerCount: 2
Back
Fore
SplineSet
0 4.5 m 1
 0 5 l 1
 2.5 5 l 1
 5 5 l 1
 5 4.5 l 1
 5 4 l 1
 3.5 4 l 1
 2 4 l 1
 2 3.5 l 1
 2 3 l 1
 3 3 l 1
 4 3 l 1
 4 2.5 l 1
 4 2 l 1
 2.5 2 l 1
 1 2 l 1
 1 3 l 1
 1 4 l 1
 0.5 4 l 1
 0 4 l 1
 0 4.5 l 1
4 1 m 1
 4 1.5 l 1
 4 2 l 1
 4.5 2 l 1
 5 2 l 1
 5 1.5 l 1
 5 1 l 1
 4.5 1 l 1
 4 1 l 1
4 1 m 1
 4 0.5 l 1
 4 -0 l 1
 2 -0 l 1
 0 -0 l 1
 0 0.5 l 1
 0 1 l 1
 2 1 l 1
 4 1 l 1
EndSplineSet
EndChar

StartChar: glyph2670
Encoding: 446 446 2670
Width: 6
VWidth: 0
Flags: HMW
LayerCount: 2
Back
Fore
SplineSet
1 6 m 1
 1 7 l 1
 1.5 7 l 1
 2 7 l 1
 2 6 l 1
 2 5 l 1
 2.5 5 l 1
 3 5 l 1
 3 4.5 l 1
 3 4 l 1
 2.5 4 l 1
 2 4 l 1
 2 3.5 l 1
 2 3 l 1
 1.5 3 l 1
 1 3 l 1
 1 3.5 l 1
 1 4 l 1
 0.5 4 l 1
 0 4 l 1
 0 4.5 l 1
 0 5 l 1
 0.5 5 l 1
 1 5 l 1
 1 6 l 1
4 1 m 1
 4 1.5 l 1
 4 2 l 1
 3 2 l 1
 2 2 l 1
 2 2.5 l 1
 2 3 l 1
 3 3 l 1
 4 3 l 1
 4 2.5 l 1
 4 2 l 1
 4.5 2 l 1
 5 2 l 1
 5 1.5 l 1
 5 1 l 1
 4.5 1 l 1
 4 1 l 1
4 1 m 1
 4 0.5 l 1
 4 -0 l 1
 2 -0 l 1
 0 -0 l 1
 0 0.5 l 1
 0 1 l 1
 2 1 l 1
 4 1 l 1
EndSplineSet
EndChar

StartChar: glyph2671
Encoding: 447 447 2671
Width: 6
VWidth: 0
Flags: HMW
LayerCount: 2
Back
Fore
SplineSet
0 2 m 1
 0 5 l 1
 0.5 5 l 1
 1 5 l 1
 1 4.5 l 1
 1 4 l 1
 1.5 4 l 1
 2 4 l 1
 2 3.5 l 1
 2 3 l 1
 1.5 3 l 1
 1 3 l 1
 1 2 l 1
 1 1 l 1
 2 1 l 1
 3 1 l 1
 3 1.5 l 1
 3 2 l 1
 3.5 2 l 1
 4 2 l 1
 4 3 l 1
 4 4 l 1
 3 4 l 1
 2 4 l 1
 2 4.5 l 1
 2 5 l 1
 3 5 l 1
 4 5 l 1
 4 4.5 l 1
 4 4 l 1
 4.5 4 l 1
 5 4 l 1
 5 3 l 1
 5 2 l 1
 4.5 2 l 1
 4 2 l 1
 4 1.5 l 1
 4 1 l 1
 3.5 1 l 1
 3 1 l 1
 3 0.5 l 1
 3 -0 l 1
 2 -0 l 1
 1 -0 l 1
 1 -0.5 l 1
 1 -1 l 1
 0.5 -1 l 1
 0 -1 l 1
 0 2 l 1
EndSplineSet
EndChar

StartChar: glyph2672
Encoding: 448 448 2672
Width: 2
VWidth: 0
Flags: HMW
LayerCount: 2
Back
Fore
SplineSet
0 3.5 m 1
 0 7 l 1
 0.5 7 l 1
 1 7 l 1
 1 3.5 l 1
 1 -0 l 1
 0.5 -0 l 1
 0 -0 l 1
 0 3.5 l 1
EndSplineSet
EndChar

StartChar: glyph2673
Encoding: 449 449 2673
Width: 4
VWidth: 0
Flags: HMW
LayerCount: 2
Back
Fore
SplineSet
0 3.5 m 1
 0 7 l 1
 0.5 7 l 1
 1 7 l 1
 1 3.5 l 1
 1 -0 l 1
 0.5 -0 l 1
 0 -0 l 1
 0 3.5 l 1
2 3.5 m 1
 2 7 l 1
 2.5 7 l 1
 3 7 l 1
 3 3.5 l 1
 3 -0 l 1
 2.5 -0 l 1
 2 -0 l 1
 2 3.5 l 1
EndSplineSet
EndChar

StartChar: glyph2674
Encoding: 450 450 2674
Width: 6
VWidth: 0
Flags: HMW
LayerCount: 2
Back
Fore
SplineSet
2 6 m 1
 2 7 l 1
 2.5 7 l 1
 3 7 l 1
 3 6 l 1
 3 5 l 1
 4 5 l 1
 5 5 l 1
 5 4.5 l 1
 5 4 l 1
 4 4 l 1
 3 4 l 1
 3 3.5 l 1
 3 3 l 1
 4 3 l 1
 5 3 l 1
 5 2.5 l 1
 5 2 l 1
 4 2 l 1
 3 2 l 1
 3 1 l 1
 3 -0 l 1
 2.5 -0 l 1
 2 -0 l 1
 2 1 l 1
 2 2 l 1
 1 2 l 1
 0 2 l 1
 0 2.5 l 1
 0 3 l 1
 1 3 l 1
 2 3 l 1
 2 3.5 l 1
 2 4 l 1
 1 4 l 1
 0 4 l 1
 0 4.5 l 1
 0 5 l 1
 1 5 l 1
 2 5 l 1
 2 6 l 1
EndSplineSet
EndChar

StartChar: glyph2675
Encoding: 451 451 2675
Width: 2
VWidth: 0
Flags: HMW
LayerCount: 2
Back
Fore
SplineSet
0 4.5 m 1
 0 7 l 1
 0.5 7 l 1
 1 7 l 1
 1 4.5 l 1
 1 2 l 1
 0.5 2 l 1
 0 2 l 1
 0 4.5 l 1
0 0.5 m 1
 0 1 l 1
 0.5 1 l 1
 1 1 l 1
 1 0.5 l 1
 1 -0 l 1
 0.5 -0 l 1
 0 -0 l 1
 0 0.5 l 1
EndSplineSet
EndChar

StartChar: glyph2676
Encoding: 457 457 2676
Width: 8
VWidth: 0
Flags: HMW
LayerCount: 2
Back
Fore
SplineSet
0 4 m 1
 0 7 l 1
 0.5 7 l 1
 1 7 l 1
 1 4 l 1
 1 1 l 1
 0.5 1 l 1
 0 1 l 1
 0 4 l 1
6 6.5 m 1
 6 7 l 1
 6.5 7 l 1
 7 7 l 1
 7 6.5 l 1
 7 6 l 1
 6.5 6 l 1
 6 6 l 1
 6 6.5 l 1
6 2.5 m 1
 6 5 l 1
 6.5 5 l 1
 7 5 l 1
 7 2.5 l 1
 7 -0 l 1
 6.5 -0 l 1
 6 -0 l 1
 6 2.5 l 1
1 1 m 1
 1.5 1 l 1
 2 1 l 1
 2 0.5 l 1
 2 -0 l 1
 1.5 -0 l 1
 1 -0 l 1
 1 0.5 l 1
 1 1 l 1
4 -0 m 1
 5 -0 l 1
 6 -0 l 1
 6 -0.5 l 1
 6 -1 l 1
 5 -1 l 1
 4 -1 l 1
 4 -0.5 l 1
 4 -0 l 1
4 -0 m 1
 3.5 -0 l 1
 3 -0 l 1
 3 1 l 1
 3 2 l 1
 3.5 2 l 1
 4 2 l 1
 4 1 l 1
 4 -0 l 1
EndSplineSet
EndChar

StartChar: glyph2677
Encoding: 7424 7424 2677
Width: 6
VWidth: 0
Flags: HMW
LayerCount: 2
Back
Fore
SplineSet
1 4.5 m 1
 1 5 l 1
 2.5 5 l 1
 4 5 l 1
 4 4.5 l 1
 4 4 l 1
 2.5 4 l 1
 1 4 l 1
 1 3.5 l 1
 1 3 l 1
 2.5 3 l 1
 4 3 l 1
 4 3.5 l 1
 4 4 l 1
 4.5 4 l 1
 5 4 l 1
 5 2 l 1
 5 -0 l 1
 4.5 -0 l 1
 4 -0 l 1
 4 1 l 1
 4 2 l 1
 2.5 2 l 1
 1 2 l 1
 1 1 l 1
 1 -0 l 1
 0.5 -0 l 1
 0 -0 l 1
 0 2 l 1
 0 4 l 1
 0.5 4 l 1
 1 4 l 1
 1 4.5 l 1
EndSplineSet
EndChar

StartChar: glyph2678
Encoding: 7428 7428 2678
Width: 6
VWidth: 0
Flags: HMW
LayerCount: 2
Back
Fore
SplineSet
1 4.5 m 1
 1 5 l 1
 2.5 5 l 1
 4 5 l 1
 4 4.5 l 1
 4 4 l 1
 2.5 4 l 1
 1 4 l 1
 1 4.5 l 1
4 1 m 1
 4 0.5 l 1
 4 -0 l 1
 2.5 -0 l 1
 1 -0 l 1
 1 0.5 l 1
 1 1 l 1
 0.5 1 l 1
 0 1 l 1
 0 2.5 l 1
 0 4 l 1
 0.5 4 l 1
 1 4 l 1
 1 2.5 l 1
 1 1 l 1
 2.5 1 l 1
 4 1 l 1
4 1 m 1
 4 1.5 l 1
 4 2 l 1
 4.5 2 l 1
 5 2 l 1
 5 1.5 l 1
 5 1 l 1
 4.5 1 l 1
 4 1 l 1
4 4 m 1
 4.5 4 l 1
 5 4 l 1
 5 3.5 l 1
 5 3 l 1
 4.5 3 l 1
 4 3 l 1
 4 3.5 l 1
 4 4 l 1
EndSplineSet
EndChar

StartChar: glyph2679
Encoding: 7429 7429 2679
Width: 6
VWidth: 0
Flags: HMW
LayerCount: 2
Back
Fore
SplineSet
0 2.5 m 1
 0 5 l 1
 2 5 l 1
 4 5 l 1
 4 4.5 l 1
 4 4 l 1
 2.5 4 l 1
 1 4 l 1
 1 2.5 l 1
 1 1 l 1
 2.5 1 l 1
 4 1 l 1
 4 2.5 l 1
 4 4 l 1
 4.5 4 l 1
 5 4 l 1
 5 2.5 l 1
 5 1 l 1
 4.5 1 l 1
 4 1 l 1
 4 0.5 l 1
 4 -0 l 1
 2 -0 l 1
 0 -0 l 1
 0 2.5 l 1
EndSplineSet
EndChar

StartChar: glyph2680
Encoding: 7431 7431 2680
Width: 6
VWidth: 0
Flags: HMW
LayerCount: 2
Back
Fore
SplineSet
0 2.5 m 1
 0 5 l 1
 2.5 5 l 1
 5 5 l 1
 5 4.5 l 1
 5 4 l 1
 3 4 l 1
 1 4 l 1
 1 3.5 l 1
 1 3 l 1
 2 3 l 1
 3 3 l 1
 3 2.5 l 1
 3 2 l 1
 2 2 l 1
 1 2 l 1
 1 1.5 l 1
 1 1 l 1
 3 1 l 1
 5 1 l 1
 5 0.5 l 1
 5 -0 l 1
 2.5 -0 l 1
 0 -0 l 1
 0 2.5 l 1
EndSplineSet
EndChar

StartChar: glyph2681
Encoding: 7433 7433 2681
Width: 2
VWidth: 0
Flags: HMW
LayerCount: 2
Back
Fore
SplineSet
0 3.5 m 1
 0 6 l 1
 0.5 6 l 1
 1 6 l 1
 1 3.5 l 1
 1 1 l 1
 0.5 1 l 1
 0 1 l 1
 0 3.5 l 1
0 -0.5 m 1
 0 -0 l 1
 0.5 -0 l 1
 1 -0 l 1
 1 -0.5 l 1
 1 -1 l 1
 0.5 -1 l 1
 0 -1 l 1
 0 -0.5 l 1
EndSplineSet
EndChar

StartChar: glyph2682
Encoding: 7434 7434 2682
Width: 6
VWidth: 0
Flags: HMW
LayerCount: 2
Back
Fore
SplineSet
4 3 m 1
 4 5 l 1
 4.5 5 l 1
 5 5 l 1
 5 3 l 1
 5 1 l 1
 4.5 1 l 1
 4 1 l 1
 4 3 l 1
1 1 m 1
 2.5 1 l 1
 4 1 l 1
 4 0.5 l 1
 4 -0 l 1
 2.5 -0 l 1
 1 -0 l 1
 1 0.5 l 1
 1 1 l 1
1 1 m 1
 0.5 1 l 1
 0 1 l 1
 0 1.5 l 1
 0 2 l 1
 0.5 2 l 1
 1 2 l 1
 1 1.5 l 1
 1 1 l 1
EndSplineSet
EndChar

StartChar: glyph2683
Encoding: 7435 7435 2683
Width: 6
VWidth: 0
Flags: HMW
LayerCount: 2
Back
Fore
SplineSet
0 2.5 m 1
 0 5 l 1
 0.5 5 l 1
 1 5 l 1
 1 4 l 1
 1 3 l 1
 2 3 l 1
 3 3 l 1
 3 2.5 l 1
 3 2 l 1
 2 2 l 1
 1 2 l 1
 1 1 l 1
 1 -0 l 1
 0.5 -0 l 1
 0 -0 l 1
 0 2.5 l 1
4 1 m 1
 3.5 1 l 1
 3 1 l 1
 3 1.5 l 1
 3 2 l 1
 3.5 2 l 1
 4 2 l 1
 4 1.5 l 1
 4 1 l 1
4 1 m 1
 4.5 1 l 1
 5 1 l 1
 5 0.5 l 1
 5 -0 l 1
 4.5 -0 l 1
 4 -0 l 1
 4 0.5 l 1
 4 1 l 1
4 4 m 1
 4 3.5 l 1
 4 3 l 1
 3.5 3 l 1
 3 3 l 1
 3 3.5 l 1
 3 4 l 1
 3.5 4 l 1
 4 4 l 1
4 4 m 1
 4 4.5 l 1
 4 5 l 1
 4.5 5 l 1
 5 5 l 1
 5 4.5 l 1
 5 4 l 1
 4.5 4 l 1
 4 4 l 1
EndSplineSet
EndChar

StartChar: glyph2684
Encoding: 7437 7437 2684
Width: 6
VWidth: 0
Flags: HMW
LayerCount: 2
Back
Fore
SplineSet
0 2.5 m 1
 0 5 l 1
 0.5 5 l 1
 1 5 l 1
 1 4.5 l 1
 1 4 l 1
 1.5 4 l 1
 2 4 l 1
 2 3.5 l 1
 2 3 l 1
 1.5 3 l 1
 1 3 l 1
 1 1.5 l 1
 1 -0 l 1
 0.5 -0 l 1
 0 -0 l 1
 0 2.5 l 1
3 3 m 1
 3 2.5 l 1
 3 2 l 1
 2.5 2 l 1
 2 2 l 1
 2 2.5 l 1
 2 3 l 1
 2.5 3 l 1
 3 3 l 1
3 3 m 1
 3 3.5 l 1
 3 4 l 1
 3.5 4 l 1
 4 4 l 1
 4 4.5 l 1
 4 5 l 1
 4.5 5 l 1
 5 5 l 1
 5 2.5 l 1
 5 -0 l 1
 4.5 -0 l 1
 4 -0 l 1
 4 1.5 l 1
 4 3 l 1
 3.5 3 l 1
 3 3 l 1
EndSplineSet
EndChar

StartChar: glyph2685
Encoding: 7439 7439 2685
Width: 6
VWidth: 0
Flags: HMW
LayerCount: 2
Back
Fore
SplineSet
1 4.5 m 1
 1 5 l 1
 2.5 5 l 1
 4 5 l 1
 4 4.5 l 1
 4 4 l 1
 2.5 4 l 1
 1 4 l 1
 1 2.5 l 1
 1 1 l 1
 2.5 1 l 1
 4 1 l 1
 4 2.5 l 1
 4 4 l 1
 4.5 4 l 1
 5 4 l 1
 5 2.5 l 1
 5 1 l 1
 4.5 1 l 1
 4 1 l 1
 4 0.5 l 1
 4 -0 l 1
 2.5 -0 l 1
 1 -0 l 1
 1 0.5 l 1
 1 1 l 1
 0.5 1 l 1
 0 1 l 1
 0 2.5 l 1
 0 4 l 1
 0.5 4 l 1
 1 4 l 1
 1 4.5 l 1
EndSplineSet
EndChar

StartChar: glyph2686
Encoding: 7448 7448 2686
Width: 6
VWidth: 0
Flags: HMW
LayerCount: 2
Back
Fore
SplineSet
0 2.5 m 1
 0 5 l 1
 2 5 l 1
 4 5 l 1
 4 4.5 l 1
 4 4 l 1
 2.5 4 l 1
 1 4 l 1
 1 3.5 l 1
 1 3 l 1
 2.5 3 l 1
 4 3 l 1
 4 3.5 l 1
 4 4 l 1
 4.5 4 l 1
 5 4 l 1
 5 3.5 l 1
 5 3 l 1
 4.5 3 l 1
 4 3 l 1
 4 2.5 l 1
 4 2 l 1
 2.5 2 l 1
 1 2 l 1
 1 1 l 1
 1 -0 l 1
 0.5 -0 l 1
 0 -0 l 1
 0 2.5 l 1
EndSplineSet
EndChar

StartChar: glyph2687
Encoding: 7450 7450 2687
Width: 6
VWidth: 0
Flags: HMW
LayerCount: 2
Back
Fore
SplineSet
4 1.5 m 1
 4 2 l 1
 2.5 2 l 1
 1 2 l 1
 1 1.5 l 1
 1 1 l 1
 2.5 1 l 1
 4 1 l 1
 4 1.5 l 1
0 5 m 1
 0 7 l 1
 0.5 7 l 1
 1 7 l 1
 1 5 l 1
 1 3 l 1
 0.5 3 l 1
 0 3 l 1
 0 5 l 1
1 2 m 1
 1 2.5 l 1
 1 3 l 1
 2.5 3 l 1
 4 3 l 1
 4 5 l 1
 4 7 l 1
 4.5 7 l 1
 5 7 l 1
 5 3.5 l 1
 5 -0 l 1
 3 -0 l 1
 1 -0 l 1
 1 0.5 l 1
 1 1 l 1
 0.5 1 l 1
 0 1 l 1
 0 1.5 l 1
 0 2 l 1
 0.5 2 l 1
 1 2 l 1
EndSplineSet
EndChar

StartChar: glyph2688
Encoding: 7451 7451 2688
Width: 6
VWidth: 0
Flags: HMW
LayerCount: 2
Back
Fore
SplineSet
0 4.5 m 1
 0 5 l 1
 2.5 5 l 1
 5 5 l 1
 5 4.5 l 1
 5 4 l 1
 4 4 l 1
 3 4 l 1
 3 2 l 1
 3 -0 l 1
 2.5 -0 l 1
 2 -0 l 1
 2 2 l 1
 2 4 l 1
 1 4 l 1
 0 4 l 1
 0 4.5 l 1
EndSplineSet
EndChar

StartChar: glyph2689
Encoding: 7452 7452 2689
Width: 6
VWidth: 0
Flags: HMW
LayerCount: 2
Back
Fore
SplineSet
0 3 m 1
 0 5 l 1
 0.5 5 l 1
 1 5 l 1
 1 3 l 1
 1 1 l 1
 0.5 1 l 1
 0 1 l 1
 0 3 l 1
4 1 m 1
 4 0.5 l 1
 4 -0 l 1
 2.5 -0 l 1
 1 -0 l 1
 1 0.5 l 1
 1 1 l 1
 2.5 1 l 1
 4 1 l 1
4 1 m 1
 4 3 l 1
 4 5 l 1
 4.5 5 l 1
 5 5 l 1
 5 3 l 1
 5 1 l 1
 4.5 1 l 1
 4 1 l 1
EndSplineSet
EndChar

StartChar: glyph2690
Encoding: 7456 7456 2690
Width: 6
VWidth: 0
Flags: HMW
LayerCount: 2
Back
Fore
SplineSet
0 3.5 m 1
 0 5 l 1
 0.5 5 l 1
 1 5 l 1
 1 3.5 l 1
 1 2 l 1
 0.5 2 l 1
 0 2 l 1
 0 3.5 l 1
4 2 m 1
 4 1.5 l 1
 4 1 l 1
 3.5 1 l 1
 3 1 l 1
 3 0.5 l 1
 3 -0 l 1
 2.5 -0 l 1
 2 -0 l 1
 2 0.5 l 1
 2 1 l 1
 1.5 1 l 1
 1 1 l 1
 1 1.5 l 1
 1 2 l 1
 1.5 2 l 1
 2 2 l 1
 2 1.5 l 1
 2 1 l 1
 2.5 1 l 1
 3 1 l 1
 3 1.5 l 1
 3 2 l 1
 3.5 2 l 1
 4 2 l 1
4 2 m 1
 4 3.5 l 1
 4 5 l 1
 4.5 5 l 1
 5 5 l 1
 5 3.5 l 1
 5 2 l 1
 4.5 2 l 1
 4 2 l 1
EndSplineSet
EndChar

StartChar: glyph2691
Encoding: 7457 7457 2691
Width: 6
VWidth: 0
Flags: HMW
LayerCount: 2
Back
Fore
SplineSet
0 2.5 m 1
 0 5 l 1
 0.5 5 l 1
 1 5 l 1
 1 3.5 l 1
 1 2 l 1
 1.5 2 l 1
 2 2 l 1
 2 1.5 l 1
 2 1 l 1
 1.5 1 l 1
 1 1 l 1
 1 0.5 l 1
 1 -0 l 1
 0.5 -0 l 1
 0 -0 l 1
 0 2.5 l 1
3 2 m 1
 2.5 2 l 1
 2 2 l 1
 2 2.5 l 1
 2 3 l 1
 2.5 3 l 1
 3 3 l 1
 3 2.5 l 1
 3 2 l 1
3 2 m 1
 3.5 2 l 1
 4 2 l 1
 4 3.5 l 1
 4 5 l 1
 4.5 5 l 1
 5 5 l 1
 5 2.5 l 1
 5 -0 l 1
 4.5 -0 l 1
 4 -0 l 1
 4 0.5 l 1
 4 1 l 1
 3.5 1 l 1
 3 1 l 1
 3 1.5 l 1
 3 2 l 1
EndSplineSet
EndChar

StartChar: glyph2692
Encoding: 7458 7458 2692
Width: 6
VWidth: 0
Flags: HMW
LayerCount: 2
Back
Fore
SplineSet
0 4.5 m 1
 0 5 l 1
 2.5 5 l 1
 5 5 l 1
 5 4.5 l 1
 5 4 l 1
 4.5 4 l 1
 4 4 l 1
 4 3.5 l 1
 4 3 l 1
 3.5 3 l 1
 3 3 l 1
 3 3.5 l 1
 3 4 l 1
 1.5 4 l 1
 0 4 l 1
 0 4.5 l 1
2 2 m 1
 2 2.5 l 1
 2 3 l 1
 2.5 3 l 1
 3 3 l 1
 3 2.5 l 1
 3 2 l 1
 2.5 2 l 1
 2 2 l 1
2 2 m 1
 2 1.5 l 1
 2 1 l 1
 3.5 1 l 1
 5 1 l 1
 5 0.5 l 1
 5 -0 l 1
 2.5 -0 l 1
 0 -0 l 1
 0 0.5 l 1
 0 1 l 1
 0.5 1 l 1
 1 1 l 1
 1 1.5 l 1
 1 2 l 1
 1.5 2 l 1
 2 2 l 1
EndSplineSet
EndChar

StartChar: glyph2693
Encoding: 7543 7543 2693
Width: 6
VWidth: 0
Flags: HMW
LayerCount: 2
Back
Fore
SplineSet
1 5.5 m 1
 1 6 l 1
 3 6 l 1
 5 6 l 1
 5 5.5 l 1
 5 5 l 1
 3 5 l 1
 1 5 l 1
 1 5.5 l 1
4 1 m 1
 4 2 l 1
 4 3 l 1
 2.5 3 l 1
 1 3 l 1
 1 2 l 1
 1 1 l 1
 2.5 1 l 1
 4 1 l 1
4 1 m 1
 4 0.5 l 1
 4 -0 l 1
 2 -0 l 1
 0 -0 l 1
 0 2.5 l 1
 0 5 l 1
 0.5 5 l 1
 1 5 l 1
 1 4.5 l 1
 1 4 l 1
 2.5 4 l 1
 4 4 l 1
 4 3.5 l 1
 4 3 l 1
 4.5 3 l 1
 5 3 l 1
 5 2 l 1
 5 1 l 1
 4.5 1 l 1
 4 1 l 1
EndSplineSet
EndChar

StartChar: glyph2694
Encoding: 7569 7569 2694
Width: 7
VWidth: 0
Flags: HMW
LayerCount: 2
Back
Fore
SplineSet
5 6.5 m 1
 5 7 l 1
 5.5 7 l 1
 6 7 l 1
 6 6.5 l 1
 6 6 l 1
 5.5 6 l 1
 5 6 l 1
 5 6.5 l 1
3 4 m 1
 2 4 l 1
 1 4 l 1
 1 2.5 l 1
 1 1 l 1
 2.5 1 l 1
 4 1 l 1
 4 2 l 1
 4 3 l 1
 3.5 3 l 1
 3 3 l 1
 3 3.5 l 1
 3 4 l 1
3 4 m 1
 3.5 4 l 1
 4 4 l 1
 4 5 l 1
 4 6 l 1
 4.5 6 l 1
 5 6 l 1
 5 3 l 1
 5 -0 l 1
 3 -0 l 1
 1 -0 l 1
 1 0.5 l 1
 1 1 l 1
 0.5 1 l 1
 0 1 l 1
 0 2.5 l 1
 0 4 l 1
 0.5 4 l 1
 1 4 l 1
 1 4.5 l 1
 1 5 l 1
 2 5 l 1
 3 5 l 1
 3 4.5 l 1
 3 4 l 1
5 -0 m 1
 5.5 -0 l 1
 6 -0 l 1
 6 -0.5 l 1
 6 -1 l 1
 5.5 -1 l 1
 5 -1 l 1
 5 -0.5 l 1
 5 -0 l 1
EndSplineSet
EndChar

StartChar: glyph2695
Encoding: 477 477 2695
Width: 6
VWidth: 0
Flags: HMW
LayerCount: 2
Back
Fore
SplineSet
4 1.5 m 1
 4 2 l 1
 2.5 2 l 1
 1 2 l 1
 1 1.5 l 1
 1 1 l 1
 2.5 1 l 1
 4 1 l 1
 4 1.5 l 1
0 4.5 m 1
 0 5 l 1
 2 5 l 1
 4 5 l 1
 4 4.5 l 1
 4 4 l 1
 2 4 l 1
 0 4 l 1
 0 4.5 l 1
1 1 m 1
 0.5 1 l 1
 0 1 l 1
 0 2 l 1
 0 3 l 1
 2 3 l 1
 4 3 l 1
 4 3.5 l 1
 4 4 l 1
 4.5 4 l 1
 5 4 l 1
 5 2.5 l 1
 5 1 l 1
 4.5 1 l 1
 4 1 l 1
 4 0.5 l 1
 4 -0 l 1
 2.5 -0 l 1
 1 -0 l 1
 1 0.5 l 1
 1 1 l 1
EndSplineSet
EndChar

StartChar: glyph2696
Encoding: 7836 7836 2696
Width: 5
VWidth: 0
Flags: HMW
LayerCount: 2
Back
Fore
SplineSet
2 6.5 m 1
 2 7 l 1
 3 7 l 1
 4 7 l 1
 4 6.5 l 1
 4 6 l 1
 3 6 l 1
 2 6 l 1
 2 6.5 l 1
3 3 m 1
 3 2.5 l 1
 3 2 l 1
 2.5 2 l 1
 2 2 l 1
 2 1 l 1
 2 -0 l 1
 1.5 -0 l 1
 1 -0 l 1
 1 0.5 l 1
 1 1 l 1
 0.5 1 l 1
 0 1 l 1
 0 1.5 l 1
 0 2 l 1
 0.5 2 l 1
 1 2 l 1
 1 3 l 1
 1 4 l 1
 0.5 4 l 1
 0 4 l 1
 0 4.5 l 1
 0 5 l 1
 0.5 5 l 1
 1 5 l 1
 1 5.5 l 1
 1 6 l 1
 1.5 6 l 1
 2 6 l 1
 2 4.5 l 1
 2 3 l 1
 2.5 3 l 1
 3 3 l 1
3 3 m 1
 3 3.5 l 1
 3 4 l 1
 3.5 4 l 1
 4 4 l 1
 4 3.5 l 1
 4 3 l 1
 3.5 3 l 1
 3 3 l 1
EndSplineSet
EndChar

StartChar: glyph2697
Encoding: 7837 7837 2697
Width: 5
VWidth: 0
Flags: HMW
LayerCount: 2
Back
Fore
SplineSet
2 6.5 m 1
 2 7 l 1
 3 7 l 1
 4 7 l 1
 4 6.5 l 1
 4 6 l 1
 3 6 l 1
 2 6 l 1
 2 6.5 l 1
2 6 m 1
 2 5.5 l 1
 2 5 l 1
 3 5 l 1
 4 5 l 1
 4 4.5 l 1
 4 4 l 1
 3 4 l 1
 2 4 l 1
 2 2 l 1
 2 -0 l 1
 1.5 -0 l 1
 1 -0 l 1
 1 1 l 1
 1 2 l 1
 0.5 2 l 1
 0 2 l 1
 0 2.5 l 1
 0 3 l 1
 0.5 3 l 1
 1 3 l 1
 1 3.5 l 1
 1 4 l 1
 0.5 4 l 1
 0 4 l 1
 0 4.5 l 1
 0 5 l 1
 0.5 5 l 1
 1 5 l 1
 1 5.5 l 1
 1 6 l 1
 1.5 6 l 1
 2 6 l 1
EndSplineSet
EndChar

StartChar: glyph2698
Encoding: 7838 7838 2698
Width: 6
VWidth: 0
Flags: HMW
LayerCount: 2
Back
Fore
SplineSet
1 6.5 m 1
 1 7 l 1
 3 7 l 1
 5 7 l 1
 5 6 l 1
 5 5 l 1
 4.5 5 l 1
 4 5 l 1
 4 5.5 l 1
 4 6 l 1
 2.5 6 l 1
 1 6 l 1
 1 6.5 l 1
1 6 m 1
 1 3 l 1
 1 -0 l 1
 0.5 -0 l 1
 0 -0 l 1
 0 3 l 1
 0 6 l 1
 0.5 6 l 1
 1 6 l 1
4 1 m 1
 4 2.5 l 1
 4 4 l 1
 3 4 l 1
 2 4 l 1
 2 4.5 l 1
 2 5 l 1
 3 5 l 1
 4 5 l 1
 4 4.5 l 1
 4 4 l 1
 4.5 4 l 1
 5 4 l 1
 5 2.5 l 1
 5 1 l 1
 4.5 1 l 1
 4 1 l 1
4 1 m 1
 4 0.5 l 1
 4 -0 l 1
 3 -0 l 1
 2 -0 l 1
 2 0.5 l 1
 2 1 l 1
 3 1 l 1
 4 1 l 1
EndSplineSet
EndChar

StartChar: glyph2699
Encoding: 7839 7839 2699
Width: 6
VWidth: 0
Flags: HMW
LayerCount: 2
Back
Fore
SplineSet
2 6.5 m 1
 2 7 l 1
 3 7 l 1
 4 7 l 1
 4 6.5 l 1
 4 6 l 1
 3 6 l 1
 2 6 l 1
 2 6.5 l 1
2 4 m 1
 2 3.5 l 1
 2 3 l 1
 1.5 3 l 1
 1 3 l 1
 1 2 l 1
 1 1 l 1
 2.5 1 l 1
 4 1 l 1
 4 2 l 1
 4 3 l 1
 3.5 3 l 1
 3 3 l 1
 3 3.5 l 1
 3 4 l 1
 2.5 4 l 1
 2 4 l 1
2 4 m 1
 2 4.5 l 1
 2 5 l 1
 1.5 5 l 1
 1 5 l 1
 1 5.5 l 1
 1 6 l 1
 1.5 6 l 1
 2 6 l 1
 2 5.5 l 1
 2 5 l 1
 2.5 5 l 1
 3 5 l 1
 3 4.5 l 1
 3 4 l 1
 3.5 4 l 1
 4 4 l 1
 4 3.5 l 1
 4 3 l 1
 4.5 3 l 1
 5 3 l 1
 5 2 l 1
 5 1 l 1
 4.5 1 l 1
 4 1 l 1
 4 0.5 l 1
 4 -0 l 1
 2.5 -0 l 1
 1 -0 l 1
 1 0.5 l 1
 1 1 l 1
 0.5 1 l 1
 0 1 l 1
 0 2 l 1
 0 3 l 1
 0.5 3 l 1
 1 3 l 1
 1 3.5 l 1
 1 4 l 1
 1.5 4 l 1
 2 4 l 1
EndSplineSet
EndChar

StartChar: glyph2700
Encoding: 7932 7932 2700
Width: 6
VWidth: 0
Flags: HMW
LayerCount: 2
Back
Fore
SplineSet
2 6.5 m 1
 2 7 l 1
 2.5 7 l 1
 3 7 l 1
 3 6.5 l 1
 3 6 l 1
 2.5 6 l 1
 2 6 l 1
 2 6.5 l 1
4 4 m 1
 4.5 4 l 1
 5 4 l 1
 5 2.5 l 1
 5 1 l 1
 4.5 1 l 1
 4 1 l 1
 4 0.5 l 1
 4 -0 l 1
 2.5 -0 l 1
 1 -0 l 1
 1 0.5 l 1
 1 1 l 1
 0.5 1 l 1
 0 1 l 1
 0 3 l 1
 0 5 l 1
 0.5 5 l 1
 1 5 l 1
 1 5.5 l 1
 1 6 l 1
 1.5 6 l 1
 2 6 l 1
 2 5.5 l 1
 2 5 l 1
 1.5 5 l 1
 1 5 l 1
 1 3 l 1
 1 1 l 1
 2.5 1 l 1
 4 1 l 1
 4 2.5 l 1
 4 4 l 1
4 4 m 1
 3.5 4 l 1
 3 4 l 1
 3 4.5 l 1
 3 5 l 1
 3.5 5 l 1
 4 5 l 1
 4 4.5 l 1
 4 4 l 1
EndSplineSet
EndChar

StartChar: glyph2701
Encoding: 7933 7933 2701
Width: 5
VWidth: 0
Flags: HMW
LayerCount: 2
Back
Fore
SplineSet
1 6.5 m 1
 1 7 l 1
 1.5 7 l 1
 2 7 l 1
 2 6.5 l 1
 2 6 l 1
 1.5 6 l 1
 1 6 l 1
 1 6.5 l 1
3 4 m 1
 3.5 4 l 1
 4 4 l 1
 4 2.5 l 1
 4 1 l 1
 3.5 1 l 1
 3 1 l 1
 3 0.5 l 1
 3 -0 l 1
 2 -0 l 1
 1 -0 l 1
 1 0.5 l 1
 1 1 l 1
 0.5 1 l 1
 0 1 l 1
 0 3.5 l 1
 0 6 l 1
 0.5 6 l 1
 1 6 l 1
 1 3.5 l 1
 1 1 l 1
 2 1 l 1
 3 1 l 1
 3 2.5 l 1
 3 4 l 1
3 4 m 1
 2.5 4 l 1
 2 4 l 1
 2 4.5 l 1
 2 5 l 1
 2.5 5 l 1
 3 5 l 1
 3 4.5 l 1
 3 4 l 1
EndSplineSet
EndChar

StartChar: glyph2702
Encoding: 7934 7934 2702
Width: 6
VWidth: 0
Flags: HMW
LayerCount: 2
Back
Fore
SplineSet
2 1.5 m 1
 2 2 l 1
 1.5 2 l 1
 1 2 l 1
 1 1.5 l 1
 1 1 l 1
 1.5 1 l 1
 2 1 l 1
 2 1.5 l 1
0 6.5 m 1
 0 7 l 1
 0.5 7 l 1
 1 7 l 1
 1 6.5 l 1
 1 6 l 1
 0.5 6 l 1
 0 6 l 1
 0 6.5 l 1
1 2 m 1
 1 2.5 l 1
 1 3 l 1
 1.5 3 l 1
 2 3 l 1
 2 4 l 1
 2 5 l 1
 1.5 5 l 1
 1 5 l 1
 1 5.5 l 1
 1 6 l 1
 1.5 6 l 1
 2 6 l 1
 2 5.5 l 1
 2 5 l 1
 2.5 5 l 1
 3 5 l 1
 3 3 l 1
 3 1 l 1
 2.5 1 l 1
 2 1 l 1
 2 0.5 l 1
 2 -0 l 1
 1.5 -0 l 1
 1 -0 l 1
 1 0.5 l 1
 1 1 l 1
 0.5 1 l 1
 0 1 l 1
 0 1.5 l 1
 0 2 l 1
 0.5 2 l 1
 1 2 l 1
4 6 m 1
 4 5.5 l 1
 4 5 l 1
 3.5 5 l 1
 3 5 l 1
 3 5.5 l 1
 3 6 l 1
 3.5 6 l 1
 4 6 l 1
4 6 m 1
 4 6.5 l 1
 4 7 l 1
 4.5 7 l 1
 5 7 l 1
 5 6.5 l 1
 5 6 l 1
 4.5 6 l 1
 4 6 l 1
EndSplineSet
EndChar

StartChar: glyph2703
Encoding: 7935 7935 2703
Width: 7
VWidth: 0
Flags: HMW
LayerCount: 2
Back
Fore
SplineSet
5 1 m 1
 5 2 l 1
 3.5 2 l 1
 2 2 l 1
 2 1.5 l 1
 2 1 l 1
 2.5 1 l 1
 3 1 l 1
 3 0.5 l 1
 3 -0 l 1
 4 -0 l 1
 5 -0 l 1
 5 1 l 1
1 4 m 1
 1 5 l 1
 1.5 5 l 1
 2 5 l 1
 2 4 l 1
 2 3 l 1
 1.5 3 l 1
 1 3 l 1
 1 4 l 1
2 1 m 1
 1.5 1 l 1
 1 1 l 1
 1 0.5 l 1
 1 -0 l 1
 1.5 -0 l 1
 2 -0 l 1
 2 0.5 l 1
 2 1 l 1
2 2 m 1
 2 2.5 l 1
 2 3 l 1
 3.5 3 l 1
 5 3 l 1
 5 4 l 1
 5 5 l 1
 5.5 5 l 1
 6 5 l 1
 6 2.5 l 1
 6 -0 l 1
 5.5 -0 l 1
 5 -0 l 1
 5 -0.5 l 1
 5 -1 l 1
 3 -1 l 1
 1 -1 l 1
 1 -0.5 l 1
 1 -0 l 1
 0.5 -0 l 1
 0 -0 l 1
 0 0.5 l 1
 0 1 l 1
 0.5 1 l 1
 1 1 l 1
 1 1.5 l 1
 1 2 l 1
 1.5 2 l 1
 2 2 l 1
EndSplineSet
EndChar

StartChar: glyph2704
Encoding: 127830 127830 2704
Width: 8
VWidth: 0
Flags: HMW
LayerCount: 2
Back
Fore
SplineSet
1 6.5 m 1
 1 7 l 1
 3.5 7 l 1
 6 7 l 1
 6 6.5 l 1
 6 6 l 1
 3.5 6 l 1
 1 6 l 1
 1 5.5 l 1
 1 5 l 1
 1.5 5 l 1
 2 5 l 1
 2 4.5 l 1
 2 4 l 1
 1.5 4 l 1
 1 4 l 1
 1 2.5 l 1
 1 1 l 1
 1.5 1 l 1
 2 1 l 1
 2 0.5 l 1
 2 -0 l 1
 3.5 -0 l 1
 5 -0 l 1
 5 0.5 l 1
 5 1 l 1
 5.5 1 l 1
 6 1 l 1
 6 2.5 l 1
 6 4 l 1
 5.5 4 l 1
 5 4 l 1
 5 4.5 l 1
 5 5 l 1
 5.5 5 l 1
 6 5 l 1
 6 5.5 l 1
 6 6 l 1
 6.5 6 l 1
 7 6 l 1
 7 3.5 l 1
 7 1 l 1
 6.5 1 l 1
 6 1 l 1
 6 0.5 l 1
 6 -0 l 1
 5.5 -0 l 1
 5 -0 l 1
 5 -0.5 l 1
 5 -1 l 1
 3.5 -1 l 1
 2 -1 l 1
 2 -0.5 l 1
 2 -0 l 1
 1.5 -0 l 1
 1 -0 l 1
 1 0.5 l 1
 1 1 l 1
 0.5 1 l 1
 0 1 l 1
 0 3.5 l 1
 0 6 l 1
 0.5 6 l 1
 1 6 l 1
 1 6.5 l 1
5 4 m 1
 5 3.5 l 1
 5 3 l 1
 3.5 3 l 1
 2 3 l 1
 2 3.5 l 1
 2 4 l 1
 3.5 4 l 1
 5 4 l 1
EndSplineSet
EndChar

StartChar: glyph2705
Encoding: 127993 127993 2705
Width: 7
VWidth: 0
Flags: HMW
LayerCount: 2
Back
Fore
SplineSet
4 5 m 1
 4 6 l 1
 3.5 6 l 1
 3 6 l 1
 3 5.5 l 1
 3 5 l 1
 2.5 5 l 1
 2 5 l 1
 2 4.5 l 1
 2 4 l 1
 3 4 l 1
 4 4 l 1
 4 5 l 1
3 6.5 m 1
 3 7 l 1
 4 7 l 1
 5 7 l 1
 5 6 l 1
 5 5 l 1
 5.5 5 l 1
 6 5 l 1
 6 3.5 l 1
 6 2 l 1
 4.5 2 l 1
 3 2 l 1
 3 2.5 l 1
 3 3 l 1
 2 3 l 1
 1 3 l 1
 1 4 l 1
 1 5 l 1
 1.5 5 l 1
 2 5 l 1
 2 5.5 l 1
 2 6 l 1
 2.5 6 l 1
 3 6 l 1
 3 6.5 l 1
4 4 m 1
 4 3.5 l 1
 4 3 l 1
 4.5 3 l 1
 5 3 l 1
 5 3.5 l 1
 5 4 l 1
 4.5 4 l 1
 4 4 l 1
1 -0 m 1
 1 0.5 l 1
 1 1 l 1
 1.5 1 l 1
 2 1 l 1
 2 1.5 l 1
 2 2 l 1
 2.5 2 l 1
 3 2 l 1
 3 1.5 l 1
 3 1 l 1
 2.5 1 l 1
 2 1 l 1
 2 0.5 l 1
 2 -0 l 1
 1.5 -0 l 1
 1 -0 l 1
1 -0 m 1
 1 -0.5 l 1
 1 -1 l 1
 0.5 -1 l 1
 0 -1 l 1
 0 -0.5 l 1
 0 -0 l 1
 0.5 -0 l 1
 1 -0 l 1
EndSplineSet
EndChar

StartChar: glyph2706
Encoding: 128276 128276 2706
Width: 6
VWidth: 0
Flags: HMW
LayerCount: 2
Back
Fore
SplineSet
1 6.5 m 1
 1 7 l 1
 2.5 7 l 1
 4 7 l 1
 4 6.5 l 1
 4 6 l 1
 2.5 6 l 1
 1 6 l 1
 1 6.5 l 1
1 3 m 1
 0.5 3 l 1
 0 3 l 1
 0 4.5 l 1
 0 6 l 1
 0.5 6 l 1
 1 6 l 1
 1 4.5 l 1
 1 3 l 1
1 3 m 1
 1.5 3 l 1
 2 3 l 1
 2 4 l 1
 2 5 l 1
 3.5 5 l 1
 5 5 l 1
 5 4.5 l 1
 5 4 l 1
 4 4 l 1
 3 4 l 1
 3 3.5 l 1
 3 3 l 1
 3.5 3 l 1
 4 3 l 1
 4 2.5 l 1
 4 2 l 1
 3.5 2 l 1
 3 2 l 1
 3 1.5 l 1
 3 1 l 1
 4 1 l 1
 5 1 l 1
 5 0.5 l 1
 5 -0 l 1
 3.5 -0 l 1
 2 -0 l 1
 2 1 l 1
 2 2 l 1
 1.5 2 l 1
 1 2 l 1
 1 2.5 l 1
 1 3 l 1
EndSplineSet
EndChar

StartChar: glyph2707
Encoding: 128305 128305 2707
Width: 8
VWidth: 0
Flags: HMW
LayerCount: 2
Back
Fore
SplineSet
6 5.5 m 1
 6 6 l 1
 5 6 l 1
 4 6 l 1
 4 5.5 l 1
 4 5 l 1
 3.5 5 l 1
 3 5 l 1
 3 4.5 l 1
 3 4 l 1
 2.5 4 l 1
 2 4 l 1
 2 3.5 l 1
 2 3 l 1
 1.5 3 l 1
 1 3 l 1
 1 2.5 l 1
 1 2 l 1
 3.5 2 l 1
 6 2 l 1
 6 2.5 l 1
 6 3 l 1
 5.5 3 l 1
 5 3 l 1
 5 4 l 1
 5 5 l 1
 5.5 5 l 1
 6 5 l 1
 6 5.5 l 1
4 6.5 m 1
 4 7 l 1
 5.5 7 l 1
 7 7 l 1
 7 5.5 l 1
 7 4 l 1
 6.5 4 l 1
 6 4 l 1
 6 3.5 l 1
 6 3 l 1
 6.5 3 l 1
 7 3 l 1
 7 2 l 1
 7 1 l 1
 6.5 1 l 1
 6 1 l 1
 6 0.5 l 1
 6 -0 l 1
 5.5 -0 l 1
 5 -0 l 1
 5 -0.5 l 1
 5 -1 l 1
 3.5 -1 l 1
 2 -1 l 1
 2 -0.5 l 1
 2 -0 l 1
 1.5 -0 l 1
 1 -0 l 1
 1 0.5 l 1
 1 1 l 1
 0.5 1 l 1
 0 1 l 1
 0 2 l 1
 0 3 l 1
 0.5 3 l 1
 1 3 l 1
 1 3.5 l 1
 1 4 l 1
 1.5 4 l 1
 2 4 l 1
 2 4.5 l 1
 2 5 l 1
 2.5 5 l 1
 3 5 l 1
 3 5.5 l 1
 3 6 l 1
 3.5 6 l 1
 4 6 l 1
 4 6.5 l 1
EndSplineSet
EndChar

StartChar: glyph2708
Encoding: 128481 128481 2708
Width: 9
VWidth: 0
Flags: HMW
LayerCount: 2
Back
Fore
SplineSet
7 5.5 m 1
 7 6 l 1
 6.5 6 l 1
 6 6 l 1
 6 5.5 l 1
 6 5 l 1
 6.5 5 l 1
 7 5 l 1
 7 5.5 l 1
6 6.5 m 1
 6 7 l 1
 7 7 l 1
 8 7 l 1
 8 6 l 1
 8 5 l 1
 7.5 5 l 1
 7 5 l 1
 7 4.5 l 1
 7 4 l 1
 6.5 4 l 1
 6 4 l 1
 6 4.5 l 1
 6 5 l 1
 5.5 5 l 1
 5 5 l 1
 5 4.5 l 1
 5 4 l 1
 5.5 4 l 1
 6 4 l 1
 6 3.5 l 1
 6 3 l 1
 5.5 3 l 1
 5 3 l 1
 5 3.5 l 1
 5 4 l 1
 4.5 4 l 1
 4 4 l 1
 4 3.5 l 1
 4 3 l 1
 4.5 3 l 1
 5 3 l 1
 5 2.5 l 1
 5 2 l 1
 4.5 2 l 1
 4 2 l 1
 4 2.5 l 1
 4 3 l 1
 3.5 3 l 1
 3 3 l 1
 3 2.5 l 1
 3 2 l 1
 3.5 2 l 1
 4 2 l 1
 4 1.5 l 1
 4 1 l 1
 3 1 l 1
 2 1 l 1
 2 2 l 1
 2 3 l 1
 2.5 3 l 1
 3 3 l 1
 3 3.5 l 1
 3 4 l 1
 3.5 4 l 1
 4 4 l 1
 4 4.5 l 1
 4 5 l 1
 4.5 5 l 1
 5 5 l 1
 5 5.5 l 1
 5 6 l 1
 5.5 6 l 1
 6 6 l 1
 6 6.5 l 1
2 3 m 1
 1.5 3 l 1
 1 3 l 1
 1 3.5 l 1
 1 4 l 1
 1.5 4 l 1
 2 4 l 1
 2 3.5 l 1
 2 3 l 1
1 -0 m 1
 1 0.5 l 1
 1 1 l 1
 1.5 1 l 1
 2 1 l 1
 2 0.5 l 1
 2 -0 l 1
 1.5 -0 l 1
 1 -0 l 1
1 -0 m 1
 1 -0.5 l 1
 1 -1 l 1
 0.5 -1 l 1
 0 -1 l 1
 0 -0.5 l 1
 0 -0 l 1
 0.5 -0 l 1
 1 -0 l 1
4 1 m 1
 4.5 1 l 1
 5 1 l 1
 5 0.5 l 1
 5 -0 l 1
 4.5 -0 l 1
 4 -0 l 1
 4 0.5 l 1
 4 1 l 1
EndSplineSet
EndChar

StartChar: glyph2709
Encoding: 128737 128737 2709
Width: 8
VWidth: 0
Flags: HMW
LayerCount: 2
Back
Fore
SplineSet
3 6.5 m 1
 3 7 l 1
 3.5 7 l 1
 4 7 l 1
 4 6.5 l 1
 4 6 l 1
 5 6 l 1
 6 6 l 1
 6 5.5 l 1
 6 5 l 1
 6.5 5 l 1
 7 5 l 1
 7 4 l 1
 7 3 l 1
 6.5 3 l 1
 6 3 l 1
 6 2 l 1
 6 1 l 1
 5.5 1 l 1
 5 1 l 1
 5 0.5 l 1
 5 -0 l 1
 4.5 -0 l 1
 4 -0 l 1
 4 -0.5 l 1
 4 -1 l 1
 3.5 -1 l 1
 3 -1 l 1
 3 -0.5 l 1
 3 -0 l 1
 2.5 -0 l 1
 2 -0 l 1
 2 0.5 l 1
 2 1 l 1
 1.5 1 l 1
 1 1 l 1
 1 2 l 1
 1 3 l 1
 0.5 3 l 1
 0 3 l 1
 0 4 l 1
 0 5 l 1
 0.5 5 l 1
 1 5 l 1
 1 5.5 l 1
 1 6 l 1
 2 6 l 1
 3 6 l 1
 3 6.5 l 1
EndSplineSet
EndChar

StartChar: glyph2710
Encoding: 503 503 2710
Width: 6
VWidth: 0
Flags: HMW
LayerCount: 2
Back
Fore
SplineSet
0 3 m 1
 0 7 l 1
 0.5 7 l 1
 1 7 l 1
 1 6.5 l 1
 1 6 l 1
 1.5 6 l 1
 2 6 l 1
 2 5.5 l 1
 2 5 l 1
 1.5 5 l 1
 1 5 l 1
 1 3.5 l 1
 1 2 l 1
 1.5 2 l 1
 2 2 l 1
 2 2.5 l 1
 2 3 l 1
 2.5 3 l 1
 3 3 l 1
 3 3.5 l 1
 3 4 l 1
 3.5 4 l 1
 4 4 l 1
 4 5 l 1
 4 6 l 1
 3 6 l 1
 2 6 l 1
 2 6.5 l 1
 2 7 l 1
 3 7 l 1
 4 7 l 1
 4 6.5 l 1
 4 6 l 1
 4.5 6 l 1
 5 6 l 1
 5 5 l 1
 5 4 l 1
 4.5 4 l 1
 4 4 l 1
 4 3.5 l 1
 4 3 l 1
 3.5 3 l 1
 3 3 l 1
 3 2.5 l 1
 3 2 l 1
 2.5 2 l 1
 2 2 l 1
 2 1.5 l 1
 2 1 l 1
 1.5 1 l 1
 1 1 l 1
 1 -0 l 1
 1 -1 l 1
 0.5 -1 l 1
 0 -1 l 1
 0 3 l 1
EndSplineSet
EndChar

StartChar: glyph2711
Encoding: 129683 129683 2711
Width: 9
VWidth: 0
Flags: HMW
LayerCount: 2
Back
Fore
SplineSet
7 6.5 m 1
 7 7 l 1
 7.5 7 l 1
 8 7 l 1
 8 4.5 l 1
 8 2 l 1
 7.5 2 l 1
 7 2 l 1
 7 3.5 l 1
 7 5 l 1
 6.5 5 l 1
 6 5 l 1
 6 5.5 l 1
 6 6 l 1
 6.5 6 l 1
 7 6 l 1
 7 6.5 l 1
1 -0 m 1
 1 0.5 l 1
 1 1 l 1
 1.5 1 l 1
 2 1 l 1
 2 1.5 l 1
 2 2 l 1
 2.5 2 l 1
 3 2 l 1
 3 2.5 l 1
 3 3 l 1
 3.5 3 l 1
 4 3 l 1
 4 3.5 l 1
 4 4 l 1
 4.5 4 l 1
 5 4 l 1
 5 4.5 l 1
 5 5 l 1
 5.5 5 l 1
 6 5 l 1
 6 4.5 l 1
 6 4 l 1
 5.5 4 l 1
 5 4 l 1
 5 3.5 l 1
 5 3 l 1
 4.5 3 l 1
 4 3 l 1
 4 2.5 l 1
 4 2 l 1
 3.5 2 l 1
 3 2 l 1
 3 1 l 1
 3 -0 l 1
 2 -0 l 1
 1 -0 l 1
1 -0 m 1
 1 -0.5 l 1
 1 -1 l 1
 0.5 -1 l 1
 0 -1 l 1
 0 -0.5 l 1
 0 -0 l 1
 0.5 -0 l 1
 1 -0 l 1
6 -0 m 1
 6 1 l 1
 6 2 l 1
 6.5 2 l 1
 7 2 l 1
 7 1 l 1
 7 -0 l 1
 6.5 -0 l 1
 6 -0 l 1
6 -0 m 1
 6 -0.5 l 1
 6 -1 l 1
 5 -1 l 1
 4 -1 l 1
 4 -0 l 1
 4 1 l 1
 4.5 1 l 1
 5 1 l 1
 5 0.5 l 1
 5 -0 l 1
 5.5 -0 l 1
 6 -0 l 1
EndSplineSet
EndChar

StartChar: glyph2712
Encoding: 129699 129699 2712
Width: 8
VWidth: 0
Flags: HMW
LayerCount: 2
Back
Fore
SplineSet
5 5 m 1
 5 6 l 1
 3.5 6 l 1
 2 6 l 1
 2 5 l 1
 2 4 l 1
 2.5 4 l 1
 3 4 l 1
 3 3.5 l 1
 3 3 l 1
 3.5 3 l 1
 4 3 l 1
 4 3.5 l 1
 4 4 l 1
 4.5 4 l 1
 5 4 l 1
 5 5 l 1
0 6.5 m 1
 0 7 l 1
 3.5 7 l 1
 7 7 l 1
 7 6.5 l 1
 7 6 l 1
 6.5 6 l 1
 6 6 l 1
 6 5 l 1
 6 4 l 1
 5.5 4 l 1
 5 4 l 1
 5 3.5 l 1
 5 3 l 1
 4.5 3 l 1
 4 3 l 1
 4 2.5 l 1
 4 2 l 1
 4.5 2 l 1
 5 2 l 1
 5 2.5 l 1
 5 3 l 1
 5.5 3 l 1
 6 3 l 1
 6 2 l 1
 6 1 l 1
 6.5 1 l 1
 7 1 l 1
 7 0.5 l 1
 7 -0 l 1
 3.5 -0 l 1
 0 -0 l 1
 0 0.5 l 1
 0 1 l 1
 0.5 1 l 1
 1 1 l 1
 1 2 l 1
 1 3 l 1
 1.5 3 l 1
 2 3 l 1
 2 2.5 l 1
 2 2 l 1
 2.5 2 l 1
 3 2 l 1
 3 2.5 l 1
 3 3 l 1
 2.5 3 l 1
 2 3 l 1
 2 3.5 l 1
 2 4 l 1
 1.5 4 l 1
 1 4 l 1
 1 5 l 1
 1 6 l 1
 0.5 6 l 1
 0 6 l 1
 0 6.5 l 1
3 4.5 m 1
 3 5 l 1
 3.5 5 l 1
 4 5 l 1
 4 4.5 l 1
 4 4 l 1
 3.5 4 l 1
 3 4 l 1
 3 4.5 l 1
EndSplineSet
EndChar

StartChar: glyph2714
Encoding: 8208 8208 2714
Width: 4
VWidth: 0
Flags: HMW
LayerCount: 2
Back
Fore
SplineSet
0 3.5 m 1
 0 4 l 1
 1.5 4 l 1
 3 4 l 1
 3 3.5 l 1
 3 3 l 1
 1.5 3 l 1
 0 3 l 1
 0 3.5 l 1
EndSplineSet
EndChar

StartChar: glyph2715
Encoding: 8209 8209 2715
Width: 4
VWidth: 0
Flags: HMW
LayerCount: 2
Back
Fore
SplineSet
0 3.5 m 1
 0 4 l 1
 1.5 4 l 1
 3 4 l 1
 3 3.5 l 1
 3 3 l 1
 1.5 3 l 1
 0 3 l 1
 0 3.5 l 1
EndSplineSet
EndChar

StartChar: glyph2716
Encoding: 8211 8211 2716
Width: 7
VWidth: 0
Flags: HMW
LayerCount: 2
Back
Fore
SplineSet
0 3.5 m 1
 0 4 l 1
 3 4 l 1
 6 4 l 1
 6 3.5 l 1
 6 3 l 1
 3 3 l 1
 0 3 l 1
 0 3.5 l 1
EndSplineSet
EndChar

StartChar: glyph2717
Encoding: 8212 8212 2717
Width: 9
VWidth: 0
Flags: HMW
LayerCount: 2
Back
Fore
SplineSet
0 3.5 m 1
 0 4 l 1
 4 4 l 1
 8 4 l 1
 8 3.5 l 1
 8 3 l 1
 4 3 l 1
 0 3 l 1
 0 3.5 l 1
EndSplineSet
EndChar

StartChar: glyph2718
Encoding: 8216 8216 2718
Width: 3
VWidth: 0
Flags: HMW
LayerCount: 2
Back
Fore
SplineSet
1 6.5 m 1
 1 7 l 1
 1.5 7 l 1
 2 7 l 1
 2 6.5 l 1
 2 6 l 1
 1.5 6 l 1
 1 6 l 1
 1 6.5 l 1
1 6 m 1
 1 5 l 1
 1 4 l 1
 0.5 4 l 1
 0 4 l 1
 0 5 l 1
 0 6 l 1
 0.5 6 l 1
 1 6 l 1
EndSplineSet
EndChar

StartChar: glyph2719
Encoding: 8217 8217 2719
Width: 3
VWidth: 0
Flags: HMW
LayerCount: 2
Back
Fore
SplineSet
1 6 m 1
 1 7 l 1
 1.5 7 l 1
 2 7 l 1
 2 6 l 1
 2 5 l 1
 1.5 5 l 1
 1 5 l 1
 1 6 l 1
1 5 m 1
 1 4.5 l 1
 1 4 l 1
 0.5 4 l 1
 0 4 l 1
 0 4.5 l 1
 0 5 l 1
 0.5 5 l 1
 1 5 l 1
EndSplineSet
EndChar

StartChar: glyph2720
Encoding: 8218 8218 2720
Width: 3
VWidth: 0
Flags: HMW
LayerCount: 2
Back
Fore
SplineSet
1 1 m 1
 1 2 l 1
 1.5 2 l 1
 2 2 l 1
 2 1 l 1
 2 -0 l 1
 1.5 -0 l 1
 1 -0 l 1
 1 1 l 1
1 -0 m 1
 1 -0.5 l 1
 1 -1 l 1
 0.5 -1 l 1
 0 -1 l 1
 0 -0.5 l 1
 0 -0 l 1
 0.5 -0 l 1
 1 -0 l 1
EndSplineSet
EndChar

StartChar: glyph2721
Encoding: 8220 8220 2721
Width: 5
VWidth: 0
Flags: HMW
LayerCount: 2
Back
Fore
SplineSet
1 6.5 m 1
 1 7 l 1
 1.5 7 l 1
 2 7 l 1
 2 6.5 l 1
 2 6 l 1
 1.5 6 l 1
 1 6 l 1
 1 6.5 l 1
1 6 m 1
 1 5 l 1
 1 4 l 1
 0.5 4 l 1
 0 4 l 1
 0 5 l 1
 0 6 l 1
 0.5 6 l 1
 1 6 l 1
3 6 m 1
 3 5 l 1
 3 4 l 1
 2.5 4 l 1
 2 4 l 1
 2 5 l 1
 2 6 l 1
 2.5 6 l 1
 3 6 l 1
3 6 m 1
 3 6.5 l 1
 3 7 l 1
 3.5 7 l 1
 4 7 l 1
 4 6.5 l 1
 4 6 l 1
 3.5 6 l 1
 3 6 l 1
EndSplineSet
EndChar

StartChar: glyph2722
Encoding: 8221 8221 2722
Width: 5
VWidth: 0
Flags: HMW
LayerCount: 2
Back
Fore
SplineSet
1 6 m 1
 1 7 l 1
 1.5 7 l 1
 2 7 l 1
 2 6 l 1
 2 5 l 1
 1.5 5 l 1
 1 5 l 1
 1 6 l 1
1 5 m 1
 1 4.5 l 1
 1 4 l 1
 0.5 4 l 1
 0 4 l 1
 0 4.5 l 1
 0 5 l 1
 0.5 5 l 1
 1 5 l 1
3 5 m 1
 3 4.5 l 1
 3 4 l 1
 2.5 4 l 1
 2 4 l 1
 2 4.5 l 1
 2 5 l 1
 2.5 5 l 1
 3 5 l 1
3 5 m 1
 3 6 l 1
 3 7 l 1
 3.5 7 l 1
 4 7 l 1
 4 6 l 1
 4 5 l 1
 3.5 5 l 1
 3 5 l 1
EndSplineSet
EndChar

StartChar: glyph2723
Encoding: 8222 8222 2723
Width: 5
VWidth: 0
Flags: HMW
LayerCount: 2
Back
Fore
SplineSet
1 1 m 1
 1 2 l 1
 1.5 2 l 1
 2 2 l 1
 2 1 l 1
 2 -0 l 1
 1.5 -0 l 1
 1 -0 l 1
 1 1 l 1
1 -0 m 1
 1 -0.5 l 1
 1 -1 l 1
 0.5 -1 l 1
 0 -1 l 1
 0 -0.5 l 1
 0 -0 l 1
 0.5 -0 l 1
 1 -0 l 1
3 -0 m 1
 3 -0.5 l 1
 3 -1 l 1
 2.5 -1 l 1
 2 -1 l 1
 2 -0.5 l 1
 2 -0 l 1
 2.5 -0 l 1
 3 -0 l 1
3 -0 m 1
 3 1 l 1
 3 2 l 1
 3.5 2 l 1
 4 2 l 1
 4 1 l 1
 4 -0 l 1
 3.5 -0 l 1
 3 -0 l 1
EndSplineSet
EndChar

StartChar: glyph2724
Encoding: 8224 8224 2724
Width: 6
VWidth: 0
Flags: HMW
LayerCount: 2
Back
Fore
SplineSet
2 6 m 1
 2 7 l 1
 2.5 7 l 1
 3 7 l 1
 3 6 l 1
 3 5 l 1
 4 5 l 1
 5 5 l 1
 5 4.5 l 1
 5 4 l 1
 4 4 l 1
 3 4 l 1
 3 2 l 1
 3 -0 l 1
 2.5 -0 l 1
 2 -0 l 1
 2 2 l 1
 2 4 l 1
 1 4 l 1
 0 4 l 1
 0 4.5 l 1
 0 5 l 1
 1 5 l 1
 2 5 l 1
 2 6 l 1
EndSplineSet
EndChar

StartChar: glyph2725
Encoding: 8225 8225 2725
Width: 6
VWidth: 0
Flags: HMW
LayerCount: 2
Back
Fore
SplineSet
2 6 m 1
 2 7 l 1
 2.5 7 l 1
 3 7 l 1
 3 6 l 1
 3 5 l 1
 4 5 l 1
 5 5 l 1
 5 4.5 l 1
 5 4 l 1
 4 4 l 1
 3 4 l 1
 3 3.5 l 1
 3 3 l 1
 4 3 l 1
 5 3 l 1
 5 2.5 l 1
 5 2 l 1
 4 2 l 1
 3 2 l 1
 3 1 l 1
 3 -0 l 1
 2.5 -0 l 1
 2 -0 l 1
 2 1 l 1
 2 2 l 1
 1 2 l 1
 0 2 l 1
 0 2.5 l 1
 0 3 l 1
 1 3 l 1
 2 3 l 1
 2 3.5 l 1
 2 4 l 1
 1 4 l 1
 0 4 l 1
 0 4.5 l 1
 0 5 l 1
 1 5 l 1
 2 5 l 1
 2 6 l 1
EndSplineSet
EndChar

StartChar: glyph2726
Encoding: 8226 8226 2726
Width: 3
VWidth: 0
Flags: HMW
LayerCount: 2
Back
Fore
SplineSet
0 3 m 1
 0 4 l 1
 1 4 l 1
 2 4 l 1
 2 3 l 1
 2 2 l 1
 1 2 l 1
 0 2 l 1
 0 3 l 1
EndSplineSet
EndChar

StartChar: glyph2727
Encoding: 8230 8230 2727
Width: 8
VWidth: 0
Flags: HMW
LayerCount: 2
Back
Fore
SplineSet
0 0.5 m 1
 0 1 l 1
 0.5 1 l 1
 1 1 l 1
 1 0.5 l 1
 1 -0 l 1
 0.5 -0 l 1
 0 -0 l 1
 0 0.5 l 1
3 0.5 m 1
 3 1 l 1
 3.5 1 l 1
 4 1 l 1
 4 0.5 l 1
 4 -0 l 1
 3.5 -0 l 1
 3 -0 l 1
 3 0.5 l 1
6 0.5 m 1
 6 1 l 1
 6.5 1 l 1
 7 1 l 1
 7 0.5 l 1
 7 -0 l 1
 6.5 -0 l 1
 6 -0 l 1
 6 0.5 l 1
EndSplineSet
EndChar

StartChar: glyph2728
Encoding: 8240 8240 2728
Width: 8
VWidth: 0
Flags: HMW
LayerCount: 2
Back
Fore
SplineSet
0 6 m 1
 0 7 l 1
 0.5 7 l 1
 1 7 l 1
 1 6 l 1
 1 5 l 1
 0.5 5 l 1
 0 5 l 1
 0 6 l 1
4 6.5 m 1
 4 7 l 1
 4.5 7 l 1
 5 7 l 1
 5 6.5 l 1
 5 6 l 1
 4.5 6 l 1
 4 6 l 1
 4 6.5 l 1
4 1 m 1
 4 2 l 1
 4.5 2 l 1
 5 2 l 1
 5 1 l 1
 5 -0 l 1
 4.5 -0 l 1
 4 -0 l 1
 4 1 l 1
6 1 m 1
 6 2 l 1
 6.5 2 l 1
 7 2 l 1
 7 1 l 1
 7 -0 l 1
 6.5 -0 l 1
 6 -0 l 1
 6 1 l 1
1 1 m 1
 1 2 l 1
 1 3 l 1
 1.5 3 l 1
 2 3 l 1
 2 3.5 l 1
 2 4 l 1
 2.5 4 l 1
 3 4 l 1
 3 5 l 1
 3 6 l 1
 3.5 6 l 1
 4 6 l 1
 4 5 l 1
 4 4 l 1
 3.5 4 l 1
 3 4 l 1
 3 3.5 l 1
 3 3 l 1
 2.5 3 l 1
 2 3 l 1
 2 2 l 1
 2 1 l 1
 1.5 1 l 1
 1 1 l 1
1 1 m 1
 1 0.5 l 1
 1 -0 l 1
 0.5 -0 l 1
 0 -0 l 1
 0 0.5 l 1
 0 1 l 1
 0.5 1 l 1
 1 1 l 1
EndSplineSet
EndChar

StartChar: glyph2729
Encoding: 8241 8241 2729
Width: 9
VWidth: 0
Flags: HMW
LayerCount: 2
Back
Fore
SplineSet
0 6 m 1
 0 7 l 1
 0.5 7 l 1
 1 7 l 1
 1 6 l 1
 1 5 l 1
 0.5 5 l 1
 0 5 l 1
 0 6 l 1
4 6.5 m 1
 4 7 l 1
 4.5 7 l 1
 5 7 l 1
 5 6.5 l 1
 5 6 l 1
 4.5 6 l 1
 4 6 l 1
 4 6.5 l 1
3 1 m 1
 3 2 l 1
 3.5 2 l 1
 4 2 l 1
 4 1 l 1
 4 -0 l 1
 3.5 -0 l 1
 3 -0 l 1
 3 1 l 1
5 1 m 1
 5 2 l 1
 5.5 2 l 1
 6 2 l 1
 6 1 l 1
 6 -0 l 1
 5.5 -0 l 1
 5 -0 l 1
 5 1 l 1
7 1 m 1
 7 2 l 1
 7.5 2 l 1
 8 2 l 1
 8 1 l 1
 8 -0 l 1
 7.5 -0 l 1
 7 -0 l 1
 7 1 l 1
1 1 m 1
 1 2 l 1
 1 3 l 1
 1.5 3 l 1
 2 3 l 1
 2 3.5 l 1
 2 4 l 1
 2.5 4 l 1
 3 4 l 1
 3 5 l 1
 3 6 l 1
 3.5 6 l 1
 4 6 l 1
 4 5 l 1
 4 4 l 1
 3.5 4 l 1
 3 4 l 1
 3 3.5 l 1
 3 3 l 1
 2.5 3 l 1
 2 3 l 1
 2 2 l 1
 2 1 l 1
 1.5 1 l 1
 1 1 l 1
1 1 m 1
 1 0.5 l 1
 1 -0 l 1
 0.5 -0 l 1
 0 -0 l 1
 0 0.5 l 1
 0 1 l 1
 0.5 1 l 1
 1 1 l 1
EndSplineSet
EndChar

StartChar: glyph2730
Encoding: 8242 8242 2730
Width: 3
VWidth: 0
Flags: HMW
LayerCount: 2
Back
Fore
SplineSet
1 6.5 m 1
 1 7 l 1
 1.5 7 l 1
 2 7 l 1
 2 6.5 l 1
 2 6 l 1
 1.5 6 l 1
 1 6 l 1
 1 6.5 l 1
1 6 m 1
 1 5.5 l 1
 1 5 l 1
 0.5 5 l 1
 0 5 l 1
 0 5.5 l 1
 0 6 l 1
 0.5 6 l 1
 1 6 l 1
EndSplineSet
EndChar

StartChar: glyph2731
Encoding: 8243 8243 2731
Width: 5
VWidth: 0
Flags: HMW
LayerCount: 2
Back
Fore
SplineSet
1 6.5 m 1
 1 7 l 1
 1.5 7 l 1
 2 7 l 1
 2 6.5 l 1
 2 6 l 1
 1.5 6 l 1
 1 6 l 1
 1 6.5 l 1
1 6 m 1
 1 5.5 l 1
 1 5 l 1
 0.5 5 l 1
 0 5 l 1
 0 5.5 l 1
 0 6 l 1
 0.5 6 l 1
 1 6 l 1
3 6 m 1
 3 5.5 l 1
 3 5 l 1
 2.5 5 l 1
 2 5 l 1
 2 5.5 l 1
 2 6 l 1
 2.5 6 l 1
 3 6 l 1
3 6 m 1
 3 6.5 l 1
 3 7 l 1
 3.5 7 l 1
 4 7 l 1
 4 6.5 l 1
 4 6 l 1
 3.5 6 l 1
 3 6 l 1
EndSplineSet
EndChar

StartChar: glyph2732
Encoding: 8244 8244 2732
Width: 7
VWidth: 0
Flags: HMW
LayerCount: 2
Back
Fore
SplineSet
1 6.5 m 1
 1 7 l 1
 1.5 7 l 1
 2 7 l 1
 2 6.5 l 1
 2 6 l 1
 1.5 6 l 1
 1 6 l 1
 1 6.5 l 1
1 6 m 1
 1 5.5 l 1
 1 5 l 1
 0.5 5 l 1
 0 5 l 1
 0 5.5 l 1
 0 6 l 1
 0.5 6 l 1
 1 6 l 1
5 6 m 1
 5 5.5 l 1
 5 5 l 1
 4.5 5 l 1
 4 5 l 1
 4 5.5 l 1
 4 6 l 1
 3.5 6 l 1
 3 6 l 1
 3 5.5 l 1
 3 5 l 1
 2.5 5 l 1
 2 5 l 1
 2 5.5 l 1
 2 6 l 1
 2.5 6 l 1
 3 6 l 1
 3 6.5 l 1
 3 7 l 1
 3.5 7 l 1
 4 7 l 1
 4 6.5 l 1
 4 6 l 1
 4.5 6 l 1
 5 6 l 1
5 6 m 1
 5 6.5 l 1
 5 7 l 1
 5.5 7 l 1
 6 7 l 1
 6 6.5 l 1
 6 6 l 1
 5.5 6 l 1
 5 6 l 1
EndSplineSet
EndChar

StartChar: glyph2733
Encoding: 8245 8245 2733
Width: 3
VWidth: 0
Flags: HMW
LayerCount: 2
Back
Fore
SplineSet
0 6.5 m 1
 0 7 l 1
 0.5 7 l 1
 1 7 l 1
 1 6.5 l 1
 1 6 l 1
 0.5 6 l 1
 0 6 l 1
 0 6.5 l 1
1 6 m 1
 1.5 6 l 1
 2 6 l 1
 2 5.5 l 1
 2 5 l 1
 1.5 5 l 1
 1 5 l 1
 1 5.5 l 1
 1 6 l 1
EndSplineSet
EndChar

StartChar: glyph2734
Encoding: 8246 8246 2734
Width: 5
VWidth: 0
Flags: HMW
LayerCount: 2
Back
Fore
SplineSet
0 6.5 m 1
 0 7 l 1
 0.5 7 l 1
 1 7 l 1
 1 6.5 l 1
 1 6 l 1
 0.5 6 l 1
 0 6 l 1
 0 6.5 l 1
3 6 m 1
 2.5 6 l 1
 2 6 l 1
 2 5.5 l 1
 2 5 l 1
 1.5 5 l 1
 1 5 l 1
 1 5.5 l 1
 1 6 l 1
 1.5 6 l 1
 2 6 l 1
 2 6.5 l 1
 2 7 l 1
 2.5 7 l 1
 3 7 l 1
 3 6.5 l 1
 3 6 l 1
3 6 m 1
 3.5 6 l 1
 4 6 l 1
 4 5.5 l 1
 4 5 l 1
 3.5 5 l 1
 3 5 l 1
 3 5.5 l 1
 3 6 l 1
EndSplineSet
EndChar

StartChar: glyph2735
Encoding: 8247 8247 2735
Width: 7
VWidth: 0
Flags: HMW
LayerCount: 2
Back
Fore
SplineSet
0 6.5 m 1
 0 7 l 1
 0.5 7 l 1
 1 7 l 1
 1 6.5 l 1
 1 6 l 1
 0.5 6 l 1
 0 6 l 1
 0 6.5 l 1
5 6 m 1
 4.5 6 l 1
 4 6 l 1
 4 5.5 l 1
 4 5 l 1
 3.5 5 l 1
 3 5 l 1
 3 5.5 l 1
 3 6 l 1
 2.5 6 l 1
 2 6 l 1
 2 5.5 l 1
 2 5 l 1
 1.5 5 l 1
 1 5 l 1
 1 5.5 l 1
 1 6 l 1
 1.5 6 l 1
 2 6 l 1
 2 6.5 l 1
 2 7 l 1
 2.5 7 l 1
 3 7 l 1
 3 6.5 l 1
 3 6 l 1
 3.5 6 l 1
 4 6 l 1
 4 6.5 l 1
 4 7 l 1
 4.5 7 l 1
 5 7 l 1
 5 6.5 l 1
 5 6 l 1
5 6 m 1
 5.5 6 l 1
 6 6 l 1
 6 5.5 l 1
 6 5 l 1
 5.5 5 l 1
 5 5 l 1
 5 5.5 l 1
 5 6 l 1
EndSplineSet
EndChar

StartChar: glyph2736
Encoding: 8249 8249 2736
Width: 4
VWidth: 0
Flags: HMW
LayerCount: 2
Back
Fore
SplineSet
2 5.5 m 1
 2 6 l 1
 2.5 6 l 1
 3 6 l 1
 3 5.5 l 1
 3 5 l 1
 2.5 5 l 1
 2 5 l 1
 2 5.5 l 1
2 2 m 1
 1.5 2 l 1
 1 2 l 1
 1 2.5 l 1
 1 3 l 1
 0.5 3 l 1
 0 3 l 1
 0 3.5 l 1
 0 4 l 1
 0.5 4 l 1
 1 4 l 1
 1 4.5 l 1
 1 5 l 1
 1.5 5 l 1
 2 5 l 1
 2 4.5 l 1
 2 4 l 1
 1.5 4 l 1
 1 4 l 1
 1 3.5 l 1
 1 3 l 1
 1.5 3 l 1
 2 3 l 1
 2 2.5 l 1
 2 2 l 1
2 2 m 1
 2.5 2 l 1
 3 2 l 1
 3 1.5 l 1
 3 1 l 1
 2.5 1 l 1
 2 1 l 1
 2 1.5 l 1
 2 2 l 1
EndSplineSet
EndChar

StartChar: glyph2737
Encoding: 8250 8250 2737
Width: 4
VWidth: 0
Flags: HMW
LayerCount: 2
Back
Fore
SplineSet
0 5.5 m 1
 0 6 l 1
 0.5 6 l 1
 1 6 l 1
 1 5.5 l 1
 1 5 l 1
 0.5 5 l 1
 0 5 l 1
 0 5.5 l 1
1 2 m 1
 1 2.5 l 1
 1 3 l 1
 1.5 3 l 1
 2 3 l 1
 2 3.5 l 1
 2 4 l 1
 1.5 4 l 1
 1 4 l 1
 1 4.5 l 1
 1 5 l 1
 1.5 5 l 1
 2 5 l 1
 2 4.5 l 1
 2 4 l 1
 2.5 4 l 1
 3 4 l 1
 3 3.5 l 1
 3 3 l 1
 2.5 3 l 1
 2 3 l 1
 2 2.5 l 1
 2 2 l 1
 1.5 2 l 1
 1 2 l 1
1 2 m 1
 1 1.5 l 1
 1 1 l 1
 0.5 1 l 1
 0 1 l 1
 0 1.5 l 1
 0 2 l 1
 0.5 2 l 1
 1 2 l 1
EndSplineSet
EndChar

StartChar: glyph2738
Encoding: 8251 8251 2738
Width: 8
VWidth: 0
Flags: HMW
LayerCount: 2
Back
Fore
SplineSet
0 6.5 m 1
 0 7 l 1
 0.5 7 l 1
 1 7 l 1
 1 6.5 l 1
 1 6 l 1
 0.5 6 l 1
 0 6 l 1
 0 6.5 l 1
3 6.5 m 1
 3 7 l 1
 3.5 7 l 1
 4 7 l 1
 4 6.5 l 1
 4 6 l 1
 3.5 6 l 1
 3 6 l 1
 3 6.5 l 1
0 3.5 m 1
 0 4 l 1
 0.5 4 l 1
 1 4 l 1
 1 3.5 l 1
 1 3 l 1
 0.5 3 l 1
 0 3 l 1
 0 3.5 l 1
6 3.5 m 1
 6 4 l 1
 6.5 4 l 1
 7 4 l 1
 7 3.5 l 1
 7 3 l 1
 6.5 3 l 1
 6 3 l 1
 6 3.5 l 1
3 0.5 m 1
 3 1 l 1
 3.5 1 l 1
 4 1 l 1
 4 0.5 l 1
 4 -0 l 1
 3.5 -0 l 1
 3 -0 l 1
 3 0.5 l 1
1 1 m 1
 1 1.5 l 1
 1 2 l 1
 1.5 2 l 1
 2 2 l 1
 2 2.5 l 1
 2 3 l 1
 2.5 3 l 1
 3 3 l 1
 3 3.5 l 1
 3 4 l 1
 2.5 4 l 1
 2 4 l 1
 2 4.5 l 1
 2 5 l 1
 1.5 5 l 1
 1 5 l 1
 1 5.5 l 1
 1 6 l 1
 1.5 6 l 1
 2 6 l 1
 2 5.5 l 1
 2 5 l 1
 2.5 5 l 1
 3 5 l 1
 3 4.5 l 1
 3 4 l 1
 3.5 4 l 1
 4 4 l 1
 4 3.5 l 1
 4 3 l 1
 3.5 3 l 1
 3 3 l 1
 3 2.5 l 1
 3 2 l 1
 2.5 2 l 1
 2 2 l 1
 2 1.5 l 1
 2 1 l 1
 1.5 1 l 1
 1 1 l 1
1 1 m 1
 1 0.5 l 1
 1 -0 l 1
 0.5 -0 l 1
 0 -0 l 1
 0 0.5 l 1
 0 1 l 1
 0.5 1 l 1
 1 1 l 1
6 1 m 1
 5.5 1 l 1
 5 1 l 1
 5 1.5 l 1
 5 2 l 1
 4.5 2 l 1
 4 2 l 1
 4 2.5 l 1
 4 3 l 1
 4.5 3 l 1
 5 3 l 1
 5 2.5 l 1
 5 2 l 1
 5.5 2 l 1
 6 2 l 1
 6 1.5 l 1
 6 1 l 1
6 1 m 1
 6.5 1 l 1
 7 1 l 1
 7 0.5 l 1
 7 -0 l 1
 6.5 -0 l 1
 6 -0 l 1
 6 0.5 l 1
 6 1 l 1
6 6 m 1
 6 5.5 l 1
 6 5 l 1
 5.5 5 l 1
 5 5 l 1
 5 4.5 l 1
 5 4 l 1
 4.5 4 l 1
 4 4 l 1
 4 4.5 l 1
 4 5 l 1
 4.5 5 l 1
 5 5 l 1
 5 5.5 l 1
 5 6 l 1
 5.5 6 l 1
 6 6 l 1
6 6 m 1
 6 6.5 l 1
 6 7 l 1
 6.5 7 l 1
 7 7 l 1
 7 6.5 l 1
 7 6 l 1
 6.5 6 l 1
 6 6 l 1
EndSplineSet
EndChar

StartChar: glyph2739
Encoding: 8252 8252 2739
Width: 4
VWidth: 0
Flags: HMW
LayerCount: 2
Back
Fore
SplineSet
0 4.5 m 1
 0 7 l 1
 0.5 7 l 1
 1 7 l 1
 1 4.5 l 1
 1 2 l 1
 0.5 2 l 1
 0 2 l 1
 0 4.5 l 1
2 4.5 m 1
 2 7 l 1
 2.5 7 l 1
 3 7 l 1
 3 4.5 l 1
 3 2 l 1
 2.5 2 l 1
 2 2 l 1
 2 4.5 l 1
0 0.5 m 1
 0 1 l 1
 0.5 1 l 1
 1 1 l 1
 1 0.5 l 1
 1 -0 l 1
 0.5 -0 l 1
 0 -0 l 1
 0 0.5 l 1
2 0.5 m 1
 2 1 l 1
 2.5 1 l 1
 3 1 l 1
 3 0.5 l 1
 3 -0 l 1
 2.5 -0 l 1
 2 -0 l 1
 2 0.5 l 1
EndSplineSet
EndChar

StartChar: glyph2740
Encoding: 8253 8253 2740
Width: 6
VWidth: 0
Flags: HMW
LayerCount: 2
Back
Fore
SplineSet
1 6.5 m 1
 1 7 l 1
 2.5 7 l 1
 4 7 l 1
 4 6.5 l 1
 4 6 l 1
 3.5 6 l 1
 3 6 l 1
 3 5 l 1
 3 4 l 1
 3.5 4 l 1
 4 4 l 1
 4 5 l 1
 4 6 l 1
 4.5 6 l 1
 5 6 l 1
 5 5 l 1
 5 4 l 1
 4.5 4 l 1
 4 4 l 1
 4 3.5 l 1
 4 3 l 1
 3.5 3 l 1
 3 3 l 1
 3 2.5 l 1
 3 2 l 1
 2.5 2 l 1
 2 2 l 1
 2 4 l 1
 2 6 l 1
 1.5 6 l 1
 1 6 l 1
 1 6.5 l 1
2 0.5 m 1
 2 1 l 1
 2.5 1 l 1
 3 1 l 1
 3 0.5 l 1
 3 -0 l 1
 2.5 -0 l 1
 2 -0 l 1
 2 0.5 l 1
1 6 m 1
 1 5.5 l 1
 1 5 l 1
 0.5 5 l 1
 0 5 l 1
 0 5.5 l 1
 0 6 l 1
 0.5 6 l 1
 1 6 l 1
EndSplineSet
EndChar

StartChar: glyph2741
Encoding: 8258 8258 2741
Width: 8
VWidth: 0
Flags: HMW
LayerCount: 2
Back
Fore
SplineSet
2 6.5 m 1
 2 7 l 1
 2.5 7 l 1
 3 7 l 1
 3 6.5 l 1
 3 6 l 1
 2.5 6 l 1
 2 6 l 1
 2 6.5 l 1
0 2.5 m 1
 0 3 l 1
 0.5 3 l 1
 1 3 l 1
 1 2.5 l 1
 1 2 l 1
 0.5 2 l 1
 0 2 l 1
 0 2.5 l 1
4 2.5 m 1
 4 3 l 1
 4.5 3 l 1
 5 3 l 1
 5 2.5 l 1
 5 2 l 1
 4.5 2 l 1
 4 2 l 1
 4 2.5 l 1
3 5 m 1
 3 5.5 l 1
 3 6 l 1
 3.5 6 l 1
 4 6 l 1
 4 5.5 l 1
 4 5 l 1
 3.5 5 l 1
 3 5 l 1
3 5 m 1
 3 4.5 l 1
 3 4 l 1
 2.5 4 l 1
 2 4 l 1
 2 4.5 l 1
 2 5 l 1
 2.5 5 l 1
 3 5 l 1
4 5 m 1
 4.5 5 l 1
 5 5 l 1
 5 4.5 l 1
 5 4 l 1
 4.5 4 l 1
 4 4 l 1
 4 4.5 l 1
 4 5 l 1
4 6 m 1
 4 6.5 l 1
 4 7 l 1
 4.5 7 l 1
 5 7 l 1
 5 6.5 l 1
 5 6 l 1
 4.5 6 l 1
 4 6 l 1
1 1 m 1
 1 1.5 l 1
 1 2 l 1
 1.5 2 l 1
 2 2 l 1
 2 1.5 l 1
 2 1 l 1
 1.5 1 l 1
 1 1 l 1
1 1 m 1
 1 0.5 l 1
 1 -0 l 1
 0.5 -0 l 1
 0 -0 l 1
 0 0.5 l 1
 0 1 l 1
 0.5 1 l 1
 1 1 l 1
2 1 m 1
 2.5 1 l 1
 3 1 l 1
 3 0.5 l 1
 3 -0 l 1
 2.5 -0 l 1
 2 -0 l 1
 2 0.5 l 1
 2 1 l 1
2 2 m 1
 2 2.5 l 1
 2 3 l 1
 2.5 3 l 1
 3 3 l 1
 3 2.5 l 1
 3 2 l 1
 2.5 2 l 1
 2 2 l 1
5 1 m 1
 5 1.5 l 1
 5 2 l 1
 5.5 2 l 1
 6 2 l 1
 6 1.5 l 1
 6 1 l 1
 5.5 1 l 1
 5 1 l 1
5 1 m 1
 5 0.5 l 1
 5 -0 l 1
 4.5 -0 l 1
 4 -0 l 1
 4 0.5 l 1
 4 1 l 1
 4.5 1 l 1
 5 1 l 1
6 1 m 1
 6.5 1 l 1
 7 1 l 1
 7 0.5 l 1
 7 -0 l 1
 6.5 -0 l 1
 6 -0 l 1
 6 0.5 l 1
 6 1 l 1
6 2 m 1
 6 2.5 l 1
 6 3 l 1
 6.5 3 l 1
 7 3 l 1
 7 2.5 l 1
 7 2 l 1
 6.5 2 l 1
 6 2 l 1
EndSplineSet
EndChar

StartChar: glyph2742
Encoding: 8264 8264 2742
Width: 8
VWidth: 0
Flags: HMW
LayerCount: 2
Back
Fore
SplineSet
1 6.5 m 1
 1 7 l 1
 2.5 7 l 1
 4 7 l 1
 4 6.5 l 1
 4 6 l 1
 2.5 6 l 1
 1 6 l 1
 1 6.5 l 1
6 4.5 m 1
 6 7 l 1
 6.5 7 l 1
 7 7 l 1
 7 4.5 l 1
 7 2 l 1
 6.5 2 l 1
 6 2 l 1
 6 4.5 l 1
2 0.5 m 1
 2 1 l 1
 2.5 1 l 1
 3 1 l 1
 3 0.5 l 1
 3 -0 l 1
 2.5 -0 l 1
 2 -0 l 1
 2 0.5 l 1
6 0.5 m 1
 6 1 l 1
 6.5 1 l 1
 7 1 l 1
 7 0.5 l 1
 7 -0 l 1
 6.5 -0 l 1
 6 -0 l 1
 6 0.5 l 1
1 6 m 1
 1 5.5 l 1
 1 5 l 1
 0.5 5 l 1
 0 5 l 1
 0 5.5 l 1
 0 6 l 1
 0.5 6 l 1
 1 6 l 1
3 3 m 1
 3 3.5 l 1
 3 4 l 1
 3.5 4 l 1
 4 4 l 1
 4 5 l 1
 4 6 l 1
 4.5 6 l 1
 5 6 l 1
 5 5 l 1
 5 4 l 1
 4.5 4 l 1
 4 4 l 1
 4 3.5 l 1
 4 3 l 1
 3.5 3 l 1
 3 3 l 1
3 3 m 1
 3 2.5 l 1
 3 2 l 1
 2.5 2 l 1
 2 2 l 1
 2 2.5 l 1
 2 3 l 1
 2.5 3 l 1
 3 3 l 1
EndSplineSet
EndChar

StartChar: glyph2743
Encoding: 8265 8265 2743
Width: 8
VWidth: 0
Flags: HMW
LayerCount: 2
Back
Fore
SplineSet
0 4.5 m 1
 0 7 l 1
 0.5 7 l 1
 1 7 l 1
 1 4.5 l 1
 1 2 l 1
 0.5 2 l 1
 0 2 l 1
 0 4.5 l 1
3 6.5 m 1
 3 7 l 1
 4.5 7 l 1
 6 7 l 1
 6 6.5 l 1
 6 6 l 1
 4.5 6 l 1
 3 6 l 1
 3 6.5 l 1
0 0.5 m 1
 0 1 l 1
 0.5 1 l 1
 1 1 l 1
 1 0.5 l 1
 1 -0 l 1
 0.5 -0 l 1
 0 -0 l 1
 0 0.5 l 1
4 0.5 m 1
 4 1 l 1
 4.5 1 l 1
 5 1 l 1
 5 0.5 l 1
 5 -0 l 1
 4.5 -0 l 1
 4 -0 l 1
 4 0.5 l 1
3 6 m 1
 3 5.5 l 1
 3 5 l 1
 2.5 5 l 1
 2 5 l 1
 2 5.5 l 1
 2 6 l 1
 2.5 6 l 1
 3 6 l 1
5 3 m 1
 5 3.5 l 1
 5 4 l 1
 5.5 4 l 1
 6 4 l 1
 6 5 l 1
 6 6 l 1
 6.5 6 l 1
 7 6 l 1
 7 5 l 1
 7 4 l 1
 6.5 4 l 1
 6 4 l 1
 6 3.5 l 1
 6 3 l 1
 5.5 3 l 1
 5 3 l 1
5 3 m 1
 5 2.5 l 1
 5 2 l 1
 4.5 2 l 1
 4 2 l 1
 4 2.5 l 1
 4 3 l 1
 4.5 3 l 1
 5 3 l 1
EndSplineSet
EndChar

StartChar: glyph2744
Encoding: 8266 8266 2744
Width: 5
VWidth: 0
Flags: HMW
LayerCount: 2
Back
Fore
SplineSet
0 4.5 m 1
 0 5 l 1
 2 5 l 1
 4 5 l 1
 4 4 l 1
 4 3 l 1
 3.5 3 l 1
 3 3 l 1
 3 3.5 l 1
 3 4 l 1
 1.5 4 l 1
 0 4 l 1
 0 4.5 l 1
2 1 m 1
 2 2 l 1
 2 3 l 1
 2.5 3 l 1
 3 3 l 1
 3 2 l 1
 3 1 l 1
 2.5 1 l 1
 2 1 l 1
2 1 m 1
 2 0.5 l 1
 2 -0 l 1
 1.5 -0 l 1
 1 -0 l 1
 1 0.5 l 1
 1 1 l 1
 1.5 1 l 1
 2 1 l 1
EndSplineSet
EndChar

StartChar: glyph2745
Encoding: 8267 8267 2745
Width: 7
VWidth: 0
Flags: HMW
LayerCount: 2
Back
Fore
SplineSet
0 6.5 m 1
 0 7 l 1
 2.5 7 l 1
 5 7 l 1
 5 6.5 l 1
 5 6 l 1
 5.5 6 l 1
 6 6 l 1
 6 5.5 l 1
 6 5 l 1
 5.5 5 l 1
 5 5 l 1
 5 4.5 l 1
 5 4 l 1
 4.5 4 l 1
 4 4 l 1
 4 2 l 1
 4 -0 l 1
 3.5 -0 l 1
 3 -0 l 1
 3 3 l 1
 3 6 l 1
 2.5 6 l 1
 2 6 l 1
 2 3 l 1
 2 -0 l 1
 1.5 -0 l 1
 1 -0 l 1
 1 3 l 1
 1 6 l 1
 0.5 6 l 1
 0 6 l 1
 0 6.5 l 1
EndSplineSet
EndChar

StartChar: glyph2746
Encoding: 8270 8270 2746
Width: 4
VWidth: 0
Flags: HMW
LayerCount: 2
Back
Fore
SplineSet
0 4.5 m 1
 0 5 l 1
 0.5 5 l 1
 1 5 l 1
 1 4.5 l 1
 1 4 l 1
 0.5 4 l 1
 0 4 l 1
 0 4.5 l 1
1 3 m 1
 1 3.5 l 1
 1 4 l 1
 1.5 4 l 1
 2 4 l 1
 2 3.5 l 1
 2 3 l 1
 1.5 3 l 1
 1 3 l 1
1 3 m 1
 1 2.5 l 1
 1 2 l 1
 0.5 2 l 1
 0 2 l 1
 0 2.5 l 1
 0 3 l 1
 0.5 3 l 1
 1 3 l 1
2 3 m 1
 2.5 3 l 1
 3 3 l 1
 3 2.5 l 1
 3 2 l 1
 2.5 2 l 1
 2 2 l 1
 2 2.5 l 1
 2 3 l 1
2 4 m 1
 2 4.5 l 1
 2 5 l 1
 2.5 5 l 1
 3 5 l 1
 3 4.5 l 1
 3 4 l 1
 2.5 4 l 1
 2 4 l 1
EndSplineSet
EndChar

StartChar: glyph2747
Encoding: 8271 8271 2747
Width: 2
VWidth: 0
Flags: HMW
LayerCount: 2
Back
Fore
SplineSet
0 4.5 m 1
 0 5 l 1
 0.5 5 l 1
 1 5 l 1
 1 4.5 l 1
 1 4 l 1
 0.5 4 l 1
 0 4 l 1
 0 4.5 l 1
0 -0 m 1
 0 1 l 1
 0.5 1 l 1
 1 1 l 1
 1 -0 l 1
 1 -1 l 1
 0.5 -1 l 1
 0 -1 l 1
 0 -0 l 1
EndSplineSet
EndChar

StartChar: glyph2748
Encoding: 8273 8273 2748
Width: 4
VWidth: 0
Flags: HMW
LayerCount: 2
Back
Fore
SplineSet
0 6.5 m 1
 0 7 l 1
 0.5 7 l 1
 1 7 l 1
 1 6.5 l 1
 1 6 l 1
 0.5 6 l 1
 0 6 l 1
 0 6.5 l 1
0 2.5 m 1
 0 3 l 1
 0.5 3 l 1
 1 3 l 1
 1 2.5 l 1
 1 2 l 1
 0.5 2 l 1
 0 2 l 1
 0 2.5 l 1
1 5 m 1
 1 5.5 l 1
 1 6 l 1
 1.5 6 l 1
 2 6 l 1
 2 5.5 l 1
 2 5 l 1
 1.5 5 l 1
 1 5 l 1
1 5 m 1
 1 4.5 l 1
 1 4 l 1
 0.5 4 l 1
 0 4 l 1
 0 4.5 l 1
 0 5 l 1
 0.5 5 l 1
 1 5 l 1
2 5 m 1
 2.5 5 l 1
 3 5 l 1
 3 4.5 l 1
 3 4 l 1
 2.5 4 l 1
 2 4 l 1
 2 4.5 l 1
 2 5 l 1
2 6 m 1
 2 6.5 l 1
 2 7 l 1
 2.5 7 l 1
 3 7 l 1
 3 6.5 l 1
 3 6 l 1
 2.5 6 l 1
 2 6 l 1
1 1 m 1
 1 1.5 l 1
 1 2 l 1
 1.5 2 l 1
 2 2 l 1
 2 1.5 l 1
 2 1 l 1
 1.5 1 l 1
 1 1 l 1
1 1 m 1
 1 0.5 l 1
 1 -0 l 1
 0.5 -0 l 1
 0 -0 l 1
 0 0.5 l 1
 0 1 l 1
 0.5 1 l 1
 1 1 l 1
2 1 m 1
 2.5 1 l 1
 3 1 l 1
 3 0.5 l 1
 3 -0 l 1
 2.5 -0 l 1
 2 -0 l 1
 2 0.5 l 1
 2 1 l 1
2 2 m 1
 2 2.5 l 1
 2 3 l 1
 2.5 3 l 1
 3 3 l 1
 3 2.5 l 1
 3 2 l 1
 2.5 2 l 1
 2 2 l 1
EndSplineSet
EndChar

StartChar: glyph2749
Encoding: 8274 8274 2749
Width: 4
VWidth: 0
Flags: HMW
LayerCount: 2
Back
Fore
SplineSet
0 6.5 m 1
 0 7 l 1
 0.5 7 l 1
 1 7 l 1
 1 6.5 l 1
 1 6 l 1
 0.5 6 l 1
 0 6 l 1
 0 6.5 l 1
2 6 m 1
 2 7 l 1
 2.5 7 l 1
 3 7 l 1
 3 6 l 1
 3 5 l 1
 2.5 5 l 1
 2 5 l 1
 2 6 l 1
2 0.5 m 1
 2 1 l 1
 2.5 1 l 1
 3 1 l 1
 3 0.5 l 1
 3 -0 l 1
 2.5 -0 l 1
 2 -0 l 1
 2 0.5 l 1
1 2 m 1
 1 3.5 l 1
 1 5 l 1
 1.5 5 l 1
 2 5 l 1
 2 3.5 l 1
 2 2 l 1
 1.5 2 l 1
 1 2 l 1
1 2 m 1
 1 1 l 1
 1 -0 l 1
 0.5 -0 l 1
 0 -0 l 1
 0 1 l 1
 0 2 l 1
 0.5 2 l 1
 1 2 l 1
EndSplineSet
EndChar

StartChar: glyph2750
Encoding: 8279 8279 2750
Width: 9
VWidth: 0
Flags: HMW
LayerCount: 2
Back
Fore
SplineSet
1 6.5 m 1
 1 7 l 1
 1.5 7 l 1
 2 7 l 1
 2 6.5 l 1
 2 6 l 1
 1.5 6 l 1
 1 6 l 1
 1 6.5 l 1
1 6 m 1
 1 5.5 l 1
 1 5 l 1
 0.5 5 l 1
 0 5 l 1
 0 5.5 l 1
 0 6 l 1
 0.5 6 l 1
 1 6 l 1
7 6 m 1
 7 5.5 l 1
 7 5 l 1
 6.5 5 l 1
 6 5 l 1
 6 5.5 l 1
 6 6 l 1
 5.5 6 l 1
 5 6 l 1
 5 5.5 l 1
 5 5 l 1
 4.5 5 l 1
 4 5 l 1
 4 5.5 l 1
 4 6 l 1
 3.5 6 l 1
 3 6 l 1
 3 5.5 l 1
 3 5 l 1
 2.5 5 l 1
 2 5 l 1
 2 5.5 l 1
 2 6 l 1
 2.5 6 l 1
 3 6 l 1
 3 6.5 l 1
 3 7 l 1
 3.5 7 l 1
 4 7 l 1
 4 6.5 l 1
 4 6 l 1
 4.5 6 l 1
 5 6 l 1
 5 6.5 l 1
 5 7 l 1
 5.5 7 l 1
 6 7 l 1
 6 6.5 l 1
 6 6 l 1
 6.5 6 l 1
 7 6 l 1
7 6 m 1
 7 6.5 l 1
 7 7 l 1
 7.5 7 l 1
 8 7 l 1
 8 6.5 l 1
 8 6 l 1
 7.5 6 l 1
 7 6 l 1
EndSplineSet
EndChar

StartChar: glyph2751
Encoding: 8304 8304 2751
Width: 5
VWidth: 0
Flags: HMW
LayerCount: 2
Back
Fore
SplineSet
1 6.5 m 1
 1 7 l 1
 2 7 l 1
 3 7 l 1
 3 6.5 l 1
 3 6 l 1
 2 6 l 1
 1 6 l 1
 1 4.5 l 1
 1 3 l 1
 2 3 l 1
 3 3 l 1
 3 4.5 l 1
 3 6 l 1
 3.5 6 l 1
 4 6 l 1
 4 4.5 l 1
 4 3 l 1
 3.5 3 l 1
 3 3 l 1
 3 2.5 l 1
 3 2 l 1
 2 2 l 1
 1 2 l 1
 1 2.5 l 1
 1 3 l 1
 0.5 3 l 1
 0 3 l 1
 0 4.5 l 1
 0 6 l 1
 0.5 6 l 1
 1 6 l 1
 1 6.5 l 1
EndSplineSet
EndChar

StartChar: glyph2752
Encoding: 8305 8305 2752
Width: 2
VWidth: 0
Flags: HMW
LayerCount: 2
Back
Fore
SplineSet
0 6.5 m 1
 0 7 l 1
 0.5 7 l 1
 1 7 l 1
 1 6.5 l 1
 1 6 l 1
 0.5 6 l 1
 0 6 l 1
 0 6.5 l 1
0 3.5 m 1
 0 5 l 1
 0.5 5 l 1
 1 5 l 1
 1 3.5 l 1
 1 2 l 1
 0.5 2 l 1
 0 2 l 1
 0 3.5 l 1
EndSplineSet
EndChar

StartChar: glyph2753
Encoding: 8308 8308 2753
Width: 5
VWidth: 0
Flags: HMW
LayerCount: 2
Back
Fore
SplineSet
3 5 m 1
 3 6 l 1
 2.5 6 l 1
 2 6 l 1
 2 5.5 l 1
 2 5 l 1
 1.5 5 l 1
 1 5 l 1
 1 4.5 l 1
 1 4 l 1
 2 4 l 1
 3 4 l 1
 3 5 l 1
2 6.5 m 1
 2 7 l 1
 3 7 l 1
 4 7 l 1
 4 4.5 l 1
 4 2 l 1
 3.5 2 l 1
 3 2 l 1
 3 2.5 l 1
 3 3 l 1
 1.5 3 l 1
 0 3 l 1
 0 4 l 1
 0 5 l 1
 0.5 5 l 1
 1 5 l 1
 1 5.5 l 1
 1 6 l 1
 1.5 6 l 1
 2 6 l 1
 2 6.5 l 1
EndSplineSet
EndChar

StartChar: glyph2754
Encoding: 8309 8309 2754
Width: 5
VWidth: 0
Flags: HMW
LayerCount: 2
Back
Fore
SplineSet
0 5.5 m 1
 0 7 l 1
 2 7 l 1
 4 7 l 1
 4 6.5 l 1
 4 6 l 1
 2.5 6 l 1
 1 6 l 1
 1 5.5 l 1
 1 5 l 1
 2 5 l 1
 3 5 l 1
 3 4.5 l 1
 3 4 l 1
 1.5 4 l 1
 0 4 l 1
 0 5.5 l 1
3 3 m 1
 3 3.5 l 1
 3 4 l 1
 3.5 4 l 1
 4 4 l 1
 4 3.5 l 1
 4 3 l 1
 3.5 3 l 1
 3 3 l 1
3 3 m 1
 3 2.5 l 1
 3 2 l 1
 1.5 2 l 1
 0 2 l 1
 0 2.5 l 1
 0 3 l 1
 1.5 3 l 1
 3 3 l 1
EndSplineSet
EndChar

StartChar: glyph2755
Encoding: 8310 8310 2755
Width: 5
VWidth: 0
Flags: HMW
LayerCount: 2
Back
Fore
SplineSet
1 6.5 m 1
 1 7 l 1
 2 7 l 1
 3 7 l 1
 3 6.5 l 1
 3 6 l 1
 2 6 l 1
 1 6 l 1
 1 6.5 l 1
1 3 m 1
 2 3 l 1
 3 3 l 1
 3 3.5 l 1
 3 4 l 1
 2 4 l 1
 1 4 l 1
 1 3.5 l 1
 1 3 l 1
1 3 m 1
 0.5 3 l 1
 0 3 l 1
 0 4.5 l 1
 0 6 l 1
 0.5 6 l 1
 1 6 l 1
 1 5.5 l 1
 1 5 l 1
 2 5 l 1
 3 5 l 1
 3 4.5 l 1
 3 4 l 1
 3.5 4 l 1
 4 4 l 1
 4 3.5 l 1
 4 3 l 1
 3.5 3 l 1
 3 3 l 1
 3 2.5 l 1
 3 2 l 1
 2 2 l 1
 1 2 l 1
 1 2.5 l 1
 1 3 l 1
EndSplineSet
EndChar

StartChar: glyph2756
Encoding: 8311 8311 2756
Width: 5
VWidth: 0
Flags: HMW
LayerCount: 2
Back
Fore
SplineSet
0 6 m 1
 0 7 l 1
 2 7 l 1
 4 7 l 1
 4 6 l 1
 4 5 l 1
 3.5 5 l 1
 3 5 l 1
 3 5.5 l 1
 3 6 l 1
 2 6 l 1
 1 6 l 1
 1 5.5 l 1
 1 5 l 1
 0.5 5 l 1
 0 5 l 1
 0 6 l 1
2 4 m 1
 2 4.5 l 1
 2 5 l 1
 2.5 5 l 1
 3 5 l 1
 3 4.5 l 1
 3 4 l 1
 2.5 4 l 1
 2 4 l 1
2 4 m 1
 2 3 l 1
 2 2 l 1
 1.5 2 l 1
 1 2 l 1
 1 3 l 1
 1 4 l 1
 1.5 4 l 1
 2 4 l 1
EndSplineSet
EndChar

StartChar: glyph2757
Encoding: 8312 8312 2757
Width: 5
VWidth: 0
Flags: HMW
LayerCount: 2
Back
Fore
SplineSet
1 6.5 m 1
 1 7 l 1
 2 7 l 1
 3 7 l 1
 3 6.5 l 1
 3 6 l 1
 2 6 l 1
 1 6 l 1
 1 5.5 l 1
 1 5 l 1
 2 5 l 1
 3 5 l 1
 3 5.5 l 1
 3 6 l 1
 3.5 6 l 1
 4 6 l 1
 4 5.5 l 1
 4 5 l 1
 3.5 5 l 1
 3 5 l 1
 3 4.5 l 1
 3 4 l 1
 2 4 l 1
 1 4 l 1
 1 3.5 l 1
 1 3 l 1
 2 3 l 1
 3 3 l 1
 3 3.5 l 1
 3 4 l 1
 3.5 4 l 1
 4 4 l 1
 4 3.5 l 1
 4 3 l 1
 3.5 3 l 1
 3 3 l 1
 3 2.5 l 1
 3 2 l 1
 2 2 l 1
 1 2 l 1
 1 2.5 l 1
 1 3 l 1
 0.5 3 l 1
 0 3 l 1
 0 3.5 l 1
 0 4 l 1
 0.5 4 l 1
 1 4 l 1
 1 4.5 l 1
 1 5 l 1
 0.5 5 l 1
 0 5 l 1
 0 5.5 l 1
 0 6 l 1
 0.5 6 l 1
 1 6 l 1
 1 6.5 l 1
EndSplineSet
EndChar

StartChar: glyph2758
Encoding: 8313 8313 2758
Width: 5
VWidth: 0
Flags: HMW
LayerCount: 2
Back
Fore
SplineSet
1 6.5 m 1
 1 7 l 1
 2 7 l 1
 3 7 l 1
 3 6.5 l 1
 3 6 l 1
 2 6 l 1
 1 6 l 1
 1 5.5 l 1
 1 5 l 1
 2 5 l 1
 3 5 l 1
 3 5.5 l 1
 3 6 l 1
 3.5 6 l 1
 4 6 l 1
 4 4.5 l 1
 4 3 l 1
 3.5 3 l 1
 3 3 l 1
 3 3.5 l 1
 3 4 l 1
 2 4 l 1
 1 4 l 1
 1 4.5 l 1
 1 5 l 1
 0.5 5 l 1
 0 5 l 1
 0 5.5 l 1
 0 6 l 1
 0.5 6 l 1
 1 6 l 1
 1 6.5 l 1
3 3 m 1
 3 2.5 l 1
 3 2 l 1
 2 2 l 1
 1 2 l 1
 1 2.5 l 1
 1 3 l 1
 2 3 l 1
 3 3 l 1
EndSplineSet
EndChar

StartChar: glyph2759
Encoding: 8314 8314 2759
Width: 4
VWidth: 0
Flags: HMW
LayerCount: 2
Back
Fore
SplineSet
1 5.5 m 1
 1 6 l 1
 1.5 6 l 1
 2 6 l 1
 2 5.5 l 1
 2 5 l 1
 2.5 5 l 1
 3 5 l 1
 3 4.5 l 1
 3 4 l 1
 2.5 4 l 1
 2 4 l 1
 2 3.5 l 1
 2 3 l 1
 1.5 3 l 1
 1 3 l 1
 1 3.5 l 1
 1 4 l 1
 0.5 4 l 1
 0 4 l 1
 0 4.5 l 1
 0 5 l 1
 0.5 5 l 1
 1 5 l 1
 1 5.5 l 1
EndSplineSet
EndChar

StartChar: glyph2760
Encoding: 8315 8315 2760
Width: 4
VWidth: 0
Flags: HMW
LayerCount: 2
Back
Fore
SplineSet
0 4.5 m 1
 0 5 l 1
 1.5 5 l 1
 3 5 l 1
 3 4.5 l 1
 3 4 l 1
 1.5 4 l 1
 0 4 l 1
 0 4.5 l 1
EndSplineSet
EndChar

StartChar: glyph2761
Encoding: 8316 8316 2761
Width: 4
VWidth: 0
Flags: HMW
LayerCount: 2
Back
Fore
SplineSet
0 5.5 m 1
 0 6 l 1
 1.5 6 l 1
 3 6 l 1
 3 5.5 l 1
 3 5 l 1
 1.5 5 l 1
 0 5 l 1
 0 5.5 l 1
0 3.5 m 1
 0 4 l 1
 1.5 4 l 1
 3 4 l 1
 3 3.5 l 1
 3 3 l 1
 1.5 3 l 1
 0 3 l 1
 0 3.5 l 1
EndSplineSet
EndChar

StartChar: glyph2762
Encoding: 8317 8317 2762
Width: 3
VWidth: 0
Flags: HMW
LayerCount: 2
Back
Fore
SplineSet
1 6.5 m 1
 1 7 l 1
 1.5 7 l 1
 2 7 l 1
 2 6.5 l 1
 2 6 l 1
 1.5 6 l 1
 1 6 l 1
 1 6.5 l 1
1 3 m 1
 0.5 3 l 1
 0 3 l 1
 0 4.5 l 1
 0 6 l 1
 0.5 6 l 1
 1 6 l 1
 1 4.5 l 1
 1 3 l 1
1 3 m 1
 1.5 3 l 1
 2 3 l 1
 2 2.5 l 1
 2 2 l 1
 1.5 2 l 1
 1 2 l 1
 1 2.5 l 1
 1 3 l 1
EndSplineSet
EndChar

StartChar: glyph2763
Encoding: 8318 8318 2763
Width: 3
VWidth: 0
Flags: HMW
LayerCount: 2
Back
Fore
SplineSet
0 6.5 m 1
 0 7 l 1
 0.5 7 l 1
 1 7 l 1
 1 6.5 l 1
 1 6 l 1
 0.5 6 l 1
 0 6 l 1
 0 6.5 l 1
1 3 m 1
 1 4.5 l 1
 1 6 l 1
 1.5 6 l 1
 2 6 l 1
 2 4.5 l 1
 2 3 l 1
 1.5 3 l 1
 1 3 l 1
1 3 m 1
 1 2.5 l 1
 1 2 l 1
 0.5 2 l 1
 0 2 l 1
 0 2.5 l 1
 0 3 l 1
 0.5 3 l 1
 1 3 l 1
EndSplineSet
EndChar

StartChar: glyph2764
Encoding: 8319 8319 2764
Width: 5
VWidth: 0
Flags: HMW
LayerCount: 2
Back
Fore
SplineSet
0 4 m 1
 0 6 l 1
 1.5 6 l 1
 3 6 l 1
 3 5.5 l 1
 3 5 l 1
 2 5 l 1
 1 5 l 1
 1 3.5 l 1
 1 2 l 1
 0.5 2 l 1
 0 2 l 1
 0 4 l 1
3 5 m 1
 3.5 5 l 1
 4 5 l 1
 4 3.5 l 1
 4 2 l 1
 3.5 2 l 1
 3 2 l 1
 3 3.5 l 1
 3 5 l 1
EndSplineSet
EndChar

StartChar: glyph2765
Encoding: 8320 8320 2765
Width: 5
VWidth: 0
Flags: HMW
LayerCount: 2
Back
Fore
SplineSet
1 3.5 m 1
 1 4 l 1
 2 4 l 1
 3 4 l 1
 3 3.5 l 1
 3 3 l 1
 2 3 l 1
 1 3 l 1
 1 1.5 l 1
 1 -0 l 1
 2 -0 l 1
 3 -0 l 1
 3 1.5 l 1
 3 3 l 1
 3.5 3 l 1
 4 3 l 1
 4 1.5 l 1
 4 -0 l 1
 3.5 -0 l 1
 3 -0 l 1
 3 -0.5 l 1
 3 -1 l 1
 2 -1 l 1
 1 -1 l 1
 1 -0.5 l 1
 1 -0 l 1
 0.5 -0 l 1
 0 -0 l 1
 0 1.5 l 1
 0 3 l 1
 0.5 3 l 1
 1 3 l 1
 1 3.5 l 1
EndSplineSet
EndChar

StartChar: glyph2766
Encoding: 8321 8321 2766
Width: 4
VWidth: 0
Flags: HMW
LayerCount: 2
Back
Fore
SplineSet
1 3.5 m 1
 1 4 l 1
 1.5 4 l 1
 2 4 l 1
 2 2 l 1
 2 -0 l 1
 2.5 -0 l 1
 3 -0 l 1
 3 -0.5 l 1
 3 -1 l 1
 1.5 -1 l 1
 0 -1 l 1
 0 -0.5 l 1
 0 -0 l 1
 0.5 -0 l 1
 1 -0 l 1
 1 1 l 1
 1 2 l 1
 0.5 2 l 1
 0 2 l 1
 0 2.5 l 1
 0 3 l 1
 0.5 3 l 1
 1 3 l 1
 1 3.5 l 1
EndSplineSet
EndChar

StartChar: glyph2767
Encoding: 8322 8322 2767
Width: 5
VWidth: 0
Flags: HMW
LayerCount: 2
Back
Fore
SplineSet
1 3.5 m 1
 1 4 l 1
 2 4 l 1
 3 4 l 1
 3 3.5 l 1
 3 3 l 1
 2 3 l 1
 1 3 l 1
 1 3.5 l 1
1 3 m 1
 1 2.5 l 1
 1 2 l 1
 0.5 2 l 1
 0 2 l 1
 0 2.5 l 1
 0 3 l 1
 0.5 3 l 1
 1 3 l 1
2 1 m 1
 2 1.5 l 1
 2 2 l 1
 2.5 2 l 1
 3 2 l 1
 3 2.5 l 1
 3 3 l 1
 3.5 3 l 1
 4 3 l 1
 4 2.5 l 1
 4 2 l 1
 3.5 2 l 1
 3 2 l 1
 3 1.5 l 1
 3 1 l 1
 2.5 1 l 1
 2 1 l 1
2 1 m 1
 2 0.5 l 1
 2 -0 l 1
 3 -0 l 1
 4 -0 l 1
 4 -0.5 l 1
 4 -1 l 1
 2 -1 l 1
 0 -1 l 1
 0 -0.5 l 1
 0 -0 l 1
 0.5 -0 l 1
 1 -0 l 1
 1 0.5 l 1
 1 1 l 1
 1.5 1 l 1
 2 1 l 1
EndSplineSet
EndChar

StartChar: glyph2768
Encoding: 8323 8323 2768
Width: 5
VWidth: 0
Flags: HMW
LayerCount: 2
Back
Fore
SplineSet
1 3.5 m 1
 1 4 l 1
 2 4 l 1
 3 4 l 1
 3 3.5 l 1
 3 3 l 1
 2 3 l 1
 1 3 l 1
 1 3.5 l 1
1 3 m 1
 1 2.5 l 1
 1 2 l 1
 0.5 2 l 1
 0 2 l 1
 0 2.5 l 1
 0 3 l 1
 0.5 3 l 1
 1 3 l 1
1 -0 m 1
 2 -0 l 1
 3 -0 l 1
 3 0.5 l 1
 3 1 l 1
 2.5 1 l 1
 2 1 l 1
 2 1.5 l 1
 2 2 l 1
 2.5 2 l 1
 3 2 l 1
 3 2.5 l 1
 3 3 l 1
 3.5 3 l 1
 4 3 l 1
 4 2.5 l 1
 4 2 l 1
 3.5 2 l 1
 3 2 l 1
 3 1.5 l 1
 3 1 l 1
 3.5 1 l 1
 4 1 l 1
 4 0.5 l 1
 4 -0 l 1
 3.5 -0 l 1
 3 -0 l 1
 3 -0.5 l 1
 3 -1 l 1
 2 -1 l 1
 1 -1 l 1
 1 -0.5 l 1
 1 -0 l 1
1 -0 m 1
 0.5 -0 l 1
 0 -0 l 1
 0 0.5 l 1
 0 1 l 1
 0.5 1 l 1
 1 1 l 1
 1 0.5 l 1
 1 -0 l 1
EndSplineSet
EndChar

StartChar: glyph2769
Encoding: 8324 8324 2769
Width: 5
VWidth: 0
Flags: HMW
LayerCount: 2
Back
Fore
SplineSet
3 2 m 1
 3 3 l 1
 2.5 3 l 1
 2 3 l 1
 2 2.5 l 1
 2 2 l 1
 1.5 2 l 1
 1 2 l 1
 1 1.5 l 1
 1 1 l 1
 2 1 l 1
 3 1 l 1
 3 2 l 1
2 3.5 m 1
 2 4 l 1
 3 4 l 1
 4 4 l 1
 4 1.5 l 1
 4 -1 l 1
 3.5 -1 l 1
 3 -1 l 1
 3 -0.5 l 1
 3 -0 l 1
 1.5 -0 l 1
 0 -0 l 1
 0 1 l 1
 0 2 l 1
 0.5 2 l 1
 1 2 l 1
 1 2.5 l 1
 1 3 l 1
 1.5 3 l 1
 2 3 l 1
 2 3.5 l 1
EndSplineSet
EndChar

StartChar: glyph2770
Encoding: 8325 8325 2770
Width: 5
VWidth: 0
Flags: HMW
LayerCount: 2
Back
Fore
SplineSet
0 2.5 m 1
 0 4 l 1
 2 4 l 1
 4 4 l 1
 4 3.5 l 1
 4 3 l 1
 2.5 3 l 1
 1 3 l 1
 1 2.5 l 1
 1 2 l 1
 2 2 l 1
 3 2 l 1
 3 1.5 l 1
 3 1 l 1
 1.5 1 l 1
 0 1 l 1
 0 2.5 l 1
3 -0 m 1
 3 0.5 l 1
 3 1 l 1
 3.5 1 l 1
 4 1 l 1
 4 0.5 l 1
 4 -0 l 1
 3.5 -0 l 1
 3 -0 l 1
3 -0 m 1
 3 -0.5 l 1
 3 -1 l 1
 1.5 -1 l 1
 0 -1 l 1
 0 -0.5 l 1
 0 -0 l 1
 1.5 -0 l 1
 3 -0 l 1
EndSplineSet
EndChar

StartChar: glyph2771
Encoding: 8326 8326 2771
Width: 5
VWidth: 0
Flags: HMW
LayerCount: 2
Back
Fore
SplineSet
1 3.5 m 1
 1 4 l 1
 2 4 l 1
 3 4 l 1
 3 3.5 l 1
 3 3 l 1
 2 3 l 1
 1 3 l 1
 1 3.5 l 1
1 -0 m 1
 2 -0 l 1
 3 -0 l 1
 3 0.5 l 1
 3 1 l 1
 2 1 l 1
 1 1 l 1
 1 0.5 l 1
 1 -0 l 1
1 -0 m 1
 0.5 -0 l 1
 0 -0 l 1
 0 1.5 l 1
 0 3 l 1
 0.5 3 l 1
 1 3 l 1
 1 2.5 l 1
 1 2 l 1
 2 2 l 1
 3 2 l 1
 3 1.5 l 1
 3 1 l 1
 3.5 1 l 1
 4 1 l 1
 4 0.5 l 1
 4 -0 l 1
 3.5 -0 l 1
 3 -0 l 1
 3 -0.5 l 1
 3 -1 l 1
 2 -1 l 1
 1 -1 l 1
 1 -0.5 l 1
 1 -0 l 1
EndSplineSet
EndChar

StartChar: glyph2772
Encoding: 8327 8327 2772
Width: 5
VWidth: 0
Flags: HMW
LayerCount: 2
Back
Fore
SplineSet
0 3 m 1
 0 4 l 1
 2 4 l 1
 4 4 l 1
 4 3 l 1
 4 2 l 1
 3.5 2 l 1
 3 2 l 1
 3 2.5 l 1
 3 3 l 1
 2 3 l 1
 1 3 l 1
 1 2.5 l 1
 1 2 l 1
 0.5 2 l 1
 0 2 l 1
 0 3 l 1
2 1 m 1
 2 1.5 l 1
 2 2 l 1
 2.5 2 l 1
 3 2 l 1
 3 1.5 l 1
 3 1 l 1
 2.5 1 l 1
 2 1 l 1
2 1 m 1
 2 -0 l 1
 2 -1 l 1
 1.5 -1 l 1
 1 -1 l 1
 1 -0 l 1
 1 1 l 1
 1.5 1 l 1
 2 1 l 1
EndSplineSet
EndChar

StartChar: glyph2773
Encoding: 8328 8328 2773
Width: 5
VWidth: 0
Flags: HMW
LayerCount: 2
Back
Fore
SplineSet
1 3.5 m 1
 1 4 l 1
 2 4 l 1
 3 4 l 1
 3 3.5 l 1
 3 3 l 1
 2 3 l 1
 1 3 l 1
 1 2.5 l 1
 1 2 l 1
 2 2 l 1
 3 2 l 1
 3 2.5 l 1
 3 3 l 1
 3.5 3 l 1
 4 3 l 1
 4 2.5 l 1
 4 2 l 1
 3.5 2 l 1
 3 2 l 1
 3 1.5 l 1
 3 1 l 1
 2 1 l 1
 1 1 l 1
 1 0.5 l 1
 1 -0 l 1
 2 -0 l 1
 3 -0 l 1
 3 0.5 l 1
 3 1 l 1
 3.5 1 l 1
 4 1 l 1
 4 0.5 l 1
 4 -0 l 1
 3.5 -0 l 1
 3 -0 l 1
 3 -0.5 l 1
 3 -1 l 1
 2 -1 l 1
 1 -1 l 1
 1 -0.5 l 1
 1 -0 l 1
 0.5 -0 l 1
 0 -0 l 1
 0 0.5 l 1
 0 1 l 1
 0.5 1 l 1
 1 1 l 1
 1 1.5 l 1
 1 2 l 1
 0.5 2 l 1
 0 2 l 1
 0 2.5 l 1
 0 3 l 1
 0.5 3 l 1
 1 3 l 1
 1 3.5 l 1
EndSplineSet
EndChar

StartChar: glyph2774
Encoding: 8329 8329 2774
Width: 5
VWidth: 0
Flags: HMW
LayerCount: 2
Back
Fore
SplineSet
1 3.5 m 1
 1 4 l 1
 2 4 l 1
 3 4 l 1
 3 3.5 l 1
 3 3 l 1
 2 3 l 1
 1 3 l 1
 1 2.5 l 1
 1 2 l 1
 2 2 l 1
 3 2 l 1
 3 2.5 l 1
 3 3 l 1
 3.5 3 l 1
 4 3 l 1
 4 1.5 l 1
 4 -0 l 1
 3.5 -0 l 1
 3 -0 l 1
 3 0.5 l 1
 3 1 l 1
 2 1 l 1
 1 1 l 1
 1 1.5 l 1
 1 2 l 1
 0.5 2 l 1
 0 2 l 1
 0 2.5 l 1
 0 3 l 1
 0.5 3 l 1
 1 3 l 1
 1 3.5 l 1
3 -0 m 1
 3 -0.5 l 1
 3 -1 l 1
 2 -1 l 1
 1 -1 l 1
 1 -0.5 l 1
 1 -0 l 1
 2 -0 l 1
 3 -0 l 1
EndSplineSet
EndChar

StartChar: glyph2775
Encoding: 8330 8330 2775
Width: 4
VWidth: 0
Flags: HMW
LayerCount: 2
Back
Fore
SplineSet
1 2.5 m 1
 1 3 l 1
 1.5 3 l 1
 2 3 l 1
 2 2.5 l 1
 2 2 l 1
 2.5 2 l 1
 3 2 l 1
 3 1.5 l 1
 3 1 l 1
 2.5 1 l 1
 2 1 l 1
 2 0.5 l 1
 2 -0 l 1
 1.5 -0 l 1
 1 -0 l 1
 1 0.5 l 1
 1 1 l 1
 0.5 1 l 1
 0 1 l 1
 0 1.5 l 1
 0 2 l 1
 0.5 2 l 1
 1 2 l 1
 1 2.5 l 1
EndSplineSet
EndChar

StartChar: glyph2776
Encoding: 8331 8331 2776
Width: 4
VWidth: 0
Flags: HMW
LayerCount: 2
Back
Fore
SplineSet
0 1.5 m 1
 0 2 l 1
 1.5 2 l 1
 3 2 l 1
 3 1.5 l 1
 3 1 l 1
 1.5 1 l 1
 0 1 l 1
 0 1.5 l 1
EndSplineSet
EndChar

StartChar: glyph2777
Encoding: 8332 8332 2777
Width: 4
VWidth: 0
Flags: HMW
LayerCount: 2
Back
Fore
SplineSet
0 2.5 m 1
 0 3 l 1
 1.5 3 l 1
 3 3 l 1
 3 2.5 l 1
 3 2 l 1
 1.5 2 l 1
 0 2 l 1
 0 2.5 l 1
0 0.5 m 1
 0 1 l 1
 1.5 1 l 1
 3 1 l 1
 3 0.5 l 1
 3 -0 l 1
 1.5 -0 l 1
 0 -0 l 1
 0 0.5 l 1
EndSplineSet
EndChar

StartChar: glyph2778
Encoding: 8333 8333 2778
Width: 3
VWidth: 0
Flags: HMW
LayerCount: 2
Back
Fore
SplineSet
1 3.5 m 1
 1 4 l 1
 1.5 4 l 1
 2 4 l 1
 2 3.5 l 1
 2 3 l 1
 1.5 3 l 1
 1 3 l 1
 1 3.5 l 1
1 -0 m 1
 0.5 -0 l 1
 0 -0 l 1
 0 1.5 l 1
 0 3 l 1
 0.5 3 l 1
 1 3 l 1
 1 1.5 l 1
 1 -0 l 1
1 -0 m 1
 1.5 -0 l 1
 2 -0 l 1
 2 -0.5 l 1
 2 -1 l 1
 1.5 -1 l 1
 1 -1 l 1
 1 -0.5 l 1
 1 -0 l 1
EndSplineSet
EndChar

StartChar: glyph2779
Encoding: 8334 8334 2779
Width: 3
VWidth: 0
Flags: HMW
LayerCount: 2
Back
Fore
SplineSet
0 3.5 m 1
 0 4 l 1
 0.5 4 l 1
 1 4 l 1
 1 3.5 l 1
 1 3 l 1
 0.5 3 l 1
 0 3 l 1
 0 3.5 l 1
1 -0 m 1
 1 1.5 l 1
 1 3 l 1
 1.5 3 l 1
 2 3 l 1
 2 1.5 l 1
 2 -0 l 1
 1.5 -0 l 1
 1 -0 l 1
1 -0 m 1
 1 -0.5 l 1
 1 -1 l 1
 0.5 -1 l 1
 0 -1 l 1
 0 -0.5 l 1
 0 -0 l 1
 0.5 -0 l 1
 1 -0 l 1
EndSplineSet
EndChar

StartChar: glyph2780
Encoding: 8352 8352 2780
Width: 6
VWidth: 0
Flags: HMW
LayerCount: 2
Back
Fore
SplineSet
2 6.5 m 1
 2 7 l 1
 3 7 l 1
 4 7 l 1
 4 6.5 l 1
 4 6 l 1
 3 6 l 1
 2 6 l 1
 2 6.5 l 1
2 6 m 1
 2 5.5 l 1
 2 5 l 1
 2.5 5 l 1
 3 5 l 1
 3 4.5 l 1
 3 4 l 1
 2.5 4 l 1
 2 4 l 1
 2 3.5 l 1
 2 3 l 1
 2.5 3 l 1
 3 3 l 1
 3 2.5 l 1
 3 2 l 1
 2.5 2 l 1
 2 2 l 1
 2 1.5 l 1
 2 1 l 1
 3.5 1 l 1
 5 1 l 1
 5 0.5 l 1
 5 -0 l 1
 2.5 -0 l 1
 0 -0 l 1
 0 0.5 l 1
 0 1 l 1
 0.5 1 l 1
 1 1 l 1
 1 1.5 l 1
 1 2 l 1
 0.5 2 l 1
 0 2 l 1
 0 2.5 l 1
 0 3 l 1
 0.5 3 l 1
 1 3 l 1
 1 3.5 l 1
 1 4 l 1
 0.5 4 l 1
 0 4 l 1
 0 4.5 l 1
 0 5 l 1
 0.5 5 l 1
 1 5 l 1
 1 5.5 l 1
 1 6 l 1
 1.5 6 l 1
 2 6 l 1
4 6 m 1
 4.5 6 l 1
 5 6 l 1
 5 5.5 l 1
 5 5 l 1
 4.5 5 l 1
 4 5 l 1
 4 5.5 l 1
 4 6 l 1
EndSplineSet
EndChar

StartChar: glyph2781
Encoding: 8353 8353 2781
Width: 6
VWidth: 0
Flags: HMW
LayerCount: 2
Back
Fore
SplineSet
2 4.5 m 1
 2 5 l 1
 2.5 5 l 1
 3 5 l 1
 3 4.5 l 1
 3 4 l 1
 3.5 4 l 1
 4 4 l 1
 4 3.5 l 1
 4 3 l 1
 3.5 3 l 1
 3 3 l 1
 3 1 l 1
 3 -1 l 1
 2.5 -1 l 1
 2 -1 l 1
 2 1 l 1
 2 3 l 1
 1.5 3 l 1
 1 3 l 1
 1 1.5 l 1
 1 -0 l 1
 0.5 -0 l 1
 0 -0 l 1
 0 2 l 1
 0 4 l 1
 1 4 l 1
 2 4 l 1
 2 4.5 l 1
4 3 m 1
 4.5 3 l 1
 5 3 l 1
 5 1.5 l 1
 5 -0 l 1
 4.5 -0 l 1
 4 -0 l 1
 4 1.5 l 1
 4 3 l 1
EndSplineSet
EndChar

StartChar: glyph2782
Encoding: 8358 8358 2782
Width: 8
VWidth: 0
Flags: HMW
LayerCount: 2
Back
Fore
SplineSet
4 3.5 m 1
 4 4 l 1
 3 4 l 1
 2 4 l 1
 2 3.5 l 1
 2 3 l 1
 3 3 l 1
 4 3 l 1
 4 3.5 l 1
1 6 m 1
 1 7 l 1
 1.5 7 l 1
 2 7 l 1
 2 6.5 l 1
 2 6 l 1
 2.5 6 l 1
 3 6 l 1
 3 5.5 l 1
 3 5 l 1
 4 5 l 1
 5 5 l 1
 5 6 l 1
 5 7 l 1
 5.5 7 l 1
 6 7 l 1
 6 6 l 1
 6 5 l 1
 6.5 5 l 1
 7 5 l 1
 7 4.5 l 1
 7 4 l 1
 6.5 4 l 1
 6 4 l 1
 6 3.5 l 1
 6 3 l 1
 6.5 3 l 1
 7 3 l 1
 7 2.5 l 1
 7 2 l 1
 6.5 2 l 1
 6 2 l 1
 6 1 l 1
 6 -0 l 1
 5.5 -0 l 1
 5 -0 l 1
 5 1 l 1
 5 2 l 1
 3.5 2 l 1
 2 2 l 1
 2 1 l 1
 2 -0 l 1
 1.5 -0 l 1
 1 -0 l 1
 1 1 l 1
 1 2 l 1
 0.5 2 l 1
 0 2 l 1
 0 2.5 l 1
 0 3 l 1
 0.5 3 l 1
 1 3 l 1
 1 3.5 l 1
 1 4 l 1
 0.5 4 l 1
 0 4 l 1
 0 4.5 l 1
 0 5 l 1
 0.5 5 l 1
 1 5 l 1
 1 6 l 1
EndSplineSet
EndChar

StartChar: glyph2783
Encoding: 8361 8361 2783
Width: 8
VWidth: 0
Flags: HMW
LayerCount: 2
Back
Fore
SplineSet
5 2.5 m 1
 5 3 l 1
 4.5 3 l 1
 4 3 l 1
 4 2.5 l 1
 4 2 l 1
 4.5 2 l 1
 5 2 l 1
 5 2.5 l 1
3 2.5 m 1
 3 3 l 1
 2.5 3 l 1
 2 3 l 1
 2 2.5 l 1
 2 2 l 1
 2.5 2 l 1
 3 2 l 1
 3 2.5 l 1
5 4.5 m 1
 5 5 l 1
 3.5 5 l 1
 2 5 l 1
 2 4.5 l 1
 2 4 l 1
 3.5 4 l 1
 5 4 l 1
 5 4.5 l 1
1 6.5 m 1
 1 7 l 1
 1.5 7 l 1
 2 7 l 1
 2 6.5 l 1
 2 6 l 1
 3.5 6 l 1
 5 6 l 1
 5 6.5 l 1
 5 7 l 1
 5.5 7 l 1
 6 7 l 1
 6 6.5 l 1
 6 6 l 1
 6.5 6 l 1
 7 6 l 1
 7 5.5 l 1
 7 5 l 1
 6.5 5 l 1
 6 5 l 1
 6 4.5 l 1
 6 4 l 1
 6.5 4 l 1
 7 4 l 1
 7 3.5 l 1
 7 3 l 1
 6.5 3 l 1
 6 3 l 1
 6 1.5 l 1
 6 -0 l 1
 5.5 -0 l 1
 5 -0 l 1
 5 0.5 l 1
 5 1 l 1
 4.5 1 l 1
 4 1 l 1
 4 1.5 l 1
 4 2 l 1
 3.5 2 l 1
 3 2 l 1
 3 1.5 l 1
 3 1 l 1
 2.5 1 l 1
 2 1 l 1
 2 0.5 l 1
 2 -0 l 1
 1.5 -0 l 1
 1 -0 l 1
 1 1.5 l 1
 1 3 l 1
 0.5 3 l 1
 0 3 l 1
 0 3.5 l 1
 0 4 l 1
 0.5 4 l 1
 1 4 l 1
 1 4.5 l 1
 1 5 l 1
 0.5 5 l 1
 0 5 l 1
 0 5.5 l 1
 0 6 l 1
 0.5 6 l 1
 1 6 l 1
 1 6.5 l 1
EndSplineSet
EndChar

StartChar: glyph2784
Encoding: 8362 8362 2784
Width: 8
VWidth: 0
Flags: HMW
LayerCount: 2
Back
Fore
SplineSet
0 2.5 m 1
 0 5 l 1
 2 5 l 1
 4 5 l 1
 4 4.5 l 1
 4 4 l 1
 2.5 4 l 1
 1 4 l 1
 1 2 l 1
 1 -0 l 1
 0.5 -0 l 1
 0 -0 l 1
 0 2.5 l 1
6 3 m 1
 6 5 l 1
 6.5 5 l 1
 7 5 l 1
 7 2.5 l 1
 7 -0 l 1
 5 -0 l 1
 3 -0 l 1
 3 0.5 l 1
 3 1 l 1
 4.5 1 l 1
 6 1 l 1
 6 3 l 1
4 4 m 1
 4.5 4 l 1
 5 4 l 1
 5 3 l 1
 5 2 l 1
 4.5 2 l 1
 4 2 l 1
 4 3 l 1
 4 4 l 1
3 1 m 1
 2.5 1 l 1
 2 1 l 1
 2 2 l 1
 2 3 l 1
 2.5 3 l 1
 3 3 l 1
 3 2 l 1
 3 1 l 1
EndSplineSet
EndChar

StartChar: glyph2785
Encoding: 8363 8363 2785
Width: 7
VWidth: 0
Flags: HMW
LayerCount: 2
Back
Fore
SplineSet
4 4.5 m 1
 4 5 l 1
 3.5 5 l 1
 3 5 l 1
 3 4.5 l 1
 3 4 l 1
 3.5 4 l 1
 4 4 l 1
 4 4.5 l 1
4 6.5 m 1
 4 7 l 1
 4.5 7 l 1
 5 7 l 1
 5 6.5 l 1
 5 6 l 1
 5.5 6 l 1
 6 6 l 1
 6 5.5 l 1
 6 5 l 1
 5.5 5 l 1
 5 5 l 1
 5 3 l 1
 5 1 l 1
 3 1 l 1
 1 1 l 1
 1 1.5 l 1
 1 2 l 1
 2.5 2 l 1
 4 2 l 1
 4 2.5 l 1
 4 3 l 1
 3.5 3 l 1
 3 3 l 1
 3 3.5 l 1
 3 4 l 1
 2 4 l 1
 1 4 l 1
 1 3 l 1
 1 2 l 1
 0.5 2 l 1
 0 2 l 1
 0 3 l 1
 0 4 l 1
 0.5 4 l 1
 1 4 l 1
 1 4.5 l 1
 1 5 l 1
 2 5 l 1
 3 5 l 1
 3 5.5 l 1
 3 6 l 1
 3.5 6 l 1
 4 6 l 1
 4 6.5 l 1
0 -0.5 m 1
 0 -0 l 1
 2.5 -0 l 1
 5 -0 l 1
 5 -0.5 l 1
 5 -1 l 1
 2.5 -1 l 1
 0 -1 l 1
 0 -0.5 l 1
EndSplineSet
EndChar

StartChar: glyph2786
Encoding: 8364 8364 2786
Width: 7
VWidth: 0
Flags: HMW
LayerCount: 2
Back
Fore
SplineSet
2 6.5 m 1
 2 7 l 1
 3.5 7 l 1
 5 7 l 1
 5 6.5 l 1
 5 6 l 1
 3.5 6 l 1
 2 6 l 1
 2 6.5 l 1
5 1 m 1
 5 0.5 l 1
 5 -0 l 1
 3.5 -0 l 1
 2 -0 l 1
 2 0.5 l 1
 2 1 l 1
 1.5 1 l 1
 1 1 l 1
 1 1.5 l 1
 1 2 l 1
 0.5 2 l 1
 0 2 l 1
 0 2.5 l 1
 0 3 l 1
 0.5 3 l 1
 1 3 l 1
 1 3.5 l 1
 1 4 l 1
 0.5 4 l 1
 0 4 l 1
 0 4.5 l 1
 0 5 l 1
 0.5 5 l 1
 1 5 l 1
 1 5.5 l 1
 1 6 l 1
 1.5 6 l 1
 2 6 l 1
 2 5.5 l 1
 2 5 l 1
 3 5 l 1
 4 5 l 1
 4 4.5 l 1
 4 4 l 1
 3 4 l 1
 2 4 l 1
 2 3.5 l 1
 2 3 l 1
 3 3 l 1
 4 3 l 1
 4 2.5 l 1
 4 2 l 1
 3 2 l 1
 2 2 l 1
 2 1.5 l 1
 2 1 l 1
 3.5 1 l 1
 5 1 l 1
5 1 m 1
 5 1.5 l 1
 5 2 l 1
 5.5 2 l 1
 6 2 l 1
 6 1.5 l 1
 6 1 l 1
 5.5 1 l 1
 5 1 l 1
5 6 m 1
 5.5 6 l 1
 6 6 l 1
 6 5.5 l 1
 6 5 l 1
 5.5 5 l 1
 5 5 l 1
 5 5.5 l 1
 5 6 l 1
EndSplineSet
EndChar

StartChar: glyph2787
Encoding: 8365 8365 2787
Width: 7
VWidth: 0
Flags: HMW
LayerCount: 2
Back
Fore
SplineSet
1 6 m 1
 1 7 l 1
 1.5 7 l 1
 2 7 l 1
 2 6 l 1
 2 5 l 1
 3 5 l 1
 4 5 l 1
 4 5.5 l 1
 4 6 l 1
 4.5 6 l 1
 5 6 l 1
 5 5.5 l 1
 5 5 l 1
 5.5 5 l 1
 6 5 l 1
 6 4.5 l 1
 6 4 l 1
 5.5 4 l 1
 5 4 l 1
 5 3.5 l 1
 5 3 l 1
 4.5 3 l 1
 4 3 l 1
 4 3.5 l 1
 4 4 l 1
 3 4 l 1
 2 4 l 1
 2 2 l 1
 2 -0 l 1
 1.5 -0 l 1
 1 -0 l 1
 1 2 l 1
 1 4 l 1
 0.5 4 l 1
 0 4 l 1
 0 4.5 l 1
 0 5 l 1
 0.5 5 l 1
 1 5 l 1
 1 6 l 1
5 3 m 1
 5.5 3 l 1
 6 3 l 1
 6 1.5 l 1
 6 -0 l 1
 5.5 -0 l 1
 5 -0 l 1
 5 1.5 l 1
 5 3 l 1
5 6 m 1
 5 6.5 l 1
 5 7 l 1
 5.5 7 l 1
 6 7 l 1
 6 6.5 l 1
 6 6 l 1
 5.5 6 l 1
 5 6 l 1
EndSplineSet
EndChar

